<?xml version="1.0" standalone="no"?>
<!DOCTYPE svg PUBLIC "-//W3C//DTD SVG 1.1//EN" "http://www.w3.org/Graphics/SVG/1.1/DTD/svg11.dtd" >
<svg xmlns="http://www.w3.org/2000/svg" xmlns:xlink="http://www.w3.org/1999/xlink" version="1.1">
<metadata>
Created by FontForge 20161013 at Mon Aug 31 17:44:49 2015
 By ,,,
Copyright 2010, 2012, 2014 Adobe Systems Incorporated (http://www.adobe.com/), with Reserved Font Name `Source'.
</metadata>
<defs>
<font id="SourceSansPro-Bold" horiz-adv-x="0" >
  <font-face 
    font-family="Source Sans Pro"
    font-weight="700"
    font-stretch="normal"
    units-per-em="1000"
    panose-1="2 11 7 3 3 4 3 2 2 4"
    ascent="750"
    descent="-250"
    x-height="496"
    cap-height="652"
    bbox="-457 -316 2157 1009"
    underline-thickness="50"
    underline-position="-200"
    unicode-range="U+0020-1F16B"
  />
<missing-glyph horiz-adv-x="690" 
d="M80 0v660h530v-660h-530zM263 91h164l-39 77l-41 98h-4l-41 -98zM343 414h4l42 95l32 59h-152l31 -59zM178 155l95 185l-95 186v-371zM511 155v371l-94 -186z" />
    <glyph glyph-name="f_f" unicode="ff" horiz-adv-x="657" 
d="M406 0v381h-169v-381h-147v381h-66v109l66 5v23q0 83 46 134t142 51q57 0 103 -18l-27 -109q-25 11 -58 11q-27 0 -43 -17t-16 -51v-23h169v26q0 86 44 138.5t139 52.5q49 0 99 -18l-27 -108q-28 10 -51 10q-57 0 -57 -71v-30h89v-115h-89v-381h-147z" />
    <glyph glyph-name="f_t" unicode="ft" horiz-adv-x="688" 
d="M90 0v381h-66v109l66 5v27q0 86 44 138.5t139 52.5q49 0 99 -18l-27 -108q-28 10 -51 10q-57 0 -57 -71v-30h161l17 132h122v-132h119v-115h-119v-199q0 -79 64 -79q21 0 47 10l23 -107q-59 -18 -110 -18q-171 0 -171 192v201h-153v-381h-147z" />
    <glyph glyph-name="f_f_t" unicode="fft" horiz-adv-x="1004" 
d="M90 0v381h-66v109l66 5v23q0 83 46 134t142 51q57 0 103 -18l-27 -109q-25 11 -58 11q-27 0 -43 -17t-16 -51v-23h169v26q0 86 44 138.5t139 52.5q49 0 99 -18l-27 -108q-28 10 -51 10q-57 0 -57 -71v-30h161l17 132h122v-132h119v-115h-119v-199q0 -79 64 -79
q21 0 47 10l23 -107q-58 -18 -110 -18q-171 0 -171 192v201h-153v-381h-147v381h-169v-381h-147z" />
    <glyph glyph-name=".notdef" horiz-adv-x="690" 
d="M80 0v660h530v-660h-530zM263 91h164l-39 77l-41 98h-4l-41 -98zM343 414h4l42 95l32 59h-152l31 -59zM178 155l95 185l-95 186v-371zM511 155v371l-94 -186z" />
    <glyph glyph-name=".null" 
 />
    <glyph glyph-name="nonmarkingreturn" horiz-adv-x="333" 
 />
    <glyph glyph-name="space" unicode=" " horiz-adv-x="200" 
 />
    <glyph glyph-name="exclam" unicode="!" horiz-adv-x="340" 
d="M122 231l-21 306l-5 133h148l-5 -133l-21 -306h-96zM170 -12q-38 0 -63.5 26.5t-25.5 65.5q0 40 25.5 66.5t63.5 26.5t63.5 -26.5t25.5 -66.5q0 -39 -25.5 -65.5t-63.5 -26.5z" />
    <glyph glyph-name="quotedbl" unicode="&#x22;" horiz-adv-x="537" 
d="M110 354l-29 199l-5 133h148l-5 -133l-29 -199h-80zM347 354l-29 199l-5 133h148l-5 -133l-29 -199h-80z" />
    <glyph glyph-name="numbersign" unicode="#" horiz-adv-x="528" 
d="M86 0l22 187h-74v94h85l14 110h-79v94h91l21 165h84l-20 -165h104l21 165h84l-20 -165h79v-94h-91l-13 -110h84v-94h-95l-23 -187h-85l22 187h-103l-23 -187h-85zM205 281h103l14 110h-104z" />
    <glyph glyph-name="dollar" unicode="$" horiz-adv-x="528" 
d="M215 -110v100q-107 13 -176 76l64 99q78 -58 143 -58q81 0 81 69q0 24 -19.5 44.5t-49 34.5t-63.5 33t-63.5 39t-49 54t-19.5 76q0 73 40.5 122t111.5 63v103h97v-101q82 -12 149 -82l-74 -84q-55 50 -109 50q-74 0 -74 -64q0 -22 19.5 -40.5t49 -31.5t63.5 -31.5
t63.5 -38.5t49 -55.5t19.5 -80.5q0 -74 -40 -125t-116 -67v-104h-97z" />
    <glyph glyph-name="percent" unicode="%" horiz-adv-x="857" 
d="M188 250q-72 0 -117 56t-45 152t45 151t117 55t117.5 -55t45.5 -151t-45.5 -152t-117.5 -56zM188 332q60 0 60 126q0 124 -60 124t-60 -124q0 -126 60 -126zM210 -12l352 676h85l-352 -676h-85zM669 -12q-72 0 -117 56t-45 152t45 151t117 55t117.5 -55t45.5 -151
t-45.5 -152t-117.5 -56zM669 70q60 0 60 126q0 124 -60 124t-60 -124q0 -126 60 -126z" />
    <glyph glyph-name="ampersand" unicode="&#x26;" horiz-adv-x="667" 
d="M242 -12q-102 0 -159.5 53.5t-57.5 132.5q0 63 31.5 105.5t87.5 78.5q-40 75 -40 135q0 72 48.5 121.5t128.5 49.5q73 0 116.5 -40t43.5 -108q0 -57 -36 -99.5t-100 -85.5q54 -63 131 -119q52 67 75 156h134q-37 -122 -109 -220q66 -34 113 -41l-35 -119q-80 16 -167 66
q-89 -66 -205 -66zM225 494q0 -34 21 -78q41 24 62 47t21 53q0 51 -45 51q-25 0 -42 -20t-17 -53zM261 100q41 0 82 26q-80 66 -135 135q-44 -39 -44 -78q0 -37 27 -60t70 -23z" />
    <glyph glyph-name="quotesingle" unicode="'" horiz-adv-x="300" 
d="M110 354l-29 199l-5 133h148l-5 -133l-29 -199h-80z" />
    <glyph glyph-name="parenleft" unicode="(" horiz-adv-x="344" 
d="M204 -179q-132 215 -132 457t132 457l92 -38q-105 -187 -105 -419t105 -419z" />
    <glyph glyph-name="parenright" unicode=")" horiz-adv-x="344" 
d="M140 -179l-92 38q106 186 106 419t-106 419l92 38q132 -215 132 -457t-132 -457z" />
    <glyph glyph-name="asterisk" unicode="*" horiz-adv-x="457" 
d="M148 349l-61 44l59 104l-108 49l23 72l116 -24l13 118h77l13 -119l115 25l24 -72l-108 -49l59 -104l-61 -44l-80 89z" />
    <glyph glyph-name="plus" unicode="+" horiz-adv-x="528" 
d="M210 94v184h-176v104h176v184h108v-184h176v-104h-176v-184h-108z" />
    <glyph glyph-name="comma" unicode="," horiz-adv-x="300" 
d="M76 -194l-30 78q55 19 84.5 51.5t28.5 70.5h-8q-37 0 -63 22.5t-26 60.5q0 37 26.5 60.5t65.5 23.5q49 0 75.5 -36.5t26.5 -102.5q0 -83 -46.5 -142.5t-133.5 -85.5z" />
    <glyph glyph-name="hyphen" unicode="-" horiz-adv-x="332" 
d="M43 201v104h246v-104h-246z" />
    <glyph glyph-name="period" unicode="." horiz-adv-x="300" 
d="M150 -12q-38 0 -63.5 26.5t-25.5 65.5q0 40 25.5 66.5t63.5 26.5t63.5 -26.5t25.5 -66.5q0 -39 -25.5 -65.5t-63.5 -26.5z" />
    <glyph glyph-name="slash" unicode="/" horiz-adv-x="339" 
d="M13 -160l201 870h96l-201 -870h-96z" />
    <glyph glyph-name="zero" unicode="0" horiz-adv-x="528" 
d="M264 -12q-104 0 -165.5 86.5t-61.5 245.5q0 158 61 242.5t166 84.5t166 -84.5t61 -242.5q0 -159 -61.5 -245.5t-165.5 -86.5zM264 102q42 0 65 48.5t23 169.5t-23 167t-65 46t-65 -46t-23 -167q0 -218 88 -218z" />
    <glyph glyph-name="one" unicode="1" horiz-adv-x="528" 
d="M70 0v119h138v367h-119v91q89 17 158 58h108v-516h119v-119h-404z" />
    <glyph glyph-name="two" unicode="2" horiz-adv-x="528" 
d="M37 0v84q76 72 114 109.5t82 87.5t62 86t18 69q0 46 -24 71t-66 25q-52 0 -113 -65l-80 79q49 52 98 76.5t115 24.5q94 0 152 -55.5t58 -146.5q0 -72 -53 -150t-150 -179q64 8 106 8h128v-124h-447z" />
    <glyph glyph-name="three" unicode="3" horiz-adv-x="528" 
d="M243 -12q-144 0 -221 90l68 93q66 -64 139 -64q47 0 75 20t28 55q0 46 -36.5 68.5t-134.5 22.5v104q150 0 150 85q0 33 -20.5 51.5t-57.5 18.5q-55 0 -119 -56l-74 90q94 81 200 81q100 0 159.5 -46t59.5 -128q0 -96 -106 -141v-4q57 -17 91.5 -56.5t34.5 -98.5
q0 -85 -68 -135t-168 -50z" />
    <glyph glyph-name="four" unicode="4" horiz-adv-x="528" 
d="M294 0v152h-275v101l232 382h180v-371h73v-112h-73v-152h-137zM160 264h134v103q0 22 6 142h-4q-16 -35 -52 -107z" />
    <glyph glyph-name="five" unicode="5" horiz-adv-x="528" 
d="M247 -12q-135 0 -224 89l66 93q68 -63 137 -63q50 0 78.5 25.5t28.5 73.5q0 47 -27.5 72.5t-72.5 25.5q-27 0 -45.5 -6.5t-48.5 -25.5l-66 42l18 321h360v-124h-233l-11 -119q33 15 71 15q87 0 144.5 -50.5t57.5 -146.5q0 -102 -68 -162t-165 -60z" />
    <glyph glyph-name="six" unicode="6" horiz-adv-x="528" 
d="M281 -12q-101 0 -170.5 79t-69.5 236q0 168 74 256t183 88q111 0 185 -76l-77 -88q-17 19 -44.5 32t-54.5 13q-124 0 -131 -198q24 30 60 48.5t67 18.5q86 0 137.5 -49.5t51.5 -146.5q0 -96 -61 -154.5t-150 -58.5zM278 98q35 0 57.5 26t22.5 77q0 92 -83 92
q-60 0 -96 -63q17 -132 99 -132z" />
    <glyph glyph-name="seven" unicode="7" horiz-adv-x="528" 
d="M159 0q9 163 45.5 276.5t124.5 234.5h-285v124h442v-90q-55 -66 -88.5 -123.5t-52 -124.5t-26 -130.5t-12.5 -166.5h-148z" />
    <glyph glyph-name="eight" unicode="8" horiz-adv-x="528" 
d="M263 -12q-96 0 -158.5 48.5t-62.5 125.5q0 98 108 156v4q-85 64 -85 150q0 80 56.5 127.5t146.5 47.5q87 0 140 -47.5t53 -126.5q0 -84 -83 -139v-4q110 -60 110 -166q0 -76 -62.5 -126t-162.5 -50zM303 370q39 45 39 93q0 37 -20.5 59.5t-56.5 22.5q-31 0 -51 -19
t-20 -54q0 -36 27 -58.5t82 -43.5zM266 90q38 0 61.5 20.5t23.5 58.5q0 20 -8 35t-31 29.5t-38.5 21.5t-56.5 25q-49 -45 -49 -101q0 -41 28.5 -65t69.5 -24z" />
    <glyph glyph-name="nine" unicode="9" horiz-adv-x="528" 
d="M252 342q60 0 95 63q-17 132 -99 132q-35 0 -57.5 -26t-22.5 -77q0 -92 84 -92zM229 -12q-110 0 -186 76l78 88q16 -19 43.5 -32t54.5 -13q124 0 131 198q-24 -30 -60 -48.5t-67 -18.5q-85 0 -137 49.5t-52 146.5q0 96 61 154.5t150 58.5q101 0 171 -79t70 -236
q0 -168 -74.5 -256t-182.5 -88z" />
    <glyph glyph-name="colon" unicode=":" horiz-adv-x="300" 
d="M150 312q-38 0 -63.5 26.5t-25.5 65.5q0 40 25.5 66.5t63.5 26.5t63.5 -26.5t25.5 -66.5q0 -39 -25.5 -65.5t-63.5 -26.5zM150 -12q-38 0 -63.5 26.5t-25.5 65.5q0 40 25.5 66.5t63.5 26.5t63.5 -26.5t25.5 -66.5q0 -39 -25.5 -65.5t-63.5 -26.5z" />
    <glyph glyph-name="semicolon" unicode=";" horiz-adv-x="300" 
d="M150 312q-38 0 -63.5 26.5t-25.5 65.5q0 40 25.5 66.5t63.5 26.5t63.5 -26.5t25.5 -66.5q0 -39 -25.5 -65.5t-63.5 -26.5zM76 -194l-30 78q55 19 84.5 51.5t28.5 70.5h-8q-37 0 -63 22.5t-26 60.5q0 37 26.5 60.5t65.5 23.5q49 0 75.5 -36.5t26.5 -102.5
q0 -83 -46.5 -142.5t-133.5 -85.5z" />
    <glyph glyph-name="less" unicode="&#x3c;" horiz-adv-x="528" 
d="M494 104l-460 177v102l460 177v-121l-176 -58l-135 -47v-4l135 -47l176 -58v-121z" />
    <glyph glyph-name="equal" unicode="=" horiz-adv-x="528" 
d="M34 394v104h460v-104h-460zM34 162v104h460v-104h-460z" />
    <glyph glyph-name="greater" unicode="&#x3e;" horiz-adv-x="528" 
d="M34 104v121l176 58l135 47v4l-135 47l-176 58v121l460 -177v-102z" />
    <glyph glyph-name="question" unicode="?" horiz-adv-x="463" 
d="M154 231q-7 47 11.5 89.5t44 68.5t48 56.5t22.5 54.5q0 30 -18 46.5t-49 16.5q-45 0 -91 -46l-81 74q79 91 191 91q85 0 137 -43t52 -128q0 -34 -15.5 -64.5t-37 -54t-42 -46.5t-33.5 -52.5t-10 -62.5h-129zM218 -12q-38 0 -63 26.5t-25 65.5q0 40 25 66.5t63 26.5
t63.5 -26.5t25.5 -66.5q0 -39 -25.5 -65.5t-63.5 -26.5z" />
    <glyph glyph-name="at" unicode="@" horiz-adv-x="903" 
d="M428 -172q-76 0 -143.5 23.5t-120.5 69t-84 118.5t-31 166q0 205 131 334.5t320 129.5q161 0 257.5 -99t96.5 -257q0 -128 -70 -201.5t-158 -73.5q-44 0 -75.5 20.5t-39.5 55.5h-2q-21 -29 -55 -47.5t-65 -18.5q-60 0 -96 40.5t-36 109.5q0 95 59 170t143 75q52 0 76 -50
h2l14 42h91l-46 -220q-21 -86 46 -86q47 0 83 50.5t36 129.5q0 117 -67.5 194t-205.5 77q-135 0 -237.5 -104.5t-102.5 -266.5q0 -141 83.5 -216.5t208.5 -75.5q78 0 152 39l32 -80q-89 -48 -196 -48zM420 140q32 0 66 45l24 135q-15 29 -46 29q-42 0 -69 -46t-27 -96
q0 -67 52 -67z" />
    <glyph glyph-name="A" unicode="A" horiz-adv-x="573" 
d="M230 330l-16 -60h139l-15 60q-5 19 -53 210h-4q-37 -159 -51 -210zM-6 0l204 652h177l204 -652h-156l-40 155h-199l-40 -155h-150z" />
    <glyph glyph-name="B" unicode="B" horiz-adv-x="605" 
d="M77 0v652h223q240 0 240 -162q0 -45 -23.5 -85.5t-61.5 -55.5v-4q53 -14 85 -52.5t32 -100.5q0 -95 -70.5 -143.5t-182.5 -48.5h-242zM224 391h69q103 0 103 77q0 38 -24.5 54t-77.5 16h-70v-147zM224 114h83q121 0 121 88q0 42 -29.5 61t-91.5 19h-83v-168z" />
    <glyph glyph-name="C" unicode="C" horiz-adv-x="582" 
d="M349 -12q-130 0 -216.5 88t-86.5 246q0 156 89.5 249t218.5 93q113 0 196 -85l-78 -94q-57 52 -115 52q-69 0 -114.5 -57t-45.5 -153q0 -100 42.5 -156t115.5 -56q70 0 127 61l78 -92q-82 -96 -211 -96z" />
    <glyph glyph-name="D" unicode="D" horiz-adv-x="635" 
d="M77 0v652h184q155 0 241 -80t86 -243t-85.5 -246t-233.5 -83h-192zM224 119h28q185 0 185 210q0 111 -48 157.5t-137 46.5h-28v-414z" />
    <glyph glyph-name="E" unicode="E" horiz-adv-x="548" 
d="M77 0v652h408v-124h-261v-131h222v-123h-222v-150h271v-124h-418z" />
    <glyph glyph-name="F" unicode="F" horiz-adv-x="524" 
d="M77 0v652h411v-124h-264v-151h226v-124h-226v-253h-147z" />
    <glyph glyph-name="G" unicode="G" horiz-adv-x="638" 
d="M365 -12q-140 0 -229.5 87.5t-89.5 246.5q0 157 91.5 249.5t226.5 92.5q122 0 205 -85l-77 -94q-59 52 -123 52q-77 0 -124.5 -56.5t-47.5 -153.5q0 -102 46.5 -157t136.5 -55q45 0 70 20v112h-108v120h238v-300q-36 -35 -93 -57t-122 -22z" />
    <glyph glyph-name="H" unicode="H" horiz-adv-x="674" 
d="M77 0v652h147v-251h225v251h148v-652h-148v272h-225v-272h-147z" />
    <glyph glyph-name="I" unicode="I" horiz-adv-x="301" 
d="M77 0v652h147v-652h-147z" />
    <glyph glyph-name="J" unicode="J" horiz-adv-x="509" 
d="M226 -12q-143 0 -210 118l100 74q35 -65 91 -65q42 0 61.5 25.5t19.5 88.5v423h147v-435q0 -101 -53 -165t-156 -64z" />
    <glyph glyph-name="K" unicode="K" horiz-adv-x="614" 
d="M77 0v652h147v-267h4l194 267h162l-197 -260l233 -392h-161l-159 275l-76 -100v-175h-147z" />
    <glyph glyph-name="L" unicode="L" horiz-adv-x="518" 
d="M77 0v652h147v-528h258v-124h-405z" />
    <glyph glyph-name="M" unicode="M" horiz-adv-x="762" 
d="M77 0v652h161l105 -290q7 -21 20 -63t18 -57h4q6 17 18 58t19 62l103 290h160v-652h-134v239q0 51 19 222h-4l-53 -155l-93 -249h-81l-93 249l-52 155h-4q19 -171 19 -222v-239h-132z" />
    <glyph glyph-name="N" unicode="N" horiz-adv-x="665" 
d="M77 0v652h151l170 -324l64 -144h4q-1 14 -6.5 69t-8.5 94.5t-3 74.5v230h140v-652h-151l-170 325l-64 142h-4q2 -20 7 -71t8 -91t3 -74v-231h-140z" />
    <glyph glyph-name="O" unicode="O" horiz-adv-x="684" 
d="M342 -12q-134 0 -215 91.5t-81 249.5q0 157 81 246t215 89t215 -89t81 -246q0 -158 -81 -249.5t-215 -91.5zM342 115q67 0 106 58t39 156q0 97 -39 152.5t-106 55.5t-106 -55.5t-39 -152.5q0 -98 39 -156t106 -58z" />
    <glyph glyph-name="P" unicode="P" horiz-adv-x="596" 
d="M77 0v652h224q118 0 188.5 -49.5t70.5 -160.5q0 -109 -72 -165t-183 -56h-81v-221h-147zM224 338h72q120 0 120 104q0 50 -31 71.5t-93 21.5h-68v-197z" />
    <glyph glyph-name="Q" unicode="Q" horiz-adv-x="684" 
d="M342 108q67 0 106 58.5t39 162.5q0 97 -39 152.5t-106 55.5t-106 -55.5t-39 -152.5q0 -104 39 -162.5t106 -58.5zM557 -182q-100 0 -173 48.5t-109 128.5q-106 22 -167.5 110t-61.5 224q0 157 81 246t215 89t215 -89t81 -246q0 -129 -55.5 -215.5t-151.5 -113.5
q42 -64 143 -64q37 0 72 11l26 -107q-44 -22 -115 -22z" />
    <glyph glyph-name="R" unicode="R" horiz-adv-x="613" 
d="M77 0v652h235q251 0 251 -203q0 -137 -116 -188l148 -261h-165l-125 235h-81v-235h-147zM224 352h76q119 0 119 97q0 46 -29.5 66t-89.5 20h-76v-183z" />
    <glyph glyph-name="S" unicode="S" horiz-adv-x="556" 
d="M276 -12q-141 0 -241 94l84 101q80 -68 161 -68q91 0 91 63q0 33 -42 55q-11 6 -52 23l-85 36q-57 23 -94 67.5t-37 110.5q0 82 65.5 138t166.5 56q124 0 210 -86l-75 -93q-68 52 -135 52q-38 0 -60.5 -15.5t-22.5 -43.5q0 -25 20.5 -39.5t65.5 -32.5q9 -3 13 -5l84 -34
q129 -52 129 -177q0 -85 -66.5 -143.5t-179.5 -58.5z" />
    <glyph glyph-name="T" unicode="T" horiz-adv-x="556" 
d="M204 0v528h-179v124h506v-124h-179v-528h-148z" />
    <glyph glyph-name="U" unicode="U" horiz-adv-x="665" 
d="M334 -12q-261 0 -261 314v350h148v-365q0 -93 28 -132.5t85 -39.5t86 39.5t29 132.5v365h142v-350q0 -162 -64.5 -238t-192.5 -76z" />
    <glyph glyph-name="V" unicode="V" horiz-adv-x="556" 
d="M190 0l-197 652h156l78 -304q10 -36 26.5 -105t26.5 -104h4q9 35 25.5 103.5t26.5 105.5l77 304h150l-196 -652h-177z" />
    <glyph glyph-name="W" unicode="W" horiz-adv-x="813" 
d="M135 0l-121 652h151l45 -305q4 -33 13 -101.5t13 -104.5h4q26 138 39 206l70 305h125l70 -305q13 -66 39 -206h4q15 117 27 206l45 305h141l-116 -652h-185l-64 296q-12 54 -26 151h-4q-19 -117 -27 -151l-61 -296h-182z" />
    <glyph glyph-name="X" unicode="X" horiz-adv-x="567" 
d="M11 0l181 335l-170 317h164l57 -123q7 -15 47 -105h4q19 52 42 105l52 123h157l-169 -324l180 -328h-164l-65 133q-19 41 -49 107h-4q-1 -2 -44 -107l-61 -133h-158z" />
    <glyph glyph-name="Y" unicode="Y" horiz-adv-x="525" 
d="M189 0v232l-197 420h158l58 -150q3 -9 22.5 -62t30.5 -82h4q5 13 25 64t30 80l59 150h154l-197 -420v-232h-147z" />
    <glyph glyph-name="Z" unicode="Z" horiz-adv-x="541" 
d="M36 0v89l288 439h-261v124h442v-89l-288 -439h291v-124h-472z" />
    <glyph glyph-name="bracketleft" unicode="[" horiz-adv-x="344" 
d="M87 -152v860h211v-78h-101v-704h101v-78h-211z" />
    <glyph glyph-name="backslash" unicode="\" horiz-adv-x="339" 
d="M230 -160l-202 870h96l202 -870h-96z" />
    <glyph glyph-name="bracketright" unicode="]" horiz-adv-x="344" 
d="M46 -152v78h102v704h-102v78h211v-860h-211z" />
    <glyph glyph-name="asciicircum" unicode="^" horiz-adv-x="528" 
d="M50 274l155 396h118l155 -396h-121l-46 128l-45 135h-4l-45 -135l-46 -128h-121z" />
    <glyph glyph-name="underscore" unicode="_" horiz-adv-x="500" 
d="M12 -140v83h476v-83h-476z" />
    <glyph glyph-name="grave" unicode="`" horiz-adv-x="555" 
d="M268 572l-181 157l99 97l154 -182z" />
    <glyph glyph-name="a" unicode="a" horiz-adv-x="527" 
d="M190 -12q-67 0 -107.5 43t-40.5 107q0 79 66.5 122.5t212.5 58.5q-5 72 -78 72q-54 0 -131 -45l-53 97q108 65 212 65q197 0 197 -224v-284h-120l-10 51h-4q-72 -63 -144 -63zM240 102q39 0 81 42v87q-138 -19 -138 -82q0 -47 57 -47z" />
    <glyph glyph-name="b" unicode="b" horiz-adv-x="573" 
d="M325 -12q-70 0 -129 65h-4l-12 -53h-115v701h147v-172l-4 -76q61 55 131 55q90 0 142.5 -68.5t52.5 -182.5q0 -123 -62 -196t-147 -73zM291 108q41 0 66.5 36.5t25.5 109.5q0 134 -86 134q-44 0 -85 -45v-203q35 -32 79 -32z" />
    <glyph glyph-name="c" unicode="c" horiz-adv-x="467" 
d="M281 -12q-107 0 -176 69.5t-69 190.5q0 119 75 189.5t183 70.5q82 0 145 -53l-69 -95q-35 29 -67 29q-53 0 -84.5 -38t-31.5 -103q0 -64 31 -102.5t80 -38.5q42 0 89 36l58 -96q-67 -59 -164 -59z" />
    <glyph glyph-name="d" unicode="d" horiz-adv-x="573" 
d="M242 -12q-93 0 -148 69.5t-55 190.5q0 117 61.5 188.5t144.5 71.5q67 0 122 -52l-6 76v169h147v-701h-120l-10 49h-4q-61 -61 -132 -61zM280 108q48 0 81 45v203q-35 32 -82 32q-38 0 -63.5 -35.5t-25.5 -102.5q0 -142 90 -142z" />
    <glyph glyph-name="e" unicode="e" horiz-adv-x="518" 
d="M287 -12q-109 0 -180 70t-71 190q0 116 70 188t164 72q102 0 156.5 -66t54.5 -172q0 -41 -6 -65h-297q9 -52 43.5 -78.5t85.5 -26.5q53 0 107 33l49 -89q-82 -56 -176 -56zM177 302h179q0 94 -83 94q-36 0 -62.5 -24t-33.5 -70z" />
    <glyph glyph-name="f" unicode="f" horiz-adv-x="341" 
d="M90 0v381h-66v109l66 5v27q0 86 44 138.5t139 52.5q49 0 99 -18l-27 -108q-28 10 -51 10q-57 0 -57 -71v-30h89v-115h-89v-381h-147z" />
    <glyph glyph-name="g" unicode="g" horiz-adv-x="534" 
d="M242 -211q-93 0 -150.5 31.5t-57.5 94.5q0 60 71 100v4q-46 30 -46 84q0 55 56 93v4q-29 20 -48 54t-19 75q0 85 59.5 132t145.5 47q44 0 77 -12h181v-107h-79q16 -27 16 -65q0 -82 -54.5 -124.5t-140.5 -42.5q-29 0 -60 10q-18 -15 -18 -37q0 -37 75 -37h80
q189 0 189 -126q0 -78 -75.5 -128t-201.5 -50zM253 246q30 0 49 21.5t19 61.5q0 38 -19 59t-49 21t-49 -20.5t-19 -59.5q0 -40 19 -61.5t49 -21.5zM265 -119q49 0 81.5 17.5t32.5 43.5q0 22 -18.5 30.5t-57.5 8.5h-51q-46 0 -70 6q-27 -24 -27 -49q0 -27 29.5 -42t80.5 -15z
" />
    <glyph glyph-name="h" unicode="h" horiz-adv-x="571" 
d="M65 0v701h147v-172l-7 -89q76 68 153 68q154 0 154 -200v-308h-147v289q0 53 -14.5 73.5t-46.5 20.5q-26 0 -46 -11t-46 -37v-335h-147z" />
    <glyph glyph-name="i" unicode="i" horiz-adv-x="276" 
d="M65 0v496h147v-496h-147zM138 569q-37 0 -61 21.5t-24 55.5t24 55t61 21q38 0 61.5 -21t23.5 -55t-24 -55.5t-61 -21.5z" />
    <glyph glyph-name="j" unicode="j" horiz-adv-x="278" 
d="M36 -196q-52 0 -87 14l26 108q23 -7 39 -7q29 0 40.5 19t11.5 61v497h147v-493q0 -199 -177 -199zM140 569q-37 0 -61 21.5t-24 55.5t24 55t61 21t61 -21t24 -55t-24 -55.5t-61 -21.5z" />
    <glyph glyph-name="k" unicode="k" horiz-adv-x="548" 
d="M65 0v701h143v-402h4l157 197h160l-174 -204l187 -292h-159l-112 193l-63 -71v-122h-143z" />
    <glyph glyph-name="l" unicode="l" horiz-adv-x="286" 
d="M200 -12q-135 0 -135 166v547h147v-553q0 -41 26 -41q10 0 18 2l18 -109q-27 -12 -74 -12z" />
    <glyph glyph-name="m" unicode="m" horiz-adv-x="857" 
d="M65 0v496h120l10 -64h4q76 76 150 76q98 0 137 -83q39 40 75 61.5t81 21.5q155 0 155 -200v-308h-147v289q0 53 -14.5 73.5t-46.5 20.5q-37 0 -85 -48v-335h-147v289q0 53 -14.5 73.5t-46.5 20.5q-37 0 -84 -48v-335h-147z" />
    <glyph glyph-name="n" unicode="n" horiz-adv-x="572" 
d="M65 0v496h120l10 -63h4q79 75 159 75q154 0 154 -200v-308h-147v289q0 53 -14.5 73.5t-46.5 20.5q-26 0 -46 -11t-46 -37v-335h-147z" />
    <glyph glyph-name="o" unicode="o" horiz-adv-x="555" 
d="M278 -12q-100 0 -171 70.5t-71 189.5t71 189.5t171 70.5q99 0 170 -70.5t71 -189.5t-71 -189.5t-170 -70.5zM278 107q44 0 67.5 37.5t23.5 103.5t-23.5 103.5t-67.5 37.5q-45 0 -68 -37.5t-23 -103.5t23 -103.5t68 -37.5z" />
    <glyph glyph-name="p" unicode="p" horiz-adv-x="573" 
d="M65 -184v680h120l10 -49h4q68 61 141 61q90 0 142 -68.5t52 -183.5q0 -122 -62 -195t-147 -73q-63 0 -118 52l5 -79v-145h-147zM291 108q41 0 66.5 36.5t25.5 109.5q0 134 -86 134q-43 0 -85 -45v-203q35 -32 79 -32z" />
    <glyph glyph-name="q" unicode="q" horiz-adv-x="573" 
d="M361 -184v151l6 76q-57 -55 -125 -55q-93 0 -148 69.5t-55 190.5q0 117 61.5 188.5t144.5 71.5q75 0 132 -61h4l12 49h115v-680h-147zM280 108q48 0 81 45v203q-35 32 -82 32q-38 0 -63.5 -35.5t-25.5 -102.5q0 -142 90 -142z" />
    <glyph glyph-name="r" unicode="r" horiz-adv-x="398" 
d="M65 0v496h120l10 -87h4q26 49 63.5 74t77.5 25q36 0 59 -10l-24 -127q-29 8 -54 8q-31 0 -61 -22t-48 -69v-288h-147z" />
    <glyph glyph-name="s" unicode="s" horiz-adv-x="443" 
d="M211 -12q-48 0 -100 19t-90 50l66 92q69 -52 128 -52q63 0 63 42q0 5 -1.5 10t-5.5 9.5t-7.5 8t-11 7.5t-12.5 7t-14.5 7t-15 6t-16.5 6.5t-17 6.5q-131 50 -131 146q0 69 52 112t138 43q90 0 175 -63l-66 -88q-58 42 -105 42q-56 0 -56 -39q0 -7 2.5 -12.5t8.5 -11
t11 -9t16 -8t17 -7t21 -8t21 -7.5q61 -22 97.5 -55t36.5 -94q0 -70 -53.5 -115t-150.5 -45z" />
    <glyph glyph-name="t" unicode="t" horiz-adv-x="383" 
d="M256 -12q-171 0 -171 192v201h-68v109l76 6l17 132h122v-132h119v-115h-119v-199q0 -79 64 -79q21 0 47 10l23 -107q-58 -18 -110 -18z" />
    <glyph glyph-name="u" unicode="u" horiz-adv-x="568" 
d="M214 -12q-154 0 -154 200v308h147v-289q0 -52 14.5 -73t47.5 -21q27 0 46.5 12.5t41.5 42.5v328h147v-496h-120l-11 69h-3q-68 -81 -156 -81z" />
    <glyph glyph-name="v" unicode="v" horiz-adv-x="523" 
d="M179 0l-167 496h148l64 -234q13 -49 39 -153h4q17 75 38 153l65 234h141l-162 -496h-170z" />
    <glyph glyph-name="w" unicode="w" horiz-adv-x="776" 
d="M148 0l-124 496h146l48 -230q4 -25 11 -74t11 -73h4q20 113 29 147l55 230h127l56 -230q9 -36 31 -147h4q4 25 11 73.5t12 73.5l47 230h136l-119 -496h-172l-45 198q-11 50 -27 145h-4q-22 -130 -25 -145l-44 -198h-168z" />
    <glyph glyph-name="x" unicode="x" horiz-adv-x="514" 
d="M14 0l152 258l-143 238h158l44 -80q6 -14 42 -85h4q6 16 18.5 46.5t15.5 38.5l34 80h152l-144 -255l153 -241h-158l-48 82q-8 14 -23.5 43t-23.5 43h-4q-5 -12 -18 -41t-20 -45l-39 -82h-152z" />
    <glyph glyph-name="y" unicode="y" horiz-adv-x="521" 
d="M120 -194q-37 0 -70 10l26 112q27 -6 33 -6q65 0 87 65l7 26l-191 483h148l71 -213q11 -35 39 -141h4q22 94 34 141l60 213h141l-172 -501q-37 -99 -85 -144t-132 -45z" />
    <glyph glyph-name="z" unicode="z" horiz-adv-x="460" 
d="M38 0v79l208 302h-185v115h368v-78l-208 -303h215v-115h-398z" />
    <glyph glyph-name="braceleft" unicode="{" horiz-adv-x="344" 
d="M235 -152q-68 0 -98 31.5t-30 110.5q0 36 5 88t5 83q0 30 -20.5 51.5t-65.5 22.5v86q45 1 65.5 22.5t20.5 51.5q0 31 -5 83t-5 88q0 79 30 110.5t98 31.5h63v-78h-19q-31 0 -42 -14.5t-11 -55.5q0 -26 2 -79t2 -84q0 -55 -17.5 -81.5t-56.5 -35.5v-4q39 -9 56.5 -35.5
t17.5 -81.5q0 -31 -2 -84t-2 -79q0 -41 11 -55.5t42 -14.5h19v-78h-63z" />
    <glyph glyph-name="bar" unicode="|" horiz-adv-x="268" 
d="M86 -250v1000h96v-1000h-96z" />
    <glyph glyph-name="braceright" unicode="}" horiz-adv-x="344" 
d="M46 -152v78h19q31 0 42 14.5t11 55.5q0 26 -2 79t-2 84q0 55 17.5 81.5t56.5 35.5v4q-39 9 -56.5 35.5t-17.5 81.5q0 31 2 84t2 79q0 41 -11 55.5t-42 14.5h-19v78h63q68 0 98 -31.5t30 -110.5q0 -36 -5 -88t-5 -83q0 -30 20.5 -51.5t65.5 -22.5v-86q-45 -1 -65.5 -22.5
t-20.5 -51.5q0 -31 5 -83t5 -88q0 -79 -30 -110.5t-98 -31.5h-63z" />
    <glyph glyph-name="asciitilde" unicode="~" horiz-adv-x="528" 
d="M349 240q-35 0 -66.5 19t-57.5 38t-48 19q-39 0 -72 -58l-76 59q67 103 150 103q35 0 66.5 -19t57.5 -38t48 -19q39 0 72 58l76 -59q-67 -103 -150 -103z" />
    <glyph glyph-name="uni00A0" unicode="&#xa0;" horiz-adv-x="208" 
 />
    <glyph glyph-name="exclamdown" unicode="&#xa1;" horiz-adv-x="340" 
d="M96 -174l5 133l21 306h96l21 -306l5 -133h-148zM170 323q-38 0 -63.5 26.5t-25.5 66.5q0 39 25.5 65.5t63.5 26.5t63.5 -26.5t25.5 -65.5q0 -40 -25.5 -66.5t-63.5 -26.5z" />
    <glyph glyph-name="cent" unicode="&#xa2;" horiz-adv-x="528" 
d="M203 307q0 -94 72 -125v250q-72 -32 -72 -125zM275 -41v95q-99 13 -157 79.5t-58 173.5q0 103 59.5 169t155.5 82v97h81v-93q77 -7 124 -56l-67 -90q-30 24 -57 27v-272q36 6 72 35l59 -93q-57 -49 -131 -59v-95h-81z" />
    <glyph glyph-name="sterling" unicode="&#xa3;" horiz-adv-x="528" 
d="M48 0v91q47 21 76.5 61.5t29.5 91.5q0 9 -2 27h-100v86l68 5h6q-16 48 -16 80q0 93 60 149t154 56q103 0 173 -81l-80 -80q-35 42 -79 42q-41 0 -64 -23.5t-23 -70.5q0 -28 11 -72h148v-91h-129q2 -18 2 -28q0 -64 -45 -115v-4h259v-124h-449z" />
    <glyph glyph-name="currency" unicode="&#xa4;" horiz-adv-x="528" 
d="M93 83l-73 74l61 62q-34 46 -34 111q0 63 33 109l-60 62l73 74l69 -70q48 25 102 25q52 0 102 -25l69 70l73 -74l-61 -62q34 -45 34 -109q0 -62 -34 -111l61 -62l-73 -74l-70 71q-47 -24 -101 -24t-101 24zM264 232q37 0 61.5 27t24.5 71t-24.5 71t-61.5 27t-61.5 -27
t-24.5 -71t24.5 -71t61.5 -27z" />
    <glyph glyph-name="yen" unicode="&#xa5;" horiz-adv-x="528" 
d="M190 0v147h-153v70h153v55h-153v70h122l-147 293h151l51 -133q32 -88 50 -131h4q7 17 23.5 62t26.5 69l50 133h148l-147 -293h122v-70h-154v-55h154v-70h-154v-147h-147z" />
    <glyph glyph-name="brokenbar" unicode="&#xa6;" horiz-adv-x="268" 
d="M86 312v438h96v-438h-96zM86 -250v454h96v-454h-96z" />
    <glyph glyph-name="section" unicode="&#xa7;" horiz-adv-x="528" 
d="M161 337q0 -22 17.5 -40.5t38 -29t58.5 -27.5t58 -27q34 21 34 59q0 18 -9.5 32.5t-29 26.5t-38 21t-47.5 21.5t-47 21.5q-35 -23 -35 -58zM240 -84q-57 0 -109 21.5t-85 62.5l85 75q49 -51 109 -51t60 43q0 18 -19.5 33.5t-48.5 26.5t-63.5 28.5t-63.5 37t-48.5 54.5
t-19.5 79q0 37 21.5 71t58.5 57q-29 34 -29 83q0 69 47.5 111t130.5 42q97 0 180 -65l-67 -92q-55 48 -105 48q-54 0 -54 -39q0 -19 28 -36t68 -34t79.5 -39t67.5 -60.5t28 -88.5q0 -83 -82 -133q23 -35 23 -77q0 -70 -50.5 -114t-141.5 -44z" />
    <glyph glyph-name="dieresis" unicode="&#xa8;" horiz-adv-x="555" 
d="M169 569q-31 0 -51.5 20.5t-20.5 51.5q0 30 20.5 50.5t51.5 20.5t51 -20.5t20 -50.5q0 -31 -20 -51.5t-51 -20.5zM387 569q-31 0 -51 20.5t-20 51.5q0 30 20 50.5t51 20.5t51.5 -20.5t20.5 -50.5q0 -31 -20.5 -51.5t-51.5 -20.5z" />
    <glyph glyph-name="copyright" unicode="&#xa9;" horiz-adv-x="750" 
d="M375 -9q-138 0 -234 92t-96 242t96 240t234 90t233.5 -90t95.5 -240q0 -151 -95.5 -242.5t-233.5 -91.5zM375 52q112 0 187 76t75 197t-75 195.5t-187 74.5t-187 -74.5t-75 -195.5t75 -197t187 -76zM387 127q-85 0 -139 53.5t-54 143.5q0 85 57 138.5t136 53.5
q73 0 132 -59l-55 -61q-32 34 -68 34q-46 0 -71.5 -30t-25.5 -76q0 -51 25 -81t67 -30q37 0 80 34l48 -68q-66 -52 -132 -52z" />
    <glyph glyph-name="ordfeminine" unicode="&#xaa;" horiz-adv-x="359" 
d="M130 367q-45 0 -73 29t-28 71q0 53 44.5 82t142.5 38q-5 44 -49 44q-34 0 -90 -30l-37 68q74 44 145 44q65 0 100 -37.5t35 -111.5v-189h-83l-10 34h-4q-42 -42 -93 -42zM165 446q23 0 51 26v55q-88 -9 -88 -51q0 -30 37 -30z" />
    <glyph glyph-name="guillemotleft" unicode="&#xab;" horiz-adv-x="480" 
d="M183 56l-134 144v104l134 144l55 -44l-111 -152l111 -152zM371 56l-134 144v104l134 144l55 -44l-111 -152l111 -152z" />
    <glyph glyph-name="logicalnot" unicode="&#xac;" horiz-adv-x="528" 
d="M386 94v184h-352v104h460v-288h-108z" />
    <glyph glyph-name="uni00AD" unicode="&#xad;" horiz-adv-x="332" 
d="M43 201v104h246v-104h-246z" />
    <glyph glyph-name="registered" unicode="&#xae;" horiz-adv-x="462" 
d="M231 311q-84 0 -141.5 57.5t-57.5 144.5t57.5 144.5t141.5 57.5q83 0 140.5 -57.5t57.5 -144.5t-57.5 -144.5t-140.5 -57.5zM231 360q64 0 103.5 42t39.5 111t-39.5 111t-103.5 42t-104 -42t-40 -111t40 -111t104 -42zM150 416v197h89q36 0 58.5 -17t22.5 -49
q0 -37 -35 -54l41 -77h-60l-30 60h-29v-60h-57zM207 516h21q14 0 22 8t8 20q0 26 -30 26h-21v-54z" />
    <glyph glyph-name="macron" unicode="&#xaf;" horiz-adv-x="555" 
d="M130 592v93h296v-93h-296z" />
    <glyph glyph-name="degree" unicode="&#xb0;" horiz-adv-x="365" 
d="M183 398q-61 0 -102.5 41t-41.5 103t41.5 103t102.5 41t103 -41t42 -103t-42 -103t-103 -41zM183 468q30 0 48.5 20.5t18.5 53.5q0 32 -18.5 52.5t-48.5 20.5q-29 0 -48 -20.5t-19 -52.5q0 -33 19 -53.5t48 -20.5z" />
    <glyph glyph-name="plusminus" unicode="&#xb1;" horiz-adv-x="528" 
d="M210 158v136h-176v104h176v168h108v-168h176v-104h-176v-136h-108zM34 0v104h460v-104h-460z" />
    <glyph glyph-name="two.sups" unicode="&#xb2;" horiz-adv-x="376" 
d="M45 375v58q88 72 129.5 116t41.5 78q0 29 -15 45t-42 16q-35 0 -71 -47l-61 56q60 80 149 80q66 0 105 -35t39 -97q0 -30 -16.5 -63t-34.5 -55.5t-53 -61.5h118v-90h-289z" />
    <glyph glyph-name="three.sups" unicode="&#xb3;" horiz-adv-x="376" 
d="M186 363q-106 0 -159 79l65 51q35 -48 83 -48q24 0 40 12.5t16 34.5q0 51 -93 51v62q79 0 79 48q0 19 -13 30.5t-36 11.5q-32 0 -64 -39l-61 54q33 35 66 51t78 16q56 0 96 -30t40 -79q0 -57 -57 -90q71 -28 71 -94q0 -53 -44.5 -87t-106.5 -34z" />
    <glyph glyph-name="acute" unicode="&#xb4;" horiz-adv-x="555" 
d="M288 572l-72 72l154 182l99 -97z" />
    <glyph glyph-name="uni00B5" unicode="&#xb5;" horiz-adv-x="594" 
d="M65 -177v673h147v-289q0 -51 14.5 -72.5t46.5 -21.5q50 0 85 65v318h148q-1 -30 -5.5 -164.5t-4.5 -182.5q0 -42 44 -42q16 0 32 6l17 -109q-37 -16 -87 -16q-104 0 -128 83h-4q-37 -78 -105 -78q-43 0 -62 23q1 -109 10 -193h-148z" />
    <glyph glyph-name="paragraph" unicode="&#xb6;" horiz-adv-x="636" 
d="M393 -80v732h147v-732h-147zM297 197q-112 0 -185 61t-73 171q0 118 69.5 170.5t184.5 52.5h44v-455h-40z" />
    <glyph glyph-name="periodcentered" unicode="&#xb7;" horiz-adv-x="300" 
d="M150 228q-38 0 -63.5 26.5t-25.5 65.5q0 40 25.5 66.5t63.5 26.5t63.5 -26.5t25.5 -66.5q0 -39 -25.5 -65.5t-63.5 -26.5z" />
    <glyph glyph-name="cedilla" unicode="&#xb8;" horiz-adv-x="555" 
d="M177 -239l-11 59q58 3 80.5 13t22.5 31q0 32 -77 42l48 98h86l-28 -65q39 -9 57.5 -26.5t18.5 -48.5q0 -97 -197 -103z" />
    <glyph glyph-name="one.sups" unicode="&#xb9;" horiz-adv-x="376" 
d="M165 375v281h-89v66q64 9 112 43h86v-390h-109z" />
    <glyph glyph-name="ordmasculine" unicode="&#xba;" horiz-adv-x="373" 
d="M186 367q-67 0 -114.5 47t-47.5 125q0 79 47.5 126.5t114.5 47.5t114.5 -47.5t47.5 -126.5q0 -78 -47.5 -125t-114.5 -47zM186 449q57 0 57 90q0 92 -57 92q-56 0 -56 -92q0 -90 56 -90z" />
    <glyph glyph-name="guillemotright" unicode="&#xbb;" horiz-adv-x="480" 
d="M109 56l-55 44l111 152l-111 152l55 44l134 -144v-104zM297 56l-55 44l111 152l-111 152l55 44l134 -144v-104z" />
    <glyph glyph-name="onequarter" unicode="&#xbc;" horiz-adv-x="809" 
d="M135 262v281h-89v66q64 9 112 43h86v-390h-109zM185 -12l352 676h85l-352 -676h-85zM647 0v87h-179v54l141 249h134v-233h58v-70h-58v-87h-96zM567 157h80v41l6 117h-4l-40 -77z" />
    <glyph glyph-name="onehalf" unicode="&#xbd;" horiz-adv-x="846" 
d="M135 262v281h-89v66q64 9 112 43h86v-390h-109zM170 -12l352 676h85l-352 -676h-85zM514 0v58q88 72 129.5 116t41.5 78q0 29 -15 45t-42 16q-35 0 -71 -47l-61 56q60 80 149 80q66 0 105 -35t39 -97q0 -30 -16.5 -63t-34.5 -55.5t-53 -61.5h118v-90h-289z" />
    <glyph glyph-name="threequarters" unicode="&#xbe;" horiz-adv-x="818" 
d="M183 250q-106 0 -159 79l65 51q35 -48 83 -48q24 0 40 12.5t16 34.5q0 51 -93 51v62q79 0 79 48q0 19 -13 30.5t-36 11.5q-32 0 -64 -39l-61 54q33 35 66 51t78 16q56 0 96 -30t40 -79q0 -57 -57 -90q71 -28 71 -94q0 -53 -44.5 -87t-106.5 -34zM207 -12l352 676h85
l-352 -676h-85zM655 0v87h-179v54l141 249h134v-233h58v-70h-58v-87h-96zM575 157h80v41l6 117h-4l-40 -77z" />
    <glyph glyph-name="questiondown" unicode="&#xbf;" horiz-adv-x="463" 
d="M232 -186q-85 0 -137.5 43t-52.5 129q0 34 15.5 64.5t37 53.5t42.5 46.5t34 52.5t10 62h128q7 -47 -11.5 -89.5t-44 -68.5t-48 -56.5t-22.5 -54.5q0 -30 18.5 -46.5t48.5 -16.5q45 0 91 46l81 -74q-81 -91 -190 -91zM245 323q-38 0 -63.5 26.5t-25.5 66.5q0 39 25.5 65.5
t63.5 26.5t63.5 -26.5t25.5 -65.5q0 -40 -25.5 -66.5t-63.5 -26.5z" />
    <glyph glyph-name="Agrave" unicode="&#xc0;" horiz-adv-x="573" 
d="M230 330l-16 -60h139l-15 60q-5 19 -53 210h-4q-37 -159 -51 -210zM-6 0l204 652h177l204 -652h-156l-40 155h-199l-40 -155h-150zM293 680l-183 119l78 95l171 -140z" />
    <glyph glyph-name="Aacute" unicode="&#xc1;" horiz-adv-x="573" 
d="M230 330l-16 -60h139l-15 60q-5 19 -53 210h-4q-37 -159 -51 -210zM-6 0l204 652h177l204 -652h-156l-40 155h-199l-40 -155h-150zM273 680l-66 74l171 140l78 -95z" />
    <glyph glyph-name="Acircumflex" unicode="&#xc2;" horiz-adv-x="573" 
d="M230 330l-16 -60h139l-15 60q-5 19 -53 210h-4q-37 -159 -51 -210zM-6 0l204 652h177l204 -652h-156l-40 155h-199l-40 -155h-150zM113 724l90 111h160l90 -111l-64 -39l-104 84h-4l-104 -84z" />
    <glyph glyph-name="Atilde" unicode="&#xc3;" horiz-adv-x="573" 
d="M230 330l-16 -60h139l-15 60q-5 19 -53 210h-4q-37 -159 -51 -210zM-6 0l204 652h177l204 -652h-156l-40 155h-199l-40 -155h-150zM354 692q-40 0 -82.5 29t-54.5 29q-32 0 -37 -49l-95 7q4 73 38 108.5t89 35.5q40 0 82.5 -29t54.5 -29q32 0 37 49l95 -7
q-4 -72 -38 -108t-89 -36z" />
    <glyph glyph-name="Adieresis" unicode="&#xc4;" horiz-adv-x="573" 
d="M230 330l-16 -60h139l-15 60q-5 19 -53 210h-4q-37 -159 -51 -210zM-6 0l204 652h177l204 -652h-156l-40 155h-199l-40 -155h-150zM172 700q-31 0 -50.5 20t-19.5 50t19.5 50t50.5 20t50.5 -20t19.5 -50t-19.5 -50t-50.5 -20zM394 700q-31 0 -50.5 20t-19.5 50t19.5 50
t50.5 20t50.5 -20t19.5 -50t-19.5 -50t-50.5 -20z" />
    <glyph glyph-name="Aring" unicode="&#xc5;" horiz-adv-x="573" 
d="M230 330l-16 -60h139l-15 60q-5 19 -53 210h-4q-37 -159 -51 -210zM-6 0l204 652h177l204 -652h-156l-40 155h-199l-40 -155h-150zM283 697q-51 0 -82.5 27t-31.5 72t31.5 71.5t82.5 26.5t82.5 -26.5t31.5 -71.5t-31.5 -72t-82.5 -27zM283 752q18 0 30 12t12 32
q0 19 -12 31t-30 12t-30 -12t-12 -31q0 -20 12 -32t30 -12z" />
    <glyph glyph-name="AE" unicode="&#xc6;" horiz-adv-x="845" 
d="M303 356l-42 -93h125v278h-4q-66 -157 -79 -185zM-14 0l310 652h487v-124h-250v-131h211v-123h-211v-150h260v-124h-407v149h-177l-68 -149h-155z" />
    <glyph glyph-name="Ccedilla" unicode="&#xc7;" horiz-adv-x="582" 
d="M248 -239l-11 59q58 3 80.5 13t22.5 31q0 32 -77 42l42 85q-114 15 -186.5 101t-72.5 230q0 156 89.5 249t218.5 93q113 0 196 -85l-78 -94q-57 52 -115 52q-69 0 -114.5 -57t-45.5 -153q0 -100 42.5 -156t115.5 -56q70 0 127 61l78 -92q-69 -80 -169 -93l-22 -52
q39 -9 57.5 -26.5t18.5 -48.5q0 -97 -197 -103z" />
    <glyph glyph-name="Egrave" unicode="&#xc8;" horiz-adv-x="548" 
d="M77 0v652h408v-124h-261v-131h222v-123h-222v-150h271v-124h-418zM298 680l-183 119l78 95l171 -140z" />
    <glyph glyph-name="Eacute" unicode="&#xc9;" horiz-adv-x="548" 
d="M77 0v652h408v-124h-261v-131h222v-123h-222v-150h271v-124h-418zM278 680l-66 74l171 140l78 -95z" />
    <glyph glyph-name="Ecircumflex" unicode="&#xca;" horiz-adv-x="548" 
d="M77 0v652h408v-124h-261v-131h222v-123h-222v-150h271v-124h-418zM118 724l90 111h160l90 -111l-64 -39l-104 84h-4l-104 -84z" />
    <glyph glyph-name="Edieresis" unicode="&#xcb;" horiz-adv-x="548" 
d="M77 0v652h408v-124h-261v-131h222v-123h-222v-150h271v-124h-418zM177 700q-31 0 -50.5 20t-19.5 50t19.5 50t50.5 20t50.5 -20t19.5 -50t-19.5 -50t-50.5 -20zM399 700q-31 0 -50.5 20t-19.5 50t19.5 50t50.5 20t50.5 -20t19.5 -50t-19.5 -50t-50.5 -20z" />
    <glyph glyph-name="Igrave" unicode="&#xcc;" horiz-adv-x="301" 
d="M77 0v652h147v-652h-147zM161 680l-183 119l78 95l171 -140z" />
    <glyph glyph-name="Iacute" unicode="&#xcd;" horiz-adv-x="301" 
d="M77 0v652h147v-652h-147zM141 680l-66 74l171 140l78 -95z" />
    <glyph glyph-name="Icircumflex" unicode="&#xce;" horiz-adv-x="301" 
d="M77 0v652h147v-652h-147zM-19 724l90 111h160l90 -111l-64 -39l-104 84h-4l-104 -84z" />
    <glyph glyph-name="Idieresis" unicode="&#xcf;" horiz-adv-x="301" 
d="M77 0v652h147v-652h-147zM40 700q-31 0 -50.5 20t-19.5 50t19.5 50t50.5 20t50.5 -20t19.5 -50t-19.5 -50t-50.5 -20zM262 700q-31 0 -50.5 20t-19.5 50t19.5 50t50.5 20t50.5 -20t19.5 -50t-19.5 -50t-50.5 -20z" />
    <glyph glyph-name="Eth" unicode="&#xd0;" horiz-adv-x="660" 
d="M26 301v66l76 5v280h184q155 0 241 -80t86 -243t-85.5 -246t-233.5 -83h-192v301h-76zM249 119h28q185 0 185 210q0 111 -48 157.5t-137 46.5h-28v-161h125v-71h-125v-182z" />
    <glyph glyph-name="Ntilde" unicode="&#xd1;" horiz-adv-x="665" 
d="M77 0v652h151l170 -324l64 -144h4q-1 14 -6.5 69t-8.5 94.5t-3 74.5v230h140v-652h-151l-170 325l-64 142h-4q2 -20 7 -71t8 -91t3 -74v-231h-140zM404 692q-40 0 -82.5 29t-54.5 29q-32 0 -37 -49l-95 7q4 73 38 108.5t89 35.5q40 0 82.5 -29t54.5 -29q32 0 37 49l95 -7
q-4 -72 -38 -108t-89 -36z" />
    <glyph glyph-name="Ograve" unicode="&#xd2;" horiz-adv-x="684" 
d="M342 -12q-134 0 -215 91.5t-81 249.5q0 157 81 246t215 89t215 -89t81 -246q0 -158 -81 -249.5t-215 -91.5zM342 115q67 0 106 58t39 156q0 97 -39 152.5t-106 55.5t-106 -55.5t-39 -152.5q0 -98 39 -156t106 -58zM352 680l-183 119l78 95l171 -140z" />
    <glyph glyph-name="Oacute" unicode="&#xd3;" horiz-adv-x="684" 
d="M342 -12q-134 0 -215 91.5t-81 249.5q0 157 81 246t215 89t215 -89t81 -246q0 -158 -81 -249.5t-215 -91.5zM342 115q67 0 106 58t39 156q0 97 -39 152.5t-106 55.5t-106 -55.5t-39 -152.5q0 -98 39 -156t106 -58zM332 680l-66 74l171 140l78 -95z" />
    <glyph glyph-name="Ocircumflex" unicode="&#xd4;" horiz-adv-x="684" 
d="M342 -12q-134 0 -215 91.5t-81 249.5q0 157 81 246t215 89t215 -89t81 -246q0 -158 -81 -249.5t-215 -91.5zM342 115q67 0 106 58t39 156q0 97 -39 152.5t-106 55.5t-106 -55.5t-39 -152.5q0 -98 39 -156t106 -58zM172 724l90 111h160l90 -111l-64 -39l-104 84h-4
l-104 -84z" />
    <glyph glyph-name="Otilde" unicode="&#xd5;" horiz-adv-x="684" 
d="M342 -12q-134 0 -215 91.5t-81 249.5q0 157 81 246t215 89t215 -89t81 -246q0 -158 -81 -249.5t-215 -91.5zM342 115q67 0 106 58t39 156q0 97 -39 152.5t-106 55.5t-106 -55.5t-39 -152.5q0 -98 39 -156t106 -58zM413 692q-40 0 -82.5 29t-54.5 29q-32 0 -37 -49l-95 7
q4 73 38 108.5t89 35.5q40 0 82.5 -29t54.5 -29q32 0 37 49l95 -7q-4 -72 -38 -108t-89 -36z" />
    <glyph glyph-name="Odieresis" unicode="&#xd6;" horiz-adv-x="684" 
d="M342 -12q-134 0 -215 91.5t-81 249.5q0 157 81 246t215 89t215 -89t81 -246q0 -158 -81 -249.5t-215 -91.5zM342 115q67 0 106 58t39 156q0 97 -39 152.5t-106 55.5t-106 -55.5t-39 -152.5q0 -98 39 -156t106 -58zM231 700q-31 0 -50.5 20t-19.5 50t19.5 50t50.5 20
t50.5 -20t19.5 -50t-19.5 -50t-50.5 -20zM453 700q-31 0 -50.5 20t-19.5 50t19.5 50t50.5 20t50.5 -20t19.5 -50t-19.5 -50t-50.5 -20z" />
    <glyph glyph-name="multiply" unicode="&#xd7;" horiz-adv-x="528" 
d="M121 112l-73 74l142 143l-142 144l73 74l143 -144l143 144l73 -74l-142 -144l142 -143l-73 -74l-143 144z" />
    <glyph glyph-name="Oslash" unicode="&#xd8;" horiz-adv-x="684" 
d="M343 -12q-94 0 -165 48l-62 -77l-76 58l69 86q-62 91 -62 226q0 157 81 246t215 89q102 0 175 -53l66 82l76 -59l-76 -94q55 -85 55 -211q0 -158 -81 -249.5t-215 -91.5zM198 329q0 -53 13 -99l220 273q-36 34 -88 34q-67 0 -106 -55.5t-39 -152.5zM343 115q67 0 106 58
t39 156q0 45 -9 81l-215 -267q34 -28 79 -28z" />
    <glyph glyph-name="Ugrave" unicode="&#xd9;" horiz-adv-x="665" 
d="M334 -12q-261 0 -261 314v350h148v-365q0 -93 28 -132.5t85 -39.5t86 39.5t29 132.5v365h142v-350q0 -162 -64.5 -238t-192.5 -76zM342 680l-183 119l78 95l171 -140z" />
    <glyph glyph-name="Uacute" unicode="&#xda;" horiz-adv-x="665" 
d="M334 -12q-261 0 -261 314v350h148v-365q0 -93 28 -132.5t85 -39.5t86 39.5t29 132.5v365h142v-350q0 -162 -64.5 -238t-192.5 -76zM322 680l-66 74l171 140l78 -95z" />
    <glyph glyph-name="Ucircumflex" unicode="&#xdb;" horiz-adv-x="665" 
d="M334 -12q-261 0 -261 314v350h148v-365q0 -93 28 -132.5t85 -39.5t86 39.5t29 132.5v365h142v-350q0 -162 -64.5 -238t-192.5 -76zM162 724l90 111h160l90 -111l-64 -39l-104 84h-4l-104 -84z" />
    <glyph glyph-name="Udieresis" unicode="&#xdc;" horiz-adv-x="665" 
d="M334 -12q-261 0 -261 314v350h148v-365q0 -93 28 -132.5t85 -39.5t86 39.5t29 132.5v365h142v-350q0 -162 -64.5 -238t-192.5 -76zM221 700q-31 0 -50.5 20t-19.5 50t19.5 50t50.5 20t50.5 -20t19.5 -50t-19.5 -50t-50.5 -20zM443 700q-31 0 -50.5 20t-19.5 50t19.5 50
t50.5 20t50.5 -20t19.5 -50t-19.5 -50t-50.5 -20z" />
    <glyph glyph-name="Yacute" unicode="&#xdd;" horiz-adv-x="525" 
d="M189 0v232l-197 420h158l58 -150q3 -9 22.5 -62t30.5 -82h4q5 13 25 64t30 80l59 150h154l-197 -420v-232h-147zM252 680l-66 74l171 140l78 -95z" />
    <glyph glyph-name="Thorn" unicode="&#xde;" horiz-adv-x="617" 
d="M77 0v652h147v-99h91q255 0 255 -209q0 -110 -72 -165.5t-183 -55.5h-91v-123h-147zM224 240h82q120 0 120 104q0 49 -29.5 70.5t-90.5 21.5h-82v-196z" />
    <glyph glyph-name="germandbls" unicode="&#xdf;" horiz-adv-x="632" 
d="M421 -12q-74 0 -151 45l51 100q49 -36 95 -36q25 0 40 13.5t15 34.5t-18 37.5t-44 30t-52 29.5t-44 43.5t-18 64.5q0 39 35.5 90t35.5 87q0 30 -17 49t-47 19q-45 0 -68.5 -33t-23.5 -92v-470h-145v487q0 101 60.5 162.5t176.5 61.5q97 0 151 -49t54 -118
q0 -41 -19.5 -74t-39 -57.5t-19.5 -44.5q0 -15 13 -28t32.5 -23t42.5 -24.5t42.5 -31t32.5 -45t13 -64.5q0 -71 -48.5 -117.5t-135.5 -46.5z" />
    <glyph glyph-name="agrave" unicode="&#xe0;" horiz-adv-x="527" 
d="M190 -12q-67 0 -107.5 43t-40.5 107q0 79 66.5 122.5t212.5 58.5q-5 72 -78 72q-54 0 -131 -45l-53 97q108 65 212 65q197 0 197 -224v-284h-120l-10 51h-4q-72 -63 -144 -63zM240 102q39 0 81 42v87q-138 -19 -138 -82q0 -47 57 -47zM266 572l-181 157l99 97l154 -182z
" />
    <glyph glyph-name="aacute" unicode="&#xe1;" horiz-adv-x="527" 
d="M190 -12q-67 0 -107.5 43t-40.5 107q0 79 66.5 122.5t212.5 58.5q-5 72 -78 72q-54 0 -131 -45l-53 97q108 65 212 65q197 0 197 -224v-284h-120l-10 51h-4q-72 -63 -144 -63zM240 102q39 0 81 42v87q-138 -19 -138 -82q0 -47 57 -47zM286 572l-72 72l154 182l99 -97z
" />
    <glyph glyph-name="acircumflex" unicode="&#xe2;" horiz-adv-x="527" 
d="M190 -12q-67 0 -107.5 43t-40.5 107q0 79 66.5 122.5t212.5 58.5q-5 72 -78 72q-54 0 -131 -45l-53 97q108 65 212 65q197 0 197 -224v-284h-120l-10 51h-4q-72 -63 -144 -63zM240 102q39 0 81 42v87q-138 -19 -138 -82q0 -47 57 -47zM93 613l108 131h150l108 -131
l-56 -52l-125 92h-4l-125 -92z" />
    <glyph glyph-name="atilde" unicode="&#xe3;" horiz-adv-x="527" 
d="M190 -12q-67 0 -107.5 43t-40.5 107q0 79 66.5 122.5t212.5 58.5q-5 72 -78 72q-54 0 -131 -45l-53 97q108 65 212 65q197 0 197 -224v-284h-120l-10 51h-4q-72 -63 -144 -63zM240 102q39 0 81 42v87q-138 -19 -138 -82q0 -47 57 -47zM342 573q-27 0 -52.5 16t-45 32
t-31.5 16q-29 0 -35 -55l-92 5q4 152 124 152q27 0 52.5 -16t45 -32t31.5 -16q29 0 35 55l92 -5q-4 -152 -124 -152z" />
    <glyph glyph-name="adieresis" unicode="&#xe4;" horiz-adv-x="527" 
d="M190 -12q-67 0 -107.5 43t-40.5 107q0 79 66.5 122.5t212.5 58.5q-5 72 -78 72q-54 0 -131 -45l-53 97q108 65 212 65q197 0 197 -224v-284h-120l-10 51h-4q-72 -63 -144 -63zM240 102q39 0 81 42v87q-138 -19 -138 -82q0 -47 57 -47zM167 569q-31 0 -51.5 20.5
t-20.5 51.5q0 30 20.5 50.5t51.5 20.5t51 -20.5t20 -50.5q0 -31 -20 -51.5t-51 -20.5zM385 569q-31 0 -51 20.5t-20 51.5q0 30 20 50.5t51 20.5t51.5 -20.5t20.5 -50.5q0 -31 -20.5 -51.5t-51.5 -20.5z" />
    <glyph glyph-name="aring" unicode="&#xe5;" horiz-adv-x="527" 
d="M190 -12q-67 0 -107.5 43t-40.5 107q0 79 66.5 122.5t212.5 58.5q-5 72 -78 72q-54 0 -131 -45l-53 97q108 65 212 65q197 0 197 -224v-284h-120l-10 51h-4q-72 -63 -144 -63zM240 102q39 0 81 42v87q-138 -19 -138 -82q0 -47 57 -47zM276 564q-63 0 -97.5 29.5
t-34.5 74.5t34.5 74.5t97.5 29.5t97.5 -29.5t34.5 -74.5t-34.5 -74.5t-97.5 -29.5zM276 619q18 0 30.5 14t12.5 35t-12.5 35t-30.5 14t-30.5 -14t-12.5 -35t12.5 -35t30.5 -14z" />
    <glyph glyph-name="ae" unicode="&#xe6;" horiz-adv-x="786" 
d="M194 -12q-66 0 -106.5 42.5t-40.5 106.5q0 80 65.5 124t210.5 59q-5 71 -77 71q-53 0 -130 -45l-52 97q108 65 203 65q92 0 138 -75q66 75 147 75q95 0 146 -67.5t51 -173.5q0 -38 -6 -62h-286q8 -50 40 -76t79 -26q43 0 105 36l50 -95q-82 -56 -175 -56q-101 0 -171 77
q-96 -77 -191 -77zM244 102q49 0 93 42q-11 31 -14 66l-1 21q-135 -19 -135 -82q0 -47 57 -47zM457 295h167q0 101 -77 101q-36 0 -60 -25.5t-30 -75.5z" />
    <glyph glyph-name="ccedilla" unicode="&#xe7;" horiz-adv-x="467" 
d="M181 -239l-11 59q58 3 80.5 13t22.5 31q0 32 -77 42l42 85q-90 14 -146 82t-56 175q0 119 75 189.5t183 70.5q82 0 145 -53l-69 -95q-35 29 -67 29q-53 0 -84.5 -38t-31.5 -103q0 -64 31 -102.5t80 -38.5q42 0 89 36l58 -96q-50 -45 -120 -55l-23 -53q39 -9 57.5 -26.5
t18.5 -48.5q0 -97 -197 -103z" />
    <glyph glyph-name="egrave" unicode="&#xe8;" horiz-adv-x="518" 
d="M287 -12q-109 0 -180 70t-71 190q0 116 70 188t164 72q102 0 156.5 -66t54.5 -172q0 -41 -6 -65h-297q9 -52 43.5 -78.5t85.5 -26.5q53 0 107 33l49 -89q-82 -56 -176 -56zM177 302h179q0 94 -83 94q-36 0 -62.5 -24t-33.5 -70zM260 572l-181 157l99 97l154 -182z" />
    <glyph glyph-name="eacute" unicode="&#xe9;" horiz-adv-x="518" 
d="M287 -12q-109 0 -180 70t-71 190q0 116 70 188t164 72q102 0 156.5 -66t54.5 -172q0 -41 -6 -65h-297q9 -52 43.5 -78.5t85.5 -26.5q53 0 107 33l49 -89q-82 -56 -176 -56zM177 302h179q0 94 -83 94q-36 0 -62.5 -24t-33.5 -70zM280 572l-72 72l154 182l99 -97z" />
    <glyph glyph-name="ecircumflex" unicode="&#xea;" horiz-adv-x="518" 
d="M287 -12q-109 0 -180 70t-71 190q0 116 70 188t164 72q102 0 156.5 -66t54.5 -172q0 -41 -6 -65h-297q9 -52 43.5 -78.5t85.5 -26.5q53 0 107 33l49 -89q-82 -56 -176 -56zM177 302h179q0 94 -83 94q-36 0 -62.5 -24t-33.5 -70zM87 613l108 131h150l108 -131l-56 -52
l-125 92h-4l-125 -92z" />
    <glyph glyph-name="edieresis" unicode="&#xeb;" horiz-adv-x="518" 
d="M287 -12q-109 0 -180 70t-71 190q0 116 70 188t164 72q102 0 156.5 -66t54.5 -172q0 -41 -6 -65h-297q9 -52 43.5 -78.5t85.5 -26.5q53 0 107 33l49 -89q-82 -56 -176 -56zM177 302h179q0 94 -83 94q-36 0 -62.5 -24t-33.5 -70zM161 569q-31 0 -51.5 20.5t-20.5 51.5
q0 30 20.5 50.5t51.5 20.5t51 -20.5t20 -50.5q0 -31 -20 -51.5t-51 -20.5zM379 569q-31 0 -51 20.5t-20 51.5q0 30 20 50.5t51 20.5t51.5 -20.5t20.5 -50.5q0 -31 -20.5 -51.5t-51.5 -20.5z" />
    <glyph glyph-name="igrave" unicode="&#xec;" horiz-adv-x="276" 
d="M65 0v496h147v-496h-147zM128 572l-181 157l99 97l154 -182z" />
    <glyph glyph-name="iacute" unicode="&#xed;" horiz-adv-x="276" 
d="M65 0v496h147v-496h-147zM148 572l-72 72l154 182l99 -97z" />
    <glyph glyph-name="icircumflex" unicode="&#xee;" horiz-adv-x="276" 
d="M65 0v496h147v-496h-147zM-45 613l108 131h150l108 -131l-56 -52l-125 92h-4l-125 -92z" />
    <glyph glyph-name="idieresis" unicode="&#xef;" horiz-adv-x="276" 
d="M65 0v496h147v-496h-147zM29 569q-31 0 -51.5 20.5t-20.5 51.5q0 30 20.5 50.5t51.5 20.5t51 -20.5t20 -50.5q0 -31 -20 -51.5t-51 -20.5zM247 569q-31 0 -51 20.5t-20 51.5q0 30 20 50.5t51 20.5t51.5 -20.5t20.5 -50.5q0 -31 -20.5 -51.5t-51.5 -20.5z" />
    <glyph glyph-name="eth" unicode="&#xf0;" horiz-adv-x="560" 
d="M273 -12q-96 0 -163.5 66.5t-67.5 173.5q0 103 60.5 165t142.5 62q67 0 106 -42q-26 77 -85 133l-142 -71l-38 65l116 58q-35 25 -90 53l64 89q77 -39 138 -85l143 72l38 -65l-120 -61q135 -137 135 -335q0 -123 -64 -200.5t-173 -77.5zM278 107q44 0 69.5 38t25.5 113
q0 30 -1 45q-39 43 -97 43q-45 0 -72 -30t-27 -88q0 -57 29.5 -89t72.5 -32z" />
    <glyph glyph-name="ntilde" unicode="&#xf1;" horiz-adv-x="572" 
d="M65 0v496h120l10 -63h4q79 75 159 75q154 0 154 -200v-308h-147v289q0 53 -14.5 73.5t-46.5 20.5q-26 0 -46 -11t-46 -37v-335h-147zM374 573q-27 0 -52.5 16t-45 32t-31.5 16q-29 0 -35 -55l-92 5q4 152 124 152q27 0 52.5 -16t45 -32t31.5 -16q29 0 35 55l92 -5
q-4 -152 -124 -152z" />
    <glyph glyph-name="ograve" unicode="&#xf2;" horiz-adv-x="555" 
d="M278 -12q-100 0 -171 70.5t-71 189.5t71 189.5t171 70.5q99 0 170 -70.5t71 -189.5t-71 -189.5t-170 -70.5zM278 107q44 0 67.5 37.5t23.5 103.5t-23.5 103.5t-67.5 37.5q-45 0 -68 -37.5t-23 -103.5t23 -103.5t68 -37.5zM268 572l-181 157l99 97l154 -182z" />
    <glyph glyph-name="oacute" unicode="&#xf3;" horiz-adv-x="555" 
d="M278 -12q-100 0 -171 70.5t-71 189.5t71 189.5t171 70.5q99 0 170 -70.5t71 -189.5t-71 -189.5t-170 -70.5zM278 107q44 0 67.5 37.5t23.5 103.5t-23.5 103.5t-67.5 37.5q-45 0 -68 -37.5t-23 -103.5t23 -103.5t68 -37.5zM288 572l-72 72l154 182l99 -97z" />
    <glyph glyph-name="ocircumflex" unicode="&#xf4;" horiz-adv-x="555" 
d="M278 -12q-100 0 -171 70.5t-71 189.5t71 189.5t171 70.5q99 0 170 -70.5t71 -189.5t-71 -189.5t-170 -70.5zM278 107q44 0 67.5 37.5t23.5 103.5t-23.5 103.5t-67.5 37.5q-45 0 -68 -37.5t-23 -103.5t23 -103.5t68 -37.5zM95 613l108 131h150l108 -131l-56 -52l-125 92
h-4l-125 -92z" />
    <glyph glyph-name="otilde" unicode="&#xf5;" horiz-adv-x="555" 
d="M278 -12q-100 0 -171 70.5t-71 189.5t71 189.5t171 70.5q99 0 170 -70.5t71 -189.5t-71 -189.5t-170 -70.5zM278 107q44 0 67.5 37.5t23.5 103.5t-23.5 103.5t-67.5 37.5q-45 0 -68 -37.5t-23 -103.5t23 -103.5t68 -37.5zM344 573q-27 0 -52.5 16t-45 32t-31.5 16
q-29 0 -35 -55l-92 5q4 152 124 152q27 0 52.5 -16t45 -32t31.5 -16q29 0 35 55l92 -5q-4 -152 -124 -152z" />
    <glyph glyph-name="odieresis" unicode="&#xf6;" horiz-adv-x="555" 
d="M278 -12q-100 0 -171 70.5t-71 189.5t71 189.5t171 70.5q99 0 170 -70.5t71 -189.5t-71 -189.5t-170 -70.5zM278 107q44 0 67.5 37.5t23.5 103.5t-23.5 103.5t-67.5 37.5q-45 0 -68 -37.5t-23 -103.5t23 -103.5t68 -37.5zM169 569q-31 0 -51.5 20.5t-20.5 51.5
q0 30 20.5 50.5t51.5 20.5t51 -20.5t20 -50.5q0 -31 -20 -51.5t-51 -20.5zM387 569q-31 0 -51 20.5t-20 51.5q0 30 20 50.5t51 20.5t51.5 -20.5t20.5 -50.5q0 -31 -20.5 -51.5t-51.5 -20.5z" />
    <glyph glyph-name="divide" unicode="&#xf7;" horiz-adv-x="528" 
d="M34 278v104h460v-104h-460zM264 73q-35 0 -58 21.5t-23 55.5t23 55.5t58 21.5t58 -21.5t23 -55.5t-23 -55.5t-58 -21.5zM264 433q-35 0 -58 21.5t-23 55.5t23 55.5t58 21.5t58 -21.5t23 -55.5t-23 -55.5t-58 -21.5z" />
    <glyph glyph-name="oslash" unicode="&#xf8;" horiz-adv-x="555" 
d="M278 -12q-74 0 -134 40l-43 -53l-55 42l47 58q-57 70 -57 173q0 119 71 189.5t171 70.5q71 0 132 -39l44 54l55 -43l-47 -58q57 -72 57 -174q0 -119 -71 -189.5t-170 -70.5zM178 256q0 -40 7 -67l149 186q-22 19 -56 19q-46 0 -73 -38t-27 -100zM278 102q45 0 72 38
t27 100q0 41 -7 68l-150 -186q23 -20 58 -20z" />
    <glyph glyph-name="ugrave" unicode="&#xf9;" horiz-adv-x="568" 
d="M214 -12q-154 0 -154 200v308h147v-289q0 -52 14.5 -73t47.5 -21q27 0 46.5 12.5t41.5 42.5v328h147v-496h-120l-11 69h-3q-68 -81 -156 -81zM275 572l-181 157l99 97l154 -182z" />
    <glyph glyph-name="uacute" unicode="&#xfa;" horiz-adv-x="568" 
d="M214 -12q-154 0 -154 200v308h147v-289q0 -52 14.5 -73t47.5 -21q27 0 46.5 12.5t41.5 42.5v328h147v-496h-120l-11 69h-3q-68 -81 -156 -81zM295 572l-72 72l154 182l99 -97z" />
    <glyph glyph-name="ucircumflex" unicode="&#xfb;" horiz-adv-x="568" 
d="M214 -12q-154 0 -154 200v308h147v-289q0 -52 14.5 -73t47.5 -21q27 0 46.5 12.5t41.5 42.5v328h147v-496h-120l-11 69h-3q-68 -81 -156 -81zM102 613l108 131h150l108 -131l-56 -52l-125 92h-4l-125 -92z" />
    <glyph glyph-name="udieresis" unicode="&#xfc;" horiz-adv-x="568" 
d="M214 -12q-154 0 -154 200v308h147v-289q0 -52 14.5 -73t47.5 -21q27 0 46.5 12.5t41.5 42.5v328h147v-496h-120l-11 69h-3q-68 -81 -156 -81zM176 569q-31 0 -51.5 20.5t-20.5 51.5q0 30 20.5 50.5t51.5 20.5t51 -20.5t20 -50.5q0 -31 -20 -51.5t-51 -20.5zM394 569
q-31 0 -51 20.5t-20 51.5q0 30 20 50.5t51 20.5t51.5 -20.5t20.5 -50.5q0 -31 -20.5 -51.5t-51.5 -20.5z" />
    <glyph glyph-name="yacute" unicode="&#xfd;" horiz-adv-x="521" 
d="M120 -194q-37 0 -70 10l26 112q27 -6 33 -6q65 0 87 65l7 26l-191 483h148l71 -213q11 -35 39 -141h4q22 94 34 141l60 213h141l-172 -501q-37 -99 -85 -144t-132 -45zM277 572l-72 72l154 182l99 -97z" />
    <glyph glyph-name="thorn" unicode="&#xfe;" horiz-adv-x="573" 
d="M65 -184v885h147v-172l-4 -70q57 49 124 49q93 0 147.5 -68.5t54.5 -183.5q0 -122 -62 -195t-147 -73q-64 0 -117 47l4 -74v-145h-147zM291 108q41 0 66.5 36.5t25.5 109.5q0 134 -86 134q-43 0 -85 -45v-203q35 -32 79 -32z" />
    <glyph glyph-name="ydieresis" unicode="&#xff;" horiz-adv-x="521" 
d="M120 -194q-37 0 -70 10l26 112q27 -6 33 -6q65 0 87 65l7 26l-191 483h148l71 -213q11 -35 39 -141h4q22 94 34 141l60 213h141l-172 -501q-37 -99 -85 -144t-132 -45zM158 569q-31 0 -51.5 20.5t-20.5 51.5q0 30 20.5 50.5t51.5 20.5t51 -20.5t20 -50.5q0 -31 -20 -51.5
t-51 -20.5zM376 569q-31 0 -51 20.5t-20 51.5q0 30 20 50.5t51 20.5t51.5 -20.5t20.5 -50.5q0 -31 -20.5 -51.5t-51.5 -20.5z" />
    <glyph glyph-name="Amacron" unicode="&#x100;" horiz-adv-x="573" 
d="M230 330l-16 -60h139l-15 60q-5 19 -53 210h-4q-37 -159 -51 -210zM-6 0l204 652h177l204 -652h-156l-40 155h-199l-40 -155h-150zM132 721v94h302v-94h-302z" />
    <glyph glyph-name="amacron" unicode="&#x101;" horiz-adv-x="527" 
d="M190 -12q-67 0 -107.5 43t-40.5 107q0 79 66.5 122.5t212.5 58.5q-5 72 -78 72q-54 0 -131 -45l-53 97q108 65 212 65q197 0 197 -224v-284h-120l-10 51h-4q-72 -63 -144 -63zM240 102q39 0 81 42v87q-138 -19 -138 -82q0 -47 57 -47zM128 592v93h296v-93h-296z" />
    <glyph glyph-name="Abreve" unicode="&#x102;" horiz-adv-x="573" 
d="M230 330l-16 -60h139l-15 60q-5 19 -53 210h-4q-37 -159 -51 -210zM-6 0l204 652h177l204 -652h-156l-40 155h-199l-40 -155h-150zM283 697q-149 0 -163 137l80 14q14 -66 83 -66t83 66l80 -14q-14 -137 -163 -137z" />
    <glyph glyph-name="abreve" unicode="&#x103;" horiz-adv-x="527" 
d="M190 -12q-67 0 -107.5 43t-40.5 107q0 79 66.5 122.5t212.5 58.5q-5 72 -78 72q-54 0 -131 -45l-53 97q108 65 212 65q197 0 197 -224v-284h-120l-10 51h-4q-72 -63 -144 -63zM240 102q39 0 81 42v87q-138 -19 -138 -82q0 -47 57 -47zM276 572q-82 0 -124.5 43.5
t-44.5 113.5l84 14q5 -35 26 -57t59 -22t59 22t26 57l84 -14q-2 -70 -44.5 -113.5t-124.5 -43.5z" />
    <glyph glyph-name="Aogonek" unicode="&#x104;" horiz-adv-x="573" 
d="M496 -223q-50 0 -82 25t-32 69q0 42 25.5 77t55.5 52h-40l-40 155h-199l-40 -155h-150l204 652h177l204 -652q-39 -4 -64.5 -31t-25.5 -59q0 -18 11 -28t28 -10q19 0 39 14l34 -74q-45 -35 -105 -35zM230 330l-16 -60h139l-15 60q-5 19 -53 210h-4q-37 -159 -51 -210z
" />
    <glyph glyph-name="aogonek" unicode="&#x105;" horiz-adv-x="527" 
d="M387 -210q-46 0 -76 24t-30 67q0 70 69 117l-12 53h-4q-72 -63 -144 -63q-67 0 -107.5 42.5t-40.5 106.5q0 79 66.5 123t212.5 59q-5 72 -78 72q-54 0 -131 -45l-53 97q108 65 212 65q197 0 197 -224v-284q-45 -13 -66 -36.5t-21 -48.5q0 -19 12 -28.5t29 -9.5
q18 0 36 12l31 -66q-43 -33 -102 -33zM240 102q39 0 81 42v87q-138 -19 -138 -82q0 -47 57 -47z" />
    <glyph glyph-name="Cacute" unicode="&#x106;" horiz-adv-x="582" 
d="M349 -12q-130 0 -216.5 88t-86.5 246q0 156 89.5 249t218.5 93q113 0 196 -85l-78 -94q-57 52 -115 52q-69 0 -114.5 -57t-45.5 -153q0 -100 42.5 -156t115.5 -56q70 0 127 61l78 -92q-82 -96 -211 -96zM333 680l-66 74l171 140l78 -95z" />
    <glyph glyph-name="cacute" unicode="&#x107;" horiz-adv-x="467" 
d="M281 -12q-107 0 -176 69.5t-69 190.5q0 119 75 189.5t183 70.5q82 0 145 -53l-69 -95q-35 29 -67 29q-53 0 -84.5 -38t-31.5 -103q0 -64 31 -102.5t80 -38.5q42 0 89 36l58 -96q-67 -59 -164 -59zM300 572l-72 72l154 182l99 -97z" />
    <glyph glyph-name="Ccircumflex" unicode="&#x108;" horiz-adv-x="582" 
d="M349 -12q-130 0 -216.5 88t-86.5 246q0 156 89.5 249t218.5 93q113 0 196 -85l-78 -94q-57 52 -115 52q-69 0 -114.5 -57t-45.5 -153q0 -100 42.5 -156t115.5 -56q70 0 127 61l78 -92q-82 -96 -211 -96zM173 724l90 111h160l90 -111l-64 -39l-104 84h-4l-104 -84z" />
    <glyph glyph-name="ccircumflex" unicode="&#x109;" horiz-adv-x="467" 
d="M281 -12q-107 0 -176 69.5t-69 190.5q0 119 75 189.5t183 70.5q82 0 145 -53l-69 -95q-35 29 -67 29q-53 0 -84.5 -38t-31.5 -103q0 -64 31 -102.5t80 -38.5q42 0 89 36l58 -96q-67 -59 -164 -59zM107 613l108 131h150l108 -131l-56 -52l-125 92h-4l-125 -92z" />
    <glyph glyph-name="Cdotaccent" unicode="&#x10a;" horiz-adv-x="582" 
d="M349 -12q-130 0 -216.5 88t-86.5 246q0 156 89.5 249t218.5 93q113 0 196 -85l-78 -94q-57 52 -115 52q-69 0 -114.5 -57t-45.5 -153q0 -100 42.5 -156t115.5 -56q70 0 127 61l78 -92q-82 -96 -211 -96zM343 701q-37 0 -61 21.5t-24 55.5t24 55.5t61 21.5t61 -21.5
t24 -55.5t-24 -55.5t-61 -21.5z" />
    <glyph glyph-name="cdotaccent" unicode="&#x10b;" horiz-adv-x="467" 
d="M281 -12q-107 0 -176 69.5t-69 190.5q0 119 75 189.5t183 70.5q82 0 145 -53l-69 -95q-35 29 -67 29q-53 0 -84.5 -38t-31.5 -103q0 -64 31 -102.5t80 -38.5q42 0 89 36l58 -96q-67 -59 -164 -59zM290 569q-36 0 -58.5 21.5t-22.5 55.5t22.5 55.5t58.5 21.5t58.5 -21.5
t22.5 -55.5t-22.5 -55.5t-58.5 -21.5z" />
    <glyph glyph-name="Ccaron" unicode="&#x10c;" horiz-adv-x="582" 
d="M349 -12q-130 0 -216.5 88t-86.5 246q0 156 89.5 249t218.5 93q113 0 196 -85l-78 -94q-57 52 -115 52q-69 0 -114.5 -57t-45.5 -153q0 -100 42.5 -156t115.5 -56q70 0 127 61l78 -92q-82 -96 -211 -96zM263 702l-90 110l64 40l104 -84h4l104 84l64 -40l-90 -110h-160z
" />
    <glyph glyph-name="ccaron" unicode="&#x10d;" horiz-adv-x="467" 
d="M281 -12q-107 0 -176 69.5t-69 190.5q0 119 75 189.5t183 70.5q82 0 145 -53l-69 -95q-35 29 -67 29q-53 0 -84.5 -38t-31.5 -103q0 -64 31 -102.5t80 -38.5q42 0 89 36l58 -96q-67 -59 -164 -59zM215 577l-108 131l56 52l125 -92h4l125 92l56 -52l-108 -131h-150z" />
    <glyph glyph-name="Dcaron" unicode="&#x10e;" horiz-adv-x="635" 
d="M77 0v652h184q155 0 241 -80t86 -243t-85.5 -246t-233.5 -83h-192zM224 119h28q185 0 185 210q0 111 -48 157.5t-137 46.5h-28v-414zM238 702l-90 110l64 40l104 -84h4l104 84l64 -40l-90 -110h-160z" />
    <glyph glyph-name="dcaron" unicode="&#x10f;" horiz-adv-x="614" 
d="M242 -12q-93 0 -148 69.5t-55 190.5q0 117 61.5 188.5t144.5 71.5q67 0 122 -52l-6 76v169h147v-701h-120l-10 49h-4q-61 -61 -132 -61zM280 108q48 0 81 45v203q-35 32 -82 32q-38 0 -63.5 -35.5t-25.5 -102.5q0 -142 90 -142zM552 548l-6 222h95l-2 -69l-24 -153h-63z
" />
    <glyph glyph-name="Dcroat" unicode="&#x110;" horiz-adv-x="660" 
d="M26 301v66l76 5v280h184q155 0 241 -80t86 -243t-85.5 -246t-233.5 -83h-192v301h-76zM249 119h28q185 0 185 210q0 111 -48 157.5t-137 46.5h-28v-161h125v-71h-125v-182z" />
    <glyph glyph-name="dcroat" unicode="&#x111;" horiz-adv-x="573" 
d="M242 -12q-92 0 -147.5 65t-55.5 172q0 102 62 168.5t144 66.5q65 0 122 -52l-6 75v73h-149v71h149v74h147v-74h68v-65l-68 -5v-557h-123l-9 44h-4q-58 -56 -130 -56zM280 108q48 0 81 45v155q-35 31 -82 31q-37 0 -63 -30t-26 -82q0 -58 23.5 -88.5t66.5 -30.5z" />
    <glyph glyph-name="Emacron" unicode="&#x112;" horiz-adv-x="548" 
d="M77 0v652h408v-124h-261v-131h222v-123h-222v-150h271v-124h-418zM137 721v94h302v-94h-302z" />
    <glyph glyph-name="emacron" unicode="&#x113;" horiz-adv-x="518" 
d="M287 -12q-109 0 -180 70t-71 190q0 116 70 188t164 72q102 0 156.5 -66t54.5 -172q0 -41 -6 -65h-297q9 -52 43.5 -78.5t85.5 -26.5q53 0 107 33l49 -89q-82 -56 -176 -56zM177 302h179q0 94 -83 94q-36 0 -62.5 -24t-33.5 -70zM122 592v93h296v-93h-296z" />
    <glyph glyph-name="Ebreve" unicode="&#x114;" horiz-adv-x="548" 
d="M77 0v652h408v-124h-261v-131h222v-123h-222v-150h271v-124h-418zM288 697q-149 0 -163 137l80 14q14 -66 83 -66t83 66l80 -14q-14 -137 -163 -137z" />
    <glyph glyph-name="ebreve" unicode="&#x115;" horiz-adv-x="518" 
d="M287 -12q-109 0 -180 70t-71 190q0 116 70 188t164 72q102 0 156.5 -66t54.5 -172q0 -41 -6 -65h-297q9 -52 43.5 -78.5t85.5 -26.5q53 0 107 33l49 -89q-82 -56 -176 -56zM177 302h179q0 94 -83 94q-36 0 -62.5 -24t-33.5 -70zM270 572q-82 0 -124.5 43.5t-44.5 113.5
l84 14q5 -35 26 -57t59 -22t59 22t26 57l84 -14q-2 -70 -44.5 -113.5t-124.5 -43.5z" />
    <glyph glyph-name="Edotaccent" unicode="&#x116;" horiz-adv-x="548" 
d="M77 0v652h408v-124h-261v-131h222v-123h-222v-150h271v-124h-418zM288 701q-37 0 -61 21.5t-24 55.5t24 55.5t61 21.5t61 -21.5t24 -55.5t-24 -55.5t-61 -21.5z" />
    <glyph glyph-name="edotaccent" unicode="&#x117;" horiz-adv-x="518" 
d="M287 -12q-109 0 -180 70t-71 190q0 116 70 188t164 72q102 0 156.5 -66t54.5 -172q0 -41 -6 -65h-297q9 -52 43.5 -78.5t85.5 -26.5q53 0 107 33l49 -89q-82 -56 -176 -56zM177 302h179q0 94 -83 94q-36 0 -62.5 -24t-33.5 -70zM270 569q-36 0 -58.5 21.5t-22.5 55.5
t22.5 55.5t58.5 21.5t58.5 -21.5t22.5 -55.5t-22.5 -55.5t-58.5 -21.5z" />
    <glyph glyph-name="Eogonek" unicode="&#x118;" horiz-adv-x="548" 
d="M411 -223q-50 0 -82.5 25t-32.5 69q0 42 24 76t55 53h-298v652h408v-124h-261v-131h222v-123h-222v-150h271v-124h-5q-34 -1 -60 -29t-26 -61q0 -18 12.5 -28t29.5 -10q16 0 36 14l34 -74q-46 -35 -105 -35z" />
    <glyph glyph-name="eogonek" unicode="&#x119;" horiz-adv-x="518" 
d="M362 -210q-46 0 -75 23.5t-29 67.5q0 61 56 110q-12 -3 -27 -3q-109 0 -180 70t-71 190q0 116 70 188t164 72q102 0 156.5 -66t54.5 -172q0 -41 -6 -65h-297q9 -52 43.5 -78.5t85.5 -26.5q53 0 107 33l49 -89q-64 -44 -86 -71.5t-22 -57.5q0 -38 43 -38q15 0 35 12
l30 -66q-41 -33 -101 -33zM177 302h179q0 94 -83 94q-36 0 -62.5 -24t-33.5 -70z" />
    <glyph glyph-name="Ecaron" unicode="&#x11a;" horiz-adv-x="548" 
d="M77 0v652h408v-124h-261v-131h222v-123h-222v-150h271v-124h-418zM208 702l-90 110l64 40l104 -84h4l104 84l64 -40l-90 -110h-160z" />
    <glyph glyph-name="ecaron" unicode="&#x11b;" horiz-adv-x="518" 
d="M287 -12q-109 0 -180 70t-71 190q0 116 70 188t164 72q102 0 156.5 -66t54.5 -172q0 -41 -6 -65h-297q9 -52 43.5 -78.5t85.5 -26.5q53 0 107 33l49 -89q-82 -56 -176 -56zM177 302h179q0 94 -83 94q-36 0 -62.5 -24t-33.5 -70zM195 577l-108 131l56 52l125 -92h4l125 92
l56 -52l-108 -131h-150z" />
    <glyph glyph-name="Gcircumflex" unicode="&#x11c;" horiz-adv-x="638" 
d="M365 -12q-140 0 -229.5 87.5t-89.5 246.5q0 157 91.5 249.5t226.5 92.5q122 0 205 -85l-77 -94q-59 52 -123 52q-77 0 -124.5 -56.5t-47.5 -153.5q0 -102 46.5 -157t136.5 -55q45 0 70 20v112h-108v120h238v-300q-36 -35 -93 -57t-122 -22zM197 724l90 111h160l90 -111
l-64 -39l-104 84h-4l-104 -84z" />
    <glyph glyph-name="gcircumflex" unicode="&#x11d;" horiz-adv-x="534" 
d="M242 -211q-93 0 -150.5 31.5t-57.5 94.5q0 60 71 100v4q-46 30 -46 84q0 55 56 93v4q-29 20 -48 54t-19 75q0 85 59.5 132t145.5 47q44 0 77 -12h181v-107h-79q16 -27 16 -65q0 -82 -54.5 -124.5t-140.5 -42.5q-29 0 -60 10q-18 -15 -18 -37q0 -37 75 -37h80
q189 0 189 -126q0 -78 -75.5 -128t-201.5 -50zM253 246q30 0 49 21.5t19 61.5q0 38 -19 59t-49 21t-49 -20.5t-19 -59.5q0 -40 19 -61.5t49 -21.5zM265 -119q49 0 81.5 17.5t32.5 43.5q0 22 -18.5 30.5t-57.5 8.5h-51q-46 0 -70 6q-27 -24 -27 -49q0 -27 29.5 -42t80.5 -15z
M96 613l108 131h150l108 -131l-56 -52l-125 92h-4l-125 -92z" />
    <glyph glyph-name="Gbreve" unicode="&#x11e;" horiz-adv-x="638" 
d="M365 -12q-140 0 -229.5 87.5t-89.5 246.5q0 157 91.5 249.5t226.5 92.5q122 0 205 -85l-77 -94q-59 52 -123 52q-77 0 -124.5 -56.5t-47.5 -153.5q0 -102 46.5 -157t136.5 -55q45 0 70 20v112h-108v120h238v-300q-36 -35 -93 -57t-122 -22zM367 697q-149 0 -163 137
l80 14q14 -66 83 -66t83 66l80 -14q-14 -137 -163 -137z" />
    <glyph glyph-name="gbreve" unicode="&#x11f;" horiz-adv-x="534" 
d="M242 -211q-93 0 -150.5 31.5t-57.5 94.5q0 60 71 100v4q-46 30 -46 84q0 55 56 93v4q-29 20 -48 54t-19 75q0 85 59.5 132t145.5 47q44 0 77 -12h181v-107h-79q16 -27 16 -65q0 -82 -54.5 -124.5t-140.5 -42.5q-29 0 -60 10q-18 -15 -18 -37q0 -37 75 -37h80
q189 0 189 -126q0 -78 -75.5 -128t-201.5 -50zM253 246q30 0 49 21.5t19 61.5q0 38 -19 59t-49 21t-49 -20.5t-19 -59.5q0 -40 19 -61.5t49 -21.5zM265 -119q49 0 81.5 17.5t32.5 43.5q0 22 -18.5 30.5t-57.5 8.5h-51q-46 0 -70 6q-27 -24 -27 -49q0 -27 29.5 -42t80.5 -15z
M279 572q-82 0 -124.5 43.5t-44.5 113.5l84 14q5 -35 26 -57t59 -22t59 22t26 57l84 -14q-2 -70 -44.5 -113.5t-124.5 -43.5z" />
    <glyph glyph-name="Gdotaccent" unicode="&#x120;" horiz-adv-x="638" 
d="M365 -12q-140 0 -229.5 87.5t-89.5 246.5q0 157 91.5 249.5t226.5 92.5q122 0 205 -85l-77 -94q-59 52 -123 52q-77 0 -124.5 -56.5t-47.5 -153.5q0 -102 46.5 -157t136.5 -55q45 0 70 20v112h-108v120h238v-300q-36 -35 -93 -57t-122 -22zM367 701q-37 0 -61 21.5
t-24 55.5t24 55.5t61 21.5t61 -21.5t24 -55.5t-24 -55.5t-61 -21.5z" />
    <glyph glyph-name="gdotaccent" unicode="&#x121;" horiz-adv-x="534" 
d="M242 -211q-93 0 -150.5 31.5t-57.5 94.5q0 60 71 100v4q-46 30 -46 84q0 55 56 93v4q-29 20 -48 54t-19 75q0 85 59.5 132t145.5 47q44 0 77 -12h181v-107h-79q16 -27 16 -65q0 -82 -54.5 -124.5t-140.5 -42.5q-29 0 -60 10q-18 -15 -18 -37q0 -37 75 -37h80
q189 0 189 -126q0 -78 -75.5 -128t-201.5 -50zM253 246q30 0 49 21.5t19 61.5q0 38 -19 59t-49 21t-49 -20.5t-19 -59.5q0 -40 19 -61.5t49 -21.5zM265 -119q49 0 81.5 17.5t32.5 43.5q0 22 -18.5 30.5t-57.5 8.5h-51q-46 0 -70 6q-27 -24 -27 -49q0 -27 29.5 -42t80.5 -15z
M279 569q-36 0 -58.5 21.5t-22.5 55.5t22.5 55.5t58.5 21.5t58.5 -21.5t22.5 -55.5t-22.5 -55.5t-58.5 -21.5z" />
    <glyph glyph-name="uni0122" unicode="&#x122;" horiz-adv-x="638" 
d="M365 -12q-140 0 -229.5 87.5t-89.5 246.5q0 157 91.5 249.5t226.5 92.5q122 0 205 -85l-77 -94q-59 52 -123 52q-77 0 -124.5 -56.5t-47.5 -153.5q0 -102 46.5 -157t136.5 -55q45 0 70 20v112h-108v120h238v-300q-36 -35 -93 -57t-122 -22zM261 -239l-11 59q57 3 80 12
t23 27q0 29 -64 35l28 54q78 -7 109.5 -26.5t31.5 -57.5q0 -97 -197 -103z" />
    <glyph glyph-name="uni0123" unicode="&#x123;" horiz-adv-x="534" 
d="M242 -211q-93 0 -150.5 31.5t-57.5 94.5q0 60 71 100v4q-46 30 -46 84q0 55 56 93v4q-29 20 -48 54t-19 75q0 85 59.5 132t145.5 47q44 0 77 -12h181v-107h-79q16 -27 16 -65q0 -82 -54.5 -124.5t-140.5 -42.5q-29 0 -60 10q-18 -15 -18 -37q0 -37 75 -37h80
q189 0 189 -126q0 -78 -75.5 -128t-201.5 -50zM253 246q30 0 49 21.5t19 61.5q0 38 -19 59t-49 21t-49 -20.5t-19 -59.5q0 -40 19 -61.5t49 -21.5zM265 -119q49 0 81.5 17.5t32.5 43.5q0 22 -18.5 30.5t-57.5 8.5h-51q-46 0 -70 6q-27 -24 -27 -49q0 -27 29.5 -42t80.5 -15z
M325 568q-78 7 -109.5 26.5t-31.5 57.5q0 97 197 103l11 -59q-58 -3 -80.5 -12t-22.5 -27q0 -29 64 -35z" />
    <glyph glyph-name="Hcircumflex" unicode="&#x124;" horiz-adv-x="674" 
d="M77 0v652h147v-251h225v251h148v-652h-148v272h-225v-272h-147zM166 724l90 111h160l90 -111l-64 -39l-104 84h-4l-104 -84z" />
    <glyph glyph-name="hcircumflex" unicode="&#x125;" horiz-adv-x="571" 
d="M65 0v701h147v-172l-7 -89q76 68 153 68q154 0 154 -200v-308h-147v289q0 53 -14.5 73.5t-46.5 20.5q-26 0 -46 -11t-46 -37v-335h-147zM-33 772l90 111h160l90 -111l-64 -39l-104 84h-4l-104 -84z" />
    <glyph glyph-name="Hbar" unicode="&#x126;" horiz-adv-x="712" 
d="M25 486v65l72 6v95h147v-95h225v95h148v-95h70v-71h-70v-486h-148v272h-225v-272h-147v486h-72zM244 401h225v85h-225v-85z" />
    <glyph glyph-name="hbar" unicode="&#x127;" horiz-adv-x="571" 
d="M65 0v556h-68v65l68 5v75h147v-74h169v-71h-169v-75l-7 -90q75 69 153 69q154 0 154 -200v-260h-147v241q0 52 -14.5 72.5t-46.5 20.5q-26 0 -46 -11t-46 -37v-286h-147z" />
    <glyph glyph-name="Itilde" unicode="&#x128;" horiz-adv-x="301" 
d="M77 0v652h147v-652h-147zM222 692q-40 0 -82.5 29t-54.5 29q-32 0 -37 -49l-95 7q4 73 38 108.5t89 35.5q40 0 82.5 -29t54.5 -29q32 0 37 49l95 -7q-4 -72 -38 -108t-89 -36z" />
    <glyph glyph-name="itilde" unicode="&#x129;" horiz-adv-x="276" 
d="M65 0v496h147v-496h-147zM204 573q-27 0 -52.5 16t-45 32t-31.5 16q-29 0 -35 -55l-92 5q4 152 124 152q27 0 52.5 -16t45 -32t31.5 -16q29 0 35 55l92 -5q-4 -152 -124 -152z" />
    <glyph glyph-name="Imacron" unicode="&#x12a;" horiz-adv-x="301" 
d="M77 0v652h147v-652h-147zM0 721v94h302v-94h-302z" />
    <glyph glyph-name="imacron" unicode="&#x12b;" horiz-adv-x="276" 
d="M65 0v496h147v-496h-147zM-10 592v93h296v-93h-296z" />
    <glyph glyph-name="uni012C" unicode="&#x12c;" horiz-adv-x="301" 
d="M77 0v652h147v-652h-147zM151 697q-149 0 -163 137l80 14q14 -66 83 -66t83 66l80 -14q-14 -137 -163 -137z" />
    <glyph glyph-name="uni012D" unicode="&#x12d;" horiz-adv-x="276" 
d="M65 0v496h147v-496h-147zM138 572q-82 0 -124.5 43.5t-44.5 113.5l84 14q5 -35 26 -57t59 -22t59 22t26 57l84 -14q-2 -70 -44.5 -113.5t-124.5 -43.5z" />
    <glyph glyph-name="Iogonek" unicode="&#x12e;" horiz-adv-x="301" 
d="M157 -223q-50 0 -82.5 25t-32.5 69q0 75 74 129h-39v652h147v-652q-74 -31 -74 -90q0 -18 12 -28t29 -10q19 0 37 14l33 -74q-44 -35 -104 -35z" />
    <glyph glyph-name="iogonek" unicode="&#x12f;" horiz-adv-x="276" 
d="M147 -210q-46 0 -76 24t-30 67q0 67 65 119h-41v496h147v-496q-72 -27 -72 -85q0 -19 12.5 -28.5t30.5 -9.5q11 0 35 12l30 -66q-18 -15 -47.5 -24t-53.5 -9zM138 569q-37 0 -61 21.5t-24 55.5t24 55t61 21t61 -21t24 -55t-24 -55.5t-61 -21.5z" />
    <glyph glyph-name="Idotaccent" unicode="&#x130;" horiz-adv-x="301" 
d="M77 0v652h147v-652h-147zM151 701q-37 0 -61 21.5t-24 55.5t24 55.5t61 21.5t61 -21.5t24 -55.5t-24 -55.5t-61 -21.5z" />
    <glyph glyph-name="dotlessi" unicode="&#x131;" horiz-adv-x="276" 
d="M65 0v496h147v-496h-147z" />
    <glyph glyph-name="uni0132" unicode="&#x132;" horiz-adv-x="602" 
d="M77 0v652h147v-652h-147zM348 -182q-51 0 -88 14l27 109q23 -7 38 -7q29 0 41 19t12 61v638h148v-634q0 -90 -41.5 -145t-136.5 -55z" />
    <glyph glyph-name="uni0133" unicode="&#x133;" horiz-adv-x="554" 
d="M65 0v496h147v-496h-147zM138 569q-37 0 -61 21.5t-24 55.5t24 55t61 21q38 0 61.5 -21t23.5 -55t-24 -55.5t-61 -21.5zM312 -196q-52 0 -87 14l26 108q23 -7 39 -7q29 0 40.5 19t11.5 61v497h147v-493q0 -199 -177 -199zM416 569q-37 0 -61 21.5t-24 55.5t24 55t61 21
t61 -21t24 -55t-24 -55.5t-61 -21.5z" />
    <glyph glyph-name="Jcircumflex" unicode="&#x134;" horiz-adv-x="509" 
d="M226 -12q-143 0 -210 118l100 74q35 -65 91 -65q42 0 61.5 25.5t19.5 88.5v423h147v-435q0 -101 -53 -165t-156 -64zM189 724l90 111h160l90 -111l-64 -39l-104 84h-4l-104 -84z" />
    <glyph glyph-name="jcircumflex" unicode="&#x135;" horiz-adv-x="278" 
d="M36 -196q-52 0 -87 14l26 108q23 -7 39 -7q29 0 40.5 19t11.5 61v497h147v-493q0 -199 -177 -199zM-43 613l108 131h150l108 -131l-56 -52l-125 92h-4l-125 -92z" />
    <glyph glyph-name="uni0136" unicode="&#x136;" horiz-adv-x="614" 
d="M77 0v652h147v-267h4l194 267h162l-197 -260l233 -392h-161l-159 275l-76 -100v-175h-147zM230 -239l-11 59q57 3 80 12t23 27q0 29 -64 35l28 54q78 -7 109.5 -26.5t31.5 -57.5q0 -97 -197 -103z" />
    <glyph glyph-name="uni0137" unicode="&#x137;" horiz-adv-x="548" 
d="M65 0v701h143v-402h4l157 197h160l-174 -204l187 -292h-159l-112 193l-63 -71v-122h-143zM193 -239l-11 59q57 3 80 12t23 27q0 29 -64 35l28 54q78 -7 109.5 -26.5t31.5 -57.5q0 -97 -197 -103z" />
    <glyph glyph-name="kgreenlandic" unicode="&#x138;" horiz-adv-x="548" 
d="M65 0v496h147v-200h3l154 200h160l-170 -204l183 -292h-159l-112 189l-59 -72v-117h-147z" />
    <glyph glyph-name="Lacute" unicode="&#x139;" horiz-adv-x="518" 
d="M77 0v652h147v-528h258v-124h-405zM144 680l-66 74l171 140l78 -95z" />
    <glyph glyph-name="lacute" unicode="&#x13a;" horiz-adv-x="286" 
d="M200 -12q-135 0 -135 166v547h147v-553q0 -41 26 -41q10 0 18 2l18 -109q-27 -12 -74 -12zM131 735l-66 74l171 140l78 -95z" />
    <glyph glyph-name="uni013B" unicode="&#x13b;" horiz-adv-x="518" 
d="M77 0v652h147v-528h258v-124h-405zM188 -239l-11 59q57 3 80 12t23 27q0 29 -64 35l28 54q78 -7 109.5 -26.5t31.5 -57.5q0 -97 -197 -103z" />
    <glyph glyph-name="uni013C" unicode="&#x13c;" horiz-adv-x="286" 
d="M200 -12q-135 0 -135 166v547h147v-553q0 -41 26 -41q10 0 18 2l18 -109q-27 -12 -74 -12zM85 -239l-11 59q57 3 80 12t23 27q0 29 -64 35l28 54q78 -7 109.5 -26.5t31.5 -57.5q0 -97 -197 -103z" />
    <glyph glyph-name="Lcaron" unicode="&#x13d;" horiz-adv-x="518" 
d="M77 0v652h147v-528h258v-124h-405zM353 510l-6 222h95l-2 -69l-24 -153h-63z" />
    <glyph glyph-name="lcaron" unicode="&#x13e;" horiz-adv-x="319" 
d="M200 -12q-135 0 -135 166v547h147v-553q0 -41 26 -41q10 0 18 2l18 -109q-27 -12 -74 -12zM255 548l-6 222h95l-2 -69l-24 -153h-63z" />
    <glyph glyph-name="Ldot" unicode="&#x13f;" horiz-adv-x="518" 
d="M77 0v652h147v-528h258v-124h-405zM410 236q-38 0 -63.5 26.5t-25.5 65.5q0 40 25.5 66.5t63.5 26.5t63.5 -26.5t25.5 -66.5q0 -39 -25.5 -65.5t-63.5 -26.5z" />
    <glyph glyph-name="ldot" unicode="&#x140;" horiz-adv-x="453" 
d="M200 -12q-135 0 -135 166v547h147v-553q0 -41 26 -41q10 0 18 2l18 -109q-27 -12 -74 -12zM364 236q-38 0 -63.5 26.5t-25.5 65.5q0 40 25.5 66.5t63.5 26.5t63.5 -26.5t25.5 -66.5q0 -39 -25.5 -65.5t-63.5 -26.5z" />
    <glyph glyph-name="Lslash" unicode="&#x141;" horiz-adv-x="524" 
d="M27 176l-50 88l107 60v328h147v-260l158 87l50 -88l-208 -113v-154h258v-124h-405v210z" />
    <glyph glyph-name="lslash" unicode="&#x142;" horiz-adv-x="303" 
d="M210 -12q-135 0 -135 166v122l-45 -26l-51 91l96 54v306h147v-234l48 27l50 -91l-98 -55v-200q0 -41 26 -41q10 0 18 2l18 -109q-27 -12 -74 -12z" />
    <glyph glyph-name="Nacute" unicode="&#x143;" horiz-adv-x="665" 
d="M77 0v652h151l170 -324l64 -144h4q-1 14 -6.5 69t-8.5 94.5t-3 74.5v230h140v-652h-151l-170 325l-64 142h-4q2 -20 7 -71t8 -91t3 -74v-231h-140zM324 680l-66 74l171 140l78 -95z" />
    <glyph glyph-name="nacute" unicode="&#x144;" horiz-adv-x="572" 
d="M65 0v496h120l10 -63h4q79 75 159 75q154 0 154 -200v-308h-147v289q0 53 -14.5 73.5t-46.5 20.5q-26 0 -46 -11t-46 -37v-335h-147zM318 572l-72 72l154 182l99 -97z" />
    <glyph glyph-name="uni0145" unicode="&#x145;" horiz-adv-x="665" 
d="M77 0v652h151l170 -324l64 -144h4q-1 14 -6.5 69t-8.5 94.5t-3 74.5v230h140v-652h-151l-170 325l-64 142h-4q2 -20 7 -71t8 -91t3 -74v-231h-140zM242 -239l-11 59q57 3 80 12t23 27q0 29 -64 35l28 54q78 -7 109.5 -26.5t31.5 -57.5q0 -97 -197 -103z" />
    <glyph glyph-name="uni0146" unicode="&#x146;" horiz-adv-x="572" 
d="M65 0v496h120l10 -63h4q79 75 159 75q154 0 154 -200v-308h-147v289q0 53 -14.5 73.5t-46.5 20.5q-26 0 -46 -11t-46 -37v-335h-147zM189 -239l-11 59q57 3 80 12t23 27q0 29 -64 35l28 54q78 -7 109.5 -26.5t31.5 -57.5q0 -97 -197 -103z" />
    <glyph glyph-name="Ncaron" unicode="&#x147;" horiz-adv-x="665" 
d="M77 0v652h151l170 -324l64 -144h4q-1 14 -6.5 69t-8.5 94.5t-3 74.5v230h140v-652h-151l-170 325l-64 142h-4q2 -20 7 -71t8 -91t3 -74v-231h-140zM253 702l-90 110l64 40l104 -84h4l104 84l64 -40l-90 -110h-160z" />
    <glyph glyph-name="ncaron" unicode="&#x148;" horiz-adv-x="572" 
d="M65 0v496h120l10 -63h4q79 75 159 75q154 0 154 -200v-308h-147v289q0 53 -14.5 73.5t-46.5 20.5q-26 0 -46 -11t-46 -37v-335h-147zM233 577l-108 131l56 52l125 -92h4l125 92l56 -52l-108 -131h-150z" />
    <glyph glyph-name="napostrophe" unicode="&#x149;" horiz-adv-x="852" 
d="M343 0v496h120l10 -63h4q79 75 159 75q154 0 154 -200v-308h-147v289q0 53 -14.5 73.5t-46.5 20.5q-26 0 -46 -11t-46 -37v-335h-147zM103 352l-32 64q90 45 90 127q-3 -1 -9 -1q-33 0 -55 20t-22 53q0 37 21.5 59.5t55.5 22.5q45 0 69.5 -34t24.5 -97q0 -144 -143 -214z
" />
    <glyph glyph-name="uni014A" unicode="&#x14a;" horiz-adv-x="666" 
d="M412 -12q-61 0 -90 19l32 127q20 -9 41 -9q22 0 37.5 15t26 63t10.5 128q0 206 -117 206q-32 0 -68 -22t-60 -60v-455h-147v652h142v-70q77 82 177 82q103 0 163.5 -80t60.5 -253q0 -174 -51 -258.5t-157 -84.5z" />
    <glyph glyph-name="uni014B" unicode="&#x14b;" horiz-adv-x="572" 
d="M335 -187q-51 0 -88 14l27 108q20 -6 38 -6q29 0 41 18.5t12 61.5v280q0 53 -14.5 73.5t-46.5 20.5q-26 0 -46 -11t-46 -37v-335h-147v496h120l10 -63h4q79 75 159 75q154 0 154 -200v-295q0 -200 -177 -200z" />
    <glyph glyph-name="Omacron" unicode="&#x14c;" horiz-adv-x="684" 
d="M342 -12q-134 0 -215 91.5t-81 249.5q0 157 81 246t215 89t215 -89t81 -246q0 -158 -81 -249.5t-215 -91.5zM342 115q67 0 106 58t39 156q0 97 -39 152.5t-106 55.5t-106 -55.5t-39 -152.5q0 -98 39 -156t106 -58zM191 721v94h302v-94h-302z" />
    <glyph glyph-name="omacron" unicode="&#x14d;" horiz-adv-x="555" 
d="M278 -12q-100 0 -171 70.5t-71 189.5t71 189.5t171 70.5q99 0 170 -70.5t71 -189.5t-71 -189.5t-170 -70.5zM278 107q44 0 67.5 37.5t23.5 103.5t-23.5 103.5t-67.5 37.5q-45 0 -68 -37.5t-23 -103.5t23 -103.5t68 -37.5zM130 592v93h296v-93h-296z" />
    <glyph glyph-name="uni014E" unicode="&#x14e;" horiz-adv-x="684" 
d="M342 -12q-134 0 -215 91.5t-81 249.5q0 157 81 246t215 89t215 -89t81 -246q0 -158 -81 -249.5t-215 -91.5zM342 115q67 0 106 58t39 156q0 97 -39 152.5t-106 55.5t-106 -55.5t-39 -152.5q0 -98 39 -156t106 -58zM342 697q-149 0 -163 137l80 14q14 -66 83 -66t83 66
l80 -14q-14 -137 -163 -137z" />
    <glyph glyph-name="uni014F" unicode="&#x14f;" horiz-adv-x="555" 
d="M278 -12q-100 0 -171 70.5t-71 189.5t71 189.5t171 70.5q99 0 170 -70.5t71 -189.5t-71 -189.5t-170 -70.5zM278 107q44 0 67.5 37.5t23.5 103.5t-23.5 103.5t-67.5 37.5q-45 0 -68 -37.5t-23 -103.5t23 -103.5t68 -37.5zM278 572q-82 0 -124.5 43.5t-44.5 113.5l84 14
q5 -35 26 -57t59 -22t59 22t26 57l84 -14q-2 -70 -44.5 -113.5t-124.5 -43.5z" />
    <glyph glyph-name="Ohungarumlaut" unicode="&#x150;" horiz-adv-x="684" 
d="M342 -12q-134 0 -215 91.5t-81 249.5q0 157 81 246t215 89t215 -89t81 -246q0 -158 -81 -249.5t-215 -91.5zM342 115q67 0 106 58t39 156q0 97 -39 152.5t-106 55.5t-106 -55.5t-39 -152.5q0 -98 39 -156t106 -58zM207 728l101 161l93 -52l-122 -143zM394 728l101 161
l94 -52l-122 -143z" />
    <glyph glyph-name="ohungarumlaut" unicode="&#x151;" horiz-adv-x="555" 
d="M278 -12q-100 0 -171 70.5t-71 189.5t71 189.5t171 70.5q99 0 170 -70.5t71 -189.5t-71 -189.5t-170 -70.5zM278 107q44 0 67.5 37.5t23.5 103.5t-23.5 103.5t-67.5 37.5q-45 0 -68 -37.5t-23 -103.5t23 -103.5t68 -37.5zM226 565l-77 35l87 181l99 -44zM405 565l-77 35
l87 181l99 -44z" />
    <glyph glyph-name="OE" unicode="&#x152;" horiz-adv-x="871" 
d="M373 0q-146 0 -236.5 83.5t-90.5 245.5q0 161 91 242t244 81h427v-124h-247v-131h208v-123h-208v-150h257v-124h-445zM390 119h23v414h-23q-93 0 -143 -46.5t-50 -157.5q0 -210 193 -210z" />
    <glyph glyph-name="oe" unicode="&#x153;" horiz-adv-x="822" 
d="M267 -12q-99 0 -165 70t-66 190q0 119 67.5 189.5t166.5 70.5q100 0 161 -87q63 87 157 87q95 0 146.5 -67.5t51.5 -173.5q0 -38 -6 -62h-287q8 -50 40 -76t79 -26q43 0 105 36l51 -95q-82 -56 -176 -56q-95 0 -160 87q-63 -87 -165 -87zM270 107q40 0 63.5 38t23.5 103
t-23.5 103t-63.5 38t-62.5 -38t-22.5 -103t22.5 -103t62.5 -38zM493 295h167q0 101 -77 101q-36 0 -60 -25.5t-30 -75.5z" />
    <glyph glyph-name="Racute" unicode="&#x154;" horiz-adv-x="613" 
d="M77 0v652h235q251 0 251 -203q0 -137 -116 -188l148 -261h-165l-125 235h-81v-235h-147zM224 352h76q119 0 119 97q0 46 -29.5 66t-89.5 20h-76v-183zM298 680l-66 74l171 140l78 -95z" />
    <glyph glyph-name="racute" unicode="&#x155;" horiz-adv-x="398" 
d="M65 0v496h120l10 -87h4q26 49 63.5 74t77.5 25q36 0 59 -10l-24 -127q-29 8 -54 8q-31 0 -61 -22t-48 -69v-288h-147zM257 572l-72 72l154 182l99 -97z" />
    <glyph glyph-name="uni0156" unicode="&#x156;" horiz-adv-x="613" 
d="M77 0v652h235q251 0 251 -203q0 -137 -116 -188l148 -261h-165l-125 235h-81v-235h-147zM224 352h76q119 0 119 97q0 46 -29.5 66t-89.5 20h-76v-183zM224 -239l-11 59q57 3 80 12t23 27q0 29 -64 35l28 54q78 -7 109.5 -26.5t31.5 -57.5q0 -97 -197 -103z" />
    <glyph glyph-name="uni0157" unicode="&#x157;" horiz-adv-x="398" 
d="M65 0v496h120l10 -87h4q26 49 63.5 74t77.5 25q36 0 59 -10l-24 -127q-29 8 -54 8q-31 0 -61 -22t-48 -69v-288h-147zM36 -239l-11 59q57 3 80 12t23 27q0 29 -64 35l28 54q78 -7 109.5 -26.5t31.5 -57.5q0 -97 -197 -103z" />
    <glyph glyph-name="Rcaron" unicode="&#x158;" horiz-adv-x="613" 
d="M77 0v652h235q251 0 251 -203q0 -137 -116 -188l148 -261h-165l-125 235h-81v-235h-147zM224 352h76q119 0 119 97q0 46 -29.5 66t-89.5 20h-76v-183zM228 702l-90 110l64 40l104 -84h4l104 84l64 -40l-90 -110h-160z" />
    <glyph glyph-name="rcaron" unicode="&#x159;" horiz-adv-x="398" 
d="M65 0v496h120l10 -87h4q26 49 63.5 74t77.5 25q36 0 59 -10l-24 -127q-29 8 -54 8q-31 0 -61 -22t-48 -69v-288h-147zM172 577l-108 131l56 52l125 -92h4l125 92l56 -52l-108 -131h-150z" />
    <glyph glyph-name="Sacute" unicode="&#x15a;" horiz-adv-x="556" 
d="M276 -12q-141 0 -241 94l84 101q80 -68 161 -68q91 0 91 63q0 33 -42 55q-11 6 -52 23l-85 36q-57 23 -94 67.5t-37 110.5q0 82 65.5 138t166.5 56q124 0 210 -86l-75 -93q-68 52 -135 52q-38 0 -60.5 -15.5t-22.5 -43.5q0 -25 20.5 -39.5t65.5 -32.5q9 -3 13 -5l84 -34
q129 -52 129 -177q0 -85 -66.5 -143.5t-179.5 -58.5zM281 680l-66 74l171 140l78 -95z" />
    <glyph glyph-name="sacute" unicode="&#x15b;" horiz-adv-x="443" 
d="M211 -12q-48 0 -100 19t-90 50l66 92q69 -52 128 -52q63 0 63 42q0 5 -1.5 10t-5.5 9.5t-7.5 8t-11 7.5t-12.5 7t-14.5 7t-15 6t-16.5 6.5t-17 6.5q-131 50 -131 146q0 69 52 112t138 43q90 0 175 -63l-66 -88q-58 42 -105 42q-56 0 -56 -39q0 -7 2.5 -12.5t8.5 -11
t11 -9t16 -8t17 -7t21 -8t21 -7.5q61 -22 97.5 -55t36.5 -94q0 -70 -53.5 -115t-150.5 -45zM246 572l-72 72l154 182l99 -97z" />
    <glyph glyph-name="Scircumflex" unicode="&#x15c;" horiz-adv-x="556" 
d="M276 -12q-141 0 -241 94l84 101q80 -68 161 -68q91 0 91 63q0 33 -42 55q-11 6 -52 23l-85 36q-57 23 -94 67.5t-37 110.5q0 82 65.5 138t166.5 56q124 0 210 -86l-75 -93q-68 52 -135 52q-38 0 -60.5 -15.5t-22.5 -43.5q0 -25 20.5 -39.5t65.5 -32.5q9 -3 13 -5l84 -34
q129 -52 129 -177q0 -85 -66.5 -143.5t-179.5 -58.5zM121 724l90 111h160l90 -111l-64 -39l-104 84h-4l-104 -84z" />
    <glyph glyph-name="scircumflex" unicode="&#x15d;" horiz-adv-x="443" 
d="M211 -12q-48 0 -100 19t-90 50l66 92q69 -52 128 -52q63 0 63 42q0 5 -1.5 10t-5.5 9.5t-7.5 8t-11 7.5t-12.5 7t-14.5 7t-15 6t-16.5 6.5t-17 6.5q-131 50 -131 146q0 69 52 112t138 43q90 0 175 -63l-66 -88q-58 42 -105 42q-56 0 -56 -39q0 -7 2.5 -12.5t8.5 -11
t11 -9t16 -8t17 -7t21 -8t21 -7.5q61 -22 97.5 -55t36.5 -94q0 -70 -53.5 -115t-150.5 -45zM53 613l108 131h150l108 -131l-56 -52l-125 92h-4l-125 -92z" />
    <glyph glyph-name="uni015E" unicode="&#x15e;" horiz-adv-x="556" 
d="M177 -239l-11 59q58 3 80.5 13t22.5 31q0 32 -77 42l41 85q-116 13 -198 91l84 101q80 -68 161 -68q91 0 91 63q0 33 -42 55q-11 6 -52 23l-85 36q-57 23 -94 67.5t-37 110.5q0 82 65.5 138t166.5 56q124 0 210 -86l-75 -93q-68 52 -135 52q-38 0 -60.5 -15.5
t-22.5 -43.5q0 -25 20.5 -39.5t65.5 -32.5q9 -3 13 -5l84 -34q129 -52 129 -177q0 -75 -54 -131t-148 -68l-22 -52q39 -9 57.5 -26.5t18.5 -48.5q0 -97 -197 -103z" />
    <glyph glyph-name="uni015F" unicode="&#x15f;" horiz-adv-x="443" 
d="M135 -239l-11 59q58 3 80.5 13t22.5 31q0 32 -77 42l41 83q-97 8 -170 68l66 92q69 -52 128 -52q63 0 63 42q0 5 -1.5 10t-5.5 9.5t-7.5 8t-11 7.5t-12.5 7t-14.5 7t-15 6t-16.5 6.5t-17 6.5q-131 50 -131 146q0 69 52 112t138 43q90 0 175 -63l-66 -88q-58 42 -105 42
q-56 0 -56 -39q0 -7 2.5 -12.5t8.5 -11t11 -9t16 -8t17 -7t21 -8t21 -7.5q61 -22 97.5 -55t36.5 -94q0 -56 -35 -97t-100 -56l-24 -56q39 -9 57.5 -26.5t18.5 -48.5q0 -97 -197 -103z" />
    <glyph glyph-name="Scaron" unicode="&#x160;" horiz-adv-x="556" 
d="M276 -12q-141 0 -241 94l84 101q80 -68 161 -68q91 0 91 63q0 33 -42 55q-11 6 -52 23l-85 36q-57 23 -94 67.5t-37 110.5q0 82 65.5 138t166.5 56q124 0 210 -86l-75 -93q-68 52 -135 52q-38 0 -60.5 -15.5t-22.5 -43.5q0 -25 20.5 -39.5t65.5 -32.5q9 -3 13 -5l84 -34
q129 -52 129 -177q0 -85 -66.5 -143.5t-179.5 -58.5zM211 702l-90 110l64 40l104 -84h4l104 84l64 -40l-90 -110h-160z" />
    <glyph glyph-name="scaron" unicode="&#x161;" horiz-adv-x="443" 
d="M211 -12q-48 0 -100 19t-90 50l66 92q69 -52 128 -52q63 0 63 42q0 5 -1.5 10t-5.5 9.5t-7.5 8t-11 7.5t-12.5 7t-14.5 7t-15 6t-16.5 6.5t-17 6.5q-131 50 -131 146q0 69 52 112t138 43q90 0 175 -63l-66 -88q-58 42 -105 42q-56 0 -56 -39q0 -7 2.5 -12.5t8.5 -11
t11 -9t16 -8t17 -7t21 -8t21 -7.5q61 -22 97.5 -55t36.5 -94q0 -70 -53.5 -115t-150.5 -45zM161 577l-108 131l56 52l125 -92h4l125 92l56 -52l-108 -131h-150z" />
    <glyph glyph-name="uni0162" unicode="&#x162;" horiz-adv-x="556" 
d="M204 0v528h-179v124h506v-124h-179v-528h-27l-26 -61q39 -9 57.5 -26.5t18.5 -48.5q0 -97 -197 -103l-11 59q58 3 80.5 13t22.5 31q0 32 -77 42l46 94h-35z" />
    <glyph glyph-name="uni0163" unicode="&#x163;" horiz-adv-x="383" 
d="M139 -239l-11 59q58 3 80.5 13t22.5 31q0 32 -77 42l44 89q-113 30 -113 185v201h-68v109l76 6l17 132h122v-132h119v-115h-119v-199q0 -79 64 -79q21 0 47 10l23 -107q-40 -13 -84 -17l-22 -50q39 -9 57.5 -26.5t18.5 -48.5q0 -97 -197 -103z" />
    <glyph glyph-name="Tcaron" unicode="&#x164;" horiz-adv-x="556" 
d="M204 0v528h-179v124h506v-124h-179v-528h-148zM198 702l-90 110l64 40l104 -84h4l104 84l64 -40l-90 -110h-160z" />
    <glyph glyph-name="tcaron" unicode="&#x165;" horiz-adv-x="383" 
d="M256 -12q-171 0 -171 192v201h-68v109l76 6l17 132h122v-132h119v-115h-119v-199q0 -79 64 -79q21 0 47 10l23 -107q-58 -18 -110 -18zM280 548l-6 222h95l-2 -69l-24 -153h-63z" />
    <glyph glyph-name="uni0166" unicode="&#x166;" horiz-adv-x="556" 
d="M204 0v285h-118v65l94 6h24v172h-179v124h506v-124h-179v-172h118v-71h-118v-285h-148z" />
    <glyph glyph-name="uni0167" unicode="&#x167;" horiz-adv-x="383" 
d="M17 223v65l68 5v88h-68v109l76 6l17 132h122v-132h119v-115h-119v-87h119v-71h-119v-41q0 -79 64 -79q21 0 47 10l23 -107q-58 -18 -110 -18q-171 0 -171 192v43h-68z" />
    <glyph glyph-name="Utilde" unicode="&#x168;" horiz-adv-x="665" 
d="M334 -12q-261 0 -261 314v350h148v-365q0 -93 28 -132.5t85 -39.5t86 39.5t29 132.5v365h142v-350q0 -162 -64.5 -238t-192.5 -76zM403 692q-40 0 -82.5 29t-54.5 29q-32 0 -37 -49l-95 7q4 73 38 108.5t89 35.5q40 0 82.5 -29t54.5 -29q32 0 37 49l95 -7
q-4 -72 -38 -108t-89 -36z" />
    <glyph glyph-name="utilde" unicode="&#x169;" horiz-adv-x="568" 
d="M214 -12q-154 0 -154 200v308h147v-289q0 -52 14.5 -73t47.5 -21q27 0 46.5 12.5t41.5 42.5v328h147v-496h-120l-11 69h-3q-68 -81 -156 -81zM351 573q-35 0 -76 32t-53 32q-29 0 -35 -55l-92 5q4 152 124 152q36 0 76.5 -32t52.5 -32q29 0 35 55l92 -5
q-4 -152 -124 -152z" />
    <glyph glyph-name="Umacron" unicode="&#x16a;" horiz-adv-x="665" 
d="M334 -12q-261 0 -261 314v350h148v-365q0 -93 28 -132.5t85 -39.5t86 39.5t29 132.5v365h142v-350q0 -162 -64.5 -238t-192.5 -76zM181 721v94h302v-94h-302z" />
    <glyph glyph-name="umacron" unicode="&#x16b;" horiz-adv-x="568" 
d="M214 -12q-154 0 -154 200v308h147v-289q0 -52 14.5 -73t47.5 -21q27 0 46.5 12.5t41.5 42.5v328h147v-496h-120l-11 69h-3q-68 -81 -156 -81zM136 592v93h296v-93h-296z" />
    <glyph glyph-name="Ubreve" unicode="&#x16c;" horiz-adv-x="665" 
d="M334 -12q-261 0 -261 314v350h148v-365q0 -93 28 -132.5t85 -39.5t86 39.5t29 132.5v365h142v-350q0 -162 -64.5 -238t-192.5 -76zM332 697q-149 0 -163 137l80 14q14 -66 83 -66t83 66l80 -14q-14 -137 -163 -137z" />
    <glyph glyph-name="ubreve" unicode="&#x16d;" horiz-adv-x="568" 
d="M214 -12q-154 0 -154 200v308h147v-289q0 -52 14.5 -73t47.5 -21q27 0 46.5 12.5t41.5 42.5v328h147v-496h-120l-11 69h-3q-68 -81 -156 -81zM285 572q-82 0 -124.5 43.5t-44.5 113.5l84 14q5 -35 26 -57t59 -22t59 22t26 57l84 -14q-2 -70 -44.5 -113.5t-124.5 -43.5z
" />
    <glyph glyph-name="Uring" unicode="&#x16e;" horiz-adv-x="665" 
d="M334 -12q-261 0 -261 314v350h148v-365q0 -93 28 -132.5t85 -39.5t86 39.5t29 132.5v365h142v-350q0 -162 -64.5 -238t-192.5 -76zM332 697q-51 0 -82.5 27t-31.5 72t31.5 71.5t82.5 26.5t82.5 -26.5t31.5 -71.5t-31.5 -72t-82.5 -27zM332 752q18 0 30 12t12 32
q0 19 -12 31t-30 12t-30 -12t-12 -31q0 -20 12 -32t30 -12z" />
    <glyph glyph-name="uring" unicode="&#x16f;" horiz-adv-x="568" 
d="M214 -12q-154 0 -154 200v308h147v-289q0 -52 14.5 -73t47.5 -21q27 0 46.5 12.5t41.5 42.5v328h147v-496h-120l-11 69h-3q-68 -81 -156 -81zM285 564q-63 0 -97.5 29.5t-34.5 74.5t34.5 74.5t97.5 29.5t97.5 -29.5t34.5 -74.5t-34.5 -74.5t-97.5 -29.5zM285 619
q18 0 30.5 14t12.5 35t-12.5 35t-30.5 14t-30.5 -14t-12.5 -35t12.5 -35t30.5 -14z" />
    <glyph glyph-name="Uhungarumlaut" unicode="&#x170;" horiz-adv-x="665" 
d="M334 -12q-261 0 -261 314v350h148v-365q0 -93 28 -132.5t85 -39.5t86 39.5t29 132.5v365h142v-350q0 -162 -64.5 -238t-192.5 -76zM197 728l101 161l93 -52l-122 -143zM384 728l101 161l94 -52l-122 -143z" />
    <glyph glyph-name="uhungarumlaut" unicode="&#x171;" horiz-adv-x="568" 
d="M214 -12q-154 0 -154 200v308h147v-289q0 -52 14.5 -73t47.5 -21q27 0 46.5 12.5t41.5 42.5v328h147v-496h-120l-11 69h-3q-68 -81 -156 -81zM233 565l-77 35l87 181l99 -44zM412 565l-77 35l87 181l99 -44z" />
    <glyph glyph-name="Uogonek" unicode="&#x172;" horiz-adv-x="665" 
d="M357 -223q-50 0 -82 25t-32 69q0 62 64 119q-234 14 -234 312v350h148v-365q0 -93 28 -132.5t85 -39.5t86 39.5t29 132.5v365h142v-350q0 -134 -38.5 -199.5t-131.5 -107.5q-35 -16 -53 -39.5t-18 -45.5q0 -18 12.5 -28t29.5 -10q16 0 36 14l34 -74q-45 -35 -105 -35z
" />
    <glyph glyph-name="uogonek" unicode="&#x173;" horiz-adv-x="568" 
d="M423 -210q-46 0 -76 24t-30 67q0 71 69 117l-13 71h-3q-68 -81 -156 -81q-154 0 -154 200v308h147v-289q0 -52 14.5 -73t47.5 -21q27 0 46.5 12.5t41.5 42.5v328h147v-496q-46 -14 -67 -37t-21 -48q0 -18 12.5 -28t29.5 -10q18 0 36 12l30 -66q-18 -15 -47.5 -24
t-53.5 -9z" />
    <glyph glyph-name="Wcircumflex" unicode="&#x174;" horiz-adv-x="813" 
d="M135 0l-121 652h151l45 -305q4 -33 13 -101.5t13 -104.5h4q26 138 39 206l70 305h125l70 -305q13 -66 39 -206h4q15 117 27 206l45 305h141l-116 -652h-185l-64 296q-12 54 -26 151h-4q-19 -117 -27 -151l-61 -296h-182zM237 724l90 111h160l90 -111l-64 -39l-104 84h-4
l-104 -84z" />
    <glyph glyph-name="wcircumflex" unicode="&#x175;" horiz-adv-x="776" 
d="M148 0l-124 496h146l48 -230q4 -25 11 -74t11 -73h4q20 113 29 147l55 230h127l56 -230q9 -36 31 -147h4q4 25 11 73.5t12 73.5l47 230h136l-119 -496h-172l-45 198q-11 50 -27 145h-4q-22 -130 -25 -145l-44 -198h-168zM206 613l108 131h150l108 -131l-56 -52l-125 92
h-4l-125 -92z" />
    <glyph glyph-name="Ycircumflex" unicode="&#x176;" horiz-adv-x="525" 
d="M189 0v232l-197 420h158l58 -150q3 -9 22.5 -62t30.5 -82h4q5 13 25 64t30 80l59 150h154l-197 -420v-232h-147zM92 724l90 111h160l90 -111l-64 -39l-104 84h-4l-104 -84z" />
    <glyph glyph-name="ycircumflex" unicode="&#x177;" horiz-adv-x="521" 
d="M120 -194q-37 0 -70 10l26 112q27 -6 33 -6q65 0 87 65l7 26l-191 483h148l71 -213q11 -35 39 -141h4q22 94 34 141l60 213h141l-172 -501q-37 -99 -85 -144t-132 -45zM84 613l108 131h150l108 -131l-56 -52l-125 92h-4l-125 -92z" />
    <glyph glyph-name="Ydieresis" unicode="&#x178;" horiz-adv-x="525" 
d="M189 0v232l-197 420h158l58 -150q3 -9 22.5 -62t30.5 -82h4q5 13 25 64t30 80l59 150h154l-197 -420v-232h-147zM151 700q-31 0 -50.5 20t-19.5 50t19.5 50t50.5 20t50.5 -20t19.5 -50t-19.5 -50t-50.5 -20zM373 700q-31 0 -50.5 20t-19.5 50t19.5 50t50.5 20t50.5 -20
t19.5 -50t-19.5 -50t-50.5 -20z" />
    <glyph glyph-name="Zacute" unicode="&#x179;" horiz-adv-x="541" 
d="M36 0v89l288 439h-261v124h442v-89l-288 -439h291v-124h-472zM273 680l-66 74l171 140l78 -95z" />
    <glyph glyph-name="zacute" unicode="&#x17a;" horiz-adv-x="460" 
d="M38 0v79l208 302h-185v115h368v-78l-208 -303h215v-115h-398zM255 572l-72 72l154 182l99 -97z" />
    <glyph glyph-name="Zdotaccent" unicode="&#x17b;" horiz-adv-x="541" 
d="M36 0v89l288 439h-261v124h442v-89l-288 -439h291v-124h-472zM283 701q-37 0 -61 21.5t-24 55.5t24 55.5t61 21.5t61 -21.5t24 -55.5t-24 -55.5t-61 -21.5z" />
    <glyph glyph-name="zdotaccent" unicode="&#x17c;" horiz-adv-x="460" 
d="M38 0v79l208 302h-185v115h368v-78l-208 -303h215v-115h-398zM245 569q-36 0 -58.5 21.5t-22.5 55.5t22.5 55.5t58.5 21.5t58.5 -21.5t22.5 -55.5t-22.5 -55.5t-58.5 -21.5z" />
    <glyph glyph-name="Zcaron" unicode="&#x17d;" horiz-adv-x="541" 
d="M36 0v89l288 439h-261v124h442v-89l-288 -439h291v-124h-472zM203 702l-90 110l64 40l104 -84h4l104 84l64 -40l-90 -110h-160z" />
    <glyph glyph-name="zcaron" unicode="&#x17e;" horiz-adv-x="460" 
d="M38 0v79l208 302h-185v115h368v-78l-208 -303h215v-115h-398zM170 577l-108 131l56 52l125 -92h4l125 92l56 -52l-108 -131h-150z" />
    <glyph glyph-name="uni0180" unicode="&#x180;" horiz-adv-x="571" 
d="M325 -12q-70 0 -129 65h-4l-12 -53h-115v556h-68v65l68 5v75h147v-74h169v-71h-169v-75l-4 -76q63 55 131 55q89 0 142 -62.5t53 -163.5q0 -110 -62.5 -178t-146.5 -68zM291 108q40 0 66 32.5t26 91.5q0 107 -86 107q-45 0 -85 -44v-155q35 -32 79 -32z" />
    <glyph glyph-name="uni018F" unicode="&#x18f;" horiz-adv-x="675" 
d="M336 -12q-133 0 -209 87t-76 248q0 23 3 49h427q-15 171 -158 171q-76 0 -143 -61l-67 101q88 81 227 81q132 0 210.5 -87.5t78.5 -249.5q0 -163 -79 -251t-214 -88zM336 108q123 0 143 156h-278q11 -156 135 -156z" />
    <glyph glyph-name="uni0192" unicode="&#x192;" horiz-adv-x="528" 
d="M116 -96q-61 0 -86 15l20 109q17 -7 44 -9q36 2 52 30t25 112l17 146h-75v101l74 6h13l5 43q12 111 58.5 159t144.5 48q46 0 86 -18l-28 -110q-33 11 -46 11q-65 0 -73 -78l-7 -55h103v-107h-115l-23 -189q-12 -102 -53.5 -158t-135.5 -56z" />
    <glyph glyph-name="uni0193" unicode="&#x193;" horiz-adv-x="638" 
d="M365 -12q-140 0 -229.5 87.5t-89.5 246.5q0 157 91.5 249.5t226.5 92.5q31 0 52 -4q0 3 -0.5 8.5t-0.5 8.5q0 60 39 100.5t105 40.5q48 0 85 -13l-26 -109q-17 7 -28 7q-23 0 -37 -12.5t-14 -35.5q0 -27 30 -64l-77 -95q-59 41 -123 41q-77 0 -124.5 -56.5t-47.5 -153.5
q0 -102 46.5 -157t136.5 -55q45 0 70 20v112h-108v120h238v-300q-36 -35 -93 -57t-122 -22z" />
    <glyph glyph-name="Ohorn" unicode="&#x1a0;" horiz-adv-x="684" 
d="M343 -12q-134 0 -215 91.5t-81 249.5q0 157 81 246t215 89q77 0 139 -31q31 9 45.5 25t14.5 47q0 35 -16 65l109 44q30 -41 30 -98q0 -102 -115 -132q89 -92 89 -255q0 -158 -81 -249.5t-215 -91.5zM343 115q67 0 106 58t39 156q0 97 -39 152.5t-106 55.5t-106 -55.5
t-39 -152.5q0 -98 39 -156t106 -58z" />
    <glyph glyph-name="ohorn" unicode="&#x1a1;" horiz-adv-x="555" 
d="M278 -12q-100 0 -171 70.5t-71 189.5t71 189.5t171 70.5q50 0 96 -20q68 17 68 90q0 32 -16 57l109 47q30 -40 30 -94q0 -57 -33.5 -94.5t-86.5 -53.5q74 -74 74 -192q0 -119 -71 -189.5t-170 -70.5zM278 107q44 0 67.5 37.5t23.5 103.5t-23.5 103.5t-67.5 37.5
q-45 0 -68 -37.5t-23 -103.5t23 -103.5t68 -37.5z" />
    <glyph glyph-name="Uhorn" unicode="&#x1af;" horiz-adv-x="683" 
d="M334 -12q-261 0 -261 314v350h148v-365q0 -93 28 -132.5t85 -39.5t86 39.5t29 132.5v365h70q38 2 60.5 17t22.5 56q0 35 -16 65l109 44q30 -44 30 -98q0 -114 -134 -138v-296q0 -162 -64.5 -238t-192.5 -76z" />
    <glyph glyph-name="uhorn" unicode="&#x1b0;" horiz-adv-x="568" 
d="M214 -12q-154 0 -154 200v308h147v-289q0 -52 14.5 -73t47.5 -21q27 0 46.5 12.5t41.5 42.5v328h46q36 2 58.5 21t22.5 71q0 27 -15 57l108 47q30 -38 30 -94q0 -57 -29 -94.5t-74 -52.5v-451h-120l-11 69h-3q-68 -81 -156 -81z" />
    <glyph glyph-name="uni01C2" unicode="&#x1c2;" horiz-adv-x="330" 
d="M6 330v66l76 5h38v349h96v-349h106v-71h-106v-125h106v-71h-106v-384h-96v384h-114v65l76 6h38v125h-114z" />
    <glyph glyph-name="uni01CD" unicode="&#x1cd;" horiz-adv-x="573" 
d="M230 330l-16 -60h139l-15 60q-5 19 -53 210h-4q-37 -159 -51 -210zM-6 0l204 652h177l204 -652h-156l-40 155h-199l-40 -155h-150zM203 702l-90 110l64 40l104 -84h4l104 84l64 -40l-90 -110h-160z" />
    <glyph glyph-name="uni01CE" unicode="&#x1ce;" horiz-adv-x="527" 
d="M190 -12q-67 0 -107.5 43t-40.5 107q0 79 66.5 122.5t212.5 58.5q-5 72 -78 72q-54 0 -131 -45l-53 97q108 65 212 65q197 0 197 -224v-284h-120l-10 51h-4q-72 -63 -144 -63zM240 102q39 0 81 42v87q-138 -19 -138 -82q0 -47 57 -47zM201 577l-108 131l56 52l125 -92h4
l125 92l56 -52l-108 -131h-150z" />
    <glyph glyph-name="uni01CF" unicode="&#x1cf;" horiz-adv-x="301" 
d="M77 0v652h147v-652h-147zM71 702l-90 110l64 40l104 -84h4l104 84l64 -40l-90 -110h-160z" />
    <glyph glyph-name="uni01D0" unicode="&#x1d0;" horiz-adv-x="276" 
d="M65 0v496h147v-496h-147zM63 577l-108 131l56 52l125 -92h4l125 92l56 -52l-108 -131h-150z" />
    <glyph glyph-name="uni01D1" unicode="&#x1d1;" horiz-adv-x="684" 
d="M342 -12q-134 0 -215 91.5t-81 249.5q0 157 81 246t215 89t215 -89t81 -246q0 -158 -81 -249.5t-215 -91.5zM342 115q67 0 106 58t39 156q0 97 -39 152.5t-106 55.5t-106 -55.5t-39 -152.5q0 -98 39 -156t106 -58zM262 702l-90 110l64 40l104 -84h4l104 84l64 -40
l-90 -110h-160z" />
    <glyph glyph-name="uni01D2" unicode="&#x1d2;" horiz-adv-x="555" 
d="M278 -12q-100 0 -171 70.5t-71 189.5t71 189.5t171 70.5q99 0 170 -70.5t71 -189.5t-71 -189.5t-170 -70.5zM278 107q44 0 67.5 37.5t23.5 103.5t-23.5 103.5t-67.5 37.5q-45 0 -68 -37.5t-23 -103.5t23 -103.5t68 -37.5zM203 577l-108 131l56 52l125 -92h4l125 92
l56 -52l-108 -131h-150z" />
    <glyph glyph-name="uni01D3" unicode="&#x1d3;" horiz-adv-x="665" 
d="M334 -12q-261 0 -261 314v350h148v-365q0 -93 28 -132.5t85 -39.5t86 39.5t29 132.5v365h142v-350q0 -162 -64.5 -238t-192.5 -76zM252 702l-90 110l64 40l104 -84h4l104 84l64 -40l-90 -110h-160z" />
    <glyph glyph-name="uni01D4" unicode="&#x1d4;" horiz-adv-x="568" 
d="M214 -12q-154 0 -154 200v308h147v-289q0 -52 14.5 -73t47.5 -21q27 0 46.5 12.5t41.5 42.5v328h147v-496h-120l-11 69h-3q-68 -81 -156 -81zM210 577l-108 131l56 52l125 -92h4l125 92l56 -52l-108 -131h-150z" />
    <glyph glyph-name="uni01D5" unicode="&#x1d5;" horiz-adv-x="665" 
d="M334 -12q-261 0 -261 314v350h148v-365q0 -93 28 -132.5t85 -39.5t86 39.5t29 132.5v365h142v-350q0 -162 -64.5 -238t-192.5 -76zM221 700q-27 0 -44 17.5t-17 44.5q0 26 17 43.5t44 17.5t44.5 -17.5t17.5 -43.5t-17.5 -44t-44.5 -18zM181 872v69h302v-69h-302zM443 700
q-27 0 -44.5 18t-17.5 44t17.5 43.5t44.5 17.5t44 -17.5t17 -43.5q0 -27 -17 -44.5t-44 -17.5z" />
    <glyph glyph-name="uni01D6" unicode="&#x1d6;" horiz-adv-x="568" 
d="M214 -12q-154 0 -154 200v308h147v-289q0 -52 14.5 -73t47.5 -21q27 0 46.5 12.5t41.5 42.5v328h147v-496h-120l-11 69h-3q-68 -81 -156 -81zM176 571q-27 0 -44.5 17.5t-17.5 43.5t17.5 44t44.5 18t44.5 -18t17.5 -44t-17.5 -43.5t-44.5 -17.5zM137 756v69h296v-69h-296
zM394 571q-27 0 -44.5 17.5t-17.5 43.5t17.5 44t44.5 18t44.5 -18t17.5 -44t-17.5 -43.5t-44.5 -17.5z" />
    <glyph glyph-name="uni01D7" unicode="&#x1d7;" horiz-adv-x="665" 
d="M334 -12q-261 0 -261 314v350h148v-365q0 -93 28 -132.5t85 -39.5t86 39.5t29 132.5v365h142v-350q0 -162 -64.5 -238t-192.5 -76zM221 700q-27 0 -44 17.5t-17 44.5q0 26 17 43.5t44 17.5t44.5 -17.5t17.5 -43.5t-17.5 -44t-44.5 -18zM277 864l95 145l92 -57l-124 -127z
M443 700q-27 0 -44.5 18t-17.5 44t17.5 43.5t44.5 17.5t44 -17.5t17 -43.5q0 -27 -17 -44.5t-44 -17.5z" />
    <glyph glyph-name="uni01D8" unicode="&#x1d8;" horiz-adv-x="568" 
d="M214 -12q-154 0 -154 200v308h147v-289q0 -52 14.5 -73t47.5 -21q27 0 46.5 12.5t41.5 42.5v328h147v-496h-120l-11 69h-3q-68 -81 -156 -81zM292 713l-56 36l78 133l78 -52zM176 571q-27 0 -44.5 17.5t-17.5 43.5t17.5 44t44.5 18t44.5 -18t17.5 -44t-17.5 -43.5
t-44.5 -17.5zM394 571q-27 0 -44.5 17.5t-17.5 43.5t17.5 44t44.5 18t44.5 -18t17.5 -44t-17.5 -43.5t-44.5 -17.5z" />
    <glyph glyph-name="uni01D9" unicode="&#x1d9;" horiz-adv-x="665" 
d="M334 -12q-261 0 -261 314v350h148v-365q0 -93 28 -132.5t85 -39.5t86 39.5t29 132.5v365h142v-350q0 -162 -64.5 -238t-192.5 -76zM269 854l-92 102l59 39l94 -73h4l94 73l59 -39l-92 -102h-126zM221 700q-27 0 -44 17.5t-17 44.5q0 26 17 43.5t44 17.5t44.5 -17.5
t17.5 -43.5t-17.5 -44t-44.5 -18zM443 700q-27 0 -44.5 18t-17.5 44t17.5 43.5t44.5 17.5t44 -17.5t17 -43.5q0 -27 -17 -44.5t-44 -17.5z" />
    <glyph glyph-name="uni01DA" unicode="&#x1da;" horiz-adv-x="568" 
d="M214 -12q-154 0 -154 200v308h147v-289q0 -52 14.5 -73t47.5 -21q27 0 46.5 12.5t41.5 42.5v328h147v-496h-120l-11 69h-3q-68 -81 -156 -81zM183 873l100 -65h4l100 65l48 -44l-92 -92h-116l-92 92zM176 571q-27 0 -44.5 17.5t-17.5 43.5t17.5 44t44.5 18t44.5 -18
t17.5 -44t-17.5 -43.5t-44.5 -17.5zM394 571q-27 0 -44.5 17.5t-17.5 43.5t17.5 44t44.5 18t44.5 -18t17.5 -44t-17.5 -43.5t-44.5 -17.5z" />
    <glyph glyph-name="uni01DB" unicode="&#x1db;" horiz-adv-x="665" 
d="M334 -12q-261 0 -261 314v350h148v-365q0 -93 28 -132.5t85 -39.5t86 39.5t29 132.5v365h142v-350q0 -162 -64.5 -238t-192.5 -76zM387 864l-63 -39l-124 127l92 57zM221 700q-27 0 -44 17.5t-17 44.5q0 26 17 43.5t44 17.5t44.5 -17.5t17.5 -43.5t-17.5 -44t-44.5 -18z
M443 700q-27 0 -44.5 18t-17.5 44t17.5 43.5t44.5 17.5t44 -17.5t17 -43.5q0 -27 -17 -44.5t-44 -17.5z" />
    <glyph glyph-name="uni01DC" unicode="&#x1dc;" horiz-adv-x="568" 
d="M214 -12q-154 0 -154 200v308h147v-289q0 -52 14.5 -73t47.5 -21q27 0 46.5 12.5t41.5 42.5v328h147v-496h-120l-11 69h-3q-68 -81 -156 -81zM278 713l-100 117l78 52l78 -133zM176 571q-27 0 -44.5 17.5t-17.5 43.5t17.5 44t44.5 18t44.5 -18t17.5 -44t-17.5 -43.5
t-44.5 -17.5zM394 571q-27 0 -44.5 17.5t-17.5 43.5t17.5 44t44.5 18t44.5 -18t17.5 -44t-17.5 -43.5t-44.5 -17.5z" />
    <glyph glyph-name="uni01E2" unicode="&#x1e2;" horiz-adv-x="845" 
d="M303 356l-42 -93h125v278h-4q-66 -157 -79 -185zM-14 0l310 652h487v-124h-250v-131h211v-123h-211v-150h260v-124h-407v149h-177l-68 -149h-155zM386 739v94h302v-94h-302z" />
    <glyph glyph-name="uni01E3" unicode="&#x1e3;" horiz-adv-x="786" 
d="M194 -12q-66 0 -106.5 42.5t-40.5 106.5q0 80 65.5 124t210.5 59q-5 71 -77 71q-53 0 -130 -45l-52 97q108 65 203 65q92 0 138 -75q66 75 147 75q95 0 146 -67.5t51 -173.5q0 -38 -6 -62h-286q8 -50 40 -76t79 -26q43 0 105 36l50 -95q-82 -56 -175 -56q-101 0 -171 77
q-96 -77 -191 -77zM244 102q49 0 93 42q-11 31 -14 66l-1 21q-135 -19 -135 -82q0 -47 57 -47zM457 295h167q0 101 -77 101q-36 0 -60 -25.5t-30 -75.5zM263 592v93h296v-93h-296z" />
    <glyph glyph-name="Gcaron" unicode="&#x1e6;" horiz-adv-x="638" 
d="M365 -12q-140 0 -229.5 87.5t-89.5 246.5q0 157 91.5 249.5t226.5 92.5q122 0 205 -85l-77 -94q-59 52 -123 52q-77 0 -124.5 -56.5t-47.5 -153.5q0 -102 46.5 -157t136.5 -55q45 0 70 20v112h-108v120h238v-300q-36 -35 -93 -57t-122 -22zM287 702l-90 110l64 40
l104 -84h4l104 84l64 -40l-90 -110h-160z" />
    <glyph glyph-name="gcaron" unicode="&#x1e7;" horiz-adv-x="534" 
d="M242 -211q-93 0 -150.5 31.5t-57.5 94.5q0 60 71 100v4q-46 30 -46 84q0 55 56 93v4q-29 20 -48 54t-19 75q0 85 59.5 132t145.5 47q44 0 77 -12h181v-107h-79q16 -27 16 -65q0 -82 -54.5 -124.5t-140.5 -42.5q-29 0 -60 10q-18 -15 -18 -37q0 -37 75 -37h80
q189 0 189 -126q0 -78 -75.5 -128t-201.5 -50zM253 246q30 0 49 21.5t19 61.5q0 38 -19 59t-49 21t-49 -20.5t-19 -59.5q0 -40 19 -61.5t49 -21.5zM265 -119q49 0 81.5 17.5t32.5 43.5q0 22 -18.5 30.5t-57.5 8.5h-51q-46 0 -70 6q-27 -24 -27 -49q0 -27 29.5 -42t80.5 -15z
M204 577l-108 131l56 52l125 -92h4l125 92l56 -52l-108 -131h-150z" />
    <glyph glyph-name="uni01EA" unicode="&#x1ea;" horiz-adv-x="684" 
d="M368 -223q-50 0 -82.5 25t-32.5 69q0 64 63 119q-125 9 -197.5 99t-72.5 240q0 157 81 246t215 89t215 -89t81 -246q0 -132 -52 -209.5t-155 -124.5q-35 -16 -53 -39t-18 -46q0 -18 12.5 -28t29.5 -10q16 0 36 14l34 -74q-46 -35 -104 -35zM342 115q67 0 106 58t39 156
q0 97 -39 152.5t-106 55.5t-106 -55.5t-39 -152.5q0 -98 39 -156t106 -58z" />
    <glyph glyph-name="uni01EB" unicode="&#x1eb;" horiz-adv-x="555" 
d="M297 -210q-46 0 -76 24t-30 67q0 61 55 109q-89 11 -149.5 80t-60.5 178q0 119 71 189.5t171 70.5q99 0 170 -70.5t71 -189.5q0 -94 -42 -152.5t-120 -95.5q-67 -30 -67 -85q0 -19 12.5 -28.5t29.5 -9.5q16 0 36 12l30 -66q-41 -33 -101 -33zM278 107q44 0 67.5 37.5
t23.5 103.5t-23.5 103.5t-67.5 37.5q-45 0 -68 -37.5t-23 -103.5t23 -103.5t68 -37.5z" />
    <glyph glyph-name="uni01F4" unicode="&#x1f4;" horiz-adv-x="638" 
d="M365 -12q-140 0 -229.5 87.5t-89.5 246.5q0 157 91.5 249.5t226.5 92.5q122 0 205 -85l-77 -94q-59 52 -123 52q-77 0 -124.5 -56.5t-47.5 -153.5q0 -102 46.5 -157t136.5 -55q45 0 70 20v112h-108v120h238v-300q-36 -35 -93 -57t-122 -22zM357 680l-66 74l171 140
l78 -95z" />
    <glyph glyph-name="uni01F5" unicode="&#x1f5;" horiz-adv-x="534" 
d="M242 -211q-93 0 -150.5 31.5t-57.5 94.5q0 60 71 100v4q-46 30 -46 84q0 55 56 93v4q-29 20 -48 54t-19 75q0 85 59.5 132t145.5 47q44 0 77 -12h181v-107h-79q16 -27 16 -65q0 -82 -54.5 -124.5t-140.5 -42.5q-29 0 -60 10q-18 -15 -18 -37q0 -37 75 -37h80
q189 0 189 -126q0 -78 -75.5 -128t-201.5 -50zM253 246q30 0 49 21.5t19 61.5q0 38 -19 59t-49 21t-49 -20.5t-19 -59.5q0 -40 19 -61.5t49 -21.5zM265 -119q49 0 81.5 17.5t32.5 43.5q0 22 -18.5 30.5t-57.5 8.5h-51q-46 0 -70 6q-27 -24 -27 -49q0 -27 29.5 -42t80.5 -15z
M289 572l-72 72l154 182l99 -97z" />
    <glyph glyph-name="uni01F8" unicode="&#x1f8;" horiz-adv-x="665" 
d="M77 0v652h151l170 -324l64 -144h4q-1 14 -6.5 69t-8.5 94.5t-3 74.5v230h140v-652h-151l-170 325l-64 142h-4q2 -20 7 -71t8 -91t3 -74v-231h-140zM344 680l-183 119l78 95l171 -140z" />
    <glyph glyph-name="uni01F9" unicode="&#x1f9;" horiz-adv-x="572" 
d="M65 0v496h120l10 -63h4q79 75 159 75q154 0 154 -200v-308h-147v289q0 53 -14.5 73.5t-46.5 20.5q-26 0 -46 -11t-46 -37v-335h-147zM298 572l-181 157l99 97l154 -182z" />
    <glyph glyph-name="uni01FC" unicode="&#x1fc;" horiz-adv-x="845" 
d="M303 356l-42 -93h125v278h-4q-66 -157 -79 -185zM-14 0l310 652h487v-124h-250v-131h211v-123h-211v-150h260v-124h-407v149h-177l-68 -149h-155zM527 698l-66 74l171 140l78 -95z" />
    <glyph glyph-name="uni01FD" unicode="&#x1fd;" horiz-adv-x="786" 
d="M194 -12q-66 0 -106.5 42.5t-40.5 106.5q0 80 65.5 124t210.5 59q-5 71 -77 71q-53 0 -130 -45l-52 97q108 65 203 65q92 0 138 -75q66 75 147 75q95 0 146 -67.5t51 -173.5q0 -38 -6 -62h-286q8 -50 40 -76t79 -26q43 0 105 36l50 -95q-82 -56 -175 -56q-101 0 -171 77
q-96 -77 -191 -77zM244 102q49 0 93 42q-11 31 -14 66l-1 21q-135 -19 -135 -82q0 -47 57 -47zM457 295h167q0 101 -77 101q-36 0 -60 -25.5t-30 -75.5zM421 572l-72 72l154 182l99 -97z" />
    <glyph glyph-name="uni0218" unicode="&#x218;" horiz-adv-x="556" 
d="M276 -12q-141 0 -241 94l84 101q80 -68 161 -68q91 0 91 63q0 33 -42 55q-11 6 -52 23l-85 36q-57 23 -94 67.5t-37 110.5q0 82 65.5 138t166.5 56q124 0 210 -86l-75 -93q-68 52 -135 52q-38 0 -60.5 -15.5t-22.5 -43.5q0 -25 20.5 -39.5t65.5 -32.5q9 -3 13 -5l84 -34
q129 -52 129 -177q0 -85 -66.5 -143.5t-179.5 -58.5zM177 -239l-11 59q57 3 80 12t23 27q0 29 -64 35l28 54q78 -7 109.5 -26.5t31.5 -57.5q0 -97 -197 -103z" />
    <glyph glyph-name="uni0219" unicode="&#x219;" horiz-adv-x="443" 
d="M211 -12q-48 0 -100 19t-90 50l66 92q69 -52 128 -52q63 0 63 42q0 5 -1.5 10t-5.5 9.5t-7.5 8t-11 7.5t-12.5 7t-14.5 7t-15 6t-16.5 6.5t-17 6.5q-131 50 -131 146q0 69 52 112t138 43q90 0 175 -63l-66 -88q-58 42 -105 42q-56 0 -56 -39q0 -7 2.5 -12.5t8.5 -11
t11 -9t16 -8t17 -7t21 -8t21 -7.5q61 -22 97.5 -55t36.5 -94q0 -70 -53.5 -115t-150.5 -45zM130 -239l-11 59q57 3 80 12t23 27q0 29 -64 35l28 54q78 -7 109.5 -26.5t31.5 -57.5q0 -97 -197 -103z" />
    <glyph glyph-name="uni021A" unicode="&#x21a;" horiz-adv-x="556" 
d="M204 0v528h-179v124h506v-124h-179v-528h-148zM176 -239l-11 59q57 3 80 12t23 27q0 29 -64 35l28 54q78 -7 109.5 -26.5t31.5 -57.5q0 -97 -197 -103z" />
    <glyph glyph-name="uni021B" unicode="&#x21b;" horiz-adv-x="383" 
d="M256 -12q-171 0 -171 192v201h-68v109l76 6l17 132h122v-132h119v-115h-119v-199q0 -79 64 -79q21 0 47 10l23 -107q-58 -18 -110 -18zM133 -239l-11 59q57 3 80 12t23 27q0 29 -64 35l28 54q78 -7 109.5 -26.5t31.5 -57.5q0 -97 -197 -103z" />
    <glyph glyph-name="uni0237" unicode="&#x237;" horiz-adv-x="278" 
d="M36 -196q-52 0 -87 14l26 108q23 -7 39 -7q29 0 40.5 19t11.5 61v497h147v-493q0 -199 -177 -199z" />
    <glyph glyph-name="uni0243" unicode="&#x243;" horiz-adv-x="628" 
d="M100 0v175h-74v65l74 6v406h224q240 0 240 -157q0 -44 -27.5 -79.5t-82.5 -49.5v-4q142 -27 142 -162q0 -99 -70.5 -149.5t-183.5 -50.5h-242zM248 397h69q52 0 79 21.5t27 59.5q0 68 -105 68h-70v-149zM248 105h82q60 0 92.5 27t32.5 79q0 99 -125 99h-82v-64h126v-71
h-126v-70z" />
    <glyph glyph-name="uni0250" unicode="&#x250;" horiz-adv-x="534" 
d="M277 -12q-107 0 -163 58t-56 172v278h120l11 -61h4q65 73 157 73q62 0 98.5 -38t36.5 -98q0 -166 -280 -197q7 -70 94 -70q48 0 128 45l52 -97q-103 -65 -202 -65zM205 265q139 20 139 84q0 22 -13.5 33.5t-36.5 11.5q-45 0 -89 -52v-77z" />
    <glyph glyph-name="uni0251" unicode="&#x251;" horiz-adv-x="573" 
d="M242 -12q-93 0 -148 69.5t-55 190.5q0 116 63 188t146 72q72 0 129 -61h4l12 49h115v-496h-120l-10 49h-4q-61 -61 -132 -61zM280 108q48 0 81 45v203q-35 32 -82 32q-38 0 -63.5 -35.5t-25.5 -102.5q0 -142 90 -142z" />
    <glyph glyph-name="uni0252" unicode="&#x252;" horiz-adv-x="573" 
d="M325 -12q-71 0 -129 61h-4l-12 -49h-115v496h120l10 -49h4q68 61 141 61q90 0 142 -68.5t52 -183.5q0 -122 -62 -195t-147 -73zM291 108q41 0 66.5 36.5t25.5 109.5q0 134 -86 134q-43 0 -85 -45v-203q35 -32 79 -32z" />
    <glyph glyph-name="uni0253" unicode="&#x253;" horiz-adv-x="573" 
d="M325 -12q-70 0 -129 64h-4l-12 -52h-115v500q0 94 49.5 153.5t154.5 59.5q49 0 99 -18l-27 -108q-27 10 -51 10q-38 0 -57 -22t-23 -71l-2 -67q63 55 131 55q90 0 142.5 -66.5t52.5 -177.5q0 -119 -62 -189.5t-147 -70.5zM291 108q41 0 66.5 34.5t25.5 103.5
q0 125 -86 125q-45 0 -85 -44v-187q35 -32 79 -32z" />
    <glyph glyph-name="uni0254" unicode="&#x254;" horiz-adv-x="467" 
d="M186 -12q-97 0 -163 59l57 96q47 -36 90 -36q48 0 79.5 39t31.5 102q0 64 -30 102.5t-76 38.5q-44 0 -77 -29l-70 95q67 53 164 53q101 0 170.5 -69.5t69.5 -190.5q0 -120 -70 -190t-176 -70z" />
    <glyph glyph-name="uni0255" unicode="&#x255;" horiz-adv-x="467" 
d="M294 100q25 0 40 12t15 29q0 13 -10 23.5t-28 10.5q-38 0 -80 -53q28 -22 63 -22zM137 -73l-114 50q28 70 56 116q-43 65 -43 155q0 119 75 189.5t183 70.5q82 0 145 -53l-64 -88q-35 29 -72 29q-57 0 -91 -40t-34 -108q0 -18 3 -33q69 57 142 57q63 0 99 -35t36 -96
q0 -66 -46 -109.5t-123 -43.5q-66 0 -120 26q-15 -32 -32 -87z" />
    <glyph glyph-name="uni0256" unicode="&#x256;" horiz-adv-x="573" 
d="M528 -187q-79 0 -120.5 43.5t-41.5 107.5l1 79q-60 -55 -125 -55q-93 0 -148 69.5t-55 190.5q0 117 61.5 188.5t144.5 71.5q67 0 122 -52l-6 76v181h147v-714q0 -37 9.5 -53.5t33.5 -16.5q14 0 29 6l26 -108q-32 -14 -78 -14zM280 108q48 0 81 45v203q-35 32 -82 32
q-38 0 -63.5 -35.5t-25.5 -102.5q0 -142 90 -142z" />
    <glyph glyph-name="uni0257" unicode="&#x257;" horiz-adv-x="573" 
d="M242 -12q-93 0 -148 69.5t-55 190.5q0 117 61.5 188.5t144.5 71.5q67 0 122 -52l-1 82q0 78 41.5 126.5t130.5 48.5q41 0 69 -10l-26 -108q-11 3 -20 3q-28 0 -40.5 -17.5t-12.5 -54.5v-526h-120l-10 49h-4q-61 -61 -132 -61zM280 108q48 0 81 45v203q-35 32 -82 32
q-38 0 -63.5 -35.5t-25.5 -102.5q0 -142 90 -142z" />
    <glyph glyph-name="uni0258" unicode="&#x258;" horiz-adv-x="518" 
d="M235 -12q-98 0 -180 56l48 89q54 -33 112 -33q105 0 124 105h-297q-6 36 -6 65q0 104 59 171t163 67q93 0 158.5 -71.5t65.5 -188.5q0 -120 -69 -190t-178 -70zM162 302h179q-12 94 -88 94q-43 0 -67 -26t-24 -68z" />
    <glyph glyph-name="uni0259" unicode="&#x259;" horiz-adv-x="518" 
d="M249 -12q-102 0 -157.5 66.5t-55.5 173.5q0 29 6 65h297q-16 103 -114 103q-55 0 -108 -33l-49 95q75 50 182 50q101 0 166.5 -70.5t65.5 -189.5q0 -117 -68 -188.5t-165 -71.5zM246 100q38 0 63 24t32 72h-179q0 -96 84 -96z" />
    <glyph glyph-name="uni025A" unicode="&#x25a;" horiz-adv-x="707" 
d="M260 -12q-106 0 -162 65t-62 164l289 123q-27 56 -101 56q-52 0 -107 -33l-49 95q76 50 176 50q141 0 204 -116l93 40l70 -26q1 -55 11.5 -75.5t34.5 -20.5q20 0 40 11l30 -70q-38 -25 -76 -25q-94 0 -121 97l-53 -23q5 -32 5 -61q0 -106 -62.5 -178.5t-159.5 -72.5z
M255 98q40 0 65.5 36t25.5 92v17l-179 -77q7 -32 31 -50t57 -18z" />
    <glyph glyph-name="uni025B" unicode="&#x25b;" horiz-adv-x="462" 
d="M269 -12q-91 0 -157 41t-66 112q0 93 104 119v4q-40 12 -60.5 40.5t-20.5 61.5q0 70 57.5 106t144.5 36q85 0 159 -45l-54 -95q-51 28 -97 28q-31 0 -48.5 -13.5t-17.5 -36.5q0 -44 69 -44h68v-97h-84q-76 0 -76 -49q0 -26 26 -41t67 -15q51 0 102 31l58 -93
q-77 -50 -174 -50z" />
    <glyph glyph-name="uni025C" unicode="&#x25c;" horiz-adv-x="476" 
d="M216 -12q-101 0 -183 50l58 93q51 -31 102 -31q42 0 67.5 15t25.5 41q0 49 -76 49h-83v97h67q69 0 69 44q0 23 -17 36.5t-48 13.5q-47 0 -98 -28l-54 95q78 45 169 45q83 0 137.5 -36t54.5 -106q0 -33 -20.5 -61.5t-60.5 -40.5v-4q104 -26 104 -119q0 -71 -63.5 -112
t-150.5 -41z" />
    <glyph glyph-name="uni025E" unicode="&#x25e;" horiz-adv-x="566" 
d="M270 -12q-92 0 -158 41t-66 112q0 93 104 119v4q-40 12 -60.5 40.5t-20.5 61.5q0 70 57 106t144 36q110 0 186 -68t76 -192q0 -125 -74 -192.5t-188 -67.5zM270 100q111 0 111 148t-107 148q-27 0 -44 -14t-17 -36q0 -44 61 -44h31v-97h-47q-68 0 -68 -49q0 -26 22 -41
t58 -15z" />
    <glyph glyph-name="uni025F" unicode="&#x25f;" horiz-adv-x="321" 
d="M56 -196q-52 0 -87 14l26 108q23 -7 39 -7q29 0 40.5 19t11.5 61v224h-74v65l74 6v202h147v-202h71v-71h-71v-220q0 -199 -177 -199z" />
    <glyph glyph-name="uni0260" unicode="&#x260;" horiz-adv-x="583" 
d="M261 -194q-100 0 -185 55l48 97q67 -37 137 -37q96 0 105 80l4 62q-55 -50 -123 -50q-92 0 -147.5 68t-55.5 176q0 109 63.5 180t145.5 71q62 0 117 -52v34q0 68 42 115.5t131 47.5q41 0 69 -10l-26 -109q-8 4 -20 4q-53 0 -53 -72v-461q0 -96 -65.5 -147.5t-186.5 -51.5
zM285 131q46 0 81 47v178q-35 32 -82 32q-39 0 -65 -34.5t-26 -94.5q0 -61 24.5 -94.5t67.5 -33.5z" />
    <glyph glyph-name="uni0261" unicode="&#x261;" horiz-adv-x="583" 
d="M261 -194q-100 0 -185 55l48 97q67 -37 137 -37q96 0 105 80l4 62q-55 -50 -123 -50q-92 0 -147.5 68t-55.5 176q0 109 63.5 180t145.5 71q75 0 127 -58h4l11 46h118v-491q0 -96 -65.5 -147.5t-186.5 -51.5zM285 131q46 0 81 47v178q-35 32 -82 32q-39 0 -65 -34.5
t-26 -94.5q0 -61 24.5 -94.5t67.5 -33.5z" />
    <glyph glyph-name="uni0262" unicode="&#x262;" horiz-adv-x="517" 
d="M288 -12q-106 0 -179 66.5t-73 191.5q0 120 75.5 191t179.5 71q96 0 172 -60l-66 -88q-19 13 -29 19t-28 11.5t-39 5.5q-48 0 -82 -38.5t-34 -111.5q0 -69 31 -107.5t83 -38.5q31 0 51 14v85h-84v98h209v-244q-72 -65 -187 -65z" />
    <glyph glyph-name="uni0263" unicode="&#x263;" horiz-adv-x="523" 
d="M265 -211q-70 0 -112 40t-42 105q0 34 12.5 65t45.5 88l-157 409h148l64 -208q5 -18 18.5 -55.5t20.5 -62.5h4q7 26 20.5 65.5t17.5 52.5l65 208h141l-151 -408q32 -57 45 -88.5t13 -65.5q0 -65 -41.5 -105t-111.5 -40zM265 -119q15 0 24.5 12t9.5 31q0 39 -33 101h-5
q-30 -61 -30 -101q0 -20 9 -31.5t25 -11.5z" />
    <glyph glyph-name="uni0264" unicode="&#x264;" horiz-adv-x="569" 
d="M285 -12q-91 0 -144 47.5t-53 134.5q0 88 97 178q-34 41 -81 41q-29 0 -46 -14l-42 107q35 26 108 26q92 0 161 -79q68 79 160 79q74 0 108 -26l-41 -107q-19 14 -47 14q-47 0 -81 -41q98 -91 98 -178t-53 -134.5t-144 -47.5zM285 107q28 0 43.5 18t15.5 49q0 52 -59 108
q-60 -55 -60 -108q0 -31 15.5 -49t44.5 -18z" />
    <glyph glyph-name="uni0265" unicode="&#x265;" horiz-adv-x="572" 
d="M360 -184v151l7 94q-68 -73 -153 -73q-154 0 -154 200v308h147v-289q0 -52 14.5 -73t47.5 -21q51 0 91 55v328h147v-680h-147z" />
    <glyph glyph-name="uni0266" unicode="&#x266;" horiz-adv-x="571" 
d="M65 0v500q0 94 49.5 153.5t154.5 59.5q49 0 99 -18l-27 -108q-27 10 -51 10q-38 0 -57 -22t-23 -71l-5 -81q75 69 153 69q154 0 154 -200v-292h-147v273q0 52 -14.5 72.5t-46.5 20.5q-26 0 -46 -11t-46 -37v-318h-147z" />
    <glyph glyph-name="uni0267" unicode="&#x267;" horiz-adv-x="571" 
d="M335 -187q-51 0 -88 14l27 108q20 -6 38 -6q29 0 41 18.5t12 61.5v264q0 52 -14.5 72.5t-46.5 20.5q-26 0 -46 -11t-46 -37v-318h-147v500q0 94 49.5 153.5t154.5 59.5q49 0 99 -18l-27 -108q-27 10 -51 10q-38 0 -57 -22t-23 -71l-5 -81q75 69 153 69q154 0 154 -200
v-279q0 -200 -177 -200z" />
    <glyph glyph-name="uni0268" unicode="&#x268;" horiz-adv-x="321" 
d="M12 223v65l75 6v202h147v-202h70v-71h-70v-223h-147v223h-75zM160 569q-37 0 -61 21.5t-24 55.5t24 55t61 21q38 0 61.5 -21t23.5 -55t-24 -55.5t-61 -21.5z" />
    <glyph glyph-name="uni026A" unicode="&#x26a;" horiz-adv-x="395" 
d="M52 0v115h72v266h-72v115h291v-115h-72v-266h72v-115h-291z" />
    <glyph glyph-name="uni026C" unicode="&#x26c;" horiz-adv-x="377" 
d="M137 292q-74 0 -110.5 29t-36.5 75q0 42 28.5 70t73.5 28q30 0 53 -15v222h147v-338h70v-71h-70v-144q0 -41 26 -41q10 0 18 2l18 -109q-27 -12 -74 -12q-135 0 -135 166v138h-8zM123 363h22v2q0 21 -11 40.5t-36 19.5q-30 0 -30 -29q0 -33 55 -33z" />
    <glyph glyph-name="uni026D" unicode="&#x26d;" horiz-adv-x="286" 
d="M232 -187q-167 0 -167 191v697h147v-702q0 -37 9.5 -53.5t33.5 -16.5q13 0 28 6l26 -108q-31 -14 -77 -14z" />
    <glyph glyph-name="uni026E" unicode="&#x26e;" horiz-adv-x="640" 
d="M390 -196q-119 0 -206 81l66 91q60 -53 123 -53q44 0 71 28.5t27 77.5q0 44 -26 68.5t-70 24.5q-28 0 -59 -12l-48 71l152 200h-208v-381h-147v701h147v-205h383v-78l-149 -196q81 -6 126.5 -58t45.5 -132q0 -106 -66 -167t-162 -61z" />
    <glyph glyph-name="uni026F" unicode="&#x26f;" horiz-adv-x="857" 
d="M218 -12q-155 0 -155 200v308h147v-289q0 -52 15 -73t47 -21q38 0 84 48v335h147v-289q0 -52 14.5 -73t46.5 -21q37 0 85 48v335h147v-496h-120l-11 64h-3q-76 -76 -151 -76q-98 0 -137 84q-79 -84 -156 -84z" />
    <glyph glyph-name="uni0270" unicode="&#x270;" horiz-adv-x="857" 
d="M649 -184v151l7 93q-70 -72 -145 -72q-98 0 -137 84q-79 -84 -156 -84q-155 0 -155 200v308h147v-289q0 -52 15 -73t47 -21q38 0 84 48v335h147v-289q0 -52 14.5 -73t46.5 -21q37 0 85 48v335h147v-680h-147z" />
    <glyph glyph-name="uni0271" unicode="&#x271;" horiz-adv-x="857" 
d="M628 -187q-46 0 -79 14l26 108q15 -6 31 -6q25 0 34.5 18.5t9.5 61.5v280q0 53 -14.5 73.5t-46.5 20.5q-37 0 -85 -48v-335h-147v289q0 53 -14.5 73.5t-46.5 20.5q-37 0 -84 -48v-335h-147v496h120l10 -64h4q76 76 150 76q98 0 137 -83q39 40 75 61.5t81 21.5
q155 0 155 -200v-295q0 -200 -169 -200z" />
    <glyph glyph-name="uni0272" unicode="&#x272;" horiz-adv-x="572" 
d="M45 -187q-46 0 -78 14l26 108q15 -6 29 -6q24 0 33.5 16.5t9.5 53.5v497h120l10 -63h4q79 75 159 75q154 0 154 -200v-308h-147v289q0 53 -14.5 73.5t-46.5 20.5q-26 0 -46 -11t-46 -37v-331q0 -191 -167 -191z" />
    <glyph glyph-name="uni0273" unicode="&#x273;" horiz-adv-x="572" 
d="M532 -187q-167 0 -167 191v285q0 53 -14.5 73.5t-46.5 20.5q-26 0 -46 -11t-46 -37v-335h-147v496h120l10 -63h4q79 75 159 75q154 0 154 -200v-309q0 -37 9.5 -53.5t33.5 -16.5q14 0 29 6l26 -108q-32 -14 -78 -14z" />
    <glyph glyph-name="uni0274" unicode="&#x274;" horiz-adv-x="561" 
d="M65 0v496h135l118 -209q9 -17 29 -60t21 -44h3q-12 144 -12 175v138h137v-496h-135l-119 209q-5 9 -49 104h-4q13 -132 13 -175v-138h-137z" />
    <glyph glyph-name="uni0275" unicode="&#x275;" horiz-adv-x="555" 
d="M278 -12q-102 0 -172 68.5t-70 191.5t70 191.5t172 68.5q101 0 171 -69t70 -191t-70 -191t-171 -69zM278 399q-82 0 -100 -97h199q-18 97 -99 97zM278 98q41 0 67.5 27.5t33.5 79.5h-203q15 -107 102 -107z" />
    <glyph glyph-name="uni0276" unicode="&#x276;" horiz-adv-x="726" 
d="M291 -12q-105 0 -180 67t-75 192q0 123 75.5 192t179.5 69q56 0 115 -12h284v-107h-205v-87h174v-97h-174v-100h215v-105h-294q-55 -12 -115 -12zM298 104q20 0 43 6v274q-23 6 -43 6q-47 0 -79 -35.5t-32 -107.5q0 -76 31.5 -109.5t79.5 -33.5z" />
    <glyph glyph-name="uni0278" unicode="&#x278;" horiz-adv-x="738" 
d="M187 248q0 -68 30.5 -105.5t84.5 -40.5v292q-54 -3 -84.5 -40.5t-30.5 -105.5zM551 248q0 68 -30.5 105.5t-84.5 40.5v-292q54 3 84.5 40.5t30.5 105.5zM302 -184v176q-111 6 -188.5 74t-77.5 182t77.5 182t188.5 74v197h134v-197q111 -6 188.5 -74t77.5 -182t-78 -182
t-188 -74v-176h-134z" />
    <glyph glyph-name="uni0279" unicode="&#x279;" horiz-adv-x="398" 
d="M58 -12q-34 0 -59 10l25 127q34 -8 53 -8q73 0 110 92v287h147v-496h-120l-11 87h-4q-26 -49 -63.5 -74t-77.5 -25z" />
    <glyph glyph-name="uni027A" unicode="&#x27a;" horiz-adv-x="398" 
d="M58 -12q-34 0 -59 10l25 127q34 -8 53 -8q73 0 110 92v492h147v-701h-120l-11 87h-4q-26 -49 -63.5 -74t-77.5 -25z" />
    <glyph glyph-name="uni027B" unicode="&#x27b;" horiz-adv-x="398" 
d="M354 -187q-151 0 -151 169v105h-4q-26 -49 -63.5 -74t-77.5 -25q-34 0 -59 10l25 127q34 -8 53 -8q73 0 110 92v287h147v-497q0 -37 9.5 -53.5t32.5 -16.5q14 0 29 6l26 -108q-31 -14 -77 -14z" />
    <glyph glyph-name="uni027D" unicode="&#x27d;" horiz-adv-x="398" 
d="M232 -187q-167 0 -167 191v492h120l10 -87h4q26 49 63.5 74t77.5 25q36 0 59 -10l-24 -127q-29 8 -54 8q-31 0 -61 -22t-48 -69v-289q0 -37 9.5 -53.5t33.5 -16.5q13 0 28 6l26 -108q-31 -14 -77 -14z" />
    <glyph glyph-name="uni027E" unicode="&#x27e;" horiz-adv-x="380" 
d="M65 0v304q0 90 51 147t153 57q68 0 112 -14l-23 -123q-35 10 -68 10q-30 0 -54 -27t-24 -82v-272h-147z" />
    <glyph glyph-name="uni0280" unicode="&#x280;" horiz-adv-x="532" 
d="M65 0v496h204q205 0 205 -164q0 -94 -80 -139l123 -193h-163l-89 162h-53v-162h-147zM212 261h39q38 0 58 18t20 49q0 60 -78 60h-39v-127z" />
    <glyph glyph-name="uni0281" unicode="&#x281;" horiz-adv-x="532" 
d="M263 0q-205 0 -205 165q0 94 80 139l-123 192h163l89 -161h53v161h147v-496h-204zM281 108h39v128h-39q-38 0 -58 -18.5t-20 -48.5q0 -61 78 -61z" />
    <glyph glyph-name="uni0282" unicode="&#x282;" horiz-adv-x="443" 
d="M211 -12q-29 0 -61 6q4 -69 54 -69q15 0 39 7l26 -105q-35 -14 -88 -14q-160 0 -160 200v39l66 92q64 -47 128 -47q63 0 63 42q0 5 -1.5 10t-5.5 9.5t-7.5 8t-11 7.5t-12.5 7t-14.5 7t-15 6t-16.5 6.5t-17 6.5q-131 50 -131 146q0 69 52 112t138 43q90 0 175 -63l-66 -88
q-58 42 -105 42q-56 0 -56 -39q0 -7 2.5 -12.5t8.5 -11t11 -9t16 -8t17 -7t21 -8t21 -7.5q61 -22 97.5 -55t36.5 -94q0 -70 -53.5 -115t-150.5 -45z" />
    <glyph glyph-name="uni0283" unicode="&#x283;" horiz-adv-x="278" 
d="M36 -196q-52 0 -87 14l26 108q23 -7 39 -7q29 0 40.5 19t11.5 61v514q0 200 187 200q47 0 78 -14l-26 -108q-17 7 -29 7q-35 0 -49 -19t-14 -61v-515q0 -199 -177 -199z" />
    <glyph glyph-name="uni0284" unicode="&#x284;" horiz-adv-x="321" 
d="M56 -196q-52 0 -87 14l26 108q23 -7 39 -7q29 0 40.5 19t11.5 61v224h-74v65l74 6v219q0 200 187 200q47 0 78 -14l-26 -108q-17 7 -29 7q-35 0 -49 -19t-14 -61v-224h71v-71h-71v-220q0 -199 -177 -199z" />
    <glyph glyph-name="uni0288" unicode="&#x288;" horiz-adv-x="383" 
d="M256 -187q-171 0 -171 192v376h-68v109l76 6l17 132h122v-132h119v-115h-119v-374q0 -79 64 -79q21 0 47 10l23 -107q-58 -18 -110 -18z" />
    <glyph glyph-name="uni0289" unicode="&#x289;" horiz-adv-x="617" 
d="M12 268v65l75 6v157h147v-157h150v157h147v-157h70v-71h-70v-268h-120l-11 69h-3q-68 -81 -156 -81q-154 0 -154 200v80h-75zM296 113q27 0 46.5 12.5t41.5 42.5v100h-150v-61q0 -52 14.5 -73t47.5 -21z" />
    <glyph glyph-name="uni028A" unicode="&#x28a;" horiz-adv-x="558" 
d="M279 -12q-109 0 -174 64t-65 149q0 106 71 177v3h-82v115h214v-95q-56 -70 -56 -168q0 -56 23.5 -91t68.5 -35t68.5 35t23.5 91q0 98 -56 168v95h213v-115h-81v-3q71 -71 71 -177q0 -85 -65.5 -149t-173.5 -64z" />
    <glyph glyph-name="uni028B" unicode="&#x28b;" horiz-adv-x="552" 
d="M273 -12q-100 0 -156.5 58.5t-56.5 170.5v279h147v-277q0 -112 73 -112q40 0 62 45t22 125q0 117 -52 117q-10 0 -20 -3l-16 109q24 8 68 8q77 0 124 -52t47 -157q0 -143 -62.5 -227t-179.5 -84z" />
    <glyph glyph-name="uni028C" unicode="&#x28c;" horiz-adv-x="523" 
d="M12 0l162 496h169l168 -496h-148l-65 234q-3 14 -17 68.5t-21 84.5h-4q-26 -104 -39 -153l-64 -234h-141z" />
    <glyph glyph-name="uni028D" unicode="&#x28d;" horiz-adv-x="776" 
d="M24 0l119 496h172l45 -198q18 -92 27 -145h4q15 98 25 145l43 198h169l124 -496h-146l-48 230q-4 25 -11 74t-11 73h-4q-18 -100 -30 -147l-54 -230h-127l-56 230q-9 36 -31 147h-4q-4 -25 -11 -73.5t-12 -73.5l-47 -230h-136z" />
    <glyph glyph-name="uni028E" unicode="&#x28e;" horiz-adv-x="521" 
d="M12 0l181 524q37 99 85 144t132 45q37 0 70 -10l-26 -112q-27 6 -33 6q-65 0 -87 -65l-16 -49l191 -483h-147l-71 213q-13 38 -40 141h-4q-22 -94 -34 -141l-60 -213h-141z" />
    <glyph glyph-name="uni028F" unicode="&#x28f;" horiz-adv-x="466" 
d="M160 0v150l-168 346h155l43 -107q7 -22 21.5 -60.5t20.5 -57.5h4q8 23 23 62t21 56l41 107h153l-167 -346v-150h-147z" />
    <glyph glyph-name="uni0290" unicode="&#x290;" horiz-adv-x="460" 
d="M446 -187q-86 0 -126.5 50t-40.5 124v13h-241v79l208 302h-185v115h368v-78l-208 -303h205v-116q0 -37 9.5 -53.5t33.5 -16.5q14 0 29 6l26 -108q-33 -14 -78 -14z" />
    <glyph glyph-name="uni0291" unicode="&#x291;" horiz-adv-x="503" 
d="M287 -82l-70 15q10 46 16 67h-195v79l208 302h-185v115h358v-78l-208 -303q20 -2 58 -4q61 143 144 143q49 0 76.5 -28t27.5 -82q0 -63 -44 -103.5t-132 -40.5h-35q-8 -28 -19 -82zM379 107q29 0 44.5 12t15.5 30q0 27 -30 27q-33 0 -66 -69h36z" />
    <glyph glyph-name="uni0292" unicode="&#x292;" horiz-adv-x="460" 
d="M211 -196q-119 0 -206 81l66 91q60 -53 123 -53q44 0 71 28.5t27 77.5q0 44 -26 68.5t-70 24.5q-28 0 -59 -12l-48 71l152 200h-203v115h378v-78l-149 -196q81 -6 126.5 -58t45.5 -132q0 -106 -66 -167t-162 -61z" />
    <glyph glyph-name="uni0294" unicode="&#x294;" horiz-adv-x="448" 
d="M129 0v317q86 55 120.5 95.5t34.5 88.5q0 44 -25 68.5t-68 24.5q-65 0 -125 -64l-72 93q85 90 213 90q96 0 160 -53.5t64 -151.5q0 -76 -38.5 -130.5t-116.5 -115.5v-262h-147z" />
    <glyph glyph-name="uni0295" unicode="&#x295;" horiz-adv-x="506" 
d="M197 0v262q-78 61 -116.5 115.5t-38.5 130.5q0 98 67 151.5t167 53.5q120 0 203 -90l-73 -93q-53 64 -114 64q-48 0 -75.5 -24.5t-27.5 -68.5q0 -48 34.5 -88.5t120.5 -95.5v-317h-147z" />
    <glyph glyph-name="uni0298" unicode="&#x298;" horiz-adv-x="556" 
d="M278 -12q-105 0 -167.5 93t-62.5 271t62 269.5t168 91.5t168 -91.5t62 -269.5t-62.5 -271t-167.5 -93zM278 107q41 0 68.5 57t27.5 188q0 127 -27.5 184.5t-68.5 57.5t-68.5 -57.5t-27.5 -184.5q0 -131 27.5 -188t68.5 -57zM278 290q-26 0 -45 18.5t-19 44.5t19 44.5
t45 18.5t45 -18.5t19 -44.5t-19 -44.5t-45 -18.5z" />
    <glyph glyph-name="uni0299" unicode="&#x299;" horiz-adv-x="528" 
d="M65 0v496h211q199 0 199 -131q0 -34 -20.5 -62.5t-62.5 -39.5v-4q102 -25 102 -116q0 -72 -57.5 -107.5t-148.5 -35.5h-223zM208 302h58q69 0 69 48q0 49 -68 49h-59v-97zM208 97h71q73 0 73 56q0 23 -18.5 37.5t-55.5 14.5h-70v-108z" />
    <glyph glyph-name="uni029C" unicode="&#x29c;" horiz-adv-x="582" 
d="M67 0v496h147v-179h159v179h147v-496h-147v189h-159v-189h-147z" />
    <glyph glyph-name="uni029D" unicode="&#x29d;" horiz-adv-x="360" 
d="M304 -257q-25 62 -61 118q-52 -57 -140 -57q-70 0 -112 42t-42 106q0 61 40 97t111 36q22 0 49 -8v419h147v-484q0 -11 -2 -31q75 -76 123 -187zM99 -84q41 0 49 52q-29 20 -50 20q-18 0 -28.5 -9.5t-10.5 -23.5q0 -16 10.5 -27.5t29.5 -11.5zM222 569q-37 0 -61 21.5
t-24 55.5t24 55t61 21q38 0 62 -21t24 -55t-24 -55.5t-62 -21.5z" />
    <glyph glyph-name="uni029F" unicode="&#x29f;" horiz-adv-x="432" 
d="M65 0v496h147v-381h194v-115h-341z" />
    <glyph glyph-name="uni02A1" unicode="&#x2a1;" horiz-adv-x="476" 
d="M144 0v201h-133v110l76 6h75q137 99 137 184q0 44 -24.5 68.5t-67.5 24.5q-66 0 -125 -64l-73 93q86 90 214 90q96 0 160 -53.5t64 -151.5q0 -51 -30.5 -96.5t-86.5 -94.5h130v-116h-169v-201h-147z" />
    <glyph glyph-name="uni02A2" unicode="&#x2a2;" horiz-adv-x="476" 
d="M186 0v201h-169v116h129q-116 103 -116 191q0 98 67 151.5t167 53.5q120 0 203 -90l-73 -93q-53 64 -114 64q-48 0 -75.5 -24.5t-27.5 -68.5q0 -85 137 -184h76l76 -6v-110h-133v-201h-147z" />
    <glyph glyph-name="h.sups" unicode="&#x2b0;" horiz-adv-x="384" 
d="M42 375v463h104v-113l-7 -61q47 49 103 49q104 0 104 -135v-203h-104v190q0 33 -7.5 47t-32.5 14q-24 0 -56 -32v-219h-104z" />
    <glyph glyph-name="j.sups" unicode="&#x2b2;" horiz-adv-x="190" 
d="M27 240q-32 0 -60 8l18 77q12 -4 26 -4q19 0 26 11.5t7 39.5v333h104v-329q0 -136 -121 -136zM96 749q-26 0 -42.5 15t-16.5 38t16.5 38t42.5 15t42.5 -15t16.5 -38t-16.5 -38t-42.5 -15z" />
    <glyph glyph-name="r.sups" unicode="&#x2b3;" horiz-adv-x="272" 
d="M42 375v330h84l8 -58h2q38 66 94 66q24 0 42 -8l-18 -89q-27 6 -36 6q-48 0 -72 -59v-188h-104z" />
    <glyph glyph-name="w.sups" unicode="&#x2b7;" horiz-adv-x="523" 
d="M98 375l-82 330h103l29 -148l15 -100h3l18 100l38 148h83l40 -148l19 -100h3l16 100l29 148h95l-78 -330h-121l-29 127l-16 90h-2l-16 -90l-28 -127h-119z" />
    <glyph glyph-name="y.sups" unicode="&#x2b8;" horiz-adv-x="353" 
d="M83 252q-27 0 -49 6l18 77q11 -4 23 -4q43 0 57 41l5 14l-129 319h104l45 -137q1 -3 25 -94h4q2 8 23 94l37 137h99l-112 -329q-26 -66 -59 -95t-91 -29z" />
    <glyph glyph-name="uni02B9" unicode="&#x2b9;" horiz-adv-x="300" 
d="M82 388l19 298l147 -1l-23 -126l-47 -171h-96z" />
    <glyph glyph-name="uni02BB" unicode="&#x2bb;" horiz-adv-x="300" 
d="M149 338q-46 0 -70 34.5t-24 96.5q0 144 142 214l32 -64q-90 -45 -90 -127q3 1 10 1q32 0 54.5 -20t22.5 -53q0 -37 -21.5 -59.5t-55.5 -22.5z" />
    <glyph glyph-name="uni02BC" unicode="&#x2bc;" horiz-adv-x="300" 
d="M103 352l-32 64q90 45 90 127q-3 -1 -9 -1q-33 0 -55 20t-22 53q0 37 21.5 59.5t55.5 22.5q45 0 69.5 -34t24.5 -97q0 -144 -143 -214z" />
    <glyph glyph-name="uni02BE" unicode="&#x2be;" horiz-adv-x="176" 
d="M26 550v55q67 -3 67 49q0 50 -67 49v54q70 3 104.5 -25t34.5 -78t-34.5 -78.5t-104.5 -25.5z" />
    <glyph glyph-name="uni02BF" unicode="&#x2bf;" horiz-adv-x="176" 
d="M151 550q-70 -3 -104.5 25.5t-34.5 78.5t34.5 78t104.5 25v-54q-67 1 -67 -49q0 -52 67 -49v-55z" />
    <glyph glyph-name="uni02C1" unicode="&#x2c1;" horiz-adv-x="343" 
d="M132 375v172q-52 39 -78 75t-26 86q0 66 45 101.5t113 35.5q83 0 138 -59l-51 -65q-33 42 -75 42q-30 0 -48 -15.5t-18 -43.5q0 -31 22.5 -57t80.5 -63v-209h-103z" />
    <glyph glyph-name="circumflex" unicode="&#x2c6;" horiz-adv-x="555" 
d="M95 613l108 131h150l108 -131l-56 -52l-125 92h-4l-125 -92z" />
    <glyph glyph-name="caron" unicode="&#x2c7;" horiz-adv-x="555" 
d="M203 577l-108 131l56 52l125 -92h4l125 92l56 -52l-108 -131h-150z" />
    <glyph glyph-name="uni02C8" unicode="&#x2c8;" horiz-adv-x="147" 
d="M21 540l-6 204h118l-6 -204h-106z" />
    <glyph glyph-name="uni02C9" unicode="&#x2c9;" horiz-adv-x="308" 
d="M6 592v93h296v-93h-296z" />
    <glyph glyph-name="uni02CA" unicode="&#x2ca;" horiz-adv-x="236" 
d="M128 572l-72 72l154 182l99 -97z" />
    <glyph glyph-name="uni02CB" unicode="&#x2cb;" horiz-adv-x="236" 
d="M108 572l-181 157l99 97l154 -182z" />
    <glyph glyph-name="uni02CC" unicode="&#x2cc;" horiz-adv-x="147" 
d="M15 -269l6 205h106l6 -205h-118z" />
    <glyph glyph-name="uni02D0" unicode="&#x2d0;" horiz-adv-x="300" 
d="M43 0l100 190h14l100 -190h-214zM143 300l-100 190h214l-100 -190h-14z" />
    <glyph glyph-name="uni02D1" unicode="&#x2d1;" horiz-adv-x="300" 
d="M143 284l-100 190h214l-100 -190h-14z" />
    <glyph glyph-name="breve" unicode="&#x2d8;" horiz-adv-x="555" 
d="M278 572q-82 0 -124.5 43.5t-44.5 113.5l84 14q5 -35 26 -57t59 -22t59 22t26 57l84 -14q-2 -70 -44.5 -113.5t-124.5 -43.5z" />
    <glyph glyph-name="dotaccent" unicode="&#x2d9;" horiz-adv-x="555" 
d="M278 569q-36 0 -58.5 21.5t-22.5 55.5t22.5 55.5t58.5 21.5t58.5 -21.5t22.5 -55.5t-22.5 -55.5t-58.5 -21.5z" />
    <glyph glyph-name="ring" unicode="&#x2da;" horiz-adv-x="555" 
d="M278 564q-63 0 -97.5 29.5t-34.5 74.5t34.5 74.5t97.5 29.5t97.5 -29.5t34.5 -74.5t-34.5 -74.5t-97.5 -29.5zM278 619q18 0 30.5 14t12.5 35t-12.5 35t-30.5 14t-30.5 -14t-12.5 -35t12.5 -35t30.5 -14z" />
    <glyph glyph-name="ogonek" unicode="&#x2db;" horiz-adv-x="555" 
d="M298 -210q-46 0 -76 24t-30 67q0 39 22 71t48 50h83q-54 -42 -54 -87q0 -19 12.5 -28.5t29.5 -9.5t35 12l31 -66q-43 -33 -101 -33z" />
    <glyph glyph-name="tilde" unicode="&#x2dc;" horiz-adv-x="555" 
d="M344 573q-27 0 -52.5 16t-45 32t-31.5 16q-29 0 -35 -55l-92 5q4 152 124 152q27 0 52.5 -16t45 -32t31.5 -16q29 0 35 55l92 -5q-4 -152 -124 -152z" />
    <glyph glyph-name="hungarumlaut" unicode="&#x2dd;" horiz-adv-x="555" 
d="M226 565l-77 35l87 181l99 -44zM405 565l-77 35l87 181l99 -44z" />
    <glyph glyph-name="uni02DE" unicode="&#x2de;" horiz-adv-x="189" 
d="M129 226q-84 0 -116 97l-128 -55v105l188 81q13 -81 29 -113t37 -32q22 0 40 11l30 -69q-38 -25 -80 -25z" />
    <glyph glyph-name="uni02E0" unicode="&#x2e0;" horiz-adv-x="353" 
d="M180 237q-49 0 -78 27t-29 71q0 23 8.5 43.5t30.5 56.5l-104 269h103l42 -134q4 -15 12.5 -39.5t12.5 -38.5h3q4 16 12.5 40.5t12.5 37.5l41 134h99l-100 -267q39 -67 39 -102q0 -44 -29 -71t-76 -27zM180 300q9 0 15.5 7.5t6.5 19.5q0 26 -22 66h-3q-20 -41 -20 -66
q0 -27 23 -27z" />
    <glyph glyph-name="l.sups" unicode="&#x2e1;" horiz-adv-x="194" 
d="M137 367q-95 0 -95 115v356h104v-360q0 -29 17 -29q7 0 13 2l12 -75q-22 -9 -51 -9z" />
    <glyph glyph-name="s.sups" unicode="&#x2e2;" horiz-adv-x="297" 
d="M143 367q-66 0 -128 44l45 65q47 -33 86 -33t39 26q0 5 -3 9.5t-11 9t-13.5 7t-19 7.5t-19.5 8q-88 36 -88 98q0 46 35.5 75.5t92.5 29.5q61 0 119 -42l-46 -62q-42 28 -70 28q-35 0 -35 -24q0 -6 3 -10.5t11 -8.5t14 -6.5t19 -7t19 -7.5q88 -32 88 -98
q0 -47 -36.5 -77.5t-101.5 -30.5z" />
    <glyph glyph-name="x.sups" unicode="&#x2e3;" horiz-adv-x="348" 
d="M8 375l104 171l-97 159h111l27 -52l28 -50h4l20 50l22 52h108l-97 -171l102 -159h-110l-29 51l-32 52h-4l-25 -52l-24 -51h-108z" />
    <glyph glyph-name="uni0300" unicode="&#x300;" 
d="M-10 572l-181 157l99 97l154 -182z" />
    <glyph glyph-name="uni0301" unicode="&#x301;" 
d="M10 572l-72 72l154 182l99 -97z" />
    <glyph glyph-name="uni0302" unicode="&#x302;" 
d="M-183 613l108 131h150l108 -131l-56 -52l-125 92h-4l-125 -92z" />
    <glyph glyph-name="uni0303" unicode="&#x303;" 
d="M66 573q-27 0 -52.5 16t-45 32t-31.5 16q-29 0 -35 -55l-92 5q4 152 124 152q27 0 52.5 -16t45 -32t31.5 -16q29 0 35 55l92 -5q-4 -152 -124 -152z" />
    <glyph glyph-name="uni0304" unicode="&#x304;" 
d="M-148 592v93h296v-93h-296z" />
    <glyph glyph-name="uni0305" unicode="&#x305;" 
d="M-148 592v93h296v-93h-296z" />
    <glyph glyph-name="uni0306" unicode="&#x306;" 
d="M0 572q-82 0 -124.5 43.5t-44.5 113.5l84 14q5 -35 26 -57t59 -22t59 22t26 57l84 -14q-2 -70 -44.5 -113.5t-124.5 -43.5z" />
    <glyph glyph-name="uni0307" unicode="&#x307;" 
d="M0 569q-36 0 -58.5 21.5t-22.5 55.5t22.5 55.5t58.5 21.5t58.5 -21.5t22.5 -55.5t-22.5 -55.5t-58.5 -21.5z" />
    <glyph glyph-name="uni0308" unicode="&#x308;" 
d="M-109 569q-31 0 -51.5 20.5t-20.5 51.5q0 30 20.5 50.5t51.5 20.5t51 -20.5t20 -50.5q0 -31 -20 -51.5t-51 -20.5zM109 569q-31 0 -51 20.5t-20 51.5q0 30 20 50.5t51 20.5t51.5 -20.5t20.5 -50.5q0 -31 -20.5 -51.5t-51.5 -20.5z" />
    <glyph glyph-name="uni0309" unicode="&#x309;" 
d="M-43 568l-12 58q45 9 45 35q0 36 -80 42l9 90q178 -4 178 -121q0 -48 -39 -73.5t-101 -30.5z" />
    <glyph glyph-name="uni030A" unicode="&#x30a;" 
d="M0 564q-63 0 -97.5 29.5t-34.5 74.5t34.5 74.5t97.5 29.5t97.5 -29.5t34.5 -74.5t-34.5 -74.5t-97.5 -29.5zM0 619q18 0 30.5 14t12.5 35t-12.5 35t-30.5 14t-30.5 -14t-12.5 -35t12.5 -35t30.5 -14z" />
    <glyph glyph-name="uni030B" unicode="&#x30b;" 
d="M-52 565l-77 35l87 181l99 -44zM127 565l-77 35l87 181l99 -44z" />
    <glyph glyph-name="uni030C" unicode="&#x30c;" 
d="M-75 577l-108 131l56 52l125 -92h4l125 92l56 -52l-108 -131h-150z" />
    <glyph glyph-name="uni030F" unicode="&#x30f;" 
d="M-127 565l-109 172l99 44l87 -181zM52 565l-109 172l99 44l87 -181z" />
    <glyph glyph-name="uni0311" unicode="&#x311;" 
d="M-85 565l-84 14q2 70 44.5 113.5t124.5 43.5t124.5 -43.5t44.5 -113.5l-84 -14q-5 35 -26.5 57.5t-58.5 22.5t-58.5 -22.5t-26.5 -57.5z" />
    <glyph glyph-name="uni0312" unicode="&#x312;" 
d="M-2 586q-66 0 -66 82q0 92 99 130l22 -45q-56 -21 -62 -60q2 1 7 1q22 0 37.5 -14t15.5 -37q0 -26 -15 -41.5t-38 -15.5z" />
    <glyph glyph-name="uni0313" unicode="&#x313;" 
d="M-34 582l-22 45q56 21 62 60q-2 -1 -8 -1q-22 0 -37 14t-15 37q0 26 15 41.5t38 15.5q66 0 66 -82q0 -92 -99 -130z" />
    <glyph glyph-name="uni0318" unicode="&#x318;" 
d="M99 -257h-78v66h-108v71h108v66h78v-203z" />
    <glyph glyph-name="uni0319" unicode="&#x319;" 
d="M87 -191h-108v-66h-78v203h78v-66h108v-71z" />
    <glyph glyph-name="uni031A" unicode="&#x31a;" 
d="M99 574h-78v79h-108v71h186v-150z" />
    <glyph glyph-name="uni031B" unicode="&#x31b;" 
d="M1 427l-11 59q67 13 67 73q0 28 -16 58l109 47q30 -42 30 -94q0 -67 -50 -102t-129 -41z" />
    <glyph glyph-name="uni031C" unicode="&#x31c;" 
d="M63 -261q-70 -3 -104.5 25.5t-34.5 78.5t34.5 78t104.5 25v-54q-67 1 -67 -49q0 -52 67 -49v-55z" />
    <glyph glyph-name="uni031D" unicode="&#x31d;" 
d="M107 -229h-214v71h68v104h78v-104h68v-71z" />
    <glyph glyph-name="uni031E" unicode="&#x31e;" 
d="M107 -152h-68v-105h-78v105h-68v70h214v-70z" />
    <glyph glyph-name="uni031F" unicode="&#x31f;" 
d="M107 -191h-68v-66h-78v66h-68v71h68v66h78v-66h68v-71z" />
    <glyph glyph-name="uni0320" unicode="&#x320;" 
d="M-107 -191v71h214v-71h-214z" />
    <glyph glyph-name="uni0323" unicode="&#x323;" 
d="M0 -226q-36 0 -58.5 21.5t-22.5 55.5t22.5 55.5t58.5 21.5t58.5 -21.5t22.5 -55.5t-22.5 -55.5t-58.5 -21.5z" />
    <glyph glyph-name="uni0324" unicode="&#x324;" 
d="M-109 -218q-31 0 -51.5 20.5t-20.5 51.5q0 30 20.5 50.5t51.5 20.5t51 -20.5t20 -50.5q0 -31 -20 -51.5t-51 -20.5zM109 -218q-31 0 -51 20.5t-20 51.5q0 30 20 50.5t51 20.5t51.5 -20.5t20.5 -50.5q0 -31 -20.5 -51.5t-51.5 -20.5z" />
    <glyph glyph-name="uni0325" unicode="&#x325;" 
d="M0 -247q-63 0 -97.5 29.5t-34.5 74.5t34.5 74.5t97.5 29.5t97.5 -29.5t34.5 -74.5t-34.5 -74.5t-97.5 -29.5zM0 -192q18 0 30.5 14t12.5 35t-12.5 35t-30.5 14t-30.5 -14t-12.5 -35t12.5 -35t30.5 -14z" />
    <glyph glyph-name="uni0326" unicode="&#x326;" 
d="M-102 -239l-11 59q57 3 80 12t23 27q0 29 -64 35l28 54q78 -7 109.5 -26.5t31.5 -57.5q0 -97 -197 -103z" />
    <glyph glyph-name="uni0327" unicode="&#x327;" 
d="M-102 -239l-11 59q58 3 80.5 13t22.5 31q0 32 -77 42l48 98h86l-28 -65q39 -9 57.5 -26.5t18.5 -48.5q0 -97 -197 -103z" />
    <glyph glyph-name="uni0328" unicode="&#x328;" 
d="M20 -210q-46 0 -76 24t-30 67q0 39 22 71t48 50h83q-54 -42 -54 -87q0 -19 12.5 -28.5t29.5 -9.5t35 12l31 -66q-43 -33 -101 -33z" />
    <glyph glyph-name="uni0329" unicode="&#x329;" 
d="M-59 -269l6 205h106l6 -205h-118z" />
    <glyph glyph-name="uni032A" unicode="&#x32a;" 
d="M55 -220v71h-110v-71h-73v142h256v-142h-73z" />
    <glyph glyph-name="uni032C" unicode="&#x32c;" 
d="M-75 -225l-108 131l56 52l125 -92h4l125 92l56 -52l-108 -131h-150z" />
    <glyph glyph-name="uni032E" unicode="&#x32e;" 
d="M0 -233q-82 0 -124.5 43.5t-44.5 113.5l84 14q5 -35 26 -57t59 -22t59 22t26 57l84 -14q-2 -70 -44.5 -113.5t-124.5 -43.5z" />
    <glyph glyph-name="uni032F" unicode="&#x32f;" 
d="M-85 -247l-84 14q2 70 44.5 113.5t124.5 43.5t124.5 -43.5t44.5 -113.5l-84 -14q-5 35 -26.5 57.5t-58.5 22.5t-58.5 -22.5t-26.5 -57.5z" />
    <glyph glyph-name="uni0330" unicode="&#x330;" 
d="M66 -227q-27 0 -52.5 16t-45 32t-31.5 16q-29 0 -35 -55l-92 5q4 152 124 152q27 0 52.5 -16t45 -32t31.5 -16q29 0 35 55l92 -5q-4 -152 -124 -152z" />
    <glyph glyph-name="uni0331" unicode="&#x331;" 
d="M-148 -188v93h296v-93h-296z" />
    <glyph glyph-name="uni0334" unicode="&#x334;" 
d="M66 177q-27 0 -52.5 16t-45 32t-31.5 16q-29 0 -35 -55l-92 5q4 152 124 152q27 0 52.5 -16t45 -32t31.5 -16q29 0 35 55l92 -5q-4 -152 -124 -152z" />
    <glyph glyph-name="uni0339" unicode="&#x339;" 
d="M-63 -261v55q67 -3 67 49q0 50 -67 49v54q70 3 104.5 -25t34.5 -78t-34.5 -78.5t-104.5 -25.5z" />
    <glyph glyph-name="uni033A" unicode="&#x33a;" 
d="M-128 -214v142h73v-71h110v71h73v-142h-256z" />
    <glyph glyph-name="uni033B" unicode="&#x33b;" 
d="M-128 -247v181h256v-181h-256zM-55 -193h110v74h-110v-74z" />
    <glyph glyph-name="uni033C" unicode="&#x33c;" 
d="M-187 -235q-1 159 109 159q58 0 76 -53h4q18 53 76 53q57 0 83.5 -39t25.5 -120l-75 -10q0 45 -9.5 61.5t-29.5 16.5q-38 0 -38 -55v-22h-70v22q0 55 -39 55q-20 0 -29 -16.5t-9 -61.5z" />
    <glyph glyph-name="uni033D" unicode="&#x33d;" 
d="M-51 541l-50 49l51 51l-51 51l50 50l51 -51l51 51l50 -50l-51 -51l51 -51l-50 -49l-51 51z" />
    <glyph glyph-name="uni0342" unicode="&#x342;" 
d="M66 573q-27 0 -52.5 16t-45 32t-31.5 16q-29 0 -35 -55l-92 5q4 152 124 152q27 0 52.5 -16t45 -32t31.5 -16q29 0 35 55l92 -5q-4 -152 -124 -152z" />
    <glyph glyph-name="uni0345" unicode="&#x345;" 
d="M54 -216q-111 0 -111 127v34h106q-2 -15 -2 -40q0 -33 37 -33q8 0 17 2l14 -79q-22 -11 -61 -11z" />
    <glyph glyph-name="uni0361" unicode="&#x361;" 
d="M-419 536l-38 67q202 124 457 124t457 -124l-38 -67q-173 97 -419 97t-419 -97z" />
    <glyph glyph-name="uni0374" unicode="&#x374;" horiz-adv-x="300" 
d="M82 388l19 298h147l-23 -127l-47 -171h-96z" />
    <glyph glyph-name="uni0375" unicode="&#x375;" horiz-adv-x="300" 
d="M53 0l22 127l47 171h96l-19 -298h-146z" />
    <glyph glyph-name="uni037A" unicode="&#x37a;" horiz-adv-x="555" 
d="M333 -216q-111 0 -111 127v34h106q-2 -15 -2 -40q0 -33 37 -33q8 0 17 2l14 -79q-22 -11 -61 -11z" />
    <glyph glyph-name="uni037E" unicode="&#x37e;" horiz-adv-x="300" 
d="M150 312q-38 0 -63.5 26.5t-25.5 65.5q0 40 25.5 66.5t63.5 26.5t63.5 -26.5t25.5 -66.5q0 -39 -25.5 -65.5t-63.5 -26.5zM76 -194l-30 78q55 19 84.5 51.5t28.5 70.5h-8q-37 0 -63 22.5t-26 60.5q0 37 26.5 60.5t65.5 23.5q49 0 75.5 -36.5t26.5 -102.5
q0 -83 -46.5 -142.5t-133.5 -85.5z" />
    <glyph glyph-name="tonos" unicode="&#x384;" horiz-adv-x="555" 
d="M224 573l34 220l143 -24l-79 -214z" />
    <glyph glyph-name="dieresistonos" unicode="&#x385;" horiz-adv-x="555" 
d="M228 581l36 220l103 -21l-74 -213zM146 584q-24 0 -40 15.5t-16 41.5q0 25 16 40.5t40 15.5t40.5 -15.5t16.5 -40.5q0 -26 -16 -41.5t-41 -15.5zM412 584q-25 0 -41 15.5t-16 41.5q0 25 16.5 40.5t40.5 15.5t40 -15.5t16 -40.5q0 -26 -16 -41.5t-40 -15.5z" />
    <glyph glyph-name="Alphatonos" unicode="&#x386;" horiz-adv-x="622" 
d="M279 330l-16 -60h139l-15 60q-5 19 -53 210h-4q-37 -159 -51 -210zM43 0l204 652h177l204 -652h-156l-40 155h-199l-40 -155h-150zM-5 457l28 213l125 -18l-60 -212z" />
    <glyph glyph-name="anoteleia" unicode="&#x387;" horiz-adv-x="300" 
d="M150 312q-38 0 -63.5 26.5t-25.5 65.5q0 40 25.5 66.5t63.5 26.5t63.5 -26.5t25.5 -66.5q0 -39 -25.5 -65.5t-63.5 -26.5z" />
    <glyph glyph-name="Epsilontonos" unicode="&#x388;" horiz-adv-x="667" 
d="M196 0v652h408v-124h-261v-131h222v-123h-222v-150h271v-124h-418zM-12 457l28 213l125 -18l-60 -212z" />
    <glyph glyph-name="Etatonos" unicode="&#x389;" horiz-adv-x="792" 
d="M196 0v652h147v-251h225v251h148v-652h-148v272h-225v-272h-147zM-12 457l28 213l125 -18l-60 -212z" />
    <glyph glyph-name="Iotatonos" unicode="&#x38a;" horiz-adv-x="420" 
d="M196 0v652h147v-652h-147zM-12 457l28 213l125 -18l-60 -212z" />
    <glyph glyph-name="Omicrontonos" unicode="&#x38c;" horiz-adv-x="777" 
d="M434 -12q-134 0 -215 91.5t-81 249.5q0 157 81 246t215 89t215 -89t81 -246q0 -158 -81 -249.5t-215 -91.5zM434 115q67 0 106 58t39 156q0 97 -39 152.5t-106 55.5t-106 -55.5t-39 -152.5q0 -98 39 -156t106 -58zM-12 457l28 213l125 -18l-60 -212z" />
    <glyph glyph-name="Upsilontonos" unicode="&#x38e;" horiz-adv-x="704" 
d="M368 0v232l-197 420h158l58 -150q3 -9 22.5 -62t30.5 -82h4q5 13 25 64t30 80l59 150h154l-197 -420v-232h-147zM-12 457l28 213l125 -18l-60 -212z" />
    <glyph glyph-name="Omegatonos" unicode="&#x38f;" horiz-adv-x="803" 
d="M136 0v119h110v4q-38 39 -66 100t-28 135q0 136 81.5 221t214.5 85q132 0 214 -85t82 -221q0 -74 -28 -134.5t-67 -100.5v-4h110v-119h-267v106q101 95 101 237q0 86 -39 140t-106 54t-106 -54t-39 -140q0 -143 100 -237v-106h-267zM-20 457l28 213l125 -18l-60 -212z
" />
    <glyph glyph-name="iotadieresistonos" unicode="&#x390;" horiz-adv-x="301" 
d="M206 -12q-78 0 -109.5 42.5t-31.5 124.5v341h148q-1 -30 -5.5 -164.5t-4.5 -182.5q0 -23 10 -32.5t31 -9.5q16 0 32 6l17 -109q-37 -16 -87 -16zM87 581l36 220l103 -21l-74 -213zM5 584q-24 0 -40 15.5t-16 41.5q0 25 16 40.5t40 15.5t40.5 -15.5t16.5 -40.5
q0 -26 -16 -41.5t-41 -15.5zM271 584q-25 0 -41 15.5t-16 41.5q0 25 16.5 40.5t40.5 15.5t40 -15.5t16 -40.5q0 -26 -16 -41.5t-40 -15.5z" />
    <glyph glyph-name="Alpha" unicode="&#x391;" horiz-adv-x="573" 
d="M230 330l-16 -60h139l-15 60q-5 19 -53 210h-4q-37 -159 -51 -210zM-6 0l204 652h177l204 -652h-156l-40 155h-199l-40 -155h-150z" />
    <glyph glyph-name="Beta" unicode="&#x392;" horiz-adv-x="605" 
d="M77 0v652h223q240 0 240 -162q0 -45 -23.5 -85.5t-61.5 -55.5v-4q53 -14 85 -52.5t32 -100.5q0 -95 -70.5 -143.5t-182.5 -48.5h-242zM224 391h69q103 0 103 77q0 38 -24.5 54t-77.5 16h-70v-147zM224 114h83q121 0 121 88q0 42 -29.5 61t-91.5 19h-83v-168z" />
    <glyph glyph-name="Gamma" unicode="&#x393;" horiz-adv-x="521" 
d="M77 0v652h411v-124h-264v-528h-147z" />
    <glyph glyph-name="uni0394" unicode="&#x394;" horiz-adv-x="640" 
d="M34 0v89l198 563h176l198 -563v-89h-572zM192 124h252l-69 220l-56 195h-4l-55 -195z" />
    <glyph glyph-name="Epsilon" unicode="&#x395;" horiz-adv-x="548" 
d="M77 0v652h408v-124h-261v-131h222v-123h-222v-150h271v-124h-418z" />
    <glyph glyph-name="Zeta" unicode="&#x396;" horiz-adv-x="541" 
d="M36 0v89l288 439h-261v124h442v-89l-288 -439h291v-124h-472z" />
    <glyph glyph-name="Eta" unicode="&#x397;" horiz-adv-x="674" 
d="M77 0v652h147v-251h225v251h148v-652h-148v272h-225v-272h-147z" />
    <glyph glyph-name="Theta" unicode="&#x398;" horiz-adv-x="684" 
d="M244 272v129h196v-129h-196zM342 -12q-134 0 -215 91.5t-81 249.5q0 157 81 246t215 89t215 -89t81 -246q0 -158 -81 -249.5t-215 -91.5zM342 115q67 0 106 58t39 156q0 97 -39 152.5t-106 55.5t-106 -55.5t-39 -152.5q0 -98 39 -156t106 -58z" />
    <glyph glyph-name="Iota" unicode="&#x399;" horiz-adv-x="301" 
d="M77 0v652h147v-652h-147z" />
    <glyph glyph-name="Kappa" unicode="&#x39a;" horiz-adv-x="614" 
d="M77 0v652h147v-267h4l194 267h162l-197 -260l233 -392h-161l-159 275l-76 -100v-175h-147z" />
    <glyph glyph-name="Lambda" unicode="&#x39b;" horiz-adv-x="556" 
d="M-7 0l196 652h177l197 -652h-156l-78 304q-11 39 -27.5 109t-24.5 100h-4q-11 -39 -28 -108t-25 -101l-77 -304h-150z" />
    <glyph glyph-name="Mu" unicode="&#x39c;" horiz-adv-x="762" 
d="M77 0v652h161l105 -290q7 -21 20 -63t18 -57h4q6 17 18 58t19 62l103 290h160v-652h-134v239q0 51 19 222h-4l-53 -155l-93 -249h-81l-93 249l-52 155h-4q19 -171 19 -222v-239h-132z" />
    <glyph glyph-name="Nu" unicode="&#x39d;" horiz-adv-x="665" 
d="M77 0v652h151l170 -324l64 -144h4q-1 14 -6.5 69t-8.5 94.5t-3 74.5v230h140v-652h-151l-170 325l-64 142h-4q2 -20 7 -71t8 -91t3 -74v-231h-140z" />
    <glyph glyph-name="Xi" unicode="&#x39e;" horiz-adv-x="571" 
d="M53 0v124h466v-124h-466zM121 274v123h329v-123h-329zM63 528v124h446v-124h-446z" />
    <glyph glyph-name="Omicron" unicode="&#x39f;" horiz-adv-x="684" 
d="M342 -12q-134 0 -215 91.5t-81 249.5q0 157 81 246t215 89t215 -89t81 -246q0 -158 -81 -249.5t-215 -91.5zM342 115q67 0 106 58t39 156q0 97 -39 152.5t-106 55.5t-106 -55.5t-39 -152.5q0 -98 39 -156t106 -58z" />
    <glyph glyph-name="Pi" unicode="&#x3a0;" horiz-adv-x="663" 
d="M77 0v652h509v-652h-147v528h-215v-528h-147z" />
    <glyph glyph-name="Rho" unicode="&#x3a1;" horiz-adv-x="596" 
d="M77 0v652h224q118 0 188.5 -49.5t70.5 -160.5q0 -109 -72 -165t-183 -56h-81v-221h-147zM224 338h72q120 0 120 104q0 50 -31 71.5t-93 21.5h-68v-197z" />
    <glyph glyph-name="Sigma" unicode="&#x3a3;" horiz-adv-x="549" 
d="M38 0v89l202 240l-199 234v89h447v-124h-263l162 -195l-165 -209h293v-124h-477z" />
    <glyph glyph-name="Tau" unicode="&#x3a4;" horiz-adv-x="556" 
d="M204 0v528h-179v124h506v-124h-179v-528h-148z" />
    <glyph glyph-name="Upsilon" unicode="&#x3a5;" horiz-adv-x="525" 
d="M189 0v232l-197 420h158l58 -150q3 -9 22.5 -62t30.5 -82h4q5 13 25 64t30 80l59 150h154l-197 -420v-232h-147z" />
    <glyph glyph-name="Phi" unicode="&#x3a6;" horiz-adv-x="760" 
d="M187 329q0 -62 34.5 -102.5t93.5 -49.5v301q-59 -9 -93.5 -48.5t-34.5 -100.5zM573 329q0 61 -34.5 100.5t-93.5 48.5v-301q59 9 93.5 49.5t34.5 102.5zM315 -22v87q-123 10 -195 79t-72 185q0 115 71.5 182t195.5 77v86h130v-86q124 -10 195.5 -77t71.5 -182
q0 -116 -72 -185t-195 -79v-87h-130z" />
    <glyph glyph-name="Chi" unicode="&#x3a7;" horiz-adv-x="567" 
d="M11 0l181 335l-170 317h164l57 -123q7 -15 47 -105h4q19 52 42 105l52 123h157l-169 -324l180 -328h-164l-65 133q-19 41 -49 107h-4q-1 -2 -44 -107l-61 -133h-158z" />
    <glyph glyph-name="Psi" unicode="&#x3a8;" horiz-adv-x="752" 
d="M307 0v219q-255 19 -255 272v161h144v-152q0 -81 27.5 -119t83.5 -45v316h138v-316q56 7 83 45t27 119v152h144v-161q0 -253 -254 -272v-219h-138z" />
    <glyph glyph-name="uni03A9" unicode="&#x3a9;" horiz-adv-x="711" 
d="M44 0v119h110v4q-38 39 -66 100t-28 135q0 136 81.5 221t214.5 85q132 0 214 -85t82 -221q0 -74 -28 -134.5t-67 -100.5v-4h110v-119h-267v106q101 95 101 237q0 86 -39 140t-106 54t-106 -54t-39 -140q0 -143 100 -237v-106h-267z" />
    <glyph glyph-name="Iotadieresis" unicode="&#x3aa;" horiz-adv-x="301" 
d="M77 0v652h147v-652h-147zM40 700q-31 0 -50.5 20t-19.5 50t19.5 50t50.5 20t50.5 -20t19.5 -50t-19.5 -50t-50.5 -20zM262 700q-31 0 -50.5 20t-19.5 50t19.5 50t50.5 20t50.5 -20t19.5 -50t-19.5 -50t-50.5 -20z" />
    <glyph glyph-name="Upsilondieresis" unicode="&#x3ab;" horiz-adv-x="525" 
d="M189 0v232l-197 420h158l58 -150q3 -9 22.5 -62t30.5 -82h4q5 13 25 64t30 80l59 150h154l-197 -420v-232h-147zM151 700q-31 0 -50.5 20t-19.5 50t19.5 50t50.5 20t50.5 -20t19.5 -50t-19.5 -50t-50.5 -20zM373 700q-31 0 -50.5 20t-19.5 50t19.5 50t50.5 20t50.5 -20
t19.5 -50t-19.5 -50t-50.5 -20z" />
    <glyph glyph-name="alphatonos" unicode="&#x3ac;" horiz-adv-x="595" 
d="M235 -12q-91 0 -145 69t-54 189q0 119 64.5 190.5t154.5 71.5q92 0 137 -99h4l16 87h145q-1 -5 -15.5 -68.5t-19 -84t-13.5 -67t-12.5 -74.5t-3.5 -50q0 -45 48 -45q15 0 32 6l18 -108q-34 -17 -87 -17q-54 0 -84.5 19t-43.5 63h-3q-50 -82 -138 -82zM270 108
q33 0 60.5 31.5t29.5 75.5l7 86q-31 87 -89 87q-37 0 -64 -36t-27 -105q0 -139 83 -139zM239 573l34 220l143 -24l-79 -214z" />
    <glyph glyph-name="epsilontonos" unicode="&#x3ad;" horiz-adv-x="471" 
d="M268 -12q-101 0 -166.5 40t-65.5 113q0 92 96 118v4q-35 11 -55 41t-20 62q0 70 61 106t152 36q93 0 171 -51l-54 -94q-49 33 -109 33q-35 0 -56 -13.5t-21 -36.5q0 -44 70 -44q23 0 69 4v-105q-56 4 -85 4q-39 0 -57 -11.5t-18 -37.5q0 -56 102 -56q61 0 112 38l57 -93
q-79 -57 -183 -57zM207 573l34 220l143 -24l-79 -214z" />
    <glyph glyph-name="etatonos" unicode="&#x3ae;" horiz-adv-x="562" 
d="M353 -177q11 286 11 466q0 54 -13 74t-46 20q-45 0 -93 -72v-311h-147v344q0 86 -11 152h131l10 -86h4q36 48 73 73t85 25q145 0 145 -200v-485h-149zM252 573l34 220l143 -24l-79 -214z" />
    <glyph glyph-name="iotatonos" unicode="&#x3af;" horiz-adv-x="301" 
d="M206 -12q-78 0 -109.5 42.5t-31.5 124.5v341h148q-1 -30 -5.5 -164.5t-4.5 -182.5q0 -23 10 -32.5t31 -9.5q16 0 32 6l17 -109q-37 -16 -87 -16zM84 573l34 220l143 -24l-79 -214z" />
    <glyph glyph-name="upsilondieresistonos" unicode="&#x3b0;" horiz-adv-x="532" 
d="M260 -12q-107 0 -158.5 57t-51.5 155q0 23 2 71.5t2 72.5q0 86 -11 152h142q9 -44 9 -122q0 -18 -3 -84.5t-3 -102.5q0 -38 20 -59t52 -21q82 0 82 146q0 100 -33 224l142 31q38 -138 38 -248q0 -128 -59 -200t-170 -72zM212 581l36 220l103 -21l-74 -213zM130 584
q-24 0 -40 15.5t-16 41.5q0 25 16 40.5t40 15.5t40.5 -15.5t16.5 -40.5q0 -26 -16 -41.5t-41 -15.5zM396 584q-25 0 -41 15.5t-16 41.5q0 25 16.5 40.5t40.5 15.5t40 -15.5t16 -40.5q0 -26 -16 -41.5t-40 -15.5z" />
    <glyph glyph-name="alpha" unicode="&#x3b1;" horiz-adv-x="595" 
d="M235 -12q-91 0 -145 69t-54 189q0 119 64.5 190.5t154.5 71.5q92 0 137 -99h4l16 87h145q-1 -5 -15.5 -68.5t-19 -84t-13.5 -67t-12.5 -74.5t-3.5 -50q0 -45 48 -45q15 0 32 6l18 -108q-34 -17 -87 -17q-54 0 -84.5 19t-43.5 63h-3q-50 -82 -138 -82zM270 108
q33 0 60.5 31.5t29.5 75.5l7 86q-31 87 -89 87q-37 0 -64 -36t-27 -105q0 -139 83 -139z" />
    <glyph glyph-name="beta" unicode="&#x3b2;" horiz-adv-x="600" 
d="M64 -177v643q0 110 59 178.5t173 68.5q90 0 153.5 -47t63.5 -135q0 -97 -84 -150v-4q58 -12 97 -60.5t39 -116.5q0 -102 -59.5 -157t-139.5 -55q-101 0 -164 67q2 -36 5.5 -114t5.5 -118h-149zM323 108q42 0 70 26t28 75q0 41 -24 68t-69 27q-22 0 -40 -6l-18 107
q102 15 102 112q0 38 -22 59t-54 21q-42 0 -65 -37t-25 -103q-5 -162 -5 -288q46 -61 122 -61z" />
    <glyph glyph-name="gamma" unicode="&#x3b3;" horiz-adv-x="533" 
d="M185 -177q7 57 7 136q0 96 -57.5 251t-135.5 266l150 32q33 -51 69.5 -144t63.5 -198h4q74 152 84 330h146q-24 -136 -62.5 -238.5t-129.5 -244.5q13 -73 13 -190h-152z" />
    <glyph glyph-name="delta" unicode="&#x3b4;" horiz-adv-x="548" 
d="M273 -12q-99 0 -165.5 62t-66.5 166q0 73 42 125t109 81q-104 78 -104 169q0 52 47 87t135 35q100 0 220 -40l-33 -109q-117 40 -187 40q-46 0 -46 -27q0 -10 6.5 -20.5t22 -23t29.5 -23t40 -28t42 -29.5q74 -54 109 -104.5t35 -125.5q0 -106 -63 -170.5t-172 -64.5z
M276 107q42 0 66 29t24 88q0 70 -77 131q-109 -29 -109 -137q0 -52 27.5 -81.5t68.5 -29.5z" />
    <glyph glyph-name="epsilon" unicode="&#x3b5;" horiz-adv-x="471" 
d="M268 -12q-101 0 -166.5 40t-65.5 113q0 92 96 118v4q-35 11 -55 41t-20 62q0 70 61 106t152 36q93 0 171 -51l-54 -94q-49 33 -109 33q-35 0 -56 -13.5t-21 -36.5q0 -44 70 -44q23 0 69 4v-105q-56 4 -85 4q-39 0 -57 -11.5t-18 -37.5q0 -56 102 -56q61 0 112 38l57 -93
q-79 -57 -183 -57z" />
    <glyph glyph-name="zeta" unicode="&#x3b6;" horiz-adv-x="466" 
d="M389 -187l-115 38q19 26 25.5 35.5t13.5 24.5t7 27q0 20 -19 30.5t-77 23.5q-82 18 -132.5 71t-50.5 165q0 86 65.5 185t172.5 181q-13 -1 -55.5 -2t-83.5 -2.5t-68 -4.5v116h368v-116h-6q-96 -58 -169.5 -165t-73.5 -184q0 -60 25.5 -87.5t93.5 -41.5q76 -15 107.5 -44
t31.5 -86q0 -73 -60 -164z" />
    <glyph glyph-name="eta" unicode="&#x3b7;" horiz-adv-x="562" 
d="M353 -177q11 286 11 466q0 54 -13 74t-46 20q-45 0 -93 -72v-311h-147v344q0 86 -11 152h131l10 -86h4q36 48 73 73t85 25q145 0 145 -200v-485h-149z" />
    <glyph glyph-name="theta" unicode="&#x3b8;" horiz-adv-x="549" 
d="M275 -12q-105 0 -166 93t-61 271t61 269.5t166 91.5t165.5 -91.5t60.5 -269.5t-61 -271t-165 -93zM275 594q-36 0 -57.5 -42t-25.5 -151h166q-4 109 -25.5 151t-57.5 42zM275 107q36 0 57.5 43.5t25.5 153.5h-166q4 -110 25.5 -153.5t57.5 -43.5z" />
    <glyph glyph-name="iota" unicode="&#x3b9;" horiz-adv-x="301" 
d="M206 -12q-78 0 -109.5 42.5t-31.5 124.5v341h148q-1 -30 -5.5 -164.5t-4.5 -182.5q0 -23 10 -32.5t31 -9.5q16 0 32 6l17 -109q-37 -16 -87 -16z" />
    <glyph glyph-name="kappa" unicode="&#x3ba;" horiz-adv-x="546" 
d="M386 -11q-58 73 -126 209q-2 -3 -7 -8q-50 -53 -50 -161v-29h-138v344q0 90 -12 152h146q9 -41 9 -122v-93h4q133 207 279 227l12 -137q-74 -17 -147 -81q37 -72 91.5 -153.5t103.5 -136.5z" />
    <glyph glyph-name="lambda" unicode="&#x3bb;" horiz-adv-x="552" 
d="M172 -11l-159 11l213 498l-3 14q-9 37 -33 57t-57 20q-35 0 -70 -16l-32 119q52 21 119 21q85 0 137 -49.5t85 -159.5l176 -504h-158l-97 334h-4z" />
    <glyph glyph-name="uni03BC" unicode="&#x3bc;" horiz-adv-x="594" 
d="M65 -177v673h147v-289q0 -51 14.5 -72.5t46.5 -21.5q50 0 85 65v318h148q-1 -30 -5.5 -164.5t-4.5 -182.5q0 -42 44 -42q16 0 32 6l17 -109q-37 -16 -87 -16q-104 0 -128 83h-4q-37 -78 -105 -78q-43 0 -62 23q1 -109 10 -193h-148z" />
    <glyph glyph-name="nu" unicode="&#x3bd;" horiz-adv-x="523" 
d="M182 0q-41 258 -183 476l150 32q38 -65 74.5 -170t52.5 -188h4q64 147 80 346h146q-24 -138 -64.5 -251t-119.5 -245h-140z" />
    <glyph glyph-name="xi" unicode="&#x3be;" horiz-adv-x="469" 
d="M392 -187l-115 38q19 24 26.5 34.5t14 25.5t6.5 27q0 20 -19.5 31t-76.5 23q-87 19 -136.5 62t-49.5 130q0 62 39.5 111.5t97.5 69.5v4q-43 17 -67 52.5t-24 80.5q0 60 46 92q-68 -4 -117 -9v116h426v-116h-117q-41 0 -66 -24t-25 -64q0 -36 24 -63t62 -27q43 0 73 9
v-115q-39 9 -81 9q-51 0 -85.5 -29t-34.5 -74q0 -48 28 -67t101 -33q78 -15 104.5 -43t26.5 -87q0 -29 -15.5 -74t-45.5 -90z" />
    <glyph glyph-name="omicron" unicode="&#x3bf;" horiz-adv-x="553" 
d="M276 -12q-99 0 -169.5 70.5t-70.5 189.5t70.5 189.5t169.5 70.5q100 0 170.5 -70.5t70.5 -189.5t-70.5 -189.5t-170.5 -70.5zM276 107q90 0 90 141t-90 141q-89 0 -89 -141t89 -141z" />
    <glyph glyph-name="pi" unicode="&#x3c0;" horiz-adv-x="635" 
d="M522 -12q-79 0 -113.5 44t-34.5 126q0 8 2 91t2 131h-115q0 -127 -26 -389l-147 9q36 200 36 380h-108v110l74 6h520v-116h-93q-7 -102 -7 -228q0 -45 45 -45q7 0 37 4l17 -108q-36 -15 -89 -15z" />
    <glyph glyph-name="rho" unicode="&#x3c1;" horiz-adv-x="569" 
d="M61 -177v414q0 135 65 203t172 68q108 0 169.5 -66.5t61.5 -185.5q0 -122 -61 -195t-144 -73q-78 0 -125 55q4 -83 10 -220h-148zM289 108q39 0 64.5 36.5t25.5 109.5q0 134 -86 134q-42 0 -68 -37.5t-26 -99.5v-103q37 -40 90 -40z" />
    <glyph glyph-name="uni03C2" unicode="&#x3c2;" horiz-adv-x="446" 
d="M349 -186l-116 38q20 26 26.5 36t14.5 26.5t8 28.5q0 24 -12.5 39t-43.5 25q-40 14 -69.5 30t-59 43.5t-45.5 72.5t-16 104q0 115 71.5 183t175.5 68q85 0 147 -53l-70 -95q-33 29 -68 29q-49 0 -77 -35.5t-28 -96.5q0 -58 23.5 -85.5t76.5 -46.5q72 -25 98 -54.5
t26 -89.5q0 -29 -16 -75.5t-46 -91.5z" />
    <glyph glyph-name="sigma" unicode="&#x3c3;" horiz-adv-x="573" 
d="M271 -12q-101 0 -168 67.5t-67 186.5q0 122 70.5 188t171.5 66h283v-121q-90 10 -140 11v-4q77 -44 77 -163q0 -106 -63 -168.5t-164 -62.5zM273 107q40 0 62.5 33.5t22.5 93.5q0 61 -22.5 102t-62.5 41q-86 0 -86 -135q0 -64 23 -99.5t63 -35.5z" />
    <glyph glyph-name="tau" unicode="&#x3c4;" horiz-adv-x="492" 
d="M311 -12q-139 0 -139 170v223h-146v109l74 6h366v-115h-150q-5 -107 -5 -229q0 -45 38 -45q27 0 56 8l19 -110q-60 -17 -113 -17z" />
    <glyph glyph-name="upsilon" unicode="&#x3c5;" horiz-adv-x="532" 
d="M260 -12q-107 0 -158.5 57t-51.5 155q0 23 2 71.5t2 72.5q0 86 -11 152h142q9 -44 9 -122q0 -18 -3 -84.5t-3 -102.5q0 -38 20 -59t52 -21q82 0 82 146q0 100 -33 224l142 31q38 -138 38 -248q0 -128 -59 -200t-170 -72z" />
    <glyph glyph-name="phi" unicode="&#x3c6;" horiz-adv-x="738" 
d="M187 248q0 -68 30.5 -105.5t84.5 -40.5v292q-54 -3 -84.5 -40.5t-30.5 -105.5zM551 248q0 68 -30.5 105.5t-84.5 40.5v-292q54 3 84.5 40.5t30.5 105.5zM302 -177v169q-111 6 -188.5 74t-77.5 182t77.5 182t188.5 74v124h134v-124q111 -6 188.5 -74t77.5 -182t-78 -182
t-188 -74v-169h-134z" />
    <glyph glyph-name="chi" unicode="&#x3c7;" horiz-adv-x="526" 
d="M160 -189l-152 12l189 342l-189 311l145 32l115 -214h4l88 202h153l-171 -327l198 -326l-145 -32l-123 237h-4z" />
    <glyph glyph-name="psi" unicode="&#x3c8;" horiz-adv-x="752" 
d="M307 -177v165q-133 3 -192.5 71.5t-59.5 177.5v107q0 86 -11 152h142q9 -38 9 -122q0 -21 -1 -75.5t-1 -73.5q0 -53 27 -87.5t87 -34.5v525h134v-525q60 2 88.5 41.5t28.5 129.5q0 94 -32 203l142 31q38 -116 38 -227q0 -140 -67.5 -215.5t-197.5 -77.5v-165h-134z" />
    <glyph glyph-name="omega" unicode="&#x3c9;" horiz-adv-x="746" 
d="M234 -12q-91 0 -142.5 69t-51.5 196q0 60 21.5 130t55.5 125l138 -52q-76 -124 -76 -232q0 -117 62 -117q65 0 65 93q0 32 -12 131h155q-12 -99 -12 -131q0 -51 14.5 -72t45.5 -21q28 0 45 36.5t17 103.5q0 61 -14 107t-50 105l135 49q76 -122 76 -252q0 -129 -49 -198.5
t-140 -69.5q-108 0 -143 94h-4q-37 -94 -136 -94z" />
    <glyph glyph-name="iotadieresis" unicode="&#x3ca;" horiz-adv-x="301" 
d="M206 -12q-78 0 -109.5 42.5t-31.5 124.5v341h148q-1 -30 -5.5 -164.5t-4.5 -182.5q0 -23 10 -32.5t31 -9.5q16 0 32 6l17 -109q-37 -16 -87 -16zM29 569q-31 0 -51.5 20.5t-20.5 51.5q0 30 20.5 50.5t51.5 20.5t51 -20.5t20 -50.5q0 -31 -20 -51.5t-51 -20.5zM247 569
q-31 0 -51 20.5t-20 51.5q0 30 20 50.5t51 20.5t51.5 -20.5t20.5 -50.5q0 -31 -20.5 -51.5t-51.5 -20.5z" />
    <glyph glyph-name="upsilondieresis" unicode="&#x3cb;" horiz-adv-x="532" 
d="M260 -12q-107 0 -158.5 57t-51.5 155q0 23 2 71.5t2 72.5q0 86 -11 152h142q9 -44 9 -122q0 -18 -3 -84.5t-3 -102.5q0 -38 20 -59t52 -21q82 0 82 146q0 100 -33 224l142 31q38 -138 38 -248q0 -128 -59 -200t-170 -72zM154 569q-31 0 -51.5 20.5t-20.5 51.5
q0 30 20.5 50.5t51.5 20.5t51 -20.5t20 -50.5q0 -31 -20 -51.5t-51 -20.5zM372 569q-31 0 -51 20.5t-20 51.5q0 30 20 50.5t51 20.5t51.5 -20.5t20.5 -50.5q0 -31 -20.5 -51.5t-51.5 -20.5z" />
    <glyph glyph-name="omicrontonos" unicode="&#x3cc;" horiz-adv-x="553" 
d="M276 -12q-99 0 -169.5 70.5t-70.5 189.5t70.5 189.5t169.5 70.5q100 0 170.5 -70.5t70.5 -189.5t-70.5 -189.5t-170.5 -70.5zM276 107q90 0 90 141t-90 141q-89 0 -89 -141t89 -141zM226 573l34 220l143 -24l-79 -214z" />
    <glyph glyph-name="upsilontonos" unicode="&#x3cd;" horiz-adv-x="532" 
d="M260 -12q-107 0 -158.5 57t-51.5 155q0 23 2 71.5t2 72.5q0 86 -11 152h142q9 -44 9 -122q0 -18 -3 -84.5t-3 -102.5q0 -38 20 -59t52 -21q82 0 82 146q0 100 -33 224l142 31q38 -138 38 -248q0 -128 -59 -200t-170 -72zM209 573l34 220l143 -24l-79 -214z" />
    <glyph glyph-name="omegatonos" unicode="&#x3ce;" horiz-adv-x="746" 
d="M234 -12q-91 0 -142.5 69t-51.5 196q0 60 21.5 130t55.5 125l138 -52q-76 -124 -76 -232q0 -117 62 -117q65 0 65 93q0 32 -12 131h155q-12 -99 -12 -131q0 -51 14.5 -72t45.5 -21q28 0 45 36.5t17 103.5q0 61 -14 107t-50 105l135 49q76 -122 76 -252q0 -129 -49 -198.5
t-140 -69.5q-108 0 -143 94h-4q-37 -94 -136 -94zM319 573l34 220l143 -24l-79 -214z" />
    <glyph glyph-name="uni03D0" unicode="&#x3d0;" horiz-adv-x="592" 
d="M319 -12q-50 0 -94 14.5t-81 43.5t-58.5 79.5t-21.5 117.5v223q0 110 56.5 177.5t166.5 67.5q90 0 153.5 -46t63.5 -134q0 -105 -102 -150v-4q68 -10 111.5 -59.5t43.5 -119.5q0 -102 -67.5 -156t-170.5 -54zM206 457q-2 -37 -3 -72q92 22 126 53t34 77q0 40 -19.5 60
t-49.5 20q-82 0 -88 -138zM314 115q42 0 70 24.5t28 68.5q0 43 -25.5 71t-76.5 28q-28 0 -109 -27v-24q0 -72 34 -106.5t79 -34.5z" />
    <glyph glyph-name="uni03D1" unicode="&#x3d1;" horiz-adv-x="549" 
d="M185 513q0 -123 173 -105q-6 102 -33 145t-70 41q-32 -1 -51 -24.5t-19 -56.5zM274 -12q-103 0 -151 50t-48 137q0 77 -9 108h138q9 -17 9 -87q0 -49 16 -69t50 -20q39 0 58 43.5t22 168.5q-72 -8 -128.5 2t-89.5 31t-54.5 51.5t-29 59t-7.5 56.5q0 81 57 137.5t141 56.5
q121 0 187 -93t66 -265q0 -186 -56 -276.5t-171 -90.5z" />
    <glyph glyph-name="uni03D5" unicode="&#x3d5;" horiz-adv-x="738" 
d="M304 -177v169q-115 5 -191.5 75t-76.5 191q0 64 28.5 134t74.5 124l122 -85q-75 -93 -75 -187q0 -133 118 -143v157q0 128 51.5 189t137.5 61q97 0 153 -64.5t56 -179.5q0 -121 -77.5 -193.5t-186.5 -78.5q1 -85 6 -169h-140zM434 279q0 -118 1 -178q116 13 116 153
q0 134 -63 134q-54 0 -54 -109z" />
    <glyph glyph-name="uni03D7" unicode="&#x3d7;" horiz-adv-x="546" 
d="M421 -188l-172 11q86 93 135 168q-60 79 -124 207q-2 -3 -7 -8q-50 -53 -50 -161v-29h-138v344q0 90 -12 152h146q9 -41 9 -122v-93h4q133 207 279 227l12 -137q-74 -17 -147 -81q37 -72 91.5 -153.5t103.5 -136.5q-73 -117 -130 -188z" />
    <glyph glyph-name="uni03D9" unicode="&#x3d9;" horiz-adv-x="553" 
d="M276 100q90 0 90 148q0 141 -90 141q-89 0 -89 -141q0 -148 89 -148zM208 -177v175q-76 22 -124 87.5t-48 162.5q0 119 70.5 189.5t169.5 70.5q100 0 170.5 -70.5t70.5 -189.5q0 -95 -47 -160.5t-121 -88.5q6 -128 8 -176h-149z" />
    <glyph glyph-name="uni03DB" unicode="&#x3db;" horiz-adv-x="490" 
d="M382 -187l-115 38q47 60 47 85q0 19 -13.5 31.5t-56.5 22.5q-57 15 -101 43t-75.5 82.5t-31.5 126.5q0 124 73.5 189t188.5 65h166v-121q-48 2 -154 2q-123 0 -123 -135q0 -51 29.5 -82.5t95.5 -49.5q77 -21 104 -49.5t27 -83.5q0 -28 -16 -74.5t-45 -89.5z" />
    <glyph glyph-name="uni03DD" unicode="&#x3dd;" horiz-adv-x="433" 
d="M65 -177v673h342v-115h-206l2 -159h184v-97h-182q0 -124 8 -302h-148z" />
    <glyph glyph-name="uni03E1" unicode="&#x3e1;" horiz-adv-x="536" 
d="M502 -181l-143 17q18 99 18 185q0 33 -3 65q-98 -45 -213 -109l-60 123l252 112q-11 44 -32 95q-114 -51 -252 -126l-60 123l251 111q-71 101 -184 177l95 108q171 -118 261 -293.5t90 -387.5q0 -87 -20 -200z" />
    <glyph glyph-name="uni0400" unicode="&#x400;" horiz-adv-x="548" 
d="M77 0v652h408v-124h-261v-131h222v-123h-222v-150h271v-124h-418zM298 680l-183 119l78 95l171 -140z" />
    <glyph glyph-name="uni0401" unicode="&#x401;" horiz-adv-x="548" 
d="M77 0v652h408v-124h-261v-131h222v-123h-222v-150h271v-124h-418zM177 700q-31 0 -50.5 20t-19.5 50t19.5 50t50.5 20t50.5 -20t19.5 -50t-19.5 -50t-50.5 -20zM399 700q-31 0 -50.5 20t-19.5 50t19.5 50t50.5 20t50.5 -20t19.5 -50t-19.5 -50t-50.5 -20z" />
    <glyph glyph-name="uni0402" unicode="&#x402;" horiz-adv-x="701" 
d="M472 -12q-41 0 -68 10l23 112q13 -5 27 -5q25 0 44.5 21.5t19.5 63.5q0 100 -111 100q-36 0 -75 -7v-283h-148v528h-159v124h514v-124h-207v-128q50 8 97 8q100 0 166.5 -53.5t66.5 -162.5q0 -104 -51.5 -154t-138.5 -50z" />
    <glyph glyph-name="uni0403" unicode="&#x403;" horiz-adv-x="521" 
d="M77 0v652h411v-124h-264v-528h-147zM286 680l-66 74l171 140l78 -95z" />
    <glyph glyph-name="uni0404" unicode="&#x404;" horiz-adv-x="582" 
d="M349 -12q-135 0 -219 84t-84 250t87 254t220 88q114 0 197 -85l-78 -94q-57 52 -115 52q-62 0 -103.5 -34.5t-55.5 -105.5h224v-123h-227q18 -159 160 -159q70 0 127 61l78 -92q-82 -96 -211 -96z" />
    <glyph glyph-name="uni0405" unicode="&#x405;" horiz-adv-x="556" 
d="M276 -12q-141 0 -241 94l84 101q80 -68 161 -68q91 0 91 63q0 33 -42 55q-11 6 -52 23l-85 36q-57 23 -94 67.5t-37 110.5q0 82 65.5 138t166.5 56q124 0 210 -86l-75 -93q-68 52 -135 52q-38 0 -60.5 -15.5t-22.5 -43.5q0 -25 20.5 -39.5t65.5 -32.5q9 -3 13 -5l84 -34
q129 -52 129 -177q0 -85 -66.5 -143.5t-179.5 -58.5z" />
    <glyph glyph-name="uni0406" unicode="&#x406;" horiz-adv-x="301" 
d="M77 0v652h147v-652h-147z" />
    <glyph glyph-name="uni0407" unicode="&#x407;" horiz-adv-x="301" 
d="M77 0v652h147v-652h-147zM40 700q-31 0 -50.5 20t-19.5 50t19.5 50t50.5 20t50.5 -20t19.5 -50t-19.5 -50t-50.5 -20zM262 700q-31 0 -50.5 20t-19.5 50t19.5 50t50.5 20t50.5 -20t19.5 -50t-19.5 -50t-50.5 -20z" />
    <glyph glyph-name="uni0408" unicode="&#x408;" horiz-adv-x="509" 
d="M226 -12q-143 0 -210 118l100 74q35 -65 91 -65q42 0 61.5 25.5t19.5 88.5v423h147v-435q0 -101 -53 -165t-156 -64z" />
    <glyph glyph-name="uni0409" unicode="&#x409;" horiz-adv-x="920" 
d="M79 -12q-50 0 -76 10l27 132q16 -4 28 -4q18 0 30 9t26.5 44.5t29.5 102.5q16 76 70 370h360v-238h54q117 0 186 -49t69 -152q0 -111 -70 -162t-188 -51h-199v528h-99q-40 -232 -46 -262q-31 -160 -76 -219t-126 -59zM574 117h42q123 0 123 94q0 86 -123 86h-42v-180z
" />
    <glyph glyph-name="uni040A" unicode="&#x40a;" horiz-adv-x="933" 
d="M77 0v652h147v-251h215v251h148v-238h54q117 0 186 -49t69 -152q0 -111 -70 -162t-188 -51h-199v272h-215v-272h-147zM587 117h42q123 0 123 94q0 86 -123 86h-42v-180z" />
    <glyph glyph-name="uni040B" unicode="&#x40b;" horiz-adv-x="718" 
d="M184 0v528h-159v124h514v-124h-207v-128q50 8 88 8q113 0 175 -54t62 -168v-186h-144v186q0 54 -25.5 79t-83.5 25q-33 0 -72 -7v-283h-148z" />
    <glyph glyph-name="uni040C" unicode="&#x40c;" horiz-adv-x="622" 
d="M77 0v652h147v-256h72l85 150q37 65 76.5 91.5t95.5 26.5q36 0 54 -9l-24 -133q-11 4 -29 4q-22 0 -37.5 -12.5t-35.5 -46.5l-69 -120l212 -347h-155l-173 277h-72v-277h-147zM333 688l-66 74l171 140l78 -95z" />
    <glyph glyph-name="uni040D" unicode="&#x40d;" horiz-adv-x="676" 
d="M77 0v652h146v-230q0 -51 -19 -238h4l64 143l171 325h156v-652h-145v231q0 34 3 74t8 91t7 71h-4l-64 -142l-171 -325h-156zM352 688l-183 119l78 95l171 -140z" />
    <glyph glyph-name="uni040E" unicode="&#x40e;" horiz-adv-x="555" 
d="M158 -12q-52 0 -83 13l26 128q24 -8 49 -8q46 0 63 30l9 19l-221 482h156l76 -190l55 -156h4l51 156l69 190h148l-201 -504q-65 -160 -201 -160zM287 697q-171 0 -178 138h124q3 -64 54 -64t54 64h124q-7 -138 -178 -138z" />
    <glyph glyph-name="uni040F" unicode="&#x40f;" horiz-adv-x="663" 
d="M77 0v652h147v-528h215v528h147v-652h-176l-11 -188h-132v188h-190z" />
    <glyph glyph-name="uni0410" unicode="&#x410;" horiz-adv-x="573" 
d="M230 330l-16 -60h139l-15 60q-5 19 -53 210h-4q-37 -159 -51 -210zM-6 0l204 652h177l204 -652h-156l-40 155h-199l-40 -155h-150z" />
    <glyph glyph-name="uni0411" unicode="&#x411;" horiz-adv-x="600" 
d="M77 0v652h445v-124h-298v-131h90q54 0 97.5 -10t78.5 -31t54.5 -59t19.5 -90q0 -106 -67.5 -156.5t-178.5 -50.5h-241zM224 114h79q117 0 117 91q0 45 -29.5 64.5t-88.5 19.5h-78v-175z" />
    <glyph glyph-name="uni0412" unicode="&#x412;" horiz-adv-x="605" 
d="M77 0v652h223q240 0 240 -162q0 -45 -23.5 -85.5t-61.5 -55.5v-4q53 -14 85 -52.5t32 -100.5q0 -95 -70.5 -143.5t-182.5 -48.5h-242zM224 391h69q103 0 103 77q0 38 -24.5 54t-77.5 16h-70v-147zM224 114h83q121 0 121 88q0 42 -29.5 61t-91.5 19h-83v-168z" />
    <glyph glyph-name="uni0413" unicode="&#x413;" horiz-adv-x="521" 
d="M77 0v652h411v-124h-264v-528h-147z" />
    <glyph glyph-name="uni0414" unicode="&#x414;" horiz-adv-x="670" 
d="M157 0v-188h-131l-13 220v92h30q54 19 93 225q25 133 54 303h387v-528h80v-92l-13 -220h-131v188h-356zM268 330q-27 -137 -68 -206h230v404h-126z" />
    <glyph glyph-name="uni0415" unicode="&#x415;" horiz-adv-x="548" 
d="M77 0v652h408v-124h-261v-131h222v-123h-222v-150h271v-124h-418z" />
    <glyph glyph-name="uni0416" unicode="&#x416;" horiz-adv-x="868" 
d="M2 0l188 344l-55 123q-17 34 -33.5 46.5t-39.5 12.5q-18 0 -28 -4l-25 133q19 9 54 9q58 0 99 -26t73 -92l71 -150h58v256h140v-256h58l70 150q33 66 74 92t99 26q35 0 53 -9l-24 -133q-11 4 -28 4q-24 0 -40.5 -12.5t-32.5 -46.5l-56 -124l189 -343h-158l-137 277h-67
v-277h-140v277h-67l-137 -277h-158z" />
    <glyph glyph-name="uni0417" unicode="&#x417;" horiz-adv-x="564" 
d="M275 -12q-144 0 -240 90l78 101q70 -64 160 -64q51 0 82.5 23.5t31.5 64.5q0 79 -118 79h-87v109h67q107 0 107 74q0 72 -92 72q-65 0 -134 -51l-74 98q89 80 213 80q111 0 171 -46.5t60 -128.5q0 -103 -83 -141v-4q50 -14 82 -54.5t32 -97.5q0 -97 -71.5 -150.5
t-184.5 -53.5z" />
    <glyph glyph-name="uni0418" unicode="&#x418;" horiz-adv-x="676" 
d="M77 0v652h146v-230q0 -51 -19 -238h4l64 143l171 325h156v-652h-145v231q0 34 3 74t8 91t7 71h-4l-64 -142l-171 -325h-156z" />
    <glyph glyph-name="uni0419" unicode="&#x419;" horiz-adv-x="676" 
d="M77 0v652h146v-230q0 -51 -19 -238h4l64 143l171 325h156v-652h-145v231q0 34 3 74t8 91t7 71h-4l-64 -142l-171 -325h-156zM342 705q-171 0 -178 138h124q3 -64 54 -64t54 64h124q-7 -138 -178 -138z" />
    <glyph glyph-name="uni041A" unicode="&#x41a;" horiz-adv-x="622" 
d="M77 0v652h147v-256h72l85 150q37 65 76.5 91.5t95.5 26.5q36 0 54 -9l-24 -133q-11 4 -29 4q-22 0 -37.5 -12.5t-35.5 -46.5l-69 -120l212 -347h-155l-173 277h-72v-277h-147z" />
    <glyph glyph-name="uni041B" unicode="&#x41b;" horiz-adv-x="657" 
d="M66 -12q-50 0 -76 10l26 132q18 -4 28 -4q28 0 46.5 29.5t39.5 126.5q19 85 71 370h380v-652h-148v528h-119q-11 -61 -48 -262q-31 -160 -75.5 -219t-124.5 -59z" />
    <glyph glyph-name="uni041C" unicode="&#x41c;" horiz-adv-x="762" 
d="M77 0v652h161l105 -290q7 -21 20 -63t18 -57h4q6 17 18 58t19 62l103 290h160v-652h-134v239q0 51 19 222h-4l-53 -155l-93 -249h-81l-93 249l-52 155h-4q19 -171 19 -222v-239h-132z" />
    <glyph glyph-name="uni041D" unicode="&#x41d;" horiz-adv-x="674" 
d="M77 0v652h147v-251h225v251h148v-652h-148v272h-225v-272h-147z" />
    <glyph glyph-name="uni041E" unicode="&#x41e;" horiz-adv-x="684" 
d="M342 -12q-134 0 -215 91.5t-81 249.5q0 157 81 246t215 89t215 -89t81 -246q0 -158 -81 -249.5t-215 -91.5zM342 115q67 0 106 58t39 156q0 97 -39 152.5t-106 55.5t-106 -55.5t-39 -152.5q0 -98 39 -156t106 -58z" />
    <glyph glyph-name="uni041F" unicode="&#x41f;" horiz-adv-x="663" 
d="M77 0v652h509v-652h-147v528h-215v-528h-147z" />
    <glyph glyph-name="uni0420" unicode="&#x420;" horiz-adv-x="596" 
d="M77 0v652h224q118 0 188.5 -49.5t70.5 -160.5q0 -109 -72 -165t-183 -56h-81v-221h-147zM224 338h72q120 0 120 104q0 50 -31 71.5t-93 21.5h-68v-197z" />
    <glyph glyph-name="uni0421" unicode="&#x421;" horiz-adv-x="582" 
d="M349 -12q-130 0 -216.5 88t-86.5 246q0 156 89.5 249t218.5 93q113 0 196 -85l-78 -94q-57 52 -115 52q-69 0 -114.5 -57t-45.5 -153q0 -100 42.5 -156t115.5 -56q70 0 127 61l78 -92q-82 -96 -211 -96z" />
    <glyph glyph-name="uni0422" unicode="&#x422;" horiz-adv-x="556" 
d="M204 0v528h-179v124h506v-124h-179v-528h-148z" />
    <glyph glyph-name="uni0423" unicode="&#x423;" horiz-adv-x="555" 
d="M158 -12q-52 0 -83 13l26 128q24 -8 49 -8q46 0 63 30l9 19l-221 482h156l76 -190l55 -156h4l51 156l69 190h148l-201 -504q-65 -160 -201 -160z" />
    <glyph glyph-name="uni0424" unicode="&#x424;" horiz-adv-x="764" 
d="M581 329q0 130 -136 140v-284q65 5 100.5 41t35.5 103zM183 329q0 -133 135 -144v284q-135 -11 -135 -140zM318 -12v88q-129 8 -201 72t-72 181q0 116 71.5 178.5t201.5 70.5v86h127v-86q131 -8 202.5 -70.5t71.5 -178.5q0 -117 -72 -181t-202 -72v-88h-127z" />
    <glyph glyph-name="uni0425" unicode="&#x425;" horiz-adv-x="567" 
d="M11 0l181 335l-170 317h164l57 -123q7 -15 47 -105h4q19 52 42 105l52 123h157l-169 -324l180 -328h-164l-65 133q-19 41 -49 107h-4q-1 -2 -44 -107l-61 -133h-158z" />
    <glyph glyph-name="uni0426" unicode="&#x426;" horiz-adv-x="669" 
d="M77 0v652h147v-528h206v528h147v-528h80v-92l-13 -220h-132v188h-435z" />
    <glyph glyph-name="uni0427" unicode="&#x427;" horiz-adv-x="630" 
d="M405 0v264q-41 -7 -98 -7q-121 0 -184 56t-63 182v157h145v-157q0 -66 27.5 -93.5t89.5 -27.5q48 0 83 7v271h148v-652h-148z" />
    <glyph glyph-name="uni0428" unicode="&#x428;" horiz-adv-x="910" 
d="M77 0v652h144v-528h164v528h141v-528h163v528h144v-652h-756z" />
    <glyph glyph-name="uni0429" unicode="&#x429;" horiz-adv-x="926" 
d="M769 -188v188h-692v652h144v-528h164v528h141v-528h163v528h144v-528h80v-92l-13 -220h-131z" />
    <glyph glyph-name="uni042A" unicode="&#x42a;" horiz-adv-x="730" 
d="M216 0v528h-191v124h339v-238h70q112 0 185.5 -50.5t73.5 -150.5q0 -111 -69.5 -162t-184.5 -51h-223zM364 117h66q119 0 119 94q0 86 -123 86h-62v-180z" />
    <glyph glyph-name="uni042B" unicode="&#x42b;" horiz-adv-x="853" 
d="M77 0v652h147v-238h65q117 0 186 -49t69 -152q0 -111 -70 -162t-188 -51h-209zM224 117h53q123 0 123 94q0 86 -123 86h-53v-180zM629 0v652h147v-652h-147z" />
    <glyph glyph-name="uni042C" unicode="&#x42c;" horiz-adv-x="600" 
d="M77 0v652h147v-238h84q117 0 186 -49t69 -152q0 -111 -70 -162t-187 -51h-229zM224 117h73q122 0 122 94q0 86 -123 86h-72v-180z" />
    <glyph glyph-name="uni042D" unicode="&#x42d;" horiz-adv-x="582" 
d="M239 -12q-129 0 -217 96l78 92q63 -61 137 -61q132 0 150 159h-227v123h225q-23 140 -151 140q-64 0 -124 -52l-78 94q91 85 210 85q131 0 212.5 -87.5t81.5 -254.5q0 -165 -83.5 -249.5t-213.5 -84.5z" />
    <glyph glyph-name="uni042E" unicode="&#x42e;" horiz-adv-x="950" 
d="M616 -12q-119 0 -193 75t-87 209h-112v-272h-147v652h147v-251h114q16 125 89.5 194t188.5 69q133 0 210.5 -89t77.5 -246q0 -159 -78 -250t-210 -91zM616 115q65 0 101 57.5t36 156.5q0 98 -35.5 153t-101.5 55q-65 0 -100.5 -55t-35.5 -153q0 -99 35.5 -156.5
t100.5 -57.5z" />
    <glyph glyph-name="uni042F" unicode="&#x42f;" horiz-adv-x="617" 
d="M392 0v235h-73l-139 -235h-168l167 257q-126 49 -126 192q0 203 252 203h235v-652h-148zM317 352h75v183h-75q-61 0 -90 -19.5t-29 -66.5q0 -97 119 -97z" />
    <glyph glyph-name="uni0430" unicode="&#x430;" horiz-adv-x="527" 
d="M190 -12q-67 0 -107.5 43t-40.5 107q0 79 66.5 122.5t212.5 58.5q-5 72 -78 72q-54 0 -131 -45l-53 97q108 65 212 65q197 0 197 -224v-284h-120l-10 51h-4q-72 -63 -144 -63zM240 102q39 0 81 42v87q-138 -19 -138 -82q0 -47 57 -47z" />
    <glyph glyph-name="uni0431" unicode="&#x431;" horiz-adv-x="561" 
d="M288 -12q-118 0 -182 84.5t-64 237.5q0 108 22 182.5t66.5 116t96.5 62t128 30.5q78 10 119 29l28 -128q-33 -26 -116 -37q-34 -5 -48.5 -7t-38.5 -7t-34 -9.5t-25 -12.5t-21 -18t-13.5 -24.5t-11.5 -33t-6 -43.5q52 61 141 61q82 0 136.5 -60t54.5 -169q0 -114 -65 -184
t-167 -70zM286 107q40 0 62 36t22 99q0 121 -85 121q-61 0 -102 -60v-28q0 -168 103 -168z" />
    <glyph glyph-name="uni0432" unicode="&#x432;" horiz-adv-x="528" 
d="M65 0v496h211q199 0 199 -131q0 -34 -20.5 -62.5t-62.5 -39.5v-4q102 -25 102 -116q0 -72 -57.5 -107.5t-148.5 -35.5h-223zM208 302h58q69 0 69 48q0 49 -68 49h-59v-97zM208 97h71q73 0 73 56q0 23 -18.5 37.5t-55.5 14.5h-70v-108z" />
    <glyph glyph-name="uni0433" unicode="&#x433;" horiz-adv-x="432" 
d="M65 0v496h341v-115h-194v-381h-147z" />
    <glyph glyph-name="uni0434" unicode="&#x434;" horiz-adv-x="584" 
d="M152 0v-172h-127l-14 191v96h31q20 11 33 48.5t25 135.5l23 197h370v-381h79v-96l-14 -191h-126v172h-280zM227 266q-10 -90 -41 -151h160v266h-106z" />
    <glyph glyph-name="uni0435" unicode="&#x435;" horiz-adv-x="518" 
d="M287 -12q-109 0 -180 70t-71 190q0 116 70 188t164 72q102 0 156.5 -66t54.5 -172q0 -41 -6 -65h-297q9 -52 43.5 -78.5t85.5 -26.5q53 0 107 33l49 -89q-82 -56 -176 -56zM177 302h179q0 94 -83 94q-36 0 -62.5 -24t-33.5 -70z" />
    <glyph glyph-name="uni0436" unicode="&#x436;" horiz-adv-x="761" 
d="M6 0l158 257l-28 62q-21 50 -62 50q-7 0 -19 -4l-23 136q17 7 40 7q56 0 92.5 -23t63.5 -81l43 -91h44v183h131v-183h44l43 91q27 58 63.5 81t92.5 23q23 0 40 -7l-23 -136q-12 4 -19 4q-41 0 -62 -50l-28 -62l158 -257h-158l-105 198h-46v-198h-131v198h-46l-105 -198
h-158z" />
    <glyph glyph-name="uni0437" unicode="&#x437;" horiz-adv-x="476" 
d="M220 -12q-112 0 -192 59l57 93q59 -40 121 -40q40 0 66 15t26 41q0 49 -76 49h-79v97h70q70 0 70 48q0 46 -75 46q-67 0 -117 -33l-54 94q79 51 181 51q87 0 146 -36t59 -106q0 -33 -20 -62t-58 -41v-4q97 -26 97 -118q0 -71 -66 -112t-156 -41z" />
    <glyph glyph-name="uni0438" unicode="&#x438;" horiz-adv-x="583" 
d="M65 0v496h142v-138q0 -30 -12 -176h3q7 13 28 50.5t29 53.5l129 210h134v-496h-142v138q0 44 13 176h-4q-34 -64 -57 -104l-129 -210h-134z" />
    <glyph glyph-name="uni0439" unicode="&#x439;" horiz-adv-x="583" 
d="M65 0v496h142v-138q0 -30 -12 -176h3q7 13 28 50.5t29 53.5l129 210h134v-496h-142v138q0 44 13 176h-4q-34 -64 -57 -104l-129 -210h-134zM297 572q-84 0 -127 43.5t-45 120.5h114q2 -44 14.5 -65t43.5 -21t43.5 21t14.5 65h114q-2 -77 -45 -120.5t-127 -43.5z" />
    <glyph glyph-name="uni043A" unicode="&#x43a;" horiz-adv-x="546" 
d="M65 0v496h147v-183h51l43 91q28 60 64 82t93 22q22 0 40 -7l-23 -136q-12 4 -19 4q-21 0 -35.5 -10t-27.5 -40l-26 -59l167 -260h-161l-114 198h-52v-198h-147z" />
    <glyph glyph-name="uni043B" unicode="&#x43b;" horiz-adv-x="573" 
d="M65 -12q-31 0 -59 11l24 132q16 -4 25 -4q44 0 54 74q7 55 18 156t16 139h366v-496h-147v381h-103q-24 -194 -28 -221q-25 -172 -166 -172z" />
    <glyph glyph-name="uni043C" unicode="&#x43c;" horiz-adv-x="660" 
d="M65 0v496h168l62 -170q3 -11 35 -111h4q22 63 36 111l58 170h167v-496h-130v127q0 46 15 214h-4q-8 -24 -25 -73t-23 -66l-58 -159h-80l-59 159q-7 21 -24.5 69.5t-24.5 69.5h-4q16 -179 16 -214v-127h-129z" />
    <glyph glyph-name="uni043D" unicode="&#x43d;" horiz-adv-x="582" 
d="M65 0v496h147v-179h159v179h147v-496h-147v189h-159v-189h-147z" />
    <glyph glyph-name="uni043E" unicode="&#x43e;" horiz-adv-x="555" 
d="M278 -12q-100 0 -171 70.5t-71 189.5t71 189.5t171 70.5q99 0 170 -70.5t71 -189.5t-71 -189.5t-170 -70.5zM278 107q44 0 67.5 37.5t23.5 103.5t-23.5 103.5t-67.5 37.5q-45 0 -68 -37.5t-23 -103.5t23 -103.5t68 -37.5z" />
    <glyph glyph-name="uni043F" unicode="&#x43f;" horiz-adv-x="574" 
d="M65 0v496h444v-496h-147v381h-150v-381h-147z" />
    <glyph glyph-name="uni0440" unicode="&#x440;" horiz-adv-x="573" 
d="M65 -184v680h120l10 -49h4q68 61 141 61q90 0 142 -68.5t52 -183.5q0 -122 -62 -195t-147 -73q-63 0 -118 52l5 -79v-145h-147zM291 108q41 0 66.5 36.5t25.5 109.5q0 134 -86 134q-43 0 -85 -45v-203q35 -32 79 -32z" />
    <glyph glyph-name="uni0441" unicode="&#x441;" horiz-adv-x="467" 
d="M281 -12q-107 0 -176 69.5t-69 190.5q0 119 75 189.5t183 70.5q82 0 145 -53l-69 -95q-35 29 -67 29q-53 0 -84.5 -38t-31.5 -103q0 -64 31 -102.5t80 -38.5q42 0 89 36l58 -96q-67 -59 -164 -59z" />
    <glyph glyph-name="uni0442" unicode="&#x442;" horiz-adv-x="492" 
d="M172 0v381h-146v115h440v-115h-147v-381h-147z" />
    <glyph glyph-name="uni0443" unicode="&#x443;" horiz-adv-x="521" 
d="M120 -194q-37 0 -70 10l26 112q27 -6 33 -6q65 0 87 65l7 26l-191 483h148l71 -213q11 -35 39 -141h4q22 94 34 141l60 213h141l-172 -501q-37 -99 -85 -144t-132 -45z" />
    <glyph glyph-name="uni0444" unicode="&#x444;" horiz-adv-x="779" 
d="M318 -184v127l4 75q-49 -30 -92 -30q-88 0 -139.5 69.5t-51.5 190.5q0 116 57.5 188t133.5 72q52 0 92 -27l-4 72v148h143v-148l-5 -76q53 31 102 31q83 0 132.5 -68.5t49.5 -183.5q0 -122 -57.5 -195t-137.5 -73q-49 0 -89 27l5 -72v-127h-143zM269 108q31 0 53 22v239
q-23 19 -57 19q-33 0 -54 -35.5t-21 -102.5q0 -142 79 -142zM511 108q36 0 57 36.5t21 109.5q0 134 -75 134q-32 0 -58 -21v-239q24 -20 55 -20z" />
    <glyph glyph-name="uni0445" unicode="&#x445;" horiz-adv-x="514" 
d="M14 0l152 258l-143 238h158l44 -80q6 -14 42 -85h4q6 16 18.5 46.5t15.5 38.5l34 80h152l-144 -255l153 -241h-158l-48 82q-8 14 -23.5 43t-23.5 43h-4q-5 -12 -18 -41t-20 -45l-39 -82h-152z" />
    <glyph glyph-name="uni0446" unicode="&#x446;" horiz-adv-x="595" 
d="M65 0v496h147v-381h146v381h147v-381h78v-96l-14 -191h-126v172h-378z" />
    <glyph glyph-name="uni0447" unicode="&#x447;" horiz-adv-x="550" 
d="M338 0v169q-36 -8 -87 -8q-94 0 -148.5 46.5t-54.5 145.5v143h147v-143q0 -77 88 -77q28 0 55 6v214h147v-496h-147z" />
    <glyph glyph-name="uni0448" unicode="&#x448;" horiz-adv-x="803" 
d="M65 0v496h145v-381h121v381h141v-381h121v381h146v-496h-674z" />
    <glyph glyph-name="uni0449" unicode="&#x449;" horiz-adv-x="829" 
d="M677 -172v172h-612v496h145v-381h121v381h141v-381h121v381h146v-381h78v-96l-14 -191h-126z" />
    <glyph glyph-name="uni044A" unicode="&#x44a;" horiz-adv-x="623" 
d="M175 0v381h-149v115h296v-158h53q212 0 212 -167q0 -171 -212 -171h-200zM322 112h46q79 0 79 60q0 57 -79 57h-46v-117z" />
    <glyph glyph-name="uni044B" unicode="&#x44b;" horiz-adv-x="739" 
d="M65 0v496h147v-158h36q213 0 213 -167q0 -171 -213 -171h-183zM212 112h29q79 0 79 60q0 57 -79 57h-29v-117zM527 0v496h147v-496h-147z" />
    <glyph glyph-name="uni044C" unicode="&#x44c;" horiz-adv-x="516" 
d="M65 0v496h147v-158h55q213 0 213 -167q0 -171 -213 -171h-202zM212 112h49q78 0 78 60q0 57 -78 57h-49v-117z" />
    <glyph glyph-name="uni044D" unicode="&#x44d;" horiz-adv-x="467" 
d="M187 -12q-104 0 -166 59l54 86q42 -33 95 -33q104 0 121 105h-172v97h170q-18 94 -113 94q-45 0 -85 -29l-63 84q59 57 157 57q109 0 178 -67t69 -193q0 -125 -68 -192.5t-177 -67.5z" />
    <glyph glyph-name="uni044E" unicode="&#x44e;" horiz-adv-x="776" 
d="M514 -12q-88 0 -149.5 53.5t-77.5 146.5h-75v-188h-147v496h147v-180h76q18 90 79 141t147 51q97 0 161.5 -70t64.5 -190t-64.5 -190t-161.5 -70zM505 107q42 0 63 37.5t21 103.5t-21 103.5t-63 37.5q-40 0 -63 -38t-23 -103t23 -103t63 -38z" />
    <glyph glyph-name="uni044F" unicode="&#x44f;" horiz-adv-x="544" 
d="M333 0v162h-55l-100 -162h-163l132 192q-86 46 -86 140q0 164 207 164h212v-496h-147zM286 261h47v127h-47q-80 0 -80 -60q0 -31 20.5 -49t59.5 -18z" />
    <glyph glyph-name="uni0450" unicode="&#x450;" horiz-adv-x="518" 
d="M287 -12q-109 0 -180 70t-71 190q0 116 70 188t164 72q102 0 156.5 -66t54.5 -172q0 -41 -6 -65h-297q9 -52 43.5 -78.5t85.5 -26.5q53 0 107 33l49 -89q-82 -56 -176 -56zM177 302h179q0 94 -83 94q-36 0 -62.5 -24t-33.5 -70zM260 572l-181 157l99 97l154 -182z" />
    <glyph glyph-name="uni0451" unicode="&#x451;" horiz-adv-x="518" 
d="M287 -12q-109 0 -180 70t-71 190q0 116 70 188t164 72q102 0 156.5 -66t54.5 -172q0 -41 -6 -65h-297q9 -52 43.5 -78.5t85.5 -26.5q53 0 107 33l49 -89q-82 -56 -176 -56zM177 302h179q0 94 -83 94q-36 0 -62.5 -24t-33.5 -70zM161 569q-31 0 -51.5 20.5t-20.5 51.5
q0 30 20.5 50.5t51.5 20.5t51 -20.5t20 -50.5q0 -31 -20 -51.5t-51 -20.5zM379 569q-31 0 -51 20.5t-20 51.5q0 30 20 50.5t51 20.5t51.5 -20.5t20.5 -50.5q0 -31 -20.5 -51.5t-51.5 -20.5z" />
    <glyph glyph-name="uni0452" unicode="&#x452;" horiz-adv-x="572" 
d="M302 -196q-47 0 -78 14l26 108q23 -7 37 -7q97 0 97 243q0 70 -11 108.5t-29 51t-50 12.5q-37 0 -82 -47v-287h-147v556h-68v65l68 5v75h147v-74h169v-71h-169v-75l-7 -89q70 68 144 68q91 0 138 -71.5t47 -208.5q0 -205 -59 -290.5t-173 -85.5z" />
    <glyph glyph-name="uni0453" unicode="&#x453;" horiz-adv-x="432" 
d="M65 0v496h341v-115h-194v-381h-147zM253 572l-72 72l154 182l99 -97z" />
    <glyph glyph-name="uni0454" unicode="&#x454;" horiz-adv-x="467" 
d="M281 -12q-109 0 -177 67.5t-68 192.5q0 124 73.5 192t183.5 68q83 0 146 -53l-63 -90q-39 31 -83 31q-95 0 -115 -94h169v-97h-171q17 -105 122 -105q47 0 94 37l53 -90q-67 -59 -164 -59z" />
    <glyph glyph-name="uni0455" unicode="&#x455;" horiz-adv-x="443" 
d="M211 -12q-48 0 -100 19t-90 50l66 92q69 -52 128 -52q63 0 63 42q0 5 -1.5 10t-5.5 9.5t-7.5 8t-11 7.5t-12.5 7t-14.5 7t-15 6t-16.5 6.5t-17 6.5q-131 50 -131 146q0 69 52 112t138 43q90 0 175 -63l-66 -88q-58 42 -105 42q-56 0 -56 -39q0 -7 2.5 -12.5t8.5 -11
t11 -9t16 -8t17 -7t21 -8t21 -7.5q61 -22 97.5 -55t36.5 -94q0 -70 -53.5 -115t-150.5 -45z" />
    <glyph glyph-name="uni0456" unicode="&#x456;" horiz-adv-x="276" 
d="M65 0v496h147v-496h-147zM138 569q-37 0 -61 21.5t-24 55.5t24 55t61 21q38 0 61.5 -21t23.5 -55t-24 -55.5t-61 -21.5z" />
    <glyph glyph-name="uni0457" unicode="&#x457;" horiz-adv-x="276" 
d="M65 0v496h147v-496h-147zM29 569q-31 0 -51.5 20.5t-20.5 51.5q0 30 20.5 50.5t51.5 20.5t51 -20.5t20 -50.5q0 -31 -20 -51.5t-51 -20.5zM247 569q-31 0 -51 20.5t-20 51.5q0 30 20 50.5t51 20.5t51.5 -20.5t20.5 -50.5q0 -31 -20.5 -51.5t-51.5 -20.5z" />
    <glyph glyph-name="uni0458" unicode="&#x458;" horiz-adv-x="278" 
d="M36 -196q-52 0 -87 14l26 108q23 -7 39 -7q29 0 40.5 19t11.5 61v497h147v-493q0 -199 -177 -199zM140 569q-37 0 -61 21.5t-24 55.5t24 55t61 21t61 -21t24 -55t-24 -55.5t-61 -21.5z" />
    <glyph glyph-name="uni0459" unicode="&#x459;" horiz-adv-x="780" 
d="M65 -12q-31 0 -59 11l25 132q14 -4 25 -4q40 0 54 74q16 86 26 295h356v-158h40q212 0 212 -167q0 -171 -212 -171h-187v381h-83q-13 -178 -29 -249q-31 -144 -168 -144zM492 112h33q79 0 79 60q0 57 -79 57h-33v-117z" />
    <glyph glyph-name="uni045A" unicode="&#x45a;" horiz-adv-x="788" 
d="M65 0v496h147v-179h141v179h147v-158h40q212 0 212 -167q0 -171 -212 -171h-187v189h-141v-189h-147zM500 112h33q79 0 79 60q0 57 -79 57h-33v-117z" />
    <glyph glyph-name="uni045B" unicode="&#x45b;" horiz-adv-x="571" 
d="M65 0v556h-68v65l68 5v75h147v-74h169v-71h-169v-75l-7 -90q75 69 153 69q154 0 154 -200v-260h-147v241q0 52 -14.5 72.5t-46.5 20.5q-26 0 -46 -11t-46 -37v-286h-147z" />
    <glyph glyph-name="uni045C" unicode="&#x45c;" horiz-adv-x="546" 
d="M65 0v496h147v-183h51l43 91q28 60 64 82t93 22q22 0 40 -7l-23 -136q-12 4 -19 4q-21 0 -35.5 -10t-27.5 -40l-26 -59l167 -260h-161l-114 198h-52v-198h-147zM305 572l-72 72l154 182l99 -97z" />
    <glyph glyph-name="uni045D" unicode="&#x45d;" horiz-adv-x="583" 
d="M65 0v496h142v-138q0 -30 -12 -176h3q7 13 28 50.5t29 53.5l129 210h134v-496h-142v138q0 44 13 176h-4q-34 -64 -57 -104l-129 -210h-134zM287 572l-181 157l99 97l154 -182z" />
    <glyph glyph-name="uni045E" unicode="&#x45e;" horiz-adv-x="521" 
d="M120 -194q-37 0 -70 10l26 112q27 -6 33 -6q65 0 87 65l7 26l-191 483h148l71 -213q11 -35 39 -141h4q22 94 34 141l60 213h141l-172 -501q-37 -99 -85 -144t-132 -45zM267 572q-84 0 -127 43.5t-45 120.5h114q2 -44 14.5 -65t43.5 -21t43.5 21t14.5 65h114
q-2 -77 -45 -120.5t-127 -43.5z" />
    <glyph glyph-name="uni045F" unicode="&#x45f;" horiz-adv-x="578" 
d="M65 0v496h147v-381h155v381h147v-496h-150l-16 -172h-126l-5 172h-152z" />
    <glyph glyph-name="uni0462" unicode="&#x462;" horiz-adv-x="624" 
d="M144 0v483h-119v117h119v96h148v-96h215v-117h-215v-95h40q115 0 185 -43t70 -136q0 -209 -250 -209h-193zM292 114h36q59 0 87 20.5t28 69.5q0 43 -28 61.5t-91 18.5h-32v-170z" />
    <glyph glyph-name="uni0463" unicode="&#x463;" horiz-adv-x="600" 
d="M155 0v425h-129v116h129v87h147v-87h168v-116h-168v-87h50q212 0 212 -167q0 -171 -212 -171h-197zM302 112h43q79 0 79 60q0 57 -79 57h-43v-117z" />
    <glyph glyph-name="uni0472" unicode="&#x472;" horiz-adv-x="684" 
d="M342 -12q-134 0 -215 89.5t-81 251.5q0 161 81 248t215 87q135 0 215.5 -87t80.5 -248q0 -162 -81 -251.5t-215 -89.5zM342 543q-58 0 -96 -38t-49 -111h290q-11 73 -48.5 111t-96.5 38zM342 109q61 0 99 43t48 125h-294q10 -82 48 -125t99 -43z" />
    <glyph glyph-name="uni0473" unicode="&#x473;" horiz-adv-x="555" 
d="M278 -12q-102 0 -172 68.5t-70 191.5t70 191.5t172 68.5q101 0 171 -69t70 -191t-70 -191t-171 -69zM278 399q-82 0 -100 -97h199q-18 97 -99 97zM278 98q41 0 67.5 27.5t33.5 79.5h-203q15 -107 102 -107z" />
    <glyph glyph-name="uni0474" unicode="&#x474;" horiz-adv-x="574" 
d="M190 0l-197 652h156l78 -304q8 -30 25 -99.5t28 -109.5h4q7 30 21 99.5t23 109.5l37 141q23 93 62.5 134t110.5 41q41 0 71 -12l-26 -132q-24 6 -30 6q-40 0 -57 -64l-122 -462h-184z" />
    <glyph glyph-name="uni0475" unicode="&#x475;" horiz-adv-x="533" 
d="M179 0l-167 496h148l64 -234q13 -49 39 -153h4q18 104 31 153l20 72q23 91 60.5 132.5t103.5 41.5q40 0 71 -11l-25 -124q-24 6 -29 6q-38 0 -57 -64l-86 -315h-177z" />
    <glyph glyph-name="uni0490" unicode="&#x490;" horiz-adv-x="521" 
d="M77 0v652h275l20 172h126l-10 -296h-264v-528h-147z" />
    <glyph glyph-name="uni0491" unicode="&#x491;" horiz-adv-x="433" 
d="M65 0v496h211l21 172h120l-10 -287h-195v-381h-147z" />
    <glyph glyph-name="uni0492" unicode="&#x492;" horiz-adv-x="546" 
d="M26 283v66l76 5v298h411v-124h-264v-174h125v-71h-125v-283h-147v283h-76z" />
    <glyph glyph-name="uni0493" unicode="&#x493;" horiz-adv-x="457" 
d="M24 193v66l66 4v233h341v-115h-194v-117h119v-71h-119v-193h-147v193h-66z" />
    <glyph glyph-name="uni0496" unicode="&#x496;" horiz-adv-x="905" 
d="M748 -188v188h-40l-137 277h-67v-277h-140v277h-67l-137 -277h-158l188 344l-55 123q-17 34 -33.5 46.5t-39.5 12.5q-18 0 -28 -4l-25 133q19 9 54 9q58 0 99 -26t73 -92l71 -150h58v256h140v-256h58l70 150q33 66 74 92t99 26q35 0 53 -9l-24 -133q-11 4 -28 4
q-24 0 -40.5 -12.5t-32.5 -46.5l-56 -124l121 -219h95v-92l-13 -220h-132z" />
    <glyph glyph-name="uni0497" unicode="&#x497;" horiz-adv-x="803" 
d="M653 -172v172h-56l-105 198h-46v-198h-131v198h-46l-105 -198h-158l158 257l-28 62q-21 50 -62 50q-7 0 -19 -4l-23 136q17 7 40 7q56 0 92.5 -23t63.5 -81l43 -91h44v183h131v-183h44l43 91q27 58 63.5 81t92.5 23q23 0 40 -7l-23 -136q-12 4 -19 4q-41 0 -62 -50
l-28 -62l87 -142h108v-96l-14 -191h-125z" />
    <glyph glyph-name="uni0498" unicode="&#x498;" horiz-adv-x="564" 
d="M216 -188v180q-107 17 -181 86l78 101q70 -64 160 -64q51 0 82.5 23.5t31.5 64.5q0 79 -118 79h-87v109h67q107 0 107 74q0 72 -92 72q-65 0 -134 -51l-74 98q89 80 213 80q111 0 171 -46.5t60 -128.5q0 -103 -83 -141v-4q50 -14 82 -54.5t32 -97.5q0 -78 -47 -128
t-126 -67l-11 -185h-131z" />
    <glyph glyph-name="uni0499" unicode="&#x499;" horiz-adv-x="476" 
d="M163 -172l-5 164q-70 11 -130 55l57 93q59 -40 121 -40q40 0 66 15t26 41q0 49 -76 49h-79v97h70q70 0 70 48q0 46 -75 46q-67 0 -117 -33l-54 94q79 51 181 51q87 0 146 -36t59 -106q0 -33 -20 -62t-58 -41v-4q97 -26 97 -118q0 -53 -38.5 -90t-99.5 -53l-17 -170h-124z
" />
    <glyph glyph-name="uni049A" unicode="&#x49a;" horiz-adv-x="667" 
d="M510 -188v188h-41l-173 277h-72v-277h-147v652h147v-256h72l85 150q37 65 76.5 91.5t95.5 26.5q36 0 54 -9l-24 -133q-11 4 -29 4q-22 0 -37.5 -12.5t-35.5 -46.5l-69 -120l136 -223h106v-92l-13 -220h-131z" />
    <glyph glyph-name="uni049B" unicode="&#x49b;" horiz-adv-x="588" 
d="M438 -172v172h-60l-114 198h-52v-198h-147v496h147v-183h51l43 91q28 60 64 82t93 22q22 0 40 -7l-23 -136q-12 4 -19 4q-21 0 -35.5 -10t-27.5 -40l-26 -59l93 -145h112v-96l-14 -191h-125z" />
    <glyph glyph-name="uni04A0" unicode="&#x4a0;" horiz-adv-x="749" 
d="M204 0v528h-179v124h327v-256h72l84 150q37 65 76.5 91.5t96.5 26.5q35 0 53 -9l-24 -133q-11 4 -28 4q-23 0 -38.5 -12.5t-34.5 -46.5l-70 -121l213 -346h-155l-174 277h-71v-277h-148z" />
    <glyph glyph-name="uni04A1" unicode="&#x4a1;" horiz-adv-x="656" 
d="M175 0v381h-149v115h296v-183h51l43 91q28 60 64 82t93 22q22 0 40 -7l-23 -136q-12 4 -19 4q-21 0 -35.5 -10t-27.5 -40l-26 -59l167 -260h-161l-114 198h-52v-198h-147z" />
    <glyph glyph-name="uni04A2" unicode="&#x4a2;" horiz-adv-x="689" 
d="M532 -188v188h-83v272h-225v-272h-147v652h147v-251h225v251h148v-528h79v-92l-12 -220h-132z" />
    <glyph glyph-name="uni04A3" unicode="&#x4a3;" horiz-adv-x="608" 
d="M456 -172v172h-83v189h-159v-189h-147v496h147v-179h159v179h147v-381h76v-96l-13 -191h-127z" />
    <glyph glyph-name="uni04AA" unicode="&#x4aa;" horiz-adv-x="582" 
d="M279 -188v183q-104 23 -168.5 107.5t-64.5 219.5q0 156 89.5 249t218.5 93q113 0 196 -85l-78 -94q-57 52 -115 52q-69 0 -114.5 -57t-45.5 -153q0 -100 42.5 -156t115.5 -56q70 0 127 61l78 -92q-58 -67 -138 -87l-11 -185h-132z" />
    <glyph glyph-name="uni04AB" unicode="&#x4ab;" horiz-adv-x="467" 
d="M211 -172l-5 170q-78 22 -124 87t-46 163q0 119 75 189.5t183 70.5q82 0 145 -53l-69 -95q-35 29 -67 29q-53 0 -84.5 -38t-31.5 -103q0 -64 31 -102.5t80 -38.5q42 0 89 36l58 -96q-39 -35 -93 -50l-17 -169h-124z" />
    <glyph glyph-name="uni04AE" unicode="&#x4ae;" horiz-adv-x="525" 
d="M189 0v232l-197 420h158l58 -150q3 -9 22.5 -62t30.5 -82h4q5 13 25 64t30 80l59 150h154l-197 -420v-232h-147z" />
    <glyph glyph-name="uni04AF" unicode="&#x4af;" horiz-adv-x="523" 
d="M191 -184v184l-179 496h148l63 -219q7 -29 21 -79.5t19 -68.5h4q7 27 20.5 76.5l19.5 71.5l63 219h141l-173 -496v-184h-147z" />
    <glyph glyph-name="uni04B0" unicode="&#x4b0;" horiz-adv-x="525" 
d="M48 215v65l93 6h23l-172 366h158l58 -150q3 -9 22.5 -62t30.5 -82h4q5 13 25 64t30 80l59 150h154l-172 -366h116v-71h-141v-215h-147v215h-141z" />
    <glyph glyph-name="uni04B1" unicode="&#x4b1;" horiz-adv-x="523" 
d="M191 -184v184h-142v65l77 6h39l-153 425h148l63 -219q7 -29 21 -79.5t19 -68.5h4q7 27 20.5 76.5l19.5 71.5l63 219h141l-148 -425h110v-71h-135v-184h-147z" />
    <glyph glyph-name="uni04B2" unicode="&#x4b2;" horiz-adv-x="605" 
d="M452 -188v188h-60l-65 133q-19 41 -49 107h-4q-1 -2 -44 -107l-61 -133h-158l181 335l-170 317h164l57 -123q7 -15 47 -105h4q19 52 42 105l52 123h157l-169 -324l112 -204h104v-92l-12 -220h-128z" />
    <glyph glyph-name="uni04B3" unicode="&#x4b3;" horiz-adv-x="548" 
d="M398 -172v172h-56l-48 82q-8 14 -23.5 43t-23.5 43h-4q-5 -12 -18 -41t-20 -45l-39 -82h-152l152 258l-143 238h158l44 -80q6 -14 42 -85h4q6 16 18.5 46.5t15.5 38.5l34 80h152l-144 -255l80 -126h110v-96l-14 -191h-125z" />
    <glyph glyph-name="uni04B6" unicode="&#x4b6;" horiz-adv-x="645" 
d="M492 -188v188h-87v264q-41 -7 -98 -7q-121 0 -184 56t-63 182v157h145v-157q0 -66 27.5 -93.5t89.5 -27.5q48 0 83 7v271h148v-528h79v-92l-12 -220h-128z" />
    <glyph glyph-name="uni04B7" unicode="&#x4b7;" horiz-adv-x="575" 
d="M425 -172v172h-87v169q-36 -8 -87 -8q-94 0 -148.5 46.5t-54.5 145.5v143h147v-143q0 -77 88 -77q28 0 55 6v214h147v-381h79v-96l-14 -191h-125z" />
    <glyph glyph-name="uni04BA" unicode="&#x4ba;" horiz-adv-x="630" 
d="M77 0v652h147v-237q41 7 98 7q121 0 184 -56t63 -182v-184h-144v184q0 66 -27.5 93.5t-90.5 27.5q-46 0 -83 -7v-298h-147z" />
    <glyph glyph-name="uni04BB" unicode="&#x4bb;" horiz-adv-x="571" 
d="M65 0v701h147v-172l-7 -89q76 68 153 68q154 0 154 -200v-308h-147v289q0 53 -14.5 73.5t-46.5 20.5q-26 0 -46 -11t-46 -37v-335h-147z" />
    <glyph glyph-name="uni04C0" unicode="&#x4c0;" horiz-adv-x="301" 
d="M77 0v652h147v-652h-147z" />
    <glyph glyph-name="uni04C1" unicode="&#x4c1;" horiz-adv-x="868" 
d="M2 0l188 344l-55 123q-17 34 -33.5 46.5t-39.5 12.5q-18 0 -28 -4l-25 133q19 9 54 9q58 0 99 -26t73 -92l71 -150h58v256h140v-256h58l70 150q33 66 74 92t99 26q35 0 53 -9l-24 -133q-11 4 -28 4q-24 0 -40.5 -12.5t-32.5 -46.5l-56 -124l189 -343h-158l-137 277h-67
v-277h-140v277h-67l-137 -277h-158zM434 697q-171 0 -178 138h124q3 -64 54 -64t54 64h124q-7 -138 -178 -138z" />
    <glyph glyph-name="uni04C2" unicode="&#x4c2;" horiz-adv-x="761" 
d="M6 0l158 257l-28 62q-21 50 -62 50q-7 0 -19 -4l-23 136q17 7 40 7q56 0 92.5 -23t63.5 -81l43 -91h44v183h131v-183h44l43 91q27 58 63.5 81t92.5 23q23 0 40 -7l-23 -136q-12 4 -19 4q-41 0 -62 -50l-28 -62l158 -257h-158l-105 198h-46v-198h-131v198h-46l-105 -198
h-158zM381 572q-84 0 -127 43.5t-45 120.5h114q2 -44 14.5 -65t43.5 -21t43.5 21t14.5 65h114q-2 -77 -45 -120.5t-127 -43.5z" />
    <glyph glyph-name="uni04CF" unicode="&#x4cf;" horiz-adv-x="286" 
d="M200 -12q-135 0 -135 166v547h147v-553q0 -41 26 -41q10 0 18 2l18 -109q-27 -12 -74 -12z" />
    <glyph glyph-name="uni04D0" unicode="&#x4d0;" horiz-adv-x="573" 
d="M230 330l-16 -60h139l-15 60q-5 19 -53 210h-4q-37 -159 -51 -210zM-6 0l204 652h177l204 -652h-156l-40 155h-199l-40 -155h-150zM286 697q-171 0 -178 138h124q3 -64 54 -64t54 64h124q-7 -138 -178 -138z" />
    <glyph glyph-name="uni04D1" unicode="&#x4d1;" horiz-adv-x="527" 
d="M190 -12q-67 0 -107.5 43t-40.5 107q0 79 66.5 122.5t212.5 58.5q-5 72 -78 72q-54 0 -131 -45l-53 97q108 65 212 65q197 0 197 -224v-284h-120l-10 51h-4q-72 -63 -144 -63zM240 102q39 0 81 42v87q-138 -19 -138 -82q0 -47 57 -47zM276 572q-84 0 -127 43.5t-45 120.5
h114q2 -44 14.5 -65t43.5 -21t43.5 21t14.5 65h114q-2 -77 -45 -120.5t-127 -43.5z" />
    <glyph glyph-name="uni04D4" unicode="&#x4d4;" horiz-adv-x="845" 
d="M303 356l-42 -93h125v278h-4q-66 -157 -79 -185zM-14 0l310 652h487v-124h-250v-131h211v-123h-211v-150h260v-124h-407v149h-177l-68 -149h-155z" />
    <glyph glyph-name="uni04D5" unicode="&#x4d5;" horiz-adv-x="786" 
d="M194 -12q-66 0 -106.5 42.5t-40.5 106.5q0 80 65.5 124t210.5 59q-5 71 -77 71q-53 0 -130 -45l-52 97q108 65 203 65q92 0 138 -75q66 75 147 75q95 0 146 -67.5t51 -173.5q0 -38 -6 -62h-286q8 -50 40 -76t79 -26q43 0 105 36l50 -95q-82 -56 -175 -56q-101 0 -171 77
q-96 -77 -191 -77zM244 102q49 0 93 42q-11 31 -14 66l-1 21q-135 -19 -135 -82q0 -47 57 -47zM457 295h167q0 101 -77 101q-36 0 -60 -25.5t-30 -75.5z" />
    <glyph glyph-name="uni04D6" unicode="&#x4d6;" horiz-adv-x="548" 
d="M77 0v652h408v-124h-261v-131h222v-123h-222v-150h271v-124h-418zM288 697q-171 0 -178 138h124q3 -64 54 -64t54 64h124q-7 -138 -178 -138z" />
    <glyph glyph-name="uni04D7" unicode="&#x4d7;" horiz-adv-x="518" 
d="M287 -12q-109 0 -180 70t-71 190q0 116 70 188t164 72q102 0 156.5 -66t54.5 -172q0 -41 -6 -65h-297q9 -52 43.5 -78.5t85.5 -26.5q53 0 107 33l49 -89q-82 -56 -176 -56zM177 302h179q0 94 -83 94q-36 0 -62.5 -24t-33.5 -70zM270 572q-84 0 -127 43.5t-45 120.5h114
q2 -44 14.5 -65t43.5 -21t43.5 21t14.5 65h114q-2 -77 -45 -120.5t-127 -43.5z" />
    <glyph glyph-name="uni04D8" unicode="&#x4d8;" horiz-adv-x="675" 
d="M336 -12q-133 0 -209 87t-76 248q0 23 3 49h427q-15 171 -158 171q-76 0 -143 -61l-67 101q88 81 227 81q132 0 210.5 -87.5t78.5 -249.5q0 -163 -79 -251t-214 -88zM336 108q123 0 143 156h-278q11 -156 135 -156z" />
    <glyph glyph-name="uni04D9" unicode="&#x4d9;" horiz-adv-x="518" 
d="M249 -12q-102 0 -157.5 66.5t-55.5 173.5q0 29 6 65h297q-16 103 -114 103q-55 0 -108 -33l-49 95q75 50 182 50q101 0 166.5 -70.5t65.5 -189.5q0 -117 -68 -188.5t-165 -71.5zM246 100q38 0 63 24t32 72h-179q0 -96 84 -96z" />
    <glyph glyph-name="uni04E2" unicode="&#x4e2;" horiz-adv-x="676" 
d="M77 0v652h146v-230q0 -51 -19 -238h4l64 143l171 325h156v-652h-145v231q0 34 3 74t8 91t7 71h-4l-64 -142l-171 -325h-156zM191 729v94h302v-94h-302z" />
    <glyph glyph-name="uni04E3" unicode="&#x4e3;" horiz-adv-x="583" 
d="M65 0v496h142v-138q0 -30 -12 -176h3q7 13 28 50.5t29 53.5l129 210h134v-496h-142v138q0 44 13 176h-4q-34 -64 -57 -104l-129 -210h-134zM148 592v93h296v-93h-296z" />
    <glyph glyph-name="uni04E6" unicode="&#x4e6;" horiz-adv-x="684" 
d="M342 -12q-134 0 -215 91.5t-81 249.5q0 157 81 246t215 89t215 -89t81 -246q0 -158 -81 -249.5t-215 -91.5zM342 115q67 0 106 58t39 156q0 97 -39 152.5t-106 55.5t-106 -55.5t-39 -152.5q0 -98 39 -156t106 -58zM231 700q-31 0 -50.5 20t-19.5 50t19.5 50t50.5 20
t50.5 -20t19.5 -50t-19.5 -50t-50.5 -20zM453 700q-31 0 -50.5 20t-19.5 50t19.5 50t50.5 20t50.5 -20t19.5 -50t-19.5 -50t-50.5 -20z" />
    <glyph glyph-name="uni04E7" unicode="&#x4e7;" horiz-adv-x="555" 
d="M278 -12q-100 0 -171 70.5t-71 189.5t71 189.5t171 70.5q99 0 170 -70.5t71 -189.5t-71 -189.5t-170 -70.5zM278 107q44 0 67.5 37.5t23.5 103.5t-23.5 103.5t-67.5 37.5q-45 0 -68 -37.5t-23 -103.5t23 -103.5t68 -37.5zM169 569q-31 0 -51.5 20.5t-20.5 51.5
q0 30 20.5 50.5t51.5 20.5t51 -20.5t20 -50.5q0 -31 -20 -51.5t-51 -20.5zM387 569q-31 0 -51 20.5t-20 51.5q0 30 20 50.5t51 20.5t51.5 -20.5t20.5 -50.5q0 -31 -20.5 -51.5t-51.5 -20.5z" />
    <glyph glyph-name="uni04E8" unicode="&#x4e8;" horiz-adv-x="684" 
d="M342 -12q-134 0 -215 89.5t-81 251.5q0 161 81 248t215 87q135 0 215.5 -87t80.5 -248q0 -162 -81 -251.5t-215 -89.5zM342 543q-58 0 -96 -38t-49 -111h290q-11 73 -48.5 111t-96.5 38zM342 109q61 0 99 43t48 125h-294q10 -82 48 -125t99 -43z" />
    <glyph glyph-name="uni04E9" unicode="&#x4e9;" horiz-adv-x="555" 
d="M278 -12q-102 0 -172 68.5t-70 191.5t70 191.5t172 68.5q101 0 171 -69t70 -191t-70 -191t-171 -69zM278 399q-82 0 -100 -97h199q-18 97 -99 97zM278 98q41 0 67.5 27.5t33.5 79.5h-203q15 -107 102 -107z" />
    <glyph glyph-name="uni04EE" unicode="&#x4ee;" horiz-adv-x="555" 
d="M158 -12q-52 0 -83 13l26 128q24 -8 49 -8q46 0 63 30l9 19l-221 482h156l76 -190l55 -156h4l51 156l69 190h148l-201 -504q-65 -160 -201 -160zM134 721v94h302v-94h-302z" />
    <glyph glyph-name="uni04EF" unicode="&#x4ef;" horiz-adv-x="521" 
d="M120 -194q-37 0 -70 10l26 112q27 -6 33 -6q65 0 87 65l7 26l-191 483h148l71 -213q11 -35 39 -141h4q22 94 34 141l60 213h141l-172 -501q-37 -99 -85 -144t-132 -45zM119 592v93h296v-93h-296z" />
    <glyph glyph-name="uni04F2" unicode="&#x4f2;" horiz-adv-x="555" 
d="M158 -12q-52 0 -83 13l26 128q24 -8 49 -8q46 0 63 30l9 19l-221 482h156l76 -190l55 -156h4l51 156l69 190h148l-201 -504q-65 -160 -201 -160zM150 728l101 161l93 -52l-122 -143zM337 728l101 161l94 -52l-122 -143z" />
    <glyph glyph-name="uni04F3" unicode="&#x4f3;" horiz-adv-x="521" 
d="M120 -194q-37 0 -70 10l26 112q27 -6 33 -6q65 0 87 65l7 26l-191 483h148l71 -213q11 -35 39 -141h4q22 94 34 141l60 213h141l-172 -501q-37 -99 -85 -144t-132 -45zM215 565l-77 35l87 181l99 -44zM394 565l-77 35l87 181l99 -44z" />
    <glyph glyph-name="a.sups" unicode="&#x1d43;" horiz-adv-x="359" 
d="M130 367q-45 0 -73 29t-28 71q0 53 44.5 82t142.5 38q-5 44 -49 44q-34 0 -90 -30l-37 68q74 44 145 44q65 0 100 -37.5t35 -111.5v-189h-83l-10 34h-4q-42 -42 -93 -42zM165 446q23 0 51 26v55q-88 -9 -88 -51q0 -30 37 -30z" />
    <glyph glyph-name="b.sups" unicode="&#x1d47;" horiz-adv-x="385" 
d="M221 367q-51 0 -87 43h-4l-8 -35h-80v463h104v-113l-4 -50q41 38 87 38q60 0 95 -45.5t35 -121.5q0 -82 -40.5 -130.5t-97.5 -48.5zM196 449q25 0 41 24t16 71q0 85 -54 85q-26 0 -53 -28v-133q25 -19 50 -19z" />
    <glyph glyph-name="d.sups" unicode="&#x1d48;" horiz-adv-x="385" 
d="M163 367q-63 0 -100 47.5t-37 131.5q0 74 42 120.5t96 46.5q48 0 81 -35l-5 53v107h104v-463h-85l-8 32h-2q-40 -40 -86 -40zM191 449q27 0 49 29v132q-25 21 -50 21t-41.5 -22.5t-16.5 -62.5q0 -97 59 -97z" />
    <glyph glyph-name="e.sups" unicode="&#x1d49;" horiz-adv-x="346" 
d="M193 367q-73 0 -121 47t-48 126q0 77 46.5 125t111.5 48q70 0 106 -45.5t36 -113.5q0 -24 -5 -41h-196q11 -67 84 -67q38 0 72 20l35 -61q-55 -38 -121 -38zM121 572h116q0 62 -54 62q-52 0 -62 -62z" />
    <glyph glyph-name="g.sups" unicode="&#x1d4d;" horiz-adv-x="361" 
d="M161 237q-62 0 -100 20.5t-38 62.5q0 41 46 64v4q-30 18 -30 55t37 61v4q-45 28 -45 84q0 57 40.5 89t98.5 32q30 0 53 -9h121v-75h-51q9 -16 9 -40q0 -54 -37.5 -82.5t-94.5 -28.5q-20 0 -39 6q-11 -11 -11 -22q0 -22 49 -22h53q127 0 127 -84q0 -53 -51 -86t-137 -33z
M170 541q19 0 31 13t12 38t-12 38.5t-31 13.5t-31 -13.5t-12 -38.5t12 -38t31 -13zM178 300q32 0 52 11t20 27q0 24 -48 24h-33q-31 0 -45 4q-17 -14 -17 -29q0 -37 71 -37z" />
    <glyph glyph-name="k.sups" unicode="&#x1d4f;" horiz-adv-x="371" 
d="M42 375v463h104v-260h4l97 127h112l-120 -140l128 -190h-112l-74 124l-35 -43v-81h-104z" />
    <glyph glyph-name="m.sups" unicode="&#x1d50;" horiz-adv-x="577" 
d="M42 375v330h84l8 -43h2q49 51 100 51q65 0 93 -56q52 56 104 56q53 0 79.5 -36t26.5 -99v-203h-104v190q0 32 -9 46.5t-32 14.5q-21 0 -52 -31v-220h-103v190q0 61 -41 61q-22 0 -52 -31v-220h-104z" />
    <glyph glyph-name="o.sups" unicode="&#x1d52;" horiz-adv-x="373" 
d="M186 367q-67 0 -114.5 47t-47.5 125q0 79 47.5 126.5t114.5 47.5t114.5 -47.5t47.5 -126.5q0 -78 -47.5 -125t-114.5 -47zM186 449q57 0 57 90q0 92 -57 92q-56 0 -56 -92q0 -90 56 -90z" />
    <glyph glyph-name="p.sups" unicode="&#x1d56;" horiz-adv-x="385" 
d="M42 242v463h83l7 -34h3q42 42 94 42q60 0 95 -45.5t35 -121.5q0 -82 -40.5 -130.5t-97.5 -48.5q-43 0 -81 35l6 -66v-94h-104zM196 449q25 0 41 24t16 71q0 85 -54 85q-26 0 -53 -28v-133q25 -19 50 -19z" />
    <glyph glyph-name="t.sups" unicode="&#x1d57;" horiz-adv-x="259" 
d="M173 367q-116 0 -116 131v126h-45v77l50 4l12 85h87v-85h77v-81h-77v-124q0 -52 41 -52q20 0 30 5l18 -74q-38 -12 -77 -12z" />
    <glyph glyph-name="u.sups" unicode="&#x1d58;" horiz-adv-x="383" 
d="M144 367q-105 0 -105 133v205h103v-192q0 -32 8 -45.5t34 -13.5q27 0 55 31v220h104v-330h-83l-11 42h-2q-48 -50 -103 -50z" />
    <glyph glyph-name="v.sups" unicode="&#x1d5b;" horiz-adv-x="355" 
d="M118 375l-110 330h103l40 -152l28 -102h2l26 102l41 152h99l-109 -330h-120z" />
    <glyph glyph-name="c.sups" unicode="&#x1d9c;" horiz-adv-x="313" 
d="M187 367q-72 0 -117.5 46.5t-45.5 126.5q0 78 49 125.5t119 47.5q69 0 104 -35l-48 -66q-22 19 -47 19q-31 0 -51 -25.5t-20 -65.5q0 -41 19.5 -66t50.5 -25t58 23l42 -67q-46 -38 -113 -38z" />
    <glyph glyph-name="f.sups" unicode="&#x1da0;" horiz-adv-x="232" 
d="M60 375v250h-45v76l45 4v11q0 60 30.5 98t95.5 38q38 0 67 -11l-19 -74q-15 5 -34 5q-36 0 -36 -52v-15h58v-80h-58v-250h-104z" />
    <glyph glyph-name="z.sups" unicode="&#x1dbb;" horiz-adv-x="312" 
d="M25 375v56l137 193h-120v81h249v-56l-137 -193h141v-81h-270z" />
    <glyph glyph-name="uni1E06" unicode="&#x1e06;" horiz-adv-x="605" 
d="M77 0v652h223q240 0 240 -162q0 -45 -23.5 -85.5t-61.5 -55.5v-4q53 -14 85 -52.5t32 -100.5q0 -95 -70.5 -143.5t-182.5 -48.5h-242zM224 391h69q103 0 103 77q0 38 -24.5 54t-77.5 16h-70v-147zM224 114h83q121 0 121 88q0 42 -29.5 61t-91.5 19h-83v-168zM166 -188v93
h296v-93h-296z" />
    <glyph glyph-name="uni1E07" unicode="&#x1e07;" horiz-adv-x="573" 
d="M325 -12q-70 0 -129 65h-4l-12 -53h-115v701h147v-172l-4 -76q61 55 131 55q90 0 142.5 -68.5t52.5 -182.5q0 -123 -62 -196t-147 -73zM291 108q41 0 66.5 36.5t25.5 109.5q0 134 -86 134q-44 0 -85 -45v-203q35 -32 79 -32zM145 -188v93h296v-93h-296z" />
    <glyph glyph-name="uni1E0C" unicode="&#x1e0c;" horiz-adv-x="635" 
d="M77 0v652h184q155 0 241 -80t86 -243t-85.5 -246t-233.5 -83h-192zM224 119h28q185 0 185 210q0 111 -48 157.5t-137 46.5h-28v-414zM313 -226q-36 0 -58.5 21.5t-22.5 55.5t22.5 55.5t58.5 21.5t58.5 -21.5t22.5 -55.5t-22.5 -55.5t-58.5 -21.5z" />
    <glyph glyph-name="uni1E0D" unicode="&#x1e0d;" horiz-adv-x="573" 
d="M242 -12q-93 0 -148 69.5t-55 190.5q0 117 61.5 188.5t144.5 71.5q67 0 122 -52l-6 76v169h147v-701h-120l-10 49h-4q-61 -61 -132 -61zM280 108q48 0 81 45v203q-35 32 -82 32q-38 0 -63.5 -35.5t-25.5 -102.5q0 -142 90 -142zM312 -226q-36 0 -58.5 21.5t-22.5 55.5
t22.5 55.5t58.5 21.5t58.5 -21.5t22.5 -55.5t-22.5 -55.5t-58.5 -21.5z" />
    </font>
</defs>
</svg>
