<svg xmlns="http://www.w3.org/2000/svg" viewBox="0 0 24 18"><defs><style>.cls-1{fill:#fff;}.cls-2{fill:#bf0a30;}</style></defs><title>flag-ca</title><g id="Calque_2" data-name="Calque 2"><g id="Phone_320px"><path class="cls-1" d="M5.71,0H18.44V18H5.71Z"/><path class="cls-2" d="M0,0H5.71V18H0ZM18.44,0H24V18H18.44ZM7.61,8.7l-.49.17,2.3,2c.17.52-.06.67-.21.94l2.5-.32L11.64,14h.52L12,11.52l2.5.3a1.15,1.15,0,0,1-.15-1l2.3-1.91-.4-.15c-.33-.25.14-1.22.21-1.83,0,0-1.34.46-1.43.22l-.34-.66L13.51,7.8c-.13,0-.19,0-.22-.13l.56-2.8-.89.5a.15.15,0,0,1-.2-.08L11.9,3.56,11,5.35a.13.13,0,0,1-.19,0L10,4.9l.51,2.78a.16.16,0,0,1-.25.08L9.07,6.44c-.15.24-.26.64-.46.73a4.66,4.66,0,0,1-1.33-.27c.15.56.64,1.49.33,1.79Z"/></g></g></svg>