<svg xmlns="http://www.w3.org/2000/svg" viewBox="0 0 24 18"><defs><style>.cls-1{fill:#f93;}.cls-2{fill:#fff;}.cls-3{fill:#128807;}.cls-4{fill:#008;}</style></defs><title>flag-in</title><g id="Calque_2" data-name="Calque 2"><g id="Phone_320px"><path class="cls-1" d="M0,0H24V6H0Z"/><path class="cls-2" d="M0,6H24v6H0Z"/><path class="cls-3" d="M0,12H24v6H0Z"/><circle class="cls-4" cx="12" cy="9" r="2.4"/><circle class="cls-2" cx="12" cy="9" r="2.1"/><circle class="cls-4" cx="12" cy="9" r="0.42"/><g id="b"><g id="a"><circle class="cls-4" cx="14.08" cy="9.27" r="0.11" transform="translate(3.05 22.03) rotate(-82.5)"/><path class="cls-4" d="M12,11.1l.07-1.26L12,9.24l-.07.6Z"/></g><g id="a-2" data-name="a"><circle class="cls-4" cx="13.94" cy="9.8" r="0.11" transform="translate(-0.45 18.93) rotate(-67.5)"/><path class="cls-4" d="M11.46,11l.4-1.2.09-.6-.22.56Z"/></g></g><g id="c"><g id="b-2" data-name="b"><g id="a-3" data-name="a"><circle class="cls-4" cx="13.67" cy="10.28" r="0.11" transform="translate(-2.81 14.86) rotate(-52.5)"/><path class="cls-4" d="M10.95,10.82l.69-1.06.24-.56-.36.48Z"/></g><g id="a-4" data-name="a"><circle class="cls-4" cx="13.28" cy="10.67" r="0.11" transform="translate(-3.75 10.29) rotate(-37.5)"/><path class="cls-4" d="M10.52,10.48l.94-.84.37-.48-.48.37Z"/></g></g></g><g id="d"><g id="b-3" data-name="b"><g id="a-5" data-name="a"><circle class="cls-4" cx="12.8" cy="10.94" r="0.11" transform="translate(-3.21 5.73) rotate(-22.5)"/><path class="cls-4" d="M10.18,10.05l1.13-.57.48-.36-.56.24Z"/></g><g id="a-6" data-name="a"><circle class="cls-4" cx="12.27" cy="11.08" r="0.11" transform="translate(-1.34 1.7) rotate(-7.5)"/><path class="cls-4" d="M10,9.54l1.24-.26.56-.22-.6.09Z"/></g></g><g id="c-2" data-name="c"><g id="b-4" data-name="b"><g id="a-7" data-name="a"><circle class="cls-4" cx="11.73" cy="11.08" r="0.11" transform="translate(-0.79 21.26) rotate(-82.5)"/><path class="cls-4" d="M9.9,9l1.26.07.6-.07-.6-.07Z"/></g><g id="a-8" data-name="a"><circle class="cls-4" cx="11.2" cy="10.94" r="0.1" transform="translate(-3.2 17.1) rotate(-67.5)"/><path class="cls-4" d="M10,8.46l1.2.4.6.09-.56-.22Z"/></g></g></g></g><g id="b-5" data-name="b"><g id="a-9" data-name="a"><circle class="cls-4" cx="10.72" cy="10.67" r="0.11" transform="translate(-4.27 12.68) rotate(-52.5)"/><path class="cls-4" d="M10.18,7.95l1.06.69.56.24-.48-.36Z"/></g><g id="a-10" data-name="a"><circle class="cls-4" cx="10.33" cy="10.28" r="0.11" transform="translate(-4.12 8.41) rotate(-37.5)"/><path class="cls-4" d="M10.52,7.52l.84.94.48.37-.37-.48Z"/></g></g><g id="c-3" data-name="c"><g id="b-6" data-name="b"><g id="a-11" data-name="a"><circle class="cls-4" cx="10.06" cy="9.8" r="0.11" transform="translate(-2.99 4.6) rotate(-22.5)"/><path class="cls-4" d="M11,7.18l.57,1.13.36.48-.24-.56Z"/></g><g id="a-12" data-name="a"><circle class="cls-4" cx="9.92" cy="9.27" r="0.1" transform="translate(-1.13 1.37) rotate(-7.5)"/><path class="cls-4" d="M11.46,7l.26,1.24.22.56-.09-.6Z"/></g></g></g><g id="d-2" data-name="d"><g id="b-7" data-name="b"><g id="a-13" data-name="a"><circle class="cls-4" cx="9.92" cy="8.73" r="0.11" transform="translate(-0.03 17.42) rotate(-82.5)"/><path class="cls-4" d="M12,6.9l-.07,1.26.07.6.07-.6Z"/></g><g id="a-14" data-name="a"><circle class="cls-4" cx="10.06" cy="8.2" r="0.1" transform="translate(-1.36 14.35) rotate(-67.5)"/><path class="cls-4" d="M12.54,7l-.4,1.2-.09.6.22-.56Z"/></g></g><g id="c-4" data-name="c"><g id="b-8" data-name="b"><g id="a-15" data-name="a"><circle class="cls-4" cx="10.33" cy="7.72" r="0.1" transform="translate(-2.08 11.22) rotate(-52.5)"/><path class="cls-4" d="M13,7.18l-.69,1.06-.24.56.36-.48Z"/></g><g id="a-16" data-name="a"><circle class="cls-4" cx="10.72" cy="7.33" r="0.1" transform="translate(-2.25 8.04) rotate(-37.5)"/><path class="cls-4" d="M13.48,7.52l-.94.84-.37.48.48-.37Z"/></g></g></g></g><g id="b-9" data-name="b"><g id="a-17" data-name="a"><circle class="cls-4" cx="11.2" cy="7.06" r="0.11" transform="translate(-1.85 4.82) rotate(-22.5)"/><path class="cls-4" d="M13.82,7.95l-1.13.57-.48.36.56-.24Z"/></g><g id="a-18" data-name="a"><circle class="cls-4" cx="11.73" cy="6.92" r="0.11" transform="translate(-0.8 1.59) rotate(-7.5)"/><path class="cls-4" d="M14,8.46l-1.24.26-.56.22.6-.09Z"/></g></g><g id="c-5" data-name="c"><g id="b-10" data-name="b"><g id="a-19" data-name="a"><circle class="cls-4" cx="12.27" cy="6.92" r="0.11" transform="translate(3.81 18.18) rotate(-82.5)"/><path class="cls-4" d="M14.1,9l-1.26-.07-.6.07.6.07Z"/></g><g id="a-20" data-name="a"><circle class="cls-4" cx="12.8" cy="7.06" r="0.1" transform="translate(1.38 16.19) rotate(-67.5)"/><path class="cls-4" d="M14,9.54l-1.2-.4-.6-.09.56.22Z"/></g></g></g><g id="d-3" data-name="d"><g id="b-11" data-name="b"><g id="a-21" data-name="a"><circle class="cls-4" cx="13.28" cy="7.33" r="0.11" transform="translate(-0.62 13.4) rotate(-52.5)"/><path class="cls-4" d="M13.82,10l-1.06-.69-.56-.24.48.36Z"/></g><g id="a-22" data-name="a"><circle class="cls-4" cx="13.67" cy="7.72" r="0.1" transform="translate(-1.88 9.92) rotate(-37.5)"/><path class="cls-4" d="M13.48,10.48l-.84-.94-.48-.37.37.48Z"/></g></g><g id="c-6" data-name="c"><g id="b-12" data-name="b"><g id="a-23" data-name="a"><circle class="cls-4" cx="13.94" cy="8.2" r="0.1" transform="translate(-2.08 5.96) rotate(-22.5)"/><path class="cls-4" d="M13,10.82l-.57-1.13-.36-.48.24.56Z"/></g><g id="a-24" data-name="a"><circle class="cls-4" cx="14.08" cy="8.73" r="0.1" transform="translate(-1.02 1.91) rotate(-7.5)"/><path class="cls-4" d="M12.54,11l-.26-1.24-.22-.56.09.6Z"/></g></g></g></g></g></g></svg>