<svg xmlns="http://www.w3.org/2000/svg" xmlns:xlink="http://www.w3.org/1999/xlink" viewBox="0 0 120 120"><defs><style>.cls-1,.cls-4{fill:none;}.cls-2{clip-path:url(#clip-path);}.cls-3{fill:#122844;}.cls-4{stroke:#122844;stroke-linecap:round;stroke-linejoin:round;}</style><clipPath id="clip-path" transform="translate(0 0)"><rect class="cls-1" width="120" height="120"/></clipPath></defs><title>lightbulb_120px-bkg-light</title><g id="Calque_2" data-name="Calque 2"><g id="Calque_1-2" data-name="Calque 1"><g id="lightbulb_120px-bkg-light"><g class="cls-2"><g class="cls-2"><path class="cls-3" d="M60,3A57,57,0,1,1,3,60,57.06,57.06,0,0,1,60,3m0-3a60,60,0,1,0,60,60A60,60,0,0,0,60,0" transform="translate(0 0)"/><path class="cls-4" d="M51.5,78.5v5h0a8.49,8.49,0,0,0,17,0h0v-5Z" transform="translate(0 0)"/><line class="cls-4" x1="59.5" y1="37.5" x2="59.5" y2="28.5"/><line class="cls-4" x1="38.6" y1="53.05" x2="30.04" y2="50.27"/><line class="cls-4" x1="78.52" y1="34.52" x2="73.23" y2="41.8"/><line class="cls-4" x1="41.48" y1="34.52" x2="46.77" y2="41.8"/><line class="cls-4" x1="81.4" y1="53.05" x2="89.96" y2="50.27"/><line class="cls-4" x1="68" y1="84.5" x2="57.5" y2="84.5"/><path class="cls-4" d="M67.88,78.5C72.44,73.73,75.5,65.68,75.5,60a15.5,15.5,0,0,0-31,0c0,5.68,3.06,13.73,7.62,18.5" transform="translate(0 0)"/></g></g></g></g></g></svg>