<svg xmlns="http://www.w3.org/2000/svg" viewBox="0 0 612.41 302.52"><defs><style>.cls-1,.cls-3{fill:#122844;}.cls-1{stroke:#007e9b;}.cls-1,.cls-2,.cls-3,.cls-4{stroke-miterlimit:10;}.cls-2,.cls-4,.cls-5{fill:#59d2ef;}.cls-2,.cls-3{stroke:#fff;}.cls-4{fill-opacity:0.4;stroke:#59d2ef;stroke-width:0.5px;}.cls-5{opacity:0.6;}</style></defs><title>map-full</title><g id="Calque_2" data-name="Calque 2"><g id="Phone_320px"><path class="cls-1" d="M303.29,119.84c.73-.1.63-3.14.35-3.16s-.35.48-1.05.9S302.59,119.93,303.29,119.84Z"/><path class="cls-1" d="M162.07,164a2.78,2.78,0,0,1,2.35.31l.13.07c.6.3.75-.3,2.11-.75s3.54.38,3.54-.68-3.61-2.18-4.52-1.88a1.73,1.73,0,0,1-.92-.05c-1-.24-2.14-.86-2.69-.47-.75.53,1.13,1.66,1.13,2.33s-3-.13-3.31.6C159.73,163.82,160.94,164.35,162.07,164Z"/><path class="cls-1" d="M121.16,150.09c.08-1.34-1.31-1.57-.49-2.19s0-1.32.41-1.62,1.24-.6,1.24-1.05.41-.45,1-.38,1.73-1,1.66-1.39.11-.49.83-.34.6-.83,1.05-.68.83.41.87.07.49-.26.83.19,1.32.56,1.39,0,.64,0,1.13.53.72.38,1.43.41.72-.15.75-.6.79,1,1.51,1.05.15-.45-.38-.87.11-.6-.34-.94.56-.79,1.47-.75.87.26,1.2-.26.68,0,.68.45,1.47-.26,2.26-.26a1.73,1.73,0,0,1,1.58,1.13c.08.45.6.68,1.17.19s1.05-1.05,1.58-.53,1.05,1.24,1.69,1.88-.3,1.43,0,1.92,0,1.17.71,1.7.08,1.62.68,1.77,1.09,1.09,1.17,1.47,1.2.87,1.28.23.68-1.39.75-2a8.1,8.1,0,0,0-.94-3.43c-.49-.68.11-.83-.49-1.62a5.71,5.71,0,0,1-.94-3.31,7,7,0,0,1,2-3.54c.64-.56,1.35-.26,1.51-.87s.94-1.35,1.39-1.35.94.11,1-.38.83-1.09,1.81-1.24.41-.68.15-1.13.23-.9.41-.6a.89.89,0,0,0,1.17.08c.38-.26,1.24-1,.41-1s-1-.38-.53-.56.07-1.09-.6-1.17-.45-.41,0-.83-.6-1.09-1.09-1.43.3-.53.68-.6.08-1.81.26-2.22.83-.41.56,0-.64,1.09-.15,1.66a2.12,2.12,0,0,1,.45,2c-.19.87.19.64.75-.49s.64-2.11.26-2.22-.34-1.24.08-.72.56.6,1.2-.08,1.32-1.84.9-2.11.19-.53.94-.49A5.18,5.18,0,0,0,164,121c.37-.73-2.6.34-2.6-.07s1.88-.83,2.75-.87.45-1.2.83-.72a1,1,0,0,0,1.43.11c.49-.3.11-1.17-.45-1.32s.41-.53.23-.87a1.9,1.9,0,0,1,1.09-1.85c.72-.15.38-.6,1-.6s.72-.72,1.24-1.24,1.28.83,2.11.07a9.7,9.7,0,0,1,1.27-1,4,4,0,0,1,1.78-.74,3,3,0,0,0,2-1.43c.3-.56.72.53.11.72s.49.64,1.54.6-.49.38-1.28.34-1.13.08-2.18,1.13-.79,1.35-.19,1.88,1.39.3,2.22-.41.79-1.43,1.62-1.39a18.56,18.56,0,0,0,3.91-1.05c.94-.3.34-.45.34-.87s1.66-.41,2.26-.83-.11-.75-.64-.68-.11-.75,0-1.17-1.13.19-1.17.68-.87.68-.87,1c0,.88-.11.41-.72.71s-2.94,0-3-.53-1.77-.79-1.84-1.51-.9-.94-.23-1.73-.11-1.17-.75-.57-1-.34-.15-.68,2.48-.68,1.66-2.18-6,.45-7.34,1.2-3,3.16-3.69,3.16,1.24-1.28,1.54-1.77-.08-1,.34-.79,1.58-1.62,2.37-2.22,1.66,0,1.77-.53.49-.83,1.24-1.51,9.75-.56,10.61-.53a5.08,5.08,0,0,0,3-1.88c.49-.75,1.13-.75,2.33-.68s1.77-1,2.37-1.43.38-.6-.15-.71-1-.45-.49-.49.79-.34,1-1-.19-.38-.9-1.32-1.09.3-1.81.23.49-1-.11-1.36a2.53,2.53,0,0,0-2.63.64c-.9.75-.83,0-1.62.72s-.79-.38-.41-.68.64,0,1-.41.68,0,1.54-.57,1.62-.3,1.88-.72-.41-1-1.24-.79-1.39-1.13-1.92-.75-.41-.56-1-.19-.94-.11-1.2-.83a5.78,5.78,0,0,0-2.86-2.18c-1-.3-.34-.83.19-.45s1.13-.38,1.36-.75-.38-.72-.68-.75-.3-.53-.23-.9-1.05-.87-1.09-1.24-.68-.64-.64-1-.64-.83-.64-1.28S178,78.83,178,78.31s-.64-.9-.87-1.54-.53-.34-.75.56-1,.87-.79,1.17c.46.62.11.64-.23,1s.23.94-.34.94-.3,1.17-.6.64-1-.38-1,.15-1.2,1-1.69,1-.49-1.05-.9-.75-.34-.87-1-.83-1.09,0-.9-.6-1.09-.83-.68-1.17-.11-.94-.19-1.92.56-1.05.56-1.43-.45-.38-.9-.07-.45-.41-.94-.38-2,0-2-.72-.56-.34-.79-1-.83-.15-.83-.6-.26-.64-.72-.68-.6-.53-1.2-.6a3.61,3.61,0,0,0-1.69.56c-.34.15-1.2-.53-1.54-.26s-.41-.19-1.36-.45-2.18-.34-2.26,0-.83.45-.72,1.24.9.64,1.09,1.17-.38.34-.41.83-.53.45-.53.79.34.26.53.94.56.64.68,1.54-.3.72-.68.83,0,.56-.49,1.17-1,1.24-.56,1.62,2,1,2.56,2a6,6,0,0,1,.38,3.73c-.19,1.13-1.47,1.39-2.41,2.37a3,3,0,0,1-2.37.87c-.45,0-.19.94.45,1.66s.11.94.45,1.69,0,1.35.49,2,.19.94-.38,1.43.23.23.26.87-.26.26-.75-.08-.94.64-.94,1.05-1.17-.56-1.43-.53.08-.64-.6-1.17-1.2-.64-1.2-1.17-1.17-.9-1.17-1.51a8.4,8.4,0,0,0-.11-2.6,1.36,1.36,0,0,1,.19-1.35c.23-.41-.26-1.05-.94-1.05a24.15,24.15,0,0,0-2.56-.15,2.35,2.35,0,0,1-1.77-.34,6.27,6.27,0,0,0-2.33-1.13,2.47,2.47,0,0,1-1.81-1.24c-.11-.34-1.28-.6-1.54-.94a2.77,2.77,0,0,0-1.84-.45c-.45.08-1.58-.94-2.26-.9a19.34,19.34,0,0,0-2.52.75c-.26,0,0-.56.23-.83s-.56-1.39-.75-2.15-.45-1.58-1.24-1.47a3.18,3.18,0,0,1-1.88-.45,7.75,7.75,0,0,1-.08-3.2c.19-.9,1.17-2.26,1.17-2.82s.64-.83,1.2-1,.11-1.24.68-1.32.6-.3.72-.75.79-.15.41-.53-.07-.49.79-.49,2.15-.3,2-1.17-2.45-.23-2.45-.94-2.86-.75-2.67-1.17,2.86.3,3.84.68a3.72,3.72,0,0,0,2,.3c.79,0,.26-1.05.41-1.47s1.66.64,2.52.41,1.69-2,2.41-2.48.07-.94-1.32-.83a3.9,3.9,0,0,1-2.94-1c-.75-.56-.68-1,.11-.94s2.67,1.62,3.39,1.66,2-1.39,2.56-1.84-.56-.64-1-1,.71-.56,1.32-.56.87.53,1.09.79,1.28-.19,1.81-.19-.08-.87-.94-1.21,0-1,.3-.45.87.41,1.17,1c.44.88.72.3,1.47,0A3.58,3.58,0,0,0,147,58.89c.41-.45.49.07,1-.64s-.23-1.39-.83-1.85,0-.9-.56-1.2-.72-.87,0-.72a1.53,1.53,0,0,0,1.69-.6c.34-.53-1.13-.64-.45-1s.11-.75-.56-.75-1.24-.34-1.28-.9-1.2-.19-1.92-.53a6.91,6.91,0,0,0-2.67-.23c-.38,0-.41,1.58.15,1.62s1,.64.53.83.08.79-.3.75-1-.23-1.09.75-.19,1.36-.83,1.69-.15-1.09-.75-1.05-.68,1.2-.23,1.32.53.49.64,1.05-.83.15-1.2.83-.41-.3-.94-.75-1.17-1.2-1.13-1.77A.74.74,0,0,1,137,55c.41-.08,0-.45,0-1.13s-.53-.45-1.13-1.17-1.24-.71-1.58-.38-.11,1-.64,1.2-.3,1.28-.75,1.35-.19-1.84-.56-2-.34-.64.23-.72.9-.68.41-.68a5.69,5.69,0,0,1-1.69-.68c-.34-.15-.9.64-1.28.34s0-1.05.08-1.47.6.19,1-.34-1.05-.53-1.05-1.09-1.13-.72-1.51-.9.26-1.13.07-1.51-1.58-1.62-2.18-1.51-.75-.79-.41-.75.6-.19,1.24-.9.71-.94.26-1.09-.68-.6.11-.56,2.18.56,2.63.23a32.58,32.58,0,0,0,2.45-3.35c.56-.79-.41-.87-1.77-.75s-1.66-.53-2.79-.6-3.24.23-3.54.56.56.64.45,1-.79-.26-1.09-.11.11.64,0,2a1.86,1.86,0,0,0,.64,1.88c.38.49.3,1.13.3,2s-.79.79-1.05,1,.68.49.53,1-.94-.3-1.39-.15-.83,1.43-.34,1.84.68.34.3.83-.79,1.2.11,1.92,2.56.64,3.42,1.2-.38.23,0,.87-.56.87-.53,1.36.38.23.83-.6.79.23.75.94-.68.3-1.17,1a1.37,1.37,0,0,1-1.66.68c-.72-.15-.3,1,0,1.66s-.08.87-.9.64-1.32-.75-.9-1.39.72-1.39.23-1.32-1.62,0-2-.56.23-.3,1.24-.19.15-.68.9-.68,1.32.41,2-.15-.41-1.66-.94-1.47-1.35.41-1.35-.11.9-.15,1.39-.26-.26-.79-1-.6a1.63,1.63,0,0,1-1.88-.41c-.6-.64-1.69-1-2,.45s-1.32.68-1.73,1.17.49.83,1.51.87,1.77,1,1.28,1-.26.72-.79.45-1.05,0-.68.45-.15.64-.11,1.09-.79,0-1.58,0a14,14,0,0,0-3.31.41,3.13,3.13,0,0,1-2.67-.64c-.45-.49-1.05-.41-1.81-.41s-.53-.72-1.51-.75-.75-.87-.87-1.36-2.07-.34-2.79.11-2.11.26-2.48,1.09.34.71.75.71c.58,0,.53-.68,1.58-.53s1.81-1.09,2.26-.64-1.81,1.32-2.79,1.47-.75.94.19,2.33-.41.6-.41,1.28-1.77-.23-1.05-.45.38-.94-.19-1.39-.94,0-.87-.49-.6,0-1.13-.38-.79-.75-1.51-.38-1.54.26-3.12.53-4.48.19-5-.34,1.35-1.47,1.92-1.32.23-.6-.64-1.28-2.79-1.09-2.75-.68-1.09,0-2.48-.23-1.58-.75-2.48-.79A6,6,0,0,1,80.8,51c-1.05-.83-3.54-.6-3.84.15s-1.13.72-2,.72.37-.93.08-1.09,0-1.24-.56-1.32-1.17,2.48-2.3,2.41-1.62-2.71-2.56-3.39-1.81-.72-1,.3-.68.3-.6,1-1.28,1.47-1.24,1.09-.75-.79-1.66.26-1.54.9-1.62.53-2.75,1-2.63,1.43-.41.79-1.13.75-.15-.64.41-.94,2.37-1.73,3.27-1.88,2.64-.87,2.67-1.28-.87-.08-1.47-.19-1.66.56-2.67,1-2.18.3-1.88.9-.94-.08-1.2.34-.75,0-.38-.26-.9-.64-.9-.38-.23.6-1.13.6-1.81.64-1.2,1.09,1,.68.68,1-1.24-.79-2.56-.68-4-1.47-4-1.84-1.85-.12-3.14-.25a3.25,3.25,0,0,1-.78-.16c-1.09-.41-2.71-1.17-3.58-1a7.19,7.19,0,0,1-3.2.11,4.24,4.24,0,0,0-2.67-.38c-1.24.19-2-.68-3.61-1.05a9.68,9.68,0,0,0-4.33.3c-.53.19-.41-.56-1.09-.49s-.15-.3-.53-.87-2.26,0-2.94,0-.87-.34-.83-.68-.6-.23-.87.23a.94.94,0,0,1-1.32.23c-.3-.3.64-.41.68-.75s-1-.53-1.36-.64-1,.38-1.77,1.09a3.41,3.41,0,0,1-2.67.56c-.71-.07-1.62.08-1.58.49s.9.38.38.9-.71-.72-1.24-.15-2.11.53-2.48.45-1.62,1.28-2,1.66.3.72-.71,1.81-3.73.87-4.29.87-.15.64-.45,1.05.34.79,1.88,1.2,2.6,2.45,2.79,2.94,2.11,0,2.86.08-.08,1.17.56,1.47,1.62-.15,1.81.38-1.28,0-2,.56-1.13.83-1.43.41S8,61.56,7.33,61.63s0-.79,0-1.17-.87-.64-2.11.08-.79.45-.94,1-.68-.34-1.47.15S.74,62.54.52,63s1.69.83,2.45,1-.9.64-.3.83.34.75,1.28,1.24,3,0,3.61,0,1.09.68,1.54.19,2.15-1.84,3-1.05-.94.68-.49,1.17,1,1.66.19,2.26a2.42,2.42,0,0,1-2.07.15c-.45,0-.19.83-.9,1.39s-1.24-.6-2.15-.6S6,70.74,6,71.31s-1.35-.11-1.69,1.24-1.77.19-.83,1.51.79.49,1.54,1S4.21,76.54,5,76.69s1.58,1.51,2.11,2,1.2-.26,2-.3.41-1.13.87-.72,1.09,1.62.68,1.92-.08,1.24-.15,1.69,1.73.3,1.84-.23,1.54-.68,2.33.19,1.05,1,1.05.34.68-1.43.71-.87.68.71,1.84.19.64,0,0,.79c-.83,1,0,2.56-.6,2.71s-1.09,1.69-2.07,1.81-2.63,2-2.86,2.26-2.33-.6-2.63.26-1.58,1.51-1.24,1.85,2-.64,2-1.09.3-.38.6,0,1.05-.15,1.39-.45.9-.19,1.24-.15.49-.41,1.51-.6.79-.49,1-1,2.64-1.66,3.09-1.77.19-.87.68-.9a4.83,4.83,0,0,0,1.88-1.17c.64-.53.79-.3,1.28-.49s.11-1.17.6-1.24a1,1,0,0,0,.87-.87c0-.41-1.24-.41-1.35-.68s1-1.24,1.39-1.21a1.19,1.19,0,0,0,1.13-1c0-.6.64-.72,1.13-1.24s.38-1,.87-1,.94-.72,1.47-1,0,.38,1,.41.79,1,0,.64A1.29,1.29,0,0,0,29,76c-.68.64-.15.83-.68,1.54s-.56,1.17.11,1.24,0,.56-.6.75-.19.56.68.56,2.15-1.24,3.35-1.85,2.11,0,2.45-.11-.38-.68,0-.86-.49-.3-.75-1,.41-.26.56-.83.56-.34.94-.08.9-.26,1.24.45.72-.19,1.32.3-.11.41-.75.56-.3,1,.19.6.9-.68,1.36-.26.64.23,1-.15.38,0,.38.34.79.41,1.92.6a18.42,18.42,0,0,0,3.69-.11c.53,0,.34.79,1.51,1S48.4,77.55,49,78s0,.68-.34,1.05.38.41.83.6a6.52,6.52,0,0,1,2,1,5.92,5.92,0,0,0,2,1.62c1.2.6,0-1.51,1-.83s.6,0,1.35.71.49-.3.15-1.43.34-.38.68.15a3,3,0,0,1,.11,2.22c-.23.68-1.36.11-1.24-.26s-1.13-.23-1.17.3a2.2,2.2,0,0,0,1.39,1.66c.6.11.15,1.05.53,1.17s.49,1.13.79,1,.19-1.32-.15-1.84-.19-1.28.26-1.13,0,.94.23,1.2.49-.26,1-.56-.23-1.17,0-1.62.79.38,1,1.17-.56.75-.56,1.17-.72.23-.94.45-.11,1.73.19,1.77.49-1.24.68-.6.9-.83,1.09-.23,1.09,1.28,1.43,1.13-.15-.79-.68-.83-.45-.9,0-.94,1.36,1.24,1.32,1.69-.45.41-.87.87-1-.75-1.47-.72,0,.79.23,1.32-.6,1.24,0,1.66.45-.26.56-.56.6.07.94.34.38-.6.38-.94.56-.15.87.3.34-.49.79-.41.15.79.15,1.2.79-.34.71.11a.67.67,0,0,0,0,.19c0,.33.34.54.72.86s-.83.38-.45.72-.07.87.3,1.28a1.1,1.1,0,0,0,1.47-.07c.41-.34.72.41.38,1a.46.46,0,0,0,.72.56c.34-.41,1.05.68,1.39.87s.68.75.11.75-.49,1-.08,1,.38.57.38.9,1.32.83,1.81.68.94.3,1.17.71,1.13.72,1.47.45.56.49.64,1,.83.23,1.28.19.72.6,1,.49c.66-.25.86.91,1.3,1.59a1.62,1.62,0,0,0,.17.22c.56.6.11,1.05.3,1.77s0,1.73-.53,1.73a.45.45,0,0,1-.23-.87c.41-.23.19-1.05-.23-1.05-.24,0-.34-.28-.33-.61a1.65,1.65,0,0,1,.18-.7c.26-.49-.56-.15-1.05-.68s-1.77-.41-2-.9-1.36-2.26-2-2.22a3.15,3.15,0,0,1-2.22-.49c-.75-.57-1.24-.6-1.77-.26s.56.41.53.79.34.6.79.53.71.87,1.17.9.6.75,1.13.75.64.6.9.94.87,0,.87.38.6.58.75,1a.47.47,0,0,1,0,.13,4.76,4.76,0,0,0,.87,2.26c.6.79.19,1.28.75,1.58s.53.64,0,.56-.15.42-.34,1.54-.15,3.46-.26,4.18-.94,1.88-.45,2.63a3.53,3.53,0,0,1,.56,2.75,2.51,2.51,0,0,0,.19,2.22c.41.72.08,2,.53,2.22a4.24,4.24,0,0,1,1.28,1.47c.41.68.79.26.87.94s.07.79.68,1.05.23.94.23,1.32.79,1.05,1.77,1.92.15,1.58.87,1.58a4.21,4.21,0,0,1,2.11.87c.71.45.94.19,1.43.3a3.36,3.36,0,0,1,1.58,1.88,6.28,6.28,0,0,0,.38,1.07,6.88,6.88,0,0,0,.9,1.41,8.51,8.51,0,0,1,1.43,3.31c.07.6,1.17,1.09,2.11,1.7a2.25,2.25,0,0,1,.83,2.26c-.11.34-1.28-.23-1.35.11s1.51,1.66,2.11,1.58.9.3,1.84,1.13.87,1.81.49,2.11.75.94,2,1.73a4.28,4.28,0,0,1,1.81,2.18c.11.41.64,0,.83-.53s-.38-.71-.38-1.35-1-.53-1.43-.6,0-1.05-.41-1.51a6.49,6.49,0,0,1-1.09-2.41c-.23-.83-1.39-1.66-1.88-2.56a6,6,0,0,0-1.36-1.85c-.34-.23.49-.56.19-.9s-.75-.3-1.32-.57a1.45,1.45,0,0,1-.94-1.32,10.72,10.72,0,0,0-.56-2.52c-.19-.49.41-.41.6-.19s.34.45.6.3a.68.68,0,0,1,.9.38c.19.41.83,0,1.13.23s-.68.41.3,2.15.3.75.3,1.92.6.64.79.45.72.38,1.2,1,1.43.64,1.43,1a1.12,1.12,0,0,0,.83,1.13c.64.11.75.83,1.17.9s.49.53.26,1,0,.9,1.05,1.32.56.49,1.39,1.28a49.22,49.22,0,0,1,3.65,4.07,6.82,6.82,0,0,1,.83,1.84c.19.53-.38.79-.08,1.24s-.56.26-.53.6.53,2,1.35,2.11,1.77,1.09,2.45,1.66,1.69.45,2.71.83,1.88,1.28,3.35,1.69a15.22,15.22,0,0,1,3.84,1.66c.94.6,2.11.34,3.43-.19a3.73,3.73,0,0,1,3.09.45,9.81,9.81,0,0,1,1.83,1.42h0a24.27,24.27,0,0,0,1.86,1.59c.72.45,1.88,0,2.37.41l.05,0a9.44,9.44,0,0,0,3.3,1.13.79.79,0,0,0,.55-.23c.15-.12.26-.2.51,0s.18.41.15.64a.54.54,0,0,0,.26.64c.6.34,1.43,1.66,2.07,2a1.19,1.19,0,0,1,.58.69.58.58,0,0,1-.13.67.91.91,0,0,0,.45,1.47c.83.34.56-.19,1-.19s.38.64.75.64,1.24.45,1.2,1.05.3.87,1,.87l.41,0a3.62,3.62,0,0,1,2.19,1c.56.68.9.23,1.24.83s1.13,0,1.32-.34-.41-.53-.49-.94.75-.26.9-.83,1.35-.83,1.88-.6,1,.6.49,1.17.38,1.18,1,1.77c.21.2.41.39.54.53.53.56.19,1,.34,1.32s.3.75,0,.94,0,2.26.3,2.63,0,.72-.38,1.47-.72,1.09-1.39,1.13-.64,1.09-.87,1.09-.31.38-.34.71a1.3,1.3,0,0,0,0,.23c0,.34-.53.56-1.17.6s-.56.75-.56,1.24-.53.49-.75,1,.07.64-.45.9a.75.75,0,0,0-.38,1.17c.3.45,0,.86-.11,1.13s.45.38,1,.87.6-.19.83.19a.79.79,0,0,1-.75,1.05l-.14,0c-.56.12-1.13.89-1.4,1.48s.53,1.88.64,2.33-.45,0-.53.45,1.24,1,1.84,1.47,1.13,1.73,1.69,2.33.6,1.13,1.2,2.6a27.23,27.23,0,0,0,2.63,5c.83,1.05,1.2,1.88,1,2.18a1.45,1.45,0,0,0,.64,1.54,13.27,13.27,0,0,0,2.67,1.88c1.58.79,4.48,2.3,4.89,3a6,6,0,0,0,2,1.54c.07,0,.09.16.1.32a4.91,4.91,0,0,0,0,1.53,13.71,13.71,0,0,1,.11,4.37,21.81,21.81,0,0,1-.68,2.56c-.23.64.53.68.23,1s-.19,1.05-.19,2.26a35.52,35.52,0,0,1-.75,3.88c0,.64-.53,1.05-.45,1.77a1.6,1.6,0,0,1-.75,1.47c-.41.34.68,1.43.64,2s-.83.87-.64,1.85a19.2,19.2,0,0,1,0,3.73c0,.41-.49.38-.38,1.17s-.49,1-.6,2.11a16.36,16.36,0,0,1-1.32,3.61c-.34.87-.34,1.36-.79,1.36s-.56.49-.23,1.24-.23,1.39.23,2.15.3,1,.07,1.73-.53.75-.53,1.43-.53,1.24-.23,2,.23,1-.15,1-.56.6-.72,1.84-.11,1.2.79,1.13.19-3,.75-3,.07-.49.64-.64.08.53.45.64.64.41.11.75.11,1-.15,1.43-.64.87-.41,1.36-.26.45-.3,1.09.34.68.08.83.34.64,0,.72-.15.56.08,1-.49.19-.87.49.38.71.15,1.13-.83-.23-1.09-.45.41-.68.75-1.13-.34-1.47-.9-1.24.56.87.56,1.36-.94-.11-.9.41-.64.34-1,.72.45.72.07.83-1,.64-1.05,1,.41.45.41.07.6-.49.79,0,.45,0,1,.11.45.9.15.87-.6.49-.53,1.05,1.13,0,1.58.15.3.94,0,.68-.87-.72-1.13-.26-.68.23-1,.07-1.54.64-1.13.94.38.79.64.75a1.19,1.19,0,0,0,.83-.53c.15-.3.68-.6.72.07s-.72.34-.87.72a2.49,2.49,0,0,1-.9,1,.41.41,0,0,0,.38.72c.38-.19-.11.45.41.53s.64-.3.53-.68.26-1.2.72-.79-.23.83-.23,1.2-.26.87-.26,1.28-.49.19-.45.64-1.05.15-.56.45-.3.71,0,1,.49-.41.9-.26.34.26.87,0,.83.41.34.56-1,.71-.79.79.87-.38,1,.11.53.34.56-.19.94-.07,1.09.38-.94.72-1.51.6-.87.53-.49,1,.83,0,1.24-.41,2.45-.3,2.6.15-.94.08-1.05.34-.94.49-1.05.19-.9.11-.94.6-.64.49,0,.68.49-.72,1.54-.64,1.62-1,1.92-.38-.87,1.09-1.28.71-.9.26-.87.83-1.2-.15-1.81-.23-.34.57.19,1.13.83-.07,1.47.34.64.87,1.09.45,0-.38-.3-.56,0-.83.68-.49a1,1,0,0,0,1.32-1.2c-.23-.9.64-1.32,1.51-1.62s.41.56-.23.83-.75.45-.26,1,1.13-.34,1.54.08-.75.34-.94.75.72.9.08,1.2-.34-1.24-.72-1.39-.72.19-.34,1.05-.45.11-.83-.3-.9.19-.45.64-.87,0-.87.68.56.11,1.24.26.38,1.13.87,1.51.07-1.2.6-1.32,0,1.2,1.2,1.58.08-.23.6-.6,1.2,1.13,1.77,1.28.19-.68-.23-1.13.41-.19,1,0,1,.26,1.13-.15c0-.15.15-.15.28-.11s.54.26.77,0c.38-.41,1.51-.19,2.11-.56s-.19-.49-1.13-.53-2.79-1.77-3.35-2.22-.15-.9-.83-.79-.23-.53.15-.72-.13-.82-.59-.92h0l-.12,0c-.49,0-1.58.11-1.39-.64a.34.34,0,0,1,.2-.25c.44-.19,1.39.43,1.61.21s-.94-1.24-.9-1.58-.19-.9-.19-1.28-.19-1.2.34-1.58.56-.75.9-.68,1-.3,1.05-1.21.45-1.24,1.2-1.88,2.18-1.35,2-1.66.3-1.28.3-1.66-1.28-.3-1.69-.45-1.92-1.2-1.17-2.6a3.37,3.37,0,0,1,2.79-1.58c.45,0,0-.68.41-.9s.45-.6.45-1.17,0-1.66.68-1.73.87-.45.45-.56-.6-.6.08-.68.45.56.94.56,1.32-.83.68-1.32-.83.23-1.17.3-.6-.45-.94-.45-.11-.94-.26-1.28-.38-1.17-.08-1.58,1.58.64,2.71.72,2-.56,2-1-.53-1.17.15-1.62.11-.6-.07-1.2.3-1,.6-.68,2.52.11,4.37-.26,3.12-1.05,3.24-1.58a14.7,14.7,0,0,1,1.54-2.22c.26-.45,0-1-.71-1.13s-.72-1-.3-1.47-.23-.94-.94-1-1.84-.56-1.2-1.17c.31-.29.46-.23.61-.1a.79.79,0,0,0,.67.33,4.28,4.28,0,0,1,2.18.57c.83.38.53-.11,1.32,0a3.67,3.67,0,0,0,2.56-.34,5.76,5.76,0,0,0,1.35-1.59,3.72,3.72,0,0,1,.79-.79c1.05-.75.79-1.2,1.28-2.11s.08-1.28.9-2.07-.15-1.32.9-1.81.9.45,0,1.54-1,1.39.11.57,1.54-2,2.18-3.31,1.13-1.73,1.69-1.81.56-1.47.49-2.45-.38-1.88,0-2.52,0-1.24.53-1.24,1.32-.79,2.15-1.62a2.91,2.91,0,0,1,2.22-1c.87-.07.38-.38.94-.53s.94-.68,1.32-1,1.92,0,2.82,0,1.51.08,1.51-.49a1,1,0,0,1,.94-1c.53,0,.75-.15.75-.9a1.73,1.73,0,0,1,.68-1.54c.45-.34.53-1.09.68-1.58s.64-.19.64-.9.26-1.51.26-2.07.6-.49.87-.9-.23-.94.19-2.11,0-2.26,0-3.31,0-2.15.38-2.48.19-.53-.11-.68,0-.56.3-.49.56.64,1.05.34.94-1.58,1.36-2.63,1.09-1,1.62-1.24a6.86,6.86,0,0,0,2.37-3.35c.72-1.84,0-3.65-.34-4.93s-.72-1-1.47-1-2.18-.15-4.07-2.18a4.61,4.61,0,0,0-5-1.54c-1.24.34-2.52-.6-3.35-.79s-1.62.87-2.22,1.09.3-.9.34-1.62-2.26-1.73-4-2.41-2.48-.34-2.48.75-.68-.34-1.2.83-1.51.41-.87,0a3.83,3.83,0,0,0,1.47-2c.23-.72-2.48-1.28-3.43-.9s-.34,1.73-1.09,1.32-.15-1.43.45-1.39,1.28-1.2,1.69-2.11-.71-1.05-1.39-1.81-.53-2.92-1.22-3.26l0,0c-.72-.3-1.81-2-2.9-2.26a9.15,9.15,0,0,1-1.43-.48,3.73,3.73,0,0,0-1.7-.39c-.9.11-1.84.53-2.18,0s-.83-.41-1.28,0a.22.22,0,0,1-.17,0c-.47,0-1.16-1.4-1.56-1.4a.86.86,0,0,1-.87-1c.11-.64-1.05-.72-1.69-1.43a1.55,1.55,0,0,0-.62-.39,6.77,6.77,0,0,0-2.46-.25c-.64,0,.41-.72.45-1.39s-1.81-.79-2.52-.94-.53-.9.23-.94-.41-.57-1.43-.41a11.68,11.68,0,0,0-3.27,1.17c-.83.45-2.26-1.32-3.2-.94s-2.26.38-2.22-.38a1.14,1.14,0,0,0-1.32-1.32c-.94.07-.72-.94-1.43-.94s0,.87-.49,1.09-2.18.64-2.3,1.32.9,1.81.56,2.48-1.47.11-1.81-.6,1-1.81.75-2.22a1.66,1.66,0,0,1-.22-1.18.51.51,0,0,1,.41-.33c.75-.15,1.13-.64.41-1.05s-1.13.79-1.92.9-.94.6-1.47.87-1.51,0-1.54.49-.34,0-.79-.11S158,177,158,177.6s.23,1.09-.6,1.62a7.61,7.61,0,0,0-1.69,2,.28.28,0,0,1-.37.09,4.44,4.44,0,0,1-1.06-1.33c-.6-.9-1.69-.83-2.37-1.13s-1.54.11-2.41.9a2.26,2.26,0,0,1-2.71-.08,4.37,4.37,0,0,1-.87-.78,21.5,21.5,0,0,1-1.68-2.09c-.11-.16-.19-.29-.23-.36-.26-.49.19-1.47.41-2.18s-.19-2.45.23-2.9.19-.72.38-1.77a.86.86,0,0,0,0-.17c0-.83-1.11-.56-1.89-1.34s-2.63-.45-3.61-.07-2.11-.41-3.16.19l0,0c-.59.32-.77,0-.68-.4a1.55,1.55,0,0,1,.53-.86c.68-.53-.34-2.63.45-2.82a.86.86,0,0,0,.37-.22h0a4.05,4.05,0,0,0,.75-2.3c.11-1-.23-1.36.3-1.92s1.09-.6.94-1.39-.87,0-1.47-.38-1.13-.11-2.67.11-2.26.87-2.18,2-.53.6-.49,1.54-1.2,1-1.13,1.54-1,0-1.28-.19-3.54.79-4,.87-1.28-.94-1.92-.9-.9-.94-1-1.73-1.28-1.51-1.81-2.22a7.14,7.14,0,0,1-.64-3.31,11.81,11.81,0,0,1,.56-4.74,2.52,2.52,0,0,0,.15-.71m33.31-35.65c1.14.14,1.94-.66,2.35-.17l.06.09c.54,1-1.43,1.58-3.31,1.66a12.42,12.42,0,0,0-1.35.13c-.75.11-1,.17-1.21-.35C150.7,115,153.26,114.29,154.46,114.44Zm-2.63,2.63a.21.21,0,0,1,0,.17c-.29.58-2.6,1.71-3.89,2.39s-3.39.38-3.39-.75,1.05-.9,1.28-.38c.08.2.34.05.68-.19.57-.42,1.4-1.13,2.1-1.09,1.13.07,1.43.75,2.18.23S151.68,116.7,151.83,117.08Zm-5.42-6.85c1.05.38,2.63-.45,3.16.83s1.75,2.24.6,2.33c-1,.08-2.26-1.28-2.18-.53s-.53.38-.53,1.51-.75,2.71-1.2,2.63l0,0c-.43-.19.24-1.87-.63-2.16s-2,1.28-1.81.3,1.51-1.81.68-3.09-2.33-1.28-2.63-.3-1.35.53-1.73,1.28a6.18,6.18,0,0,0-.45,3.61c.3,1.2-.08,1.81-1.2,2.48s-1.72-1-1.28-3.24c.3-1.51,1.13-2.94.38-2.94s1-1.81,2.56-2.18,3.54-.23,3.54-.68c0-.09.07-.15.19-.19A5.58,5.58,0,0,1,146.41,110.23Zm-9.94-6.17c1,0,3.46.23,3.61,1.5s1.66.08,1.81,1.28c.13,1,1.12,1.83,1,2.37a.49.49,0,0,1-.2.26c-.62.43-.45-.68-1.58-.68s-2.26,1.05-3.16.6-.45-1.05-1.28-1.05.6-1.58-.6-.9-3,2.33-3.84,1.58-1.58.23-2.18-.38,2.11-2.26,3.39-2.18a1.29,1.29,0,0,0,.87-.34C135.08,105.46,135.73,104.05,136.47,104.05ZM120.21,93.14c.6.75,1.51,3.84,2,4.82s.53,2.56-.15,2.63.08-2.18-1.43-3a4.87,4.87,0,0,1-2.56-3.76A1.24,1.24,0,0,1,120.21,93.14ZM89.5,74.4c.12-.51.6-1.32,1.35-1.32s.69-1-.54-1.59,1.77-1,2.45,0,1.92,1.65,2.6,1,4.61-2.6,4.61-1.71-2.9,1.5-4.07,2.51-1.08.75-2.09.93-.21,1.2-1.44,1.29-4.19.21-4.61-.48C87.62,74.73,89.38,74.9,89.5,74.4ZM77.19,63.92c.57-.06.18-.69,1-1s-.15-.75.09-1.08,1.83.33,1.86-.27-1.59-1.11-2.13-.75a3.33,3.33,0,0,1-3.29.54c-.47-.21,3.77-.66,4.49-1.32s3.95-1.41,4.19-.81-1.74,1-.78,1.53a2.57,2.57,0,0,0,2.87-.39c.36-.57,1.92-.48.93.75S85.07,62.54,84,62.36s-1.65.33-1.14.69.54.66-.51.9-1.74,1-2.15,1,1.8-1.68,1.23-2.09-2,.72-2,1.23-1,.54-1.53.51S76.63,64,77.19,63.92Z"/><path class="cls-1" d="M160.19,160.29c.3-.38-2-1.88-3.16-1.88s-4.82-2.56-8.21-3.31-6.34,1.68-6,2.11c.45.6,2.11-.75,2.94-1.35s1.58.3,1.66.68,1.13.6,2.86.68,2,1.51,3.61,1.88,0,1.05.83,1.36S159.88,160.66,160.19,160.29Z"/><path class="cls-1" d="M153.18,163.6c.3.53,3.16,1.28,3.46.6S152.81,162.95,153.18,163.6Z"/><path class="cls-1" d="M172.53,163.75c.68,1.05,2.62.42,2.79,0C175.62,163,171.85,162.7,172.53,163.75Z"/><path class="cls-1" d="M185.55,293.76c.6.3,3.08-.73,2.79-1.28C187.74,291.35,185,293.46,185.55,293.76Z"/><path class="cls-1" d="M185.25,291.65c-.83-.15-2.81,1.53-2,2S186.08,291.8,185.25,291.65Z"/><path class="cls-1" d="M131.05,195.14c-.75,1.13.74,2.23,1.05,1.73S131.81,194,131.05,195.14Z"/><path class="cls-1" d="M249.77,49.43a5,5,0,0,1-3,.15c-1-.25-2.61-1.1-3.76-.45s-.45-1,.5-1.1.55-.6.3-1.61,1.61-.35,2.41.8a3.41,3.41,0,0,0,3.71,1.25c1.36-.4.05-1.51.6-2.26s-4.17-3.11-4.42-3.91,1.2-.25,2.51.3,1.61-1.05,1.61-1.76-2.81-.75-4.07-.05-2.46-.9-.75-1.1.15-.9.65-1.4,2.66,1.45,3.76,1.1,1.91.05,2.86-.7-1.71-1.45-2.26-2.11,2.76-.4,3.76-.35,1.25-1.45.45-1.15-3.66-1-3.06-1.91,1.71.15,3-.5.1-3.11-.8-3.11-3-.3-3-.75-1.76-.85-1.26-1.31,1.15.55,2.31-.3,3.56.2,4.62,0-.45-2.16-1.05-1.81-2.66.45-2.81-.6,2,0,2.31-.5-2.91-1.81-3.41-.75-2.31.7-1.35.1,1.16-2.31,1.05-3.16,3.41-.9,3-2.31,1.66-1.71,2.81-1.71-.05-1.51-1.16-1.36-2.26,1.4-2.81.9,1.3-1.41,2.31-1.41,3.41-.1,4.27-.6-1.51-1-3.11-.75-1.61-.5.8-.55,2-.55,3.71-.75,1.15-.9,2.21-1S267,9.78,267,9.23s-4-1.66-5.82-1.66-3.36.3-3.46,1.61-2.46-.25-3.46.2-.5-1.05-1.51-.55-2.11,1.71-3.31,2.21-2.11,1.76-2.86,1.86,1.61-2.31,2.81-3.51.55-2.61-1.05-2.46-1.25,1.15-2.16,1.36-5.22,2.36-5.42,1.71,3.56-1.76,3.51-2.21-4.77-.5-6.88-.2-5.82,1.51-5.87.9S235.82,7,238,6.77s6.27.15,8-.55,4.27-.75,4.72-1.31-2-1.3-3.16-1.25-2.41-.1-2.31-.7-1.86-.75-2.06-1.2-4-.1-4.77-.6-3.16-.75-5.17-.6-6.12.1-7.08.2a15.05,15.05,0,0,1-2.41.4c-.85,0-2.16.25-1.66.8.91,1-1.36,1.41-1.2.65S219,1.5,218.3,2s-4.12-.65-4.62,0-4.47.45-5.62.65,1.81,1.05,1.71,1.56-3.76,0-3,.9,3.16,1.56,4.32,2.71-.9.45-2.21-.4-3-.55-3.76-1.41-3.81-1.5-4.57-1,2.06,1.71,2.06,2.36-2-.15-2.36.1-2.11-1.71-3.11-1.71S197,6.72,197,8s-2,2-1.41,1.15.15-3.06-.9-3.46-3.76.85-5.17.8-3.26.4-2.06,1.1-.05,1.1-1.1.35-4.52,0-3.81.5A2.18,2.18,0,0,1,183,11c-.45.6-1.91-.6-3.26-.5s-8.08,3.31-7.68,4.17,3.26.15,4.17.65-.3,2.36-1.41,3.11-5.22,0-5.32,1S163,20.42,163,21.87a1.22,1.22,0,0,0,1,1.25c.9.19,2-.1,2.81.8s3.06,1,4.62.35,2.71.1,2.66,1-3.51-.35-4.57.3-4.32.1-4.17.8,1.76.55,3.06.8.1.8.05,1.36.7.45,2,1.1,3.46,1.05,2.76.3,1.36-.65,1.71-.2,1.3-.65,2.26-.4,1.3-.9,2.06-.4,4.27.8,5.47,1.45,2.86.8,2.71,1.76,1,1.66,2.36,2.26a2.71,2.71,0,0,1,1.56,2.76c-.05.85,1.46,1.45,1.2,1.86s-.05,1,.85,1.76-1.41,1.41-.85,2.11-.8,2.06.8,2.31,1.35-1.11,2.56-1.11,0,1.05.6,1.71,2,.5,3.26,1.55.45,1.56-.7.7-4.52-.65-4.52-.35,3.71,2.41,4.57,2.11,2,1.26,1.51,1.76-.25,1.76-.35,2.36-1.35,0-2.16.1-1.35.35-1.35,1.2-1.26,1.46-1.41,2.51,1,1,1.66,1.46-1.2.75-1.3,1.51,1.71,2.11,2.36,2.46.05,2.06.3,2.91,1.1-.2,1,.9.8,1.05.85,1.71,1.61.55,1.3,1.45.45,1.56.8,2.06,1.66,1.36,1.91,2,1,1.5,1.91,1.25,1,.6,1.66.5,1.81.3,2,.85,2.36,1.05,3,1.15.7-1,1.26-1.3.35-2.51.85-2.66.35-2.46-.15-2.66-.3-1,.85-.85.75-1,1.3-1.15.3-1.2.7-1.3.35-.8.05-1.2.05-.7.65-.8.45-1-.35-1.25-.55-1.2.25-.65,1.41.15,1-.45.55-.9,1.61-1,1.61-.65,1.41-1.46,1.2-.75.85,0-.15,1.4.35.9,1.46-.15,3.16-.65a5.77,5.77,0,0,0,3.76-3.26c.4-1.36,2.36-1.2,2.11-2.11s.35-1.25,1.61-.65.25-.4,1.66-.4,1.16-.5,2.51-.55,4.87-.65,6.07-1.66,3.76-1.86,4.82-2.51S250.42,49.07,249.77,49.43Z"/><path class="cls-1" d="M198.63,51.28c0-.8-.85-.3-1.36-1.25s-3.06-1.35-3.31-.6c-.1.3-.9.75-.25,1.45s1.1.4,1.86,1.1S198.58,52.08,198.63,51.28Z"/><path class="cls-1" d="M222.51,298.4c.15.66.81.37,1.47,1s1.25,1.69,1.91.66S222.43,298,222.51,298.4Z"/><path class="cls-1" d="M128,24c-.15-.45-5.86.24-5,.9C124.58,26,128.19,24.41,128,24Z"/><path class="cls-1" d="M133.69,24.56c-1.35-.68-3.05.76-1.66,1.28C133.24,26.29,135,25.24,133.69,24.56Z"/><path class="cls-1" d="M149,38c-.45,1,1,1,1.05,2.11s1.51,1.5,2.56.83,4.06.2,4.06-.68-3.16-2.33-4.29-2.11S149.5,37.05,149,38Z"/><path class="cls-1" d="M108.47,19.74c.9-.6,2.56.38,2.26,1.05s-2.91-.14-2.71.45c.08.23.38,1.13,2.18.6a4.71,4.71,0,0,1,4.52.83c1.2,1,2.33,1.36,3.16.38s-1.05-1.13-.68-1.88-1.2-1.2-2-1.2-1.13-1.5-1.81-1.2-1.13.83-1.13-.15-3.91-1.05-4.89-.68S107.57,20.34,108.47,19.74Z"/><path class="cls-1" d="M126.39,32.09c-1.51-1.13-4.89,1.19-4.29,1.66a12.5,12.5,0,0,0,5.12,1.2C128.57,34.87,127.89,33.21,126.39,32.09Z"/><path class="cls-1" d="M118.78,16.2c.53-.9-3.17-1.61-2.26-.83C117.05,15.83,118.25,17.1,118.78,16.2Z"/><path class="cls-1" d="M109,26.06c.6-.75-2.41-3.16-2.56-2S108.36,26.86,109,26.06Z"/><path class="cls-1" d="M118.78,28c-.07.75-1.81-.15-3.16-.68s-.53,1.05.53,2-.53.45-2-.53-1.28.68-.6,1.2-.15,1.28-1.05.08-1.35-2.48-2.79-2.56-.78,1.39-.23,2.11a7.26,7.26,0,0,0,2.71,1.88c1.2.68,3.16-.3,4.06-.08s-1,1.35-.38,2.11,2.26.23,3.54.15.68-.83,1.43-1.35-.75-.45-.15-1.73S118.86,27.27,118.78,28Z"/><path class="cls-1" d="M122.85,16.13c1.11.56.45,1.28,1.66,1.81s4.67-.68,5,.15-3.54.9-3,1.43,2.71,1.36,2.41,1.81,3.61,1.73,4,1.13,1.43-.45,2.41-.08S136.32,20,137,20.49s.6-1,1.73-1.43,2.76-.46,2.86-1-.3-.9-1.66-.75-2.26-.38-1.66-1.13-1.51-1-.75-1.58-1.43-1.2-1.2-.3-1.35.07-1.58-.75-3.31-1.13-5.34-2.94-4.14-.6-2.94-.38,1.13.83.15.75-2.71.07-1.13.68-.15.83-1.43.83-1.36,1.66.3,1.88.45,1.2-.9.83S121.64,15.52,122.85,16.13Z"/><path class="cls-1" d="M121.94,23.58a7.92,7.92,0,0,0,3-.53c1-.38-.53-.38.15-1.28s-1.66-1-1.81-.68-3.09-1.81-3.54-1.13S120.81,23.58,121.94,23.58Z"/><path class="cls-1" d="M117.58,45.48c1.66,1.13,1.13-.9,3-.83s2-3,2.26-4.14-1.51-1.05-1.05-.23-.08,1.66-.23.68-1.58-.08-2.11-.83,1.66-.83,2.18-1.81-1.73-.83-1.2-1.58-3.31.08-2.18.53.08,1.05-1,.3-4,.51-2.94,1.36c.83.68,3.31-.45,1.88,1.51s-2-.53-3.39-.3-.75,1.88,1.28,2.48S115.92,44.36,117.58,45.48Z"/><path class="cls-1" d="M149.72,67.84c.15-.75-2.48-1.05-2.33-1.88s-2.48-1.51-3.31-2S142,63.33,142,62.42s-1.81-.23-1.88,1.13-.83,1.05-.45,2.33-1.66,1.58-1.43,2.26,1.2-.08,2.11-.08-.24,1.26.9,1.35a4.35,4.35,0,0,0,2.86-1.58c.38-.6,1.13-.83,2.18-.08S149.57,68.6,149.72,67.84Z"/><path class="cls-1" d="M150.93,73.64c.53-.08,1.58-2,.23-1.88S150.11,73.76,150.93,73.64Z"/><path class="cls-1" d="M158.45,57.61c.9-.15.74-1.54.23-2.26-.38-.53-1.35-.6-2.18-.53s-2.26,1.35-1.51,2.63S157.55,57.76,158.45,57.61Z"/><path class="cls-1" d="M95.9,22.07c.75.3,1.51-.68,2-.23s2.86.83,2.86-.38-2.94-1.36-3.69-.9-4.22.6-3.24,1.36C94.46,22.39,95.14,21.77,95.9,22.07Z"/><path class="cls-1" d="M163.8,46.84c.75-.07,1.66-.68,1.43-1.36s-2.18-.75-2.56.08-2-.9-2-1.58-2.41-.08-2.11-1.2-2.79-1.43-3.61-1.43-2,.68-1.88,1.43-.9.45-1.05-.38-2.18.9-2.79.9.38-2.18.08-2.86a18.23,18.23,0,0,1-1.2-2c-.45-1.13-2.71-.68-3.31,0s-2.56.38-3.61,1.43.08,2.11.53,2.48-1.58,1-.9,1.58,1.73.3,1.81,1.28-2.48-.3-2.86-1.13.15-1.58-.38-2.18-.07-1.36.9-2.41S142,38.56,142,38s-4.22-.6-6.7,1.66a5.83,5.83,0,0,0-1.58,5.87c.15.6,2.33.3,3.61.68s.6.9-.38.75-2.63-.45-2.56.23,2.11,2,3.31,1.66,1.2-.3,1.73.38,2,.45,3.39.53a35.85,35.85,0,0,1,3.76.68,2.09,2.09,0,0,0,1.73-.75c.23-.38,3,.6,3.84.53s.3-.83-.23-1.05-.3-1.2.38-.83,1.81.6,2,1.28.83.3.9.83,2.48,1.13,2.56,1.73-2.33.9-1.66,1.43,1.73-.68,2.63-.75.9,2,1.58,1.66c.92-.41,1.66.38,2.56,1.66s-.07,2.48,0,2.94,1.81.3,2.79-.23,1.88.6,2.63,1.28-2.79,1.81-2.48,1.21-2.11-2.41-4.29-1.58-.68,2.11-.45,2.86-2,1.51-4,.83-1.43.45-2.26.45-1.73,1.28-1,2.11,2.41.08,3.76.15,1.51.45,1.66-.3,1.58-.38,2.56-.15.75,1.58,2,1.73.23,1.36,1,2.18,3.16.38,4.06,1.28,4.73,2.7,5.27,2-3.31-4.22-4.44-4.52,1.13-.68,2.56.45,3.54,1.66,4.59.3-.9-1-.9-2-.68-2.33-1.73-2.33-3.76-2.11-2.79-2.56-.3-1.05.45-1.88,1.51.75,2.41.83,1.05,1.21,2.48,2.41,1.58.38,1.81-.45,1.81-.15,1.73-1,1.28-1.81,2.18-2.18-.75-1.28-2-1.2a1.19,1.19,0,0,1-1.43-1.28c0-.53-2.26-1.81-3-1.58s-2-1-3-1.05-2.41-.83-2.26-1.88,2,.3,2.33-.53-1.88-.38-2-1,.53-.38,1-.75-.38-1.13-.9-1.43-.68.6-1.2.6-.07-.83.3-1.36-1.73-1.13-2.63-.83-1.2-.23-1.2-.83-1.58,0-2.18.45S163,46.92,163.8,46.84Z"/><path class="cls-1" d="M132,8.67c1.05-.68,1.88-.23,1,.23s-.6.75.68.68-.53.38-.53,1.13,1.51.3,1.58,1.05,3.31,1.05,4.29.15.6.23.53.83,4.59,1.13,4.82.38.9-.45,1.81-.23,5.34-.83,5.42-1.73,1.43.45,0,1.43-4.29.83-5.57,1.2.83,1.28,2.11,2.26-1.66.45-2.86-.83-3.91-1.28-5.35-1.2-1,2.71.07,2.71,2.11.38,3.16,2,3.31,1.28,3.31,2-2.94-.6-4.59-.9-4.29.75-4.37,2,2.41,1.05,4.06.08.45.3-.38,1.05,2,1.36,2,2.26-2,.6-2.26-.23-1-1.66-2.94-1.51-1.43,1.51-.23,1.66,1.28,1.05-.08,1.05-4.41.85-3.46,1.73,4.89,0,5.57.6,2.56.83,3,.15,2-.38,3.46-.38a3,3,0,0,1,2.56.83,2.29,2.29,0,0,0,2.71-.23,2.15,2.15,0,0,1,1.88-.6c1.05,0,1.28-.68.75-1.51s-1.88.6-2,0-1.43-1-3.54-.68-1.2-1.36.08-1A8.94,8.94,0,0,0,153,25c1.43-.38.3-1.05.3-1.66s1.81-.23,3.16-.23,3.31-2.18,3.39-3.46-3-1-4.52-1,1-1.13,3.84-1,1.58-1.13,2.11-1.58,1.88.53,3.31.23.45-1.51,1.43-1.51c.69,0,2.26-1.05,5.35-2.79s5.5-1.43,5.65-2.41-4.29,0-5-.3,3.09-1.13,4-.9,2.11,0,5.19-1.51,1.73-1.88.45-1.66-2.71-.23-2.63-1.05-1.88-.08-2-.53-1.88-.23-3.84.53-.15-.75.68-1.05-5,0-5.95-.68-2.11,1.13-3,.23-3.24-.15-2.94.53-.38.68-1.28-.08-2.63.08-4.22-.15-.9,1.28-2.64.53-3.61-.38-3.09-.15-.15.68-.9.45-1.43.08-1.05.83-2.79-.23-2.79.6-1.13,1.28-2,.53-3.76-1-2.94-.3-2.56.3-1.66,1-1.13,1.2-1.13.83-1.88-1.05-2.63-.38-1,1.51-1.35,1.05-2-.3-3.61.3S130.9,9.35,132,8.67Z"/><path class="cls-1" d="M112.53,50.3c.45-.53,2.33,1.05,2.41-.08s-2.11-1.66-3-2.26-1.28-.3-2.71-1.36.38-1.58-.68-2.41-1.43-3.09-.68-3.84,1.58-1.88.23-2.41-3.54.45-3.31.75,2.11,1.36,2.11,1.81-1.73-1.28-2.33-.9-1.28-.75-1.81,0,.68,3.39,1.13,4.14-.45.75-1.05.9-.68-2.11-1.28-2.94-3-1.81-3.16-1.2,1.51.6,1.28,1.43-1.13-.53-2,.15-.68.23-.53-.45-1.2-1.43-2.71-1.28-.68,1.2-1.13,1.58-2.71-.23-1.28-.53.83-1.13.3-2-2,.15-4.29,1S84.68,42.17,85,42.25s.38.45-.53,1.2,0,1.43.83,1.43.1.66.68.83,3.24-1.05,4-.53-4.44.83-4.44,1.73,2.86,1.43,5,1.05,5.8.3,5.8.83-2.48.38-4.37.3-5.12.53-5,1.13.38.68,2.33,1.58,4-.45,3.91.83,1.05,1.58,3.69,1.66,3.84-1.2,5.12-1.13a2.3,2.3,0,0,0,2.48-1.05c.6-.9,1.13-.38,1.28.07s1.81.38,2.18.75c1,1,4.14.68,5.34.08s-.53-2.26-1.13-1.51-1.13.3-1.28-.08S112.08,50.83,112.53,50.3Z"/><path class="cls-1" d="M144.3,72c1.2.75,3-1.28,2.86-1.88S142.85,71.07,144.3,72Z"/><path class="cls-1" d="M110.28,33.29c.53-.6-1.13-1.88-1.58-.83S109.74,33.9,110.28,33.29Z"/><path class="cls-1" d="M129.85,33.44c.53,1.51,1.13.45,2,1.05s2.11,1,2.79.38,1-1.05,1.2-.53c.37.86,2,1,5.65,1.05s2.71-1.51,3.76-.9a8.45,8.45,0,0,0,4.52.38c1.05-.23,1.58-1.88,1.51-2.71s-8.13-1.51-9.56-.68-3.69-.38-4.82.23-.75-.75-2.79-.83.15-1.13.53-1.58-3.09-1.66-4.52-1.36-2.26-.45-3.61-1.05-5-.46-4.29.6c.53.75,4.89,2.33,5.34,1.58s1.58.9,2.26,1.73S129.32,31.93,129.85,33.44Z"/><path class="cls-1" d="M192.1,98.91c.7-.4-.05-.85-.8-.55s-2.76,3.06-2.76,3.81-.05,1.66-.75,1.61-1.51.6-1,1-1.46,1.54-.5,2.06c.65.35,1.71-.15,2.61-.05a3.1,3.1,0,0,0,2.41-.4c.75-.55.75.5,1.56.4s-.45.65-.4,1.2.85-.3,1.46-.6,1.35,0,1.05.5,1.66,1,2.11.2-.45-2.06-.75-1.51-.75-.4-.1-.9-.1-.7-.7-.4-.45-1.36.1-1.66-1.35-.9-1.35-.35-1.36.2-1.51-.3-1.1-.65-.75-1-1.15-.55-1.31.05-.6-.4.15-1.2S191.4,99.31,192.1,98.91Z"/><path class="cls-1" d="M74.89,44.13c1.36.3,1.5,2.71,2.41,2.71.6,0,.15-.75,1.13-.75s.75-.53,1.66-.45,1.66-.23,1.66-1.28.68-1.43,1.58-1.66.07-1.35,1.35-1.66a28.7,28.7,0,0,0,5.42-2.26c.6-.45-.75-1.05-2.11-1.88s-2.41-1.05-3.46-.38-.23-.75-1.05-.38-3.09-.6-3.39-1-4.37.83-5.34.83.07,1.05.75,1.58-1.66,2.18-1.2,2.56-.45,1.35-1.51,2.56S73.54,43.83,74.89,44.13Z"/><path class="cls-1" d="M60.3,92.75c-1.36.72,1.9,4.16,2.58,3.73.46-.3-.8-1.74-.8-2.62S61.66,92,60.3,92.75Z"/><path class="cls-1" d="M99.59,23.5c1-.15.53-.9-1.05-.68s-4.29.22-4.29,1.36c0,.9.53,1.35,2.26,1.5s3.24-1.5,2.41-1.5S98.61,23.65,99.59,23.5Z"/><path class="cls-1" d="M177.27,102.1c.15.6,4.52,2.41,4.67,1.58S177.14,101.58,177.27,102.1Z"/><path class="cls-1" d="M83.93,31.78c1.36.15,2.71-1.05,2.64-1.73S83.25,31.71,83.93,31.78Z"/><path class="cls-1" d="M89.42,29.3c-1.05.08-1,1.13.23,1.13s1.58.38-.15.3S87,32.16,88.22,31.86s2.63-.3,1.73,0-3.36.51-3,1c.23.3,1.2.23,2.18.6s1.58.6,2.33-.23,1.73-1.66,1.35-.53,1.2.3,3.24.23-.38,1.2-2.48,1.36-1.73,1.2-.07,1.58,5.19-1.05,6-1.88,1.58.45,2.41-.15,2.41.08,3.84-.23,1.66-3,.6-3.46-1.05.53-1.88.68-1.28-.9-2-1.58-.23-2-1.2-1.81-3.09,1.73-1.81,1.88.83.83.15,1.13,1.58.83,1.28,1.28S97.18,31.78,97,31s-2.86-2.11-4-1.81-.68-.9-1.81-1S90.48,29.22,89.42,29.3Z"/><path class="cls-1" d="M78.28,30.66c.6-.3.75-.38,1.2-.23.81.27,1-.45,1.35-.83S81.07,31,82,31c.83,0,.68-1.81,1.43-1.28s1-.23,1.13-.75.15-1.43,1-1.58.15.83.53,1.51c.55,1,1.51.08,1.58-.38s1.43-.15,1.36-.68.38-.68,0-1.28.6-.45,1.05-.9-.6-.08-1.35-.75-1.05.23-1.05.68-1.43.08-2.26-.23-1.88,1-3.09,1.58-1.28,1.66-2.41,1.58-2.78,1-2.26,1.2S77.68,31,78.28,30.66Z"/><path class="cls-1" d="M93.34,23.88c.38-.9-2.49-.75-2.26-.45C91.61,24.11,93,24.78,93.34,23.88Z"/><path class="cls-1" d="M608.8,68.9c-.35.25-2.57.13-2.11.65s2.31.2,3.16.7,2.06.1,2.06-.3S609.15,68.65,608.8,68.9Z"/><path class="cls-1" d="M21.42,160.55c-.94.11-.42,2.46.08,2.08s1-.33,1.22-.69S22.36,160.44,21.42,160.55Z"/><path class="cls-1" d="M27.05,81.88c0-.41-.56-.38-1.32.49s-1.39,1.32-1.51,1.73-1-.08-1.24.45.19,1.7.72,1.32.56,0,.9,0a5.8,5.8,0,0,0,2.22-1.58c.34-.53-.6-.68-.64-1s.79-.34,1.2-.56S27,82.3,27.05,81.88Z"/><path class="cls-1" d="M17,158.33c.36.55.75.67,1.05.17S16.54,157.69,17,158.33Z"/><path class="cls-1" d="M1.57,94.12c.9-.38,1.28-.83.9-1.28S.88,94.41,1.57,94.12Z"/><path class="cls-1" d="M20.17,159.11c-.55.08-.2,1.09.17.83C20.95,159.5,20.73,159,20.17,159.11Z"/><path class="cls-1" d="M3.08,77.44c-.08-.6-1.69,0-1.51.53s1.72.93,2.37.71a.68.68,0,0,0,.34-1.17C3.87,77.14,3.15,78,3.08,77.44Z"/><path class="cls-1" d="M14.31,157.2c.5.53.86.39,1-.08S13.77,156.64,14.31,157.2Z"/><path class="cls-1" d="M8,90.73c-.83-.3-3,1-2.26,1.13.53.07.75-.45,1.35-.45S8.8,91,8,90.73Z"/><path class="cls-1" d="M293.25,123.4c-.13-.85-1.85.26-1.48.5C292.53,124.4,293.38,124.25,293.25,123.4Z"/><path class="cls-1" d="M331.47,131.93c0-.25-.65.15-1.05-.08s-2.21.15-2.68-.3-1.45.36-1,.43a12.9,12.9,0,0,0,2.48.65C330.17,132.66,331.49,132.18,331.47,131.93Z"/><path class="cls-1" d="M344.19,132.56c0-.28.33-.85.9-1.08s.35-.65,0-.33a4.32,4.32,0,0,1-2.41.73c-1.13.05-1.48.79-.78,1.2C342.79,133.61,344.24,132.83,344.19,132.56Z"/><path class="cls-1" d="M261.61,66.49c1,0,1-1.13,1.35-1.08s1.05-.75,1.31-1.25a1.11,1.11,0,0,0-.88-1.4c-.6,0-1.05-.48-.93-.83s-.33-.8-.3-1.05-.75,0-1.16.08-1.25-1-1.63-.78-.1.73-.2,1-1-.28-1,.08-.38.4-.68,0-1-.15-1,.15-.3.05-.88-.3-1.18.4-1.13.78-.2.48-.68-.35-1,.07-.78.53.15,1-.23.78-.88.15-1.1.5-1-1-.45-1.36-1.83-1.71-2.58-1.71-.25.55.25,1-.35.3-.63-.05-.8-.08-1.1.43-.8.78-.85,1.13.85.73,1.63.4a2.11,2.11,0,0,1,2.06,0c.4.38-.73.53-.33.83s.08.55-.88.48-2.11.2-1.93.53,2.43-.28,2.46,0,0,.88.6.63.2.45.5.58.23.73-.58.78-1.19.21-.85.55,1.31.13,2.16-.07,2.08.83,3.09,1.23,2.73-.15,2.94-.68,1.56-.33,2.11-.7A4.42,4.42,0,0,1,261.61,66.49Z"/><path class="cls-1" d="M271.57,98.21a5.17,5.17,0,0,0,2.94-1.2c.85-.8,1.3,0,2.08-.43s.3-3.34,0-3.94a.34.34,0,0,1,0-.26c.1-.34.9-.4,1.31-.82s-.25-1.23-1-1.91-1.45.35-2.12.34a.56.56,0,0,1-.21,0c-.7-.27-1.68-.28-1.71.35s.78.4.8.8-.8.3-1.38.7-1.2-.28-1.81,0,.65.65.2,1.28,0,.6.78,1.2-.45.75-.45,1.43-.93.65-1.13,1.1S270.7,98.21,271.57,98.21Z"/><path class="cls-1" d="M285.27,77.83c.43-.43.93-2.06.28-1.88S285.09,78,285.27,77.83Z"/><path class="cls-1" d="M276.69,81.77c-.33-.33-1.63,1.52-1.13,1.51C276.24,83.25,277,82.1,276.69,81.77Z"/><path class="cls-1" d="M276.27,84c-.5.4.58.93,1.23,1s-.5.55-.63,1.25.85.4.9.9-1.41.58-1.41,1.05.83-.22,1.2-.43-.2,1.18.7,1,.65-1.38,1-1.33-.15.65.13,1.18-.65,1.33-.6,1.71,1.86.38,2.43-.23.85,0,.45.5a.6.6,0,0,0,.28,1.05c.5.17.68.23.45.63s0,1.15-.15,1.53-1.68.33-1.73.08-.7-.08-.53.28-.55.73-.5,1.05,1,.25,1,.65-.68.88-1.63,1.15.2,1,.65.7.35.23,1,.23,1.05.53,1.78.25.7,0,.15.43-1.38,0-1.88.25-2.54,2.19-2.16,2.66c.23.28.53-.4,1.25-.7s.85.2,1.26.25.43-.83.75-.75.63-.28,1.23-.17a1.58,1.58,0,0,0,1.33-.38c.3-.25,1.1.5,1.36.33a5,5,0,0,1,1.91-.35,5.29,5.29,0,0,0,2.36-1c.38-.35-.23-.43-.73-.35s-.4-.5.12-1,1.36-.88,1.41-1.63S289,94.59,288.86,95s-.55.35-.83-.1.25-.88,0-.93a1,1,0,0,1-.55-.93c.08-.25-.43-1.86-1.28-2.06s-1-1.41-1.13-2.06-.7-.3-1.13-.85-1.15-.28-1.53-.25,0-.7.6-1.1a6.32,6.32,0,0,0,1.31-3c0-.43-2.63-.4-3.14-.15s-1-.38-.58-.55,1.33-1.05,1.28-1.4.63-.68.25-1-.43.43-.75.68a2.73,2.73,0,0,1-1.83,0c-.78-.15-1.08,1-1.05,1.43s-.9.75-.75,1.15-.18.7-.43.48S276.77,83.63,276.27,84Z"/><path class="cls-1" d="M307,90.23c-.45-.1-.18.65.45.75s1.31-1.1,1.23-1.41.64-1.68.4-1.83-.35.35-.58.4-.48-1-.58-.4-.6-.23-1.1.48.3,1.33.65,1.56S307.48,90.33,307,90.23Z"/><path class="cls-1" d="M319.2,83.12c-1,0-1.4,1.9-1.15,2.21S320.15,83.1,319.2,83.12Z"/><path class="cls-1" d="M325.95,80.41c.2-.38-1.45-.21-1.08.13A.74.74,0,0,0,325.95,80.41Z"/><path class="cls-1" d="M324.52,82.62a4.89,4.89,0,0,0,1.76-1.16c.28-.28-.18-.58-1.08-.33S324.16,82.64,324.52,82.62Z"/><path class="cls-1" d="M318.57,15.11c.34.26-.56.27-.19.64,1.13,1.13,5.57-.15,6.17.19s-3.73.75-3.54,1.2,3.73.83,4,.53.87.6,2,.68,1.05-.45,1.92-.49,2.15-.45,2.18-.94,2.56-1.09,2.33-1.92-2.67-.26-3.35-.6-2.26-.79-2.52-.26-.71.68-.94.45.11-1.43-1-1.09-.07,1.51-.3,1.66-1.28-.23-1.36-.75-1.24.56-1.39-.07-1.54-1.09-1.85-1.05.3.45.11.75-.94-.3-1.24-.34.19.64,0,.94-.75-.9-1.28-.9-.34.6-.72.64S318.23,14.85,318.57,15.11Z"/><path class="cls-1" d="M308.15,18.16c.71.15-.75.94-1,1.66s1.13,1.36,1.69,1.88a2.51,2.51,0,0,0,2.41.15c.49-.3.34-1.36,1-1.32s.3-.56.83-.75.6.49.15,1,.79.49,1.47-.15.83,0,.68.56-1.54.26-2,.94-2,.15-2.67.9.6.79,1.54.6a11.73,11.73,0,0,1,3.39-.15c.68.15-.41.38-1.54.38s-1.5.34-1.47.64-1.58-.34-1.66.34,1.51.94,1.69,1.35,1.24,0,1.66.19-.68.45-.83.64,1.17.45,1.39.83,1.17.19,1.13-.34a4.09,4.09,0,0,1,2-3c1.13-.41.49-.79.64-1.43s1.05-.11.79-.64-.11-.75.6-1.43,1.17-.19,2-.6,1.28.3.34.38-.41,1,.26,1.28.07.49.6.6.38.9-.3,1.62.19.87,1.62.34.53.45.94.87,1.54-.3,2.15-1,1.5-.6,1.47-1-.68-.53-1.2-.3-1.84.08-1.39-.34.38-.75-.3-.68-1.88-.26-1.32-.49-.41-1-.94-.94-.38-.56-.34-1-1.51-.6-1.2-.75-.64-.49-.87-.19a.36.36,0,0,1-.68-.23c0-.45-1.13-.34-1.58-.3s-.23-1-.68-1.32-1.05.68-1.39.6.26-.75.45-1.2-1.58-1.05-1.77-.6-.53-.68-.9-.79-.08.75-.41.83-.79.41-.23.79a4.61,4.61,0,0,1,1.05,2.56c-.07.3-1.81-1.35-1.88-2.15s-.94-1.43-1.17-.87-.87.79-.68,1.35-.45.75-.45.3-.94-1-1.28-1,.87-.26,1.43-.53-.49-.64-1-.34-1.13-.19-1.43.23-.68,0-1.2-.11-1,.75-1.36.6-.6.75,0,1.69S307.43,18,308.15,18.16Z"/><path class="cls-1" d="M306.6,21.21c.45.11.79.87,1.2.83.19,0-.64-.94-1.13-1.47s-.45-1.05-1.13-.87S306.15,21.09,306.6,21.21Z"/><path class="cls-1" d="M506.67,136.1c-.75.55-1,.65-.7,1.2s.75.05,1-.5.7.8.25,1.71.06,2.18.65,2.06,1.15-1.91,1.91-2.86-.35-.6-.35-1.1-1.1-.4-1.15-.85S507.42,135.55,506.67,136.1Z"/><path class="cls-1" d="M524.59,116.77c-.6.1.05.7-.65,1s-.65.8-.3,1,.1.85,0,1.3.45.1.85-.35.82.22.9-.2-1.05-.75-1-1.25.8.15,1.41-.15a2.72,2.72,0,0,1,2.56.6c.75.65,1,.4,1.1-.4s1.3-1.15,2.46-1.15,1.25-.55.9-.8,1.91-1.71,1.86-2.11-1.2.9-1.55.45-1,.25-1.71.4-3.11-1.81-3.71-2.71-1.61-.15-1.1.5-.1.85-.1,1.76-.6.9-.5,1.51S525.19,116.67,524.59,116.77Z"/><path class="cls-1" d="M515.65,131.83c.05-.45-.9-.2-2.06.25s-1.86-.5-2.51.15-1.76,1.81-2.61,2-.36,1.18,0,1c.6-.3,1.56,0,1.86-.45s2.76-1,4.26-1.05.6.7.7,1.51,1.36.65,2-.1,1.15-.7.6-1.16.1-.85.5-.25a1.38,1.38,0,0,0,2.16-.15c.5-.8.65.15,1.25.1s1-1.55,1-1,1,.4,1.61-.25.05-1.81.45-2.41a3,3,0,0,0,.4-2.61c-.4-.75.9-1.25,1.56-1.86s-.75-3.61-.8-4.52-1.66.35-2.16.6-.85,1.81-.3,2.26-.9,1.31-.85,2.26-.9,1-1.05,1.66-.7.55-1.55,1.21-1.3-.1-1.1-.55-1.3.25-1.25,1.36-1.4,1.2-1.05,1.71S515.6,132.28,515.65,131.83Z"/><path class="cls-1" d="M511.94,136.9a1.05,1.05,0,0,1,1.46-.55c.5.25,1.15-.75,1.15-1.51s-1.51-.75-1.71-.2-.8.3-1.61.45-.83,2.06-.25,2.26S511.79,137.5,511.94,136.9Z"/><path class="cls-1" d="M472.95,163c.05-.6,1-1.55.9-2s-1.45-.15-2.11-.15-2.31,1-1.66,2.31S472.89,163.6,472.95,163Z"/><path class="cls-1" d="M490.56,156.92c.5-.35,2.56-4.67,2.11-5.27s-2.46.35-3,2.36S490.39,157,490.56,156.92Z"/><path class="cls-1" d="M497,178.55c-.4-.5-1.4.43-1.25.8S497.44,179.06,497,178.55Z"/><path class="cls-1" d="M489,167.41c-.15.45.05,2.31.45,2.31s.7.5.45,1.3.75.9,1.71.55.6.65,1.56.5,2.26,1.05,2.06,1.51.05,1.91.5,1.5,1.15.1.7.75.7,1.31.85,2.11.65.15.55-.45.1-.55.75-1-.05-1.21-.45-2.06-1.91-.55-1.91-1.36-1.1-1.05-1.15-1.51-1.51-.9-2.36-.4-.25-.9-.85-1.56.45-1.61,1.16-2.41-.2-2.16-.1-2.76.05-.8-.3-.6-1.81-.6-2.46-.2-.05,3.71-.35,4S489.12,167.08,489,167.41Z"/><path class="cls-1" d="M486.85,178.35c-.7.9-2.38,2.4-2.16,2.81s2.16-2.21,3.06-2.86a1.2,1.2,0,0,0,.45-1.81C487.9,175.89,487.55,177.45,486.85,178.35Z"/><path class="cls-1" d="M492.67,175.09c-.75.15-.49,2.43.1,2.31.25-.05.85,0,.9-.5s.6.9.15,1.35-.45,1.71.25,1.86,2-2.26,1.81-2.71-.8.3-.65-.3S493.42,174.94,492.67,175.09Z"/><path class="cls-1" d="M498.69,179.41c.45.75-.85.15-1,.9s-1.05.15-1,.75-1,0-1.51-.35-1.2,1-2,1.15-1.15,1.8-.65,1.76.9-.85,1.51-.8.4-.6,1.25-.45.25,2.71,1.41,2.91,1.2.9,1.76.9-.1-1.61,0-2.16,1.2,0,1.81-.75-.4-2.56-.4-3.76S498.24,178.65,498.69,179.41Z"/><path class="cls-1" d="M490,172.53c.15.7.5,2.16,1.61,1.81S489.85,172,490,172.53Z"/><path class="cls-1" d="M536,207.26c.9.05,1.05-.45.35-1.1s-3.26-.9-3.36-1.86-4.67-3.21-6.67-3.67a12.76,12.76,0,0,1-1.25-.37c-2.17-.73-5.2-2.08-5.82-2s-.85,1.36-1.51,1.36-1.56,1.36-2.76,1.76-1.26-3.46-1.81-4.22-3.56-1.36-3.86-.5-1.35.4-1.46,1.11.25.45.9.45.65.5,1,1.15,2.11.2,2.71.15.7.8-.15.5-.85.4-1.46.25-1.41-.1-1,.25,1.05.7,1.05,1.51,1.16.65,1.16,0,.6.2,1.76.5.35.75,1.51.8A12.06,12.06,0,0,1,520,205c1,.75.3,1.25,1,2s.85,1.51-.05,1.51-1.86.9-1.61,1.35,3.21-.2,3.91-.2c.46,0,.92.82,1.81,1.41a3.44,3.44,0,0,0,1.81.6c2.21.1,1.66-1.16,2.06-1.16s.55-.7,1-1.25,2.41-.1,3.56.8,2.51,3.56,3.71,3.31,2.46.7,3.56.65.1-.9-.25-1.05-1.25-.75-1.2-1.15-1-.35-1.71-.8-.45-1.91-1.2-2.26S535.08,207.21,536,207.26Z"/><path class="cls-1" d="M544.56,202.14c1,1,.46,1.76,1.05,1.61,1-.25.25-1.2-.55-1.71S543.56,201.19,544.56,202.14Z"/><path class="cls-1" d="M543.36,203.95c0,.45-.8.7-2.06,1.2s-3.53-.57-3.61.15c0,.45,1.41,1.26,2.76,1.26S544,205.2,544,204.8s.85-1.1.5-1.51S543.36,203.5,543.36,203.95Z"/><path class="cls-1" d="M423.36,178.91c-.45.05-.35,1-.6,1.61a4.71,4.71,0,0,0-.1,2.26c.1,1,0,2,.85,2.51s2.56-1,2.61-2.41S423.74,178.86,423.36,178.91Z"/><path class="cls-1" d="M370,215.94c-.22-.82-.4.3-.6.5a1.81,1.81,0,0,0-.25,1.21c.05.4-.6.8-1,.75s-1.05.2-.85.75-.3.45-.05.9-.55,1-1.26,1.05-1.6,1.31-2.36,1.2-1.51.5-2.16.4-.2,1.36-.7,2.26A3.5,3.5,0,0,0,361,228a2.8,2.8,0,0,1-.4,3.46,3.86,3.86,0,0,0-.65,4.07c.45,1,.45,2.51,1.1,3.21s2.46,1.3,3,.75,1.13.08,1.76-.65,1.61-4.57,2.46-7.13,2-5.92,1.86-6.62.6-1.16.3-1.91.1-1.66.45-1.05.85.6,1-.2-.6-2.06-.65-3.21S370.16,216.49,370,215.94Z"/><path class="cls-1" d="M377.38,174c.56.58,1.67-.1,1.73-.33S376.74,173.37,377.38,174Z"/><path class="cls-1" d="M404,286.49c-.22-.51-2.06,1.26-.59,1.91.66.29,1-.37,1.4,0a.92.92,0,0,0,1.47-.66C406.39,286.86,404.19,287,404,286.49Z"/><path class="cls-1" d="M560.22,213.55c.08.19,1.05,1.09,1.54.75S560.09,213.22,560.22,213.55Z"/><path class="cls-1" d="M557.13,211.89a1.44,1.44,0,0,0,1.73.94C559.32,212.57,557,211.11,557.13,211.89Z"/><path class="cls-1" d="M551.79,207.26c0,.19,1.17,1.36,1.43,1.17S551.86,206.92,551.79,207.26Z"/><path class="cls-1" d="M558.9,210.2c-.38.83,1.13,2.26,1.36,2.3S559.19,209.56,558.9,210.2Z"/><path class="cls-1" d="M557.43,210.27c.41-.26-2.33-1.77-2.37-1.28S557,210.53,557.43,210.27Z"/><path class="cls-1" d="M548.58,205.15c-.1.45,1.51,2.84,2.11,2.46C551.79,206.91,548.68,204.7,548.58,205.15Z"/><path class="cls-1" d="M517.08,260c.41.38,1.81.26,2-.26S516.71,259.66,517.08,260Z"/><path class="cls-1" d="M546.33,244.9c.3-.23-.15-1.43-.41-1.24s-.26-1.88-.07-2.82.07-.83-.41-.34-1-.94-1.13-1.32-.68-1.43-1.32-1.28-.23-.9-.83-.79-.71-.87-.6-1.77-.41-.19-.68-.56-.56-.08-1,.07-.53-.79-.41-1.17-.08-.83-.64-1.24a1.17,1.17,0,0,1-.56-1.24c0-.49-3.2-2.15-3.91-2.3s-.11-.9-.41-1.17a3.63,3.63,0,0,1-.41-2.07c0-.83-1.05-1.09-1-1.77s-.3-1.32-.23-2.07-1.09-.94-1.13-1.35-.68,0-1.32,0-.6-.83-.53-1.69a3.89,3.89,0,0,0-.79-2.71c-.53-.41-.56-1.85-.83-2.07s-1.13.75-1.09,1.24a1.69,1.69,0,0,1-.41,1.36c-.34.3.23,1.47-.23,1.88s0,2.07-.15,3a6,6,0,0,1-.53,2.6c-.45.64-.53,1.66-1.43,2s-2.11-.38-2.07-.87-1-.79-1.51-.71-.83-.68-1.66-1.32-1.47.15-1.73-.6-.53-.87-1.13-1.28-.41-.41.15-.83.45-.94.15-1.43.34-.38,1.09-.79,0-.9.56-1.13.23-.72-.38-.83-.41.6-.64.68-.45-.94-.64-.9-.9,1-1.28.53-2.48-.9-3.31-1-1.09-1.17-1.58-1,.08.53.64,1.13-1.88,1-2.6.79.11.53-.49.49-.72,1-1.2,1.54-.15.9-.68,1.24-.56.72.08,1.43-.3.75-.87.19-1.13-.56-1.09.07-.68.34-.56-.38-.79-.38-.94-.79a2,2,0,0,0-1.43-1.05c-.49,0-.49.57-1,.57s-.6.26-.53.79-.75,0-1.32,0,0,.72-.3.75-.3.56-.79.56-.41,1.09-.34,1.66-.75-.26-1.24-.11.11.64.26,1.28-.26.6-.53.87-.68-.72-.68-1.28-.64,0-1.32.68.23,1.81-.08,2a19.67,19.67,0,0,0-2.45,2.41c-.79.94-2.48.38-3,.83s-1.09.11-1.62.53-1.51,1.2-1.62.72-1.47-.11-2,.49a3.74,3.74,0,0,1-2.11,1.17c-.64,0-.64,1-.9,1.24s-.19-.79-.19-1.05-.6.45-.87,1.24.64,1.09.08,1.92-1.09,1.66-.3,2.71,1.24,1.73,1,2.26-.83-1.05-1-.86.72.86.49,1.2-1-1.28-1.2-.9,1.69,2.9,1.73,3.84,1.51,1.85,1.43,3.2,1.28,3.54,1.51,3.88-.53,1.24-.38,2.26-.34,1.39-1,1.39-.26,1.06.45,1.13.45.57,1.24,1.09,2.67.34,3.31.34.83-1,1.69-1,.79-.3,1.2-.83,2.37-.38,4.37-.26,2.86-.49,3.16-1.32,1.69-.75,2.26-1.28,1.05-.56,2.52-.49a8.88,8.88,0,0,0,3.76-1.09c.94-.38,2.67-.23,3.58-.45s1.05,1.13,2.07,1,1.47.3,2,.26.45.38,1,.49.45.57.11,1.05.79.45,1.51,1.43,0,1.13.41,1.88.64.56,1.39-.49,1.58-.38,1.69-1.28.9-2,1.43-1.51-.38.68-.72,2.41-.94.83-1.05,1.32,1.58.75,1.58-.15.3-1.32.94-.49-.38,1.51-.23,1.88.87-.11,1.24-.08c.67.07,1.58,1.54,1.43,2.33s-.38,1.54.9,2.18.79.75,1.73.75a7.89,7.89,0,0,1,3.43,1.2c.53.45,1.88-.34,2.15-1.24s1.24,0,.72.26.26,1,.3.53.26-.9.45-.34.87.56,1.13,1,.56.79.56.41.15-.72.75-.94a6,6,0,0,0,1.62-1.17c.64-.53,3.27-.64,3.54-.64s.41-2.26.56-3.43,1.13-1.35,1.28-2.6a8.16,8.16,0,0,1,1.81-3.65,1.38,1.38,0,0,0,1-1.17c0-.72.9-1.51.9-2.37s.49-1.88.41-2.15a1.68,1.68,0,0,1,.19-1.69C546.82,245.84,546,245.13,546.33,244.9Z"/><path class="cls-1" d="M534.1,270.46c-1,.11-2.54-.92-2.9-.83s1.32,2.71.79,3.39,1.54,2.52,2.26,2.63.45-.72.94-.68.3-.49.38-.87.56.41,1,.19-.11-1.85.49-1.85.11-2-.08-2.6S535.11,270.34,534.1,270.46Z"/><path class="cls-1" d="M506.43,216c.38.3,2.26-.07,2.18-.53S505.86,215.5,506.43,216Z"/><path class="cls-1" d="M570.53,283.1c.26.07,1.13-.15.64-.75S569.91,282.93,570.53,283.1Z"/><path class="cls-1" d="M587.55,264.06c-.34.56-1-.15-1.66-.15a1,1,0,0,1-1-1c0-.56-.15-1.39-.75-1.35s.19.64,0,.94-.38-.34-.68-.34-.64-.41-.64-1.17-.64-.68-.64-1.54-1.36-1.54-2.11-1.54.15,1.35.53,1.81,1.21.87,1.17,1.2a2,2,0,0,0,1,1.35c.45.15-.26,1.47-.26,2.52s-.83.87-1.39,1.54,1.43,1.35,2.26,2-.71,2.34-.49,2.71c.11.19.68.45,1.54.23s1.28-2.11,1.88-2.63.23-1.36.53-1.77.71-.38,1.13-.38.19-1,.71-1,.26-.72.57-1.51S587.88,263.49,587.55,264.06Z"/><path class="cls-1" d="M581.41,270.12c-.53-.38-.79.15-1.35.41s-.94-1.24-1.66-.68-.08.79-.87,1.47-.45.9-1.39,2.37-4.18,2.3-4.67,3.09-2.11,1.43-2.15,2-1,1-.45,1.84c.45.64,1.05.19,1.54.68s1,.08,1.2.49,1.88.41,3.12-.71.64-1.66,1.13-2,.56-1.2.87-1.77a1.72,1.72,0,0,1,1.88-1.17c1.36,0,.64-.26.56-.9s1.13-.75,1.13-1.58,1.66-1.58,1.32-2.22S581.94,270.49,581.41,270.12Z"/><path class="cls-1" d="M589.77,225.14c.41.15,1.77-.3,1.77-.94S589.14,224.91,589.77,225.14Z"/><path class="cls-1" d="M587.43,227.13c.64.6,1.92.56,2-.53S586.86,226.6,587.43,227.13Z"/><path class="cls-1" d="M519.32,33.57a4.45,4.45,0,0,1,1.35,1.1c.4.4,1.91-.2,2.51-.4s.65.9,1.61.3,1.91-.3,3-.3-.2-1.36-.15-2,1.3-.2.9.3.6,1.66,2.21,1.56.4-1.1,1.21-1.46.7-.75-.45-1.46-2.66-.25-3.66-.7-2.36-.5-2.41.6-2.16-1.2-3.26-1.56S517.66,32.74,519.32,33.57Z"/><path class="cls-1" d="M385.72,11.94c.15-1.05-1.61-.2-2.91-.75s-2.07-.51-1.2.25c.4.35-2.23.63-1.81,1.05C380.75,13.44,385.57,13,385.72,11.94Z"/><path class="cls-1" d="M369.41,53.24c1.36,1.25,2.51-.55,3.16-.65s-.4-.8-1.51-1.1S368.39,52.29,369.41,53.24Z"/><path class="cls-1" d="M378.64,14.35c0-.8-2.61.08-2.11.25S378.64,15.15,378.64,14.35Z"/><path class="cls-1" d="M369.26,13.54c-.35.5-1.9.32-1.61.9s2.81.65,2.81.15,1.31-.05,1.36-.5.6-1,2-1.05,1.41-.6.1-1.2-3.06.35-2.36.85S369.61,13,369.26,13.54Z"/><path class="cls-1" d="M366.85,13.14c1.15-1.05,2.66-.05,2.86-.55s-2.16-.65-3-.2-2.85.09-2.61.65A2,2,0,0,0,366.85,13.14Z"/><path class="cls-1" d="M384.87,11c1.2,0,.85-.75,1.66-.65s1.86.05,1.46-.45-3.31-.3-3,.1-2.36.25-2.31.4C382.76,10.68,383.66,11,384.87,11Z"/><path class="cls-1" d="M407.05,40.39a4.48,4.48,0,0,0,2.61-.6c.2-.35-.7-.75-1.86-.75S406.49,40.3,407.05,40.39Z"/><path class="cls-1" d="M423,40.59c-.1-.8-1.94.23-1.3.55C422.51,41.55,423.11,41.4,423,40.59Z"/><path class="cls-1" d="M397.37,12.49c1.9-.2,1.86-1.26.85-1.45s-1.15.6-1.66.55-2.4.32-2,.75S396.41,12.59,397.37,12.49Z"/><path class="cls-1" d="M393.7,12.74c.35-.45-.65-.45-.75-.9s-2.91-.55-2.76,0-1.94,1-1.3,1.55C390.09,14.3,393.35,13.19,393.7,12.74Z"/><path class="cls-1" d="M525.79,36.68c0-.75-2.73.28-1.61.65C524.79,37.53,525.79,37.43,525.79,36.68Z"/><path class="cls-1" d="M444.14,14.75c1,.4.6.65-.4.65s-1.87.34-1.2.6c.5.2.45.75,1.51,1s2.11-.6,2-1.2,3.66-1.15,4.67-1.41-.65-1.3.45-1.4.65-.6-.7-.8-.8-1.35-1.25-1.76-.7.5-2.46.85-2.61.8-1.91,1.15,0,1.2-.75,1.16S443.18,14.35,444.14,14.75Z"/><path class="cls-1" d="M446.8,16.15c0,.55-1.62,1.1-1.16,1.51s.75.25,1.26.35.75,1.36,1.66,1.16,3.36,1,4.82,1,1.61-1.2,1.15-1.25,0-.75.75-1.91-2.51-2-2.51-1.1-1-.2-1.25-.75S446.8,15.6,446.8,16.15Z"/><path class="cls-1" d="M454.58,23.23c.7.4,3-.5,4.47-.45s5.72-1.15,5.87-2-1.56-.75-2.21-1.46-2.11-.1-2.46.5-.75.05.2-.9-1-1.71-1-1.11-1.81.1-1.81.65-.65.8-.6,1.36-1.2-.3-1.25,1S453.84,22.81,454.58,23.23Z"/><path class="cls-1" d="M529.81,40c.9-.2-.65-1.86-2.21-2.11s-3,1-2.81,1.31C525.24,39.84,528.9,40.19,529.81,40Z"/><path class="cls-1" d="M385.12,13.69c.15.4-.25.45-1.25.45s-1.53.57-1,1,3.26.3,3.71-.3,1.61-.1,1.81-.7S385,13.29,385.12,13.69Z"/><path class="cls-1" d="M380.2,38.08c1,0-.55.2-.45,1s-1.56.25-1.51.75-.25.85-1.21.85.45.6.55,1.15-1,.15-1,1-1.86,0-2.11,1.1.9,1,1.71,1-.3.8.3,1.25,1.05.3.65-.55,2.11.3,1.35,1,1.2,1.15,2.16,1.2,4.34.79,4.41,0c.05-.5-1.25-1-2.31-2.06S381,42.8,382.16,42s.15-1.11,1.35-2,.5-1.66,1.51-1.76-.1-1,.9-1.15A1.35,1.35,0,0,0,387,35.52c-.15-.4,1.05.05,1.61-.55s1.86-.2,2.26-1.05,6.17-2.81,9.44-3.56,5.52-2.11,4.37-3-4.42.35-5.22,1-2,.2-2.76.65-2.51.85-3.36.3-1.86.65-2.51.6-1.4.65-2.11.6-2.11.55-2.21,1-1.3.3-1.3.8-1,1-1.46.5-1.1.5-.4,1.16-1.3.7-1,1.1-.75.65-.5,1.1-.7.6-1.46.75S379.25,38,380.2,38.08Z"/><path class="cls-1" d="M527.5,99.31c.4.9-.55,5.72-.15,6.53s-.65,4.36-.3,4.77c.6.7.2-1,1.1-1.1s.9,1,1.46,1.25.2-1.61-.3-1.51-.9-1.2-1.16-2,.5-1.76.5-2.76,1.25-1,2-.2.85.25.55-.3-1.25-4.57-1.81-6,.8-2.86-.2-3.61-.6-2.31-1.1-2,0,1.66-.8,1.76-.05.85-.35,1.86A5.57,5.57,0,0,0,527.5,99.31Z"/><path class="cls-1" d="M346.22,135.88a3.22,3.22,0,0,0-.27.8,10.57,10.57,0,0,1-1.34,3,2,2,0,0,1-.19.27c-.2.2-1-.3-1.81-.1a2.88,2.88,0,0,1-2.13-.45,4.85,4.85,0,0,0-3.54.58c-.33.48-1.15.48-1.91.18a10.14,10.14,0,0,0-3.11-.88,5,5,0,0,1-2.56-.61.33.33,0,0,1,0-.07c-.13-.35-.8-.38-2.28-.6s-.93-1.23-2.59-1.33-3.76,1.23-3.79,1.93.78,1.48.23,2.21a1.78,1.78,0,0,1-2.61,0,4.83,4.83,0,0,0-3.14-1.13c-1,0-1.76-.65-1.68-1.2s-.25-.8-1.1-1-1.58-.88-3.09-.63a2.77,2.77,0,0,1-2-.41c-.41-.26-.65-.57-.65-.72,0-.33-.45-.88-.7-.58s-1.2.05-1.33-.58.63-.6,1.33-1.18a1.47,1.47,0,0,0,0-2.28c-.75-.6-.23-.93.3-1.48s.05-.85-.23-.6-.73.33-.8-.28-1.71-.7-2.33-.13a1.32,1.32,0,0,1-.91.26,5.77,5.77,0,0,1-1.6-.31,10,10,0,0,0-1.73.17c-.55,0-1.91.9-2.36.48s-5.07.33-6.37.38-1.86,1.41-2.63,1.41a4.37,4.37,0,0,0-2.66,1.38.83.83,0,0,1-.64.29c-.61,0-1.34-.44-2-.46-.88,0-2.23.43-2.89-.3s-1.1-1-1.58-.73-1.35,2.74-1.86,3.46a3.86,3.86,0,0,1-2.58,1.23c-.68,0-.75,1-1.28,1.45s-.33,1.1-1,1.61-.33,2,0,2.59-1.15,2.28-2,2.79-1.13,1.45-2.48,1.68a2.31,2.31,0,0,0-1.23.6,4,4,0,0,0-.93,1.56c-.3.8-2.18,2-2.26,3.11s-1.83,2.89-3,5.29a4.76,4.76,0,0,0-.5,1.6c-.1,1.09.57,1.48,1,1.92.53.6-.4,1.66.38,2.73s-.18,2.74-.55,3.34a4,4,0,0,0-.29,1.48,3.06,3.06,0,0,1-.39,1.36c-.55.83.23,2,.63,2.41a.39.39,0,0,1,.1.32c0,.28-.17.65-.22,1a.94.94,0,0,0,.19.79l.17.2c.43.54.49.8,1.36,1.05s-.07.78.73,1.28l.19.14c.58.47.53,1,1.21,1.49a5.72,5.72,0,0,1,1.91,2.08,4.05,4.05,0,0,1,.25.63,3.35,3.35,0,0,0,1.36,2.13,16.31,16.31,0,0,0,1.36.91c.71.45,1.53,1,2.21,1.47a22.34,22.34,0,0,0,4,2.48,1.26,1.26,0,0,0,.41.06c1,0,2.85-.72,5-1.09a7.33,7.33,0,0,1,3.29.19c.68.2,1.13.43,1.27.46a15.89,15.89,0,0,0,3.29-1.33c.68-.34,1.44-.56,2-.83a1.88,1.88,0,0,0,.34-.22,2.15,2.15,0,0,1,.95-.37,6.27,6.27,0,0,1,1.14-.1c.54,0,.86-.71,1.16-.37l0,0c.3.4,1.73.48,2.53.65a2.51,2.51,0,0,1,1.61,1.73,2.21,2.21,0,0,0,.9,1.45c.38.2,1.3-.38,1.73-.38a6,6,0,0,0,2.26-.25.2.2,0,0,1,.27,0,4.22,4.22,0,0,1,.71.94c.35.5,1,.13,1.3.28a2.48,2.48,0,0,1,.48,1.66c-.1.31-.51,1.11-.32,1.51a.31.31,0,0,0,0,0,.72.72,0,0,1-.4,1.1c-.53.18-.5.65-.08.68.26,0,.2.23.06.45a2.29,2.29,0,0,1-.29.36c-.23.23.53.53.65.85s-1,.23-.93.7a1.39,1.39,0,0,1-.68,1.08c-.3.23.8,1.18.83,1.51s.28.63,1.23,1.56.48,1.11,1.68,2.09l.18.14a5,5,0,0,1,1.45,1.79,8.31,8.31,0,0,1,.6,1.87l0,.17a25.69,25.69,0,0,0,1.49,3.54c.23.48-.28.9-.28,1.78s1,2.48,1.05,3.56a3.28,3.28,0,0,1-1.2,2.46,6.24,6.24,0,0,0-1.23,3.26c0,1-.9,1.93-.88,2.38a14.41,14.41,0,0,1-.23,2.28.43.43,0,0,0,0,.07,4.15,4.15,0,0,0,1,2.22,13.06,13.06,0,0,1,1.66,3.46c.38,1.23,1.46,2.61,1.73,3.54s-.2,2.26.08,2.86a11.41,11.41,0,0,1,.6,2.66c.15,1,.23,3.21,1.15,4.11a7.61,7.61,0,0,1,1.05,1.36,11.87,11.87,0,0,1,1.28,2.71c.4,1.33,1.38,2.58,1.63,3.36s.53,1.51,0,1.58-.53.53,0,1.38.08,1.36.55,1.45.33.4.7.43.65.4.9.73a.7.7,0,0,0,1.1-.07c.28-.4,1.13-.53,2-.53s.7-.38,1.56-.63a4.62,4.62,0,0,1,2.61,0,1.81,1.81,0,0,0,1.63-.2c.35-.23,1,.35,1.08-.23s.75-.48,1.4-.48,2.23-1,3.49-2.21a31.8,31.8,0,0,0,4-4.94,12.79,12.79,0,0,1,2.43-2.71,6,6,0,0,0,.8-2.79c0-.34.07-.64.08-.84,0-.8-.5-.15-.68-.65s1.23-1.43,2.66-2,2-.83,2.13-1.33,0-1.91.18-2.46-.13-.88-.3-2.13-.63-1.46-.83-2.16-.15-1.25.28-1.28.43-.23.78-.9.75-.4,1.43-.9.7-1.13,1.78-2,2.26-.8,3.31-1.43,2.86-3.09,2.69-3.54a11.6,11.6,0,0,1-.43-3.31c.1-.83-.15-3-.15-4.07,0,0,0,0,0-.06,0-1-1.15-.54-1.2-1.54s-.65-1-.63-1.73.08-1.33-.18-1.41-.1-.68.3-1.28-.73-.68-.9-1.43a8.09,8.09,0,0,1,.75-2.58,36.22,36.22,0,0,1,1.66-3.69c.38-.58.75-.48,1.08-.88s.43.2.93-.6l.15-.21c.66-.89,2.45-2.59,3.77-4a8.89,8.89,0,0,1,3-2.26,20.24,20.24,0,0,0,4.22-4.14,9.61,9.61,0,0,0,2-3.14,7.32,7.32,0,0,1,1.53-2.64,9.35,9.35,0,0,0,1.58-3.36c0-.6.5-1.88.58-3s-.83-1.18-1.1-.58-2.43,1-3.81,1-2.21.15-2.71.63-1.76-.12-2.21.4-2.23,1-2.81-.23a2.14,2.14,0,0,0-.87-1l-.06.06.06-.06c-.42-.24-.81-.28-.91-.39s.5-.68,1-.78.25-.65-.15-1l-.23-.21a19.08,19.08,0,0,1-1.81-2,4.43,4.43,0,0,0-2.69-1.86c-.6,0-.7-1-1.08-1.08s-1.23-1.53-1.26-2.48a3.8,3.8,0,0,0-1-1.89,3.85,3.85,0,0,0-1.05-1c-.6-.28-1-1.33-1-2.66a14.93,14.93,0,0,0-.38-2.81,3.2,3.2,0,0,0-1.48-1.76,1.77,1.77,0,0,1-.95-1.27,2.1,2.1,0,0,1,0-.68c.13-.8-.43-.75-.78-1.88s-1.76-2.81-1.81-3.46-.83-1-.8-1.73-.38-.78-1.15-1.88-1-3-.78-3.11.88,1.63,1.13,2.18,1.1,2.23,1.71,2.23.83-2.54,1-2.41a.13.13,0,0,1,0,.07c.12.35-.06,1.82.28,1.93s.58.8,1.38,1.68,2.43,3.24,2.46,3.81a2.39,2.39,0,0,0,1.3,1.88c1,.68,1,1.51,1.53,1.91s.4.88.43,1.88a3.59,3.59,0,0,0,1.38,2.86,4.29,4.29,0,0,1,2,2.23,7.84,7.84,0,0,0,1.55,2.59c.58.58.25.88.58,1.3a4.63,4.63,0,0,1,.56,1,1.61,1.61,0,0,1,.14,1,3.83,3.83,0,0,0,.5,2.71c.53.78.33,2.21.58,2.48a4.17,4.17,0,0,0,3.09-.35,3.55,3.55,0,0,1,2.18-.68,3,3,0,0,0,1.86-.9c.23-.3,1.26-.33,1.68-.28s.85-.43,1.33-.9,2-.68,3.59-1.18,1.25-1.25,1.63-1.71.76-.27,1.45-.54a3.14,3.14,0,0,0,.43-.21c1-.55,2-.27,2.76-.48s0-.8.65-1.33,1.53-.13,1.86-.3.55-1.33,1.1-1.55,1.15-.08,1.08-.55.05-2.18.58-2.28,1.36-.65,1.38-1a19.42,19.42,0,0,1,1.4-2c.33-.55.35-.85-.12-.93s-1.23-1.41-1.43-1.78-1.66-.13-2.84-1.05a3.24,3.24,0,0,1-.91-1.8c-.25-1-.29-2.1-.47-2.11s-1.53,1.3-2,2.28a3.24,3.24,0,0,1-3.21,1.51,2.11,2.11,0,0,0-2,.53c-.08.06-.22,0-.36-.1a2.21,2.21,0,0,1-.7-1.09.64.64,0,0,1,0-.47c.33-.55.53-2-.2-2.18s-1.13,1.26-1.13,1.66c0,.07,0,.07-.12,0-.33-.23-1.21-1.48-.91-1.83s-.2-1.33-.75-1.83-1.68-1.43-1.73-2a3.26,3.26,0,0,0-.21-.72,17.2,17.2,0,0,1-.82-2.14.42.42,0,0,1,.15-.28,1.86,1.86,0,0,1,.74-.4,1.48,1.48,0,0,1,.41-.07c.45,0,.43-.5.78-.2s.83,0,1.18-.05,1.3,1.78,1.73,2.66.4,1.18,1,1.56,1.23.18,2.06,1a7.47,7.47,0,0,0,3.86,1.48c.9.05,1.58-1,2.74-.75s.88,1.71,1.3,2.23,5.12.88,5.92,1.1a5.63,5.63,0,0,0,1.41.14h.36a10.11,10.11,0,0,0,3.17-.23,1.14,1.14,0,0,1,1.3-.2,4.08,4.08,0,0,0,2.74,0c.82-.46,1.33,0,1.35.4s.4.58.78.93.1.75.35,1.16.75.33,1.48.65a1.26,1.26,0,0,1,.27.17c.51.4.72,1.11,1.56,1.44s1.86-.63,1.86.1-2.31.58-2.36.8,2.38,3.16,3.61,2.94,2.13-1.56,1.78-1.76.2-1,.53-.88.05,1.45.43,1.76.25.85,0,1.56.25,2.08.33,2.86.6,1.91.78,3.06a17.84,17.84,0,0,0,1.58,4.54c.68,1.28,1.2,3.79,1.65,4.39a8.2,8.2,0,0,1,1.61,3.56,5.18,5.18,0,0,0,1.66,3c.43.3,1.36-.35,1.58-1.05s1.51-1,1.58-1.58.2-1.08.65-1.15.45-.55.45-1.2a3.67,3.67,0,0,1,.5-2.16,3.65,3.65,0,0,0,.25-2.76,3,3,0,0,1,.13-2.13c.25-.63.15-1.36.63-1.4a2.8,2.8,0,0,0,1.68-1.16,17.62,17.62,0,0,1,2.58-2.06,16.83,16.83,0,0,0,2.74-2.76c.5-.83,1.93-1.1,2.58-1.78s.4-1,.53-1.76,2.23-1,3-1a2.11,2.11,0,0,0,.42,0c.47-.09.69-.31,1.13-.31s1.3-.07,1.35-.65.68-1,1-.83a4.09,4.09,0,0,1,.9,2.31,2.31,2.31,0,0,0,.26.86,3.54,3.54,0,0,0,1.59,1.68c1,.4,1.63,2.38,1.93,3.44a3.74,3.74,0,0,1-.25,2.74c-.35.6.12.63.7.93s1.23.4,1.66-.2,1.31-1,1.43-1.71.53.33.88.68a3.12,3.12,0,0,1,.68,1.88c.08.85.15,3,.88,3.66a3.07,3.07,0,0,1,.65,2.68c-.2.53.38,1.43.23,2,0,.12-.06.28-.1.46-.14.73-.32,1.88-.48,2.5-.2.78-.35,1.45.1,1.51s1.36,1.08,2.23,2.18a3.88,3.88,0,0,1,.51.84,6.61,6.61,0,0,1,.47,2.6c0,1,1.51,2.61,1.73,3.26s.65.85,1.63,1.56,2.89,1.83,3.26,1.66-.58-1.83-1.13-2.41-.05-2.13,0-3.26-1.05-1-1.31-1.78-.68-.33-.83-.83a.88.88,0,0,0-.13-.24,3.16,3.16,0,0,0-2-1.14c-.85-.07-1.25-1.36-1.18-1.93s-.63-1.08-.63-1.58-.5-.53-1.08-.8.12-2,.2-2.71,1.28-2.81.93-3.46,1.23-1.15,1.43-.43.28,1.08,1.28,1,1,.73,1.81,1l.12.05c.64.28.39,1.08.46,1.53s.7.2,1.05.17-.23.55.08.9,1.18-.3,1.36.13a1.14,1.14,0,0,0,.15.26,2.64,2.64,0,0,0,.75.57c.4.25-.5.68-.48,1.48s.63,1,.85.68a5,5,0,0,1,1.53-1.18c.38-.13,0-.68.4-.65s.28-.58.45-.9.45-.2,1.05-.17a5.28,5.28,0,0,0,2.31-1.11c.85-.55,1-.68,1.33-2.26s-.38-3.46-.4-3.94-1.18-2.68-1.61-2.66-2.38-2-2.74-2.31-.25-.88-.75-1.31a2.81,2.81,0,0,1-.43-2.31c.13-.78,1.23-1,1.21-1.48s.1-1,.65-1a1.85,1.85,0,0,0,1.33-.88.33.33,0,0,1,.14-.12c.33-.16.91.11,1-.28s.7-.33.93,0,.48.45,1,0,.75.45.45.7-.1,1,.38,1.48.55-.28.45-.73.8-.9,2.38-1.43a8.38,8.38,0,0,0,3.31-1.93c0-.25,1.13.45,1.66.05a8.09,8.09,0,0,1,2.94-.48c.5,0,.48-.45,1-.88s.4-.63,1-.8a1.35,1.35,0,0,0,1-1c0-.3,1.13-.4,1.16-.73s.85-.43.85-.83.5-.33.73-.63-.18-1.18.23-1.3-.15-.6-.23-.83.75-.28,1.18-.55a1.72,1.72,0,0,0,.78-1.18c.08-.48.78-.9,1.1-1s.45-.8.35-1.38.58-.43.28-.65.12-.85.73-1-.38-.45-.7-.2-.68-.73-1-.35-1.15-.23-.6-.35a17,17,0,0,0,1.78-.88c.38-.13-.55-1-1-.93s-1-1.11-1.51-1.11.38-.35,1,0,1.25.55,1.51.3-1-1.25-1.43-1.61,0-.83-.3-1a7.41,7.41,0,0,1-1.08-2.06c-.2-.58-1.25-.68-1.51-1.05s0-1.25.8-1.58.45-1,.8-.9.65-.08.93-.65.75-.23,1-.53,1.51-.28,1.93-.58-.4-1.23-1-1.08a1.54,1.54,0,0,1-1.66-.68c-.4-.6-1.46,1.1-2.26,1.48s-1.33-.68-1.05-1.36-.63-.65-1.76-.6-.7-2,0-2.11,1.68.63,2.11-.63,1-.28,2-1.38,2.06-1.78,2.89-1.13-.88,1.68-1.15,2.31.25.83-.25,1.3.2.6,1.18,0a20.92,20.92,0,0,1,3.14-1.75,1.82,1.82,0,0,1,.82-.1,3,3,0,0,1,1.94,1c.48.6-.55,1.28-1,1.83s.28.58.3,1,.63.83.85.43.6-.25,1.3-.25a.43.43,0,0,1,.4.23c.19.32.16.86.53.9a.37.37,0,1,1-.1.73c-.58-.13-.58.78-.08,1.56s-1,1.66-.55,2.06.08.88.25,1.13,2.31-.1,3.24-1.05,1.18-.83,1.66-.7,1-.35.7-.73a4.41,4.41,0,0,1-.45-2.46c0-.67-.87-1.88-1.76-2.85a10.47,10.47,0,0,0-1.5-1.41c-.58-.35-.23-1.33.48-1.51a20.17,20.17,0,0,0,3-1.81c.53-.3.18-1.28.6-2.06a8.93,8.93,0,0,1,1.89-1.83l.41-.31h0a3.81,3.81,0,0,1,1.41-.77c.63,0,1.25,1.08,2,1.1a10.56,10.56,0,0,0,3.91-2.46c0-.35,1.88-2.13,2.76-3.06a13.94,13.94,0,0,0,2.48-3.34,27.9,27.9,0,0,1,1.81-2.41,9.37,9.37,0,0,0,1.05-1.73c.55-1.18.55-4.27.73-4.47s.08-.73.33-1.05.12-.78.63-1.2a.87.87,0,0,0,.28-1.13c-.13-.33,0-1.05-.1-1.28s-.1-.33.2-.5-.2-.63-.63-.83-1-.38-1-.85a1.41,1.41,0,0,0-1.33-1c-.55.05-1.58-.3-1.46.05s-.05.65-.32.58-.4.15-.73.65-1.48.55-1,.07-.17-.5-.08-1,.53-1,0-.68-.58,1.1-1.05,1.21-.33-1.36-.2-1.73-.88,0-1.93-.05-.78-.8.07-1.25.7-.88,1.13-1.05,1.53-.9,2.18-1.28a1.89,1.89,0,0,0,.93-1.23c.15-.43,1.35-1,2.43-1.83a6.52,6.52,0,0,0,1.86-1.91c.25-.53,1.86-1.18,1.88-1.58s1.91-1.4,3.19-1.66a6.27,6.27,0,0,1,3.69.45.52.52,0,0,0,.88,0c.23-.25.73-.13,1.58,0s1.05-.4,1.63-.23,1.05.28,1.4-.4,2-.55,2.38-.28.68.65,1.28.25.6.53,1.18.6.2.58-.3.53-1.13.25-.55.58,1.26-.3,1.71-.25a2.66,2.66,0,0,0,1.78-.3c.63-.4.8.33,1.21,0a3,3,0,0,1,1.76-.43c.45,0,.08-.53-.68-.53s-.73-.4-.13-1.43a9.66,9.66,0,0,1,2.48-2.21c.73-.63,1.25-.33,1.25-.73s.35-1.53.9-1.55a6.2,6.2,0,0,0,2.78-.25c.85-.48.78.35,1.13.48s.83-.73,1.23-.48-.6.85-.83,1.58.53.45,1,.65-.55.5-.45.7,1,.2,2.06-.9a3.63,3.63,0,0,1,2.81-1.33c.7.08.3-.63.35-1.66s2.21-1.33,2.91-1,.65.58,0,.4-1.3.43-1.28,1.28-.6,1.13-.27,1.46-.48.4-.5.75,0,.63-.5.78-2.18.33-2.23,1-1,.73-1.38,1.53-2.06,1.28-3.14,2.89-2.78,1.61-2.78,1.91-1.18.28-1.58.33.38,1-.58,2.06a5.73,5.73,0,0,0-1.56,3.89c0,1.43.5,5.55.93,6.27s.18,2.51.53,2.89.23,1,.45,1.23,1.15-1,1.78-1.53.43-.7.85-1,.25-1.43.38-1.73.9-.45,1.15-.78.9-.13,1.26-.25,0-1-.15-1.43,1-1.13,1.63-1.56,1.36.28,2-.35,0-1.36-.3-1.68.68-1.91,1.2-2.06.8.38,1.31-.07-.45-1.18-.8-1.13-.48-1.28.35-1.91.5-.75-.05-.9-.65.05-1.08.07-.85-.88-.2-1.76,1.28-.78,1.43-1.51a8.38,8.38,0,0,1,1.28-2.13c.23-.38,1.13,0,1.48-.08s.23.68.65.3S567.82,77,568.4,77s.2.93.35,1.48.48-.15,1.58-.9a5.78,5.78,0,0,1,4.24-.33c.73.35.85,1.18,1.26,1.08.61-.15.1-.83.7-1A10.47,10.47,0,0,0,579,75.92c.8-.58.58-.15,1-.68s.85-.3,1-.65,1.28-.93,2.86-1.28,3.64-1.41,3.54-1.73.6-.48.68-.15.68.2,1.51.38,1.21.5,1.86-.15-.08-.88-.05-1.38-1.13-1-1-1.56-.85-1.93-1.15-1.66-1-.23-1-.63,0-.88-.53-.58-1.28.15-1.43-.3.93-.78,1.68-.48.53.6.9.83a2.76,2.76,0,0,0,1.93-.13c.53-.25,2-.73,2.26-1.15s0-.63.48-.88.12-.78-.3-1a.43.43,0,0,1,.13-.83c.45,0,.33-.53.63-.55s.35.23.9,0,0,.43-.23.9.53.88.6,1.15,1.15.38,1.76,0a3,3,0,0,1,2.66.88,2.16,2.16,0,0,0,1.2,1.46c.8.4,1.53.23,1.68.6a.72.72,0,0,0,.9.48c.45-.1.7.4,1,.1s.5.18.93-.2-.93-.63-.75-.93.45.23.83.2-.1-.75.18-.83,0-1.58-.25-1.68-.05-.63.53-.2a3.32,3.32,0,0,0,1.91.4c.43,0,0-.4-.4-.48s.08-.43.38-.15.88.4.93.1.35-1,.88-.93.7-.28.2-.45A8.25,8.25,0,0,1,607.32,60c-.4-.58-2.33-.85-2.33-.55s-.63-.08-.78-.4S602,58.68,602,59s.48.38.78.78-.4.63-.25,1.08-.75-.23-1.08-.48-.17-1.23-.08-1.73-.58-.4-.65-.9-2.33-1.53-3.29-1.93-2.18-.75-2.51-1.25-2-.55-2.68-1.23a11.44,11.44,0,0,0-4.74-2c-1.23-.08-1-.75-1.56-.65a24.33,24.33,0,0,1-4-.15c-.8-.12-1,.48-1.56.25s-3.56-1.3-3.92-.9-.2,1-.55,1.08,0,.6.83,1.36.33,1.33-.43,1.66a2.3,2.3,0,0,1-2.33-.88c-.38-.58-1.4-.33-1.66-1.08s.3-.88.8-.45a.76.76,0,0,0,1.25-.48c.08-.55-1.36-.93-2.13-.88s-1.2,1.13-2,1.58-3.91-.18-4.24-.48-4.67,0-5.12.3-.13,1.48-.35,1.58-.45-1.36-.45-1.63-.53-.48-1.31-.48-1.23,0-.9-.35-.3-.65.3-1.08-1.1-1.76-2.76-2.41S550,47,549,47.34a19.28,19.28,0,0,1-4,.23c-1,0-.18-.38-.45-.83s-1.91-1-2.13-.63-.65,0-.65-.28-1.53-.83-2.13-.7-.88-.55-.18-.55,1.91.15,1.38-.65-5-1.05-5.47-.9,0,.73-1,1.66-1.93.3-1.81-.15,1.33-.38,1.33-.83-1.66-.2-1.91-.58.35-.63,1-.45,1.66.28,1.71,0-.63-.33-1.63-.5a22.56,22.56,0,0,0-4.72-.63c-1.28.13-1.86-.48-2.56-.53s-.7.38-.38.78-.68.65-1.51.53-2,.45-1.56,1.05,1-.18,1.35,0-1.05.63-.45.9.5.85.53,1.15-1,.45-1.38,0-.9-.05-1.61-.1-1.23.28-.48.38,1,.58,0,.68-.75-.93-1.35-.8-1.91-.48-2.61-.45-1,.58-2,.65a3.52,3.52,0,0,1-2.56-1c-.38-.5-.5-.65-1-.08s-.48,1.68-.93,1.76-.63,1.05-1.08,1.31-.48-.38-1.05-.33-2.43-1.76-2.53-2.28-1.25-1.53-1.55-1.73.3-.3.68,0a1.07,1.07,0,0,0,1.23.13c.38-.2.33-1.13-.33-1.16s-.4-.58-.08-.68-.75-1.08-.35-1.18.23-.53-.33-.6-1.13-.53-1.16-.8-2.36-.38-2.26,0-.75.28-.63,0-.83-.23-1.93-.53-1.13-1.08-1.51-1.13-.25,1.08-.8.83a.64.64,0,0,0-.85.88c.3.65,0,.75,0,1.28s-.35.3-1,.08-.65.55-2.06.2-2,0-2.28-.43-.68-.5-.73-.12-2.21.23-2.38-.33.38-.65.7-.8-.35-.38-1.53-.3-1.93-.6-3.14-.48a38.8,38.8,0,0,0-4.27.55c-.38.18.35.85-.23.9s-.18-1.1-.28-1.66-1-.63-.85-.2-1.38.58-1.76.25a4.64,4.64,0,0,0-2-1c-1-.25-2.18.8-1.91,1.1s1,.07,1,.27c.05.41-2.08.25-2.08.6s-2,.83-2.59.9c-1.65.21-2,.2-2.78.85s-.18-.58.43-1.18,1.23-.35,1.58-.83.9-.43,1.86-.58.9-.7,1.36-.9,1.55-.63,1.76-1.08,2.46-1.2,2.91-1.18.55-.9.8-.9a13.44,13.44,0,0,0,2.06-.8,1.33,1.33,0,0,0,.78-1c0-.33-.68-.28-.75-.58s.33-.1.85-.3,0-.9-.43-.78.23-.38-.15-.83-1.13.28-1.11-.2a1.93,1.93,0,0,0-.35-1.38c-.3-.3-.85.53-1.48.05s-2.46-.78-2.46-.58-.88-.3-1.05-.1a4.37,4.37,0,0,1-2.08,0c-.45-.12-1.08.18-1.1.63s-1.81.28-2.13.2,1.23-1.36,1.23-1.58-2.63.05-2.79-.2-1.43-.33-2-.3,0-.15.5-.2,1-.5,1.58-.6.45-.3.2-.65-.85-.18-1.43-.35a8.82,8.82,0,0,0-1.78-.45,15.77,15.77,0,0,0-2.23.48c-1.18.23-1.28,1.13-1.88,1.41s-1.66,1.38-1.15,1.48.25.4.33.73-.38.4-1,.3-2.61-.08-2.59.35,1.18.63,1.1.85-.88,0-1.28-.25-1.31-.1-1.48.33-.88.33-1.1.23-.73.2-1.1.08.75-.68.48-1-1.48,0-1.61.43-.85-.33-1.13-.18a11,11,0,0,1-1.1.55c-.53.23-1.43-.25-1.63.15s1,.53,1,.7-2.73.15-2.81.43-1,.28-2.13.3-.68.58-1.58.75-1.3.2-1.61.65a.87.87,0,0,1-1.31.18c-.3-.35-1.13.18-.68.23s0,.5-.25.4-1.08.48-.63.43.68.33.45.6-1.2-.33-1.46-.08.48.58.93.53a.65.65,0,0,1,.75.58c.05.33-1.05-.2-1.28.08s.18.4.65.45.13.23.55.6l.08.08c.26.31-.23.42-.18.72s-.48.45-.48.15-1.33-.4-1.61-.08-.48.58-.8.28-1.28.07-2.51.13a28.28,28.28,0,0,0-4.39.38c-.63.23-1.16,1.1-.58,1.68s0,.83,0,1.2,1.51,1.15,2.31,1.23,1.46,1.05,1,1.66-1.93-.18-2.89-.93a7.54,7.54,0,0,0-3.89-1c-.73,0-.3-.65-1.23-.63s-1.71.85-1.08.85,1,0,.7.25.18.23.93.55-.63.78-1.41.25a1.32,1.32,0,0,0-1.83.38c-.23.4.9,1.55,2.26,1.76s.9.63,1.53.85.18.48-.25.5-1.28-.65-2-1-2.51.15-2.88-.25.25-.8-.1-1.1,0-1,.4-1.68a1.6,1.6,0,0,0-.73-2.11c-.65-.2-.6.48-.45.68a2.09,2.09,0,0,1-.43,1.78c-.5.63-2,.63-2,1.05s-1,.75-.68,1.05a13.46,13.46,0,0,1,1.93,2.33c.2.48-1.23,2-1,2.86s-.2,1.28.07,1.71.9,0,1.31.23,1.05-.25,2-.43,2.63.8,3.26,1.1.3.8.63,1.3-.75.5-.78,1.26,1.88,1.08,2,1.3-1.36.05-1.91-.15-.6-.93-.78-1.08.38-.75.42-1.23-.63-.75-.85-1.08-.63-.8-1.08-.7a7.52,7.52,0,0,0-2.61.7c-.5.45.08,1.73.35,2.36s-1.46,1.51-1.41,2-.53.73-1.28,1.13-1.58.7-1.56,1.36-1,.3-1.53,0-1.21.17-2,.15-.75-.65-1.36-.43a.59.59,0,0,1-.83-.73c.18-.45.85-.1.9.23s.48.18,1-.1.25.35,1,.4.33-.38.88-.33.58-.12.4-.4.4-.48.75-.63.2-.73.53-.9.1-.53.45-.55.5-.55.83-.55.5-.53.3-.8.13-1,.45-1.13.35-.4.05-.63-1.41-1-1.33-1.45-.2-1.36-.05-1.73a4.33,4.33,0,0,0,0-1.61,10.18,10.18,0,0,1,.43-1.78c.15-.83-.88-1.71-1.38-1.93s-.18-.68.55-1.28.78-2.48.73-2.88-1.53-.75-2.11-.7a22.84,22.84,0,0,1-3.24-.15c-.53-.1-.7.45-1,1a11.66,11.66,0,0,0-1.13,2.41c-.33,1.13-1.66,1.48-2.26,1.73s-1,1.08-.7,1.48.68.08,1,.23,0,1.2-.2,1.36.33.53-.1.8-.83.85-.58,1.16,1.48.45,2,.75.33.85.73,1.38.83.2,1,.53-.73,1.63-1.05,1.68-1.66-1.33-2.06-1.63-2-.78-2.73-1.18a14.88,14.88,0,0,1-2.26-.93,4.68,4.68,0,0,0-3.14-.83c-1.56,0-2.56-.35-3.09-.28s-.33-.53-1.25-.93-1.53-1-2.06-.68-.33,1.28.48,1.4.4.55,1.25.5,1.1.25,1.08.78a2.05,2.05,0,0,0,.78,1.41c.38.35.15.93-.53.93s-1.45.1-1.15.58-.2.6-.88.35-.28-.73,0-1-.6-.63-1-.78-2.13,1.1-2.61,1.3-1.66-.3-2.86,0-1.13,1.26-1.58,1.16-1.78.13-2.28-.18-.1-.48.43-.45.7-.15.4-.5.4-.9.38-1.16-2,.4-2.31.68,0,.78-.33,1-.35-.3-.75-.45A7.9,7.9,0,0,0,372,55.5c-.55.63-1.63.65-1.63,1s-1.33.33-1.86.58-.17,1.28-.38,1.78-2.26.35-2.89.38-.85-1.2-1.36-1.28-.2-.78,0-1.08.55-.05,1.18-.45,1.25.2,1.51-.08-1-1-1-1.63-1.41-.8-2.16-.6a3.24,3.24,0,0,1-2.11-.23c-.53-.25-.48.45.3.65s.38.8.5,1.18a2.91,2.91,0,0,1-.65,1.88c-.45.65-.13.63.55.6s.63.86.63,1.51-.53.83-.53,1.3-.55-.22-.73,0-.4-.1-.5-.5-1.13-.18-1.71-.33-.8.1-1.08.53a2.29,2.29,0,0,1-1.51.65c-.47.06-1.18.88-1.63,1.18s-.53.88.1,1.48.75,1,.7,1.33-1.76.23-2-.13a2.57,2.57,0,0,0-1.76-.4c-.38.08-1.4-1.13-1.93-1.15s-.85.63-1,1,.25.43.5,1,1.18.58,1.66.58.3.73.15,1-1,.53-1.28.2-1.31,0-1.33-.4a1.41,1.41,0,0,0-1.56-.88c-.78.13-.93-.38-.88-1s-.43-1-.4-1.23-.35-.83.05-1.1.1-.7.13-1.08-.68-1-1.3-1-.5-.63-1-.75A3.29,3.29,0,0,1,342,58.63c-.08-.38-.88-.43-.6-.55a1.49,1.49,0,0,1,1.36.5,3.91,3.91,0,0,0,2.36,1c1.18.15,1.66.7,3,.93s2.08.38,4,.65S356.46,59.54,357,59s-.15-1.61-.15-2-.85-.45-1-.75a1.65,1.65,0,0,0-1.41-.85c-.73,0-.83-.83-1.4-.78s-1-.25-2.48-1.26-3.59-1.73-4-1.56-.63.28-.88-.1a.86.86,0,0,0-1.23,0c-.4.3-.8-.28-1.56-.1s-1.15-.33-1-.55,1.31,0,1.25-.4-.45,0-1.13-.45-1.05-.15-1.2.23-.68.27-1-.05l-.11-.08c-.4-.25-1.17-.29-1.26.06s-.78.3-.75-.07-1.05-.68-1.1-.85.45-.15.85.08.68.08,1.13-.35,1.08-.08,1.15-.45-.73-.63-.88-.85a1.44,1.44,0,0,0-1.28-.43c-.55.1-.58-.13-.9-.43s-1.33.2-1.33.9-.63.53-.4.15-.3-.83.2-1,.23-.88-.7-1-1.28.7-1.05,1-.63,1.33-1,1.33.05-.93,0-1.43-.38-.23-1.08.58-1.23,1.53-1.63,1.61-.35-.73.3-1.08.68-1.31,1.1-1.31.43-.5-.2-.65-.73.55-.93.75-1.23-.35-1.2-.15-.55.28-.3.65-.12.7-.38.25-.88-.1-1.18.4-.7.48-.4.65a.58.58,0,0,1-.17,1c-.45.13-.28-1.23-.63-1.1s-.13-.65.35-.65A1.14,1.14,0,0,0,327,47c-.08-.29-.6-.23-.6.15s-.75.3-1.38.28-.6.73.1,1.13-.13.65-.48.35a1.24,1.24,0,0,0-1.28,0c-.38.18.9.63,1,.85s-.65-.28-.8-.1-.85-.13-.9-.55-1.18.18-.55.33.4.55.4,1.1-.73.13-.58-.35-.45-.38-1-.08.08-.55-.13-1-.65,0-1.18.1-.8.12-.48.48.28.85-.15.78-.6,0-.55.4-.55.43-.6.08-.9-.25-1.15.15-1,.7-.88,1.15.63-.23,1.08-.08,0,.38.23.6.2.78-.15.45-.8-.43-.88.1-.45-.08-.75-.45-.6.7-.93.45.65-1,.4-1.41-.43.23-1,.8-1.35.55-1.08.83-.58.43-.73.9-1.33.65-2.08,1.16.15.53.58,0,.58-.2,1.25-.63,1.4-.78,1.66-.6a.67.67,0,0,0,1-.15.65.65,0,0,1,1.05-.07c.33.28-.55.5-.15.9s-.48.63-.48.28-.5-.65-.68-.33-.48.68-.8.7-.68.63-.68,1.23-.58,0-.63.53a5.28,5.28,0,0,1-1.56,2.13c-.7.68-.05.83-.28,1.26s-1.05,0-1.33.23.15,1.23-.23,1.56,0,.78,0,1.15-1-.23-1.05.15-.93.28-1.18.38.5.7,1,1.05-.43.63-.53.23-.73.25-1.51.6-.45,1.05-1.05,1.08-.43,1-.83,1.28-.3-.7-.93-.73-.58.43-.2,1-.58.13-.93.58-1.36.23-1.63.6.75.38.9.68-.9.15-1.45,0-.4.7-.9.6-1.13.43-.78.78-.28.4-.63.18-.65.33-.78.75.68.65.65.85-.65.53-.2.63.13.5-.18.63-.3.43,0,.8-.53.45-.13,1,.7-.15.88.28.65.05,1.2-.45.75.55.3.53-1,.25-.88.7-.7.38-.68-.18-.93.1-.58.5-.13.63-.13,1,.68.3,1-.13a.48.48,0,0,1,.9.1c.18.43-.43.1-.43.68s-.38.08-.7.53,1.28,1.28,1.78,1.41,1,.68,2,.53,2.91-2,3.16-2.33.8.05,1.18-.25.15-1.08.43-1.23.43.83.68.93.39.27.4.77c0,.05,0,.1,0,.16a2,2,0,0,0,.75,1.71c.55.45.13,1.13.6,1.76s.33,1.08.85,1.53.58.7.35,1.28.45.43.48.78-.15,1.08,0,1.43.53,0,1.33,0,.6-.53.63-1,.43-.25.53-.55.83-.38,1.41-.13.88-.17,1-.78.43.13.6.25.7-.93,1-1.61,0-.55-.6.1-.25-.65,0-1.18a15.18,15.18,0,0,0,.28-2.41,1.16,1.16,0,0,1,1-1c.73-.15,1.68-1.05,1.53-1.43s1-1,1-1.38-1.2-1.53-1.61-1.78-1.28-.05-1.2-.33a8.38,8.38,0,0,0-.2-1.91c-.1-.55.63-1.13.63-1.66s0-1.13.45-1.31.18-.63.8-.78.5-1.05,1.18-1.33.73-.5,1.61-.93a7.81,7.81,0,0,0,2.61-2c.25-.53-.9-1.08-.18-1.63s.13-1.18.65-1.38a2.7,2.7,0,0,0,1.1-.88c.38-.4.88,0,1.78-.18a2.26,2.26,0,0,1,.92,0,8,8,0,0,1,1.37.56c.68.3.58.78.6,1.3s0,.83-.3.6-.73,0-.93.75a2.71,2.71,0,0,1-1.73,1.71c-.58,0-.53.65-1,.78s-.93.4-.9.93-.7.58-1.18.58-.38.85-.75,1.08-.3.53.05,1,.05.85.17,1.18a2.21,2.21,0,0,1,.3,1.91c-.38.83-.78,1.86-.45,1.76s1.08.68,1.58.63.55.7,1,.55.48.45,1.86.4,4.17-1.2,5.27-1.2A3.7,3.7,0,0,0,334,76.3l.4-.1a3.59,3.59,0,0,0,.71-.25c.4-.2.68.78,1.08,1.1s1.21,0,1.48.33-.23.33-.8.23-.73.25-1.63.55c-.67.23-.61.47-.83.65a1,1,0,0,1-.37.17c-.73.2-2.31-.5-3.21-.33s-2.73.17-3.16.63-1.51.58-1,1,0,.6.35,1.08.53.68,1,.58.85.15.35.68l0,0c-.46.51-.13.89-.15,1.68s-.9.65-1.38.65-1.26-1.43-1.51-1.76-1.06.4-1.63.75-.28,1-.68,1.36a1.18,1.18,0,0,0-.25,1.61l0,.09a1.66,1.66,0,0,1-.17,1.84c-.27.31-.11.35.09.47a.7.7,0,0,1,.26.26c.23.4-.9.45-.55.93s-.8.5-.8,0-1.21-.25-1.15.07a.62.62,0,0,1-.1.4,1,1,0,0,1-.93.48c-.73,0-.78-.73-.8-1.05s-2.94.28-3.71,1.05-2.58.48-2.63.9-.31.47-.48.38a.27.27,0,0,1-.14-.21c-.08-.4-.35-.55-1-.55s.4-.65.15-1-.9.6-1.5.4-1.38.7-1.91,1.1-1.28-.08-.88-.65,0-.53-.6-.3-1.33,0-1.25-.6a.59.59,0,0,0-.1-.39c-.22-.36-.72-.65-.68-.91s.53-.13.88.17,1.13.35,1.2,0-.13-1.3-.6-1.05-.6.15-.78-.1.35-.65.48-1.05,1-.25,1.08-.58-.55-.68-.8-.8a.93.93,0,0,1-.05-1.18,1.41,1.41,0,0,0,.18-1.46c-.25-.25-1.15,0-1.23.68s-.8.38-1,.53.4.45.08.75-.45-.45-1-.5-.58.8-.85,1.23a3.36,3.36,0,0,0,0,1.93c.1.6.83,1,.65,1.48-.08.23.08.5.26.75s.42.58.29.8c-.23.43.13.83.45,1.46s-.7.28-.73.68-1,0-1.25-.18-1.31,0-1.28.2a.86.86,0,0,1,0,.35c-.07.18-.2.31-.43.17s-1-.1-1.71.05-1,.88-.7,1.18-.73.45-.8.05-.83-.13-.78.4-.83.73-.78,1.38-.8,1.26-1.36,1.58l-.27.16a3.92,3.92,0,0,1-1.13.49,1.52,1.52,0,0,1-.38,0c-.6,0-1.13.45-1,1.46s-.73,1.1-1.76,1.18-.68.88-1.1,1.2a2,2,0,0,1-2.13-.73c-.2-.55-1.55,0-1,.65s.55,1.56.23,1.81-1-.4-1.48-.08-.48-.3-1-.5-.78.25-1.66.17-1.38.43-1.05.8-.05.73.2,1.05,1.41.27,2.26.73,1.05.07,1.48.4.53.12.55.75a1.65,1.65,0,0,0,1.33,1.45c.83.23.2.78.45,1.33s-.38,1.35-.25,2-.4,2.86-.8,3.06l-.1,0c-.51.1-2-.44-2.94-.32s-4.32-.15-5.6,0-1.36-.53-2.06-.53-.4.85-1.41.88-1.1.65-.38,1.23c.42.33.36,1,.31,1.66a2.26,2.26,0,0,0,0,1.15c.33.53-.4,3.31-1.05,4.07s0,1,.65,1.48.23,2.43.23,2.89.6.33,1.3.33a8.93,8.93,0,0,0,1.36-.27,1.48,1.48,0,0,1,.9.07c.7.33,1.11,2.07,2.06,2,.4-.05.2-.35.4-.55s.58,0,1,0,.6-.58,1.55-.6,1.56-.1,2.16-.08,1.08-.18,1.23-.6a1.61,1.61,0,0,1,1.33-.9c.68-.1.58-.8.63-1.2s1.18-1,1.25-1.31-.65-1.46,0-2.48,1.41-1.08,1.41-1.66.7-.73,1.56-.83,1.13-.68,1.86-1a1.13,1.13,0,0,0,.7-1.42,3.43,3.43,0,0,0-.1-.44c-.3-1,.58-1.56,1.4-1.68a7,7,0,0,1,3.11.68c.48.3,1.13.23,2-.65a2.25,2.25,0,0,1,1.06-.69,4.2,4.2,0,0,0,.82-.24c.53-.27.3-.75,1.18-1a2.59,2.59,0,0,1,2.38,1c.35.53.45.58.53,1a3.25,3.25,0,0,0,1.61,2.06c1.2.78,1.68,1.66,2.31,2s1.26.25,1.63.7a3.92,3.92,0,0,0,1.48,1c.6.28.63.93,1.2,1s.2.58.55,1a1.67,1.67,0,0,1,.08,1.83c-.38.5-.18,1.35.08,1.35s.78-.9.85-1.41.58-.48,1-1-.6-.65-.78-1.33.75-1.28,1.63-.73,1.23.93,1.28.08-2.71-2-3.36-2.38-.23-1.05-1.25-1-2.26-1.23-2.63-2.71-2-1.56-2.38-2.43.38-1,0-1.71c-.2-.4.24-.76.75-1a1.75,1.75,0,0,1,1.08-.14c.2.08.26.28.3.51s0,.72.31.72c.45,0,1.28,0,1.3.55a6.73,6.73,0,0,0,1.5,2.38c.4.45,1.31.35,1.36.73s.7.73,1.46.78a1.71,1.71,0,0,1,.71.3,9.91,9.91,0,0,1,.87.64,9.06,9.06,0,0,0,1.2.89l.09,0,.4.24c.66.35.51.36.06.82a2.28,2.28,0,0,0-.05,2.51c.5.41.65,1.21,1.13,1.44l.07,0a1.41,1.41,0,0,1,.9,1.45c-.07.63.8.85,1.2.4s1.53.25,1.53.55-1.15-.33-1.81.15.5.93.35,1.43a1,1,0,0,0,.88,1.18c.58,0,1.23.93,1.58.75s-.43-1.5-.3-1.71.83.35,1.18-.05-.25-.7-.78-.68,0-.7.6-.33.93-.1,1.23-.15.38-1.13-.55-1.38-.8.68-1.41,0,.55-.38.55-.9-.93-1.28-1.38-1.91.63-.93.88-.48.93.38,1.36.2-.45-1,.33-1.28.78.23,1,.33.48-.63,1.28-.63a2.06,2.06,0,0,1,1.15.54,1.83,1.83,0,0,0,1,.48c.7,0,1-.75,1.58-1s2,.07,2.28-.23-.85-.68-1.28-1a1.74,1.74,0,0,1-.42-.88c-.06-.21-.12-.38-.23-.4-.28,0-.7-1.2-.35-1.28s.8-1.28,1.36-1.45a.48.48,0,0,0,.35-.36,6.31,6.31,0,0,0,0-.89c0-.53.33-1.33.85-1.38s1,0,.88-.93c0,0,0-.05,0-.08-.06-.78.11-.74.81-1.27s.8-1.58,1.46-1.71a3.83,3.83,0,0,1,1.88-.28c1,.15-.48.75.17,1.1s2.66-.1,2.76.4-2.31,1-2.26,1.26,1.28.5,1.71.78-.13,1.05.08,1.31.85,0,1.38-.33,1-.25,1.63-.7,2.08-.05,2.26-.33-.4-.55-1.71-.45a1.26,1.26,0,0,1-1.38-1.38,3.77,3.77,0,0,1,2.13-1.35,6.32,6.32,0,0,0,2.16-.65,6.68,6.68,0,0,1,1.38-.39c.81-.15,1.64-.22,1.73,0s-1.76,1.1-2.11,1.23.68.65.65,1-1.1.38-1,1-.35.73-.93.73-.73.35-.45.4.25.8,1.33,1.08a7.59,7.59,0,0,1,3.16,2.28,1.91,1.91,0,0,0,.44.35c1,.57,2.43.42,2.62,1.46.23,1.2.9.73.65,1.75a1.22,1.22,0,0,1-.39.58,4.62,4.62,0,0,1-3.15,1.05c-.68-.25-2,.08-3,.08s-1.26-.7-2-.65-.75-.68-1.51-.68-.18-.38-2.53-.68a7,7,0,0,0-5.14,1.58c-.75.65-3.46,0-3.71.2s0,1-.85,1.31-2.89,0-3.56.3-.93,1.3-.35,1.25.88.23.7.48.48,1,.15,1.26a.77.77,0,0,0,.05,1.18c.4.3.48.86,0,.93s.83.63.85.88,1.1.38,1.1.68.33.4.85.25.73.58,1.05,1.08,2.18.15,2.18-.4.55-.7,1.38-.63,1.91,1.2,2.31,1.36,1.23-.3,1.76-.3,1.28-.83,1.58-1,.83.58,1.31.33,1-.53,1.3-.35-.73,1-.45,1.36a.71.71,0,0,1,0,.58c-.07.31-.19.63,0,.85s-.05.72-.13,1.26a1.3,1.3,0,0,0,0,.22,13.4,13.4,0,0,1-1.26,2.54m-.32,83.58c-.44.64-1.69-1.35-1.84-2.6s.71-1.85.19-3c-.44-1-.71-1.91-.4-2.2a.35.35,0,0,1,.25-.1c.57,0,1.25,2.17,1.22,3.44a1.84,1.84,0,0,1-.09.59c-.33.85.68,2.77.73,3.59A.45.45,0,0,1,345.9,219.45Zm-8.1-10.57c-.39-.63-.77-1.48-1.24-1.73-.83-.45-1.17-6.14-.75-6.29.05,0,.11,0,.16.16a11.84,11.84,0,0,1,.42,1.76c.26,1.28.57,2.81,1,3.23.87.79.72,1.69.9,2.22s.94,1.13.41,1.35C338.41,209.74,338.11,209.37,337.8,208.88Zm5.2-10.5c-.49.23.68.94.11,1.05s-1.84-.53-2.75-.15c-.61.25-.48-1.27,0-2.6.31-.89.78-1.69,1.29-1.84a4.72,4.72,0,0,1,2.26.06c.66.17,1.16.42,1.12.62-.08.41-1.2.23-1.2,1.09,0,.06,0,.11,0,.17A1.8,1.8,0,0,1,343,198.38Zm-2.34,43.87v0ZM386.72,111.1c.55-.8,1.3-.14,1.56.05s.1-.85.7-.8-.05,1,.4,1,1.16,1.25.9,2.23a1.27,1.27,0,0,1-.5.73c-1.26.9-2.46.75-2.06-.35s.45-2.41-.2-2.41-.2,2.31-.7,2.46-.62-1.68-.24-2.62A1.46,1.46,0,0,1,386.72,111.1ZM391.6,110c-.2.28-2.19-.24-2.35-.64S392,109.44,391.6,110ZM340.89,96.64h0Zm37.51,32.43c-.26.4-2.21.75-3.66.8s-1.55-1.86-3.11-1.86a2.17,2.17,0,0,1-2.05-2,1.42,1.42,0,0,1,.3-1c.85-1.05,1.5-2.71,1-3.61a21.06,21.06,0,0,0-1.52-2c-1-1.17-2-2.46-1.95-3,.05-.85.4-1.41-.65-2.31s.1-1.51.86-2.46,2.1-1.22,3-1.83h0a2.82,2.82,0,0,0,.3-.22,4.47,4.47,0,0,1,3.56-1.15c1.15.3,2.11-.2,2.61.5s0,2,.2,2.51-.9.55-1.66.45-2.31.3-2.11.75.75,1.51-.25,1-1.4.55-.85.55,1.3.65,1.3,1.1,0,1.45.55,1.3.5.75,1.2.7,1.35.2.8.85.35,2.46.55,2.06,0-.8.21-1.15.34-.34.79-.31c1.2.1.65,1.5,1.3,1.56s1.41,1.05.8,1-1.1.55-1.71.35-1.36-.7-1.56,0-.45,1.45.35,1.4.65.5.1,1.05.85-.1,1,.4.55.55.35,1.35a10.53,10.53,0,0,0,0,2.27A2.2,2.2,0,0,1,378.39,129.07Z"/><path class="cls-1" d="M476.26,35.77c-.2.4-1.29.43-1,.8.5.65,3,.3,3.06-.5S476.46,35.37,476.26,35.77Z"/><path class="cls-1" d="M442.83,11.18c.2-.75-3.13-.43-2.26.3C440.88,11.74,442.63,11.94,442.83,11.18Z"/><path class="cls-1" d="M590.53,47.57c1,.5,1.61-.6,2.41,0s2.76-.25,3.56-.4.4-1.15-1.86-1.45S589.45,47,590.53,47.57Z"/><path class="cls-1" d="M538.64,34.92c2.31.15,4-.3,4.07-.8s-2.11-1.25-2.76-.85-1.15-.65-2-.4-1.91.2-2.31-.5-1.76,1.1-1.15,1.15C535.73,33.62,536.33,34.77,538.64,34.92Z"/><path class="cls-1" d="M569.6,234.63c.6-.4-5-4-4.92-3.41S569,235,569.6,234.63Z"/><path class="cls-1" d="M154,151.44c-.35-.59-.62-.19-.62.49s.56.75.58,1.14.57.9.68.68c.19-.39-.41-.75-.46-1S154.34,152,154,151.44Z"/><path class="cls-1" d="M181.74,178.05c.2.19.94,0,1.29-.16s.3-.65-.09-1-1.62.17-1.25.35S181.52,177.84,181.74,178.05Z"/><path class="cls-1" d="M503.11,193.26c0-.35-.35-1.76-1.16-.65s.26,3.83.9,3.71-.45-1.46.65-1.35.6-.55.6-1.26S503.11,193.61,503.11,193.26Z"/><path class="cls-1" d="M495.33,213.28c.65.35,1.59-.57,2.13-1.22l.23-.29a.83.83,0,0,1,.17-.15l.17-.11c1-.58,3.45-1.3,3.58-1.64s-1.51.1-2.51.05c-.68,0-.95.52-1.45.92l-.15.1a1.6,1.6,0,0,1-.55.23l-.23,0h0a1.81,1.81,0,0,0-.55.13C495.17,211.76,494.65,212.92,495.33,213.28Z"/><path class="cls-1" d="M499.39,201.24c.2.8,1.66,1.25,2.06.55S499.16,200.31,499.39,201.24Z"/><path class="cls-1" d="M494.88,210.22c.9-.05,1.91-.3.55-.5s-2.26.8-3.61.3-3.38,0-3.16.45,1.4.45,2.76.5S494,210.27,494.88,210.22Z"/><path class="cls-1" d="M502.86,201.14c.2.6,1.25.35,2.31.35s1.61.75,2.16.75.15-1.31-1.15-1.71S502.64,200.48,502.86,201.14Z"/><path class="cls-1" d="M484.79,209.62c-.2.45-1.05.55-1.55.2s-1.12.48-.8.9a2.16,2.16,0,0,0,2.46.4c1.26-.6,2.11-.05,2.41-.7S485,209.17,484.79,209.62Z"/><path class="cls-1" d="M487,200c-.9,1.45.3,1.66,1.05,1.71s.65,1.15.5,1.81-.46,2.2.2,2,1.3-1.3.85-1.66-.4-2.56-.2-3.11,1.56-.15,1.1.7.85.75.85,1.71.75.45,1.56.2.65-.7.1-1.31.4-1.45-.35-2-1.26-1.25-.55-1.4,2.81-1.36,2.56-1.86-3.21.1-3.46,1-2.36-.1-2.11-1.66,4.42-1.81,5.62-1.25,2.51-.9,3-1.76-1,.15-1.81.7-3.11-.05-4.26-.45-1.1.7-2.06.85-.75,2.26-1.2,2.51S488,198.53,487,200Z"/><path class="cls-1" d="M450.21,193.11c-.1.5.45,2,1.05,1.36S450.31,192.62,450.21,193.11Z"/><path class="cls-1" d="M465.17,203a10.37,10.37,0,0,1,.25-1.76c0-.35.25-.5.7-.4s.4-1,.05-1.05-.55-1.35-1.41-1.35-.7.7-.2.75.8.45.65.8-.35-.35-1.05-.3-.25-.85-1.05-.9-.65-1.51-1.51-1.51-.9-.7-.35-1.2-.85-1-.85-1.56-.9-.25-.9-.75-.4-.25-.85-.85-.65-.05-1.05-.5-1-.7-1.3-.55-1.16-.65-1.46-1.46c-.24-.64-2.56-1.71-2.86-2.56s-1.1-1.21-2.46-1.15-1.89-1.33-2.21-.65c-.4.85,1.46,2.76,2.31,3.26s1.3,2.31,2.31,2.41,1.1,3.26,1.86,3.41,2.36,2.61,2.61,3.91,1.91,2,2.46,2.91,2.76,2.26,3.06,2.66.6,1.31.85.85,1.3,0,1.81.05S465.22,203.7,465.17,203Z"/><path class="cls-1" d="M479.42,210.17c.35-.5,1,.8,2,.05s-1.66-.45-1.71-1.05-2-.05-3-.45,1.05-.75,1.71-1.16-.4-.55-2,0-3.46-1.11-3.51-.4-2.91-.3-3.61-.8-3.41-1.16-4-.2-1,.1-.8,1c.15.6.8.25,1.25.25s.25.85.9,1,2.81.7,3,.25,2.21,0,3.21.8,3.31.85,4.22.7S479.07,210.67,479.42,210.17Z"/><path class="cls-1" d="M452.67,197.42c-.1.25.45,1.25.8,1S453,196.63,452.67,197.42Z"/><path class="cls-1" d="M470,194.46c.75.7.55,1.81.9,2.36s1.46.65,1.46,1.71,1,2.71,1.61,2.26,1.15.2,1.35.65,1.76-.35,2.26-.25,2.06.4,2.16,1,1.51-.05,2.46-.4.4-3.21,1.31-3.76a2.58,2.58,0,0,0,1-2.61c-.1-1,2.21-1.05,2.56-1.45s-.5-1.05-1.15-1.36-.1-1-.55-1.35-1.2-1.46-.55-1.51-.45-1,.1-1.25l.25-.13c.59-.29,1.45-.68,1.05-1s1.36-.05,1.56-.65-.7-1.11-1.15-1-1.51,0-1.51-.4-1-1.3-1.56-1.3-1.31,1.2-1.36,1.71-1,.45-.9,1.15c0,.28-.14.4-.37.47s-.84.11-.84.39c0,.44-.76-.16-1.17-.19h0c-.4,0-1.3,1.41-1.51,2.36s-1.1.65-2.46.75-.8,1.51-1.1,2.16-1.76-.48-2.52-.64a.71.71,0,0,0-.19,0C470.49,192.15,469.41,193.88,470,194.46Z"/><path class="cls-1" d="M488.81,212.83c.35.3,1.61,1,1.61.1s-3.45-1.36-3.11-.85S488.45,212.53,488.81,212.83Z"/><path class="cls-1" d="M469.08,200.48c0-.45-1.3-.23-.9.4S469.08,200.94,469.08,200.48Z"/><path class="cls-1" d="M312.4,126.54c-1,.23-1.45.3-2.06,0s-1.58.27-1.43.68.5.63,1.76,1,1.41,1.18,1.93,1.2.58-.48.45-1.16.63-1.45.7-1.58S313.43,126.31,312.4,126.54Z"/><path class="cls-1" d="M301.46,121.14c-.28.48.85,1.2.63,2.18s.13,2.21.7,1.63.85-.3,1.18-.73.05-2,.28-2.76-1-1.1-1.56-.63S301.68,120.76,301.46,121.14Z"/><path class="cls-2" d="M423.88,161.49c0,3-3.53,10.5-5.5,10.5s-5.5-7.46-5.5-10.5a5.5,5.5,0,0,1,11,0Z"/><circle class="cls-3" cx="418.38" cy="161.49" r="2.5"/><circle class="cls-4" cx="292.8" cy="100.52" r="6"/><circle class="cls-5" cx="292.8" cy="100.52" r="3"/><circle class="cls-4" cx="285.1" cy="105.44" r="6"/><circle class="cls-5" cx="285.1" cy="105.44" r="3"/><circle class="cls-4" cx="165.71" cy="108.71" r="6"/><circle class="cls-5" cx="165.71" cy="108.71" r="3"/><circle class="cls-4" cx="418.38" cy="171.99" r="6"/><circle class="cls-5" cx="418.38" cy="171.99" r="3"/><path class="cls-2" d="M298,90.21c0,3-3.53,10.5-5.5,10.5s-5.5-7.46-5.5-10.5a5.5,5.5,0,1,1,11,0Z"/><circle class="cls-3" cx="292.49" cy="90.21" r="2.5"/><path class="cls-2" d="M290.6,94.94c0,3-3.53,10.5-5.5,10.5s-5.5-7.46-5.5-10.5a5.5,5.5,0,1,1,11,0Z"/><circle class="cls-3" cx="285.1" cy="94.94" r="2.5"/><circle class="cls-4" cx="279.6" cy="105.52" r="6"/><circle class="cls-5" cx="279.6" cy="105.52" r="3"/><path class="cls-2" d="M285.1,95c0,3-3.53,10.5-5.5,10.5s-5.5-7.46-5.5-10.5a5.5,5.5,0,0,1,11,0Z"/><circle class="cls-3" cx="279.6" cy="95.02" r="2.5"/><path class="cls-2" d="M171.21,98.21c0,3-3.53,10.5-5.5,10.5s-5.5-7.46-5.5-10.5a5.5,5.5,0,0,1,11,0Z"/><circle class="cls-3" cx="165.71" cy="98.21" r="2.5"/></g></g></svg>