<?xml version="1.0" encoding="utf-8"?>
<!-- Generator: Adobe Illustrator 18.1.0, SVG Export Plug-In . SVG Version: 6.00 Build 0)  -->
<!DOCTYPE svg PUBLIC "-//W3C//DTD SVG 1.1//EN" "http://www.w3.org/Graphics/SVG/1.1/DTD/svg11.dtd">
<svg version="1.1" id="Calque_1" xmlns="http://www.w3.org/2000/svg" xmlns:xlink="http://www.w3.org/1999/xlink" x="0px" y="0px"
	 viewBox="0 0 444.8 283.5" enable-background="new 0 0 444.8 283.5" xml:space="preserve">
<g>
	<g>
		<path fill="#153F6C" d="M271.6,89.2l-11.8,20.5h-12.4l-14.6,25.3h12.4l-9.4,16.3h30.4c7.8-9.5,12.4-21.6,12.4-34.9
			C278.8,106.4,276.2,97.2,271.6,89.2z"/>
		<path fill="#153F6C" d="M211.4,151.2L211.4,151.2L211.4,151.2L211.4,151.2l37.8-65.7h-32l-21.8,37.9l-19.7-34.3
			c-4.6,8-7.2,17.3-7.2,27.2c0,13.2,4.7,25.4,12.4,34.9L211.4,151.2L211.4,151.2z"/>
	</g>
	<g>
		<path fill="#153F6C" d="M119.1,195.7c0-13.2,6.6-19.6,17.4-19.6s17.4,6.4,17.4,19.6c0,13.1-6.6,19.6-17.4,19.6
			S119.1,208.8,119.1,195.7z M123,195.7c0,10.9,5,16.1,13.5,16.1s13.5-5.2,13.5-16.1c0-11-5-16.1-13.5-16.1S123,184.8,123,195.7z"/>
		<path fill="#153F6C" d="M183.8,177.7c0.2-0.4,0.7-1.2,1.8-1.2s1.9,0.8,1.9,1.9c0,0.3-0.1,0.7-0.2,0.8l-13.1,34.5
			c-0.3,0.8-1.1,1.3-1.8,1.3s-1.5-0.5-1.8-1.3l-13.1-34.5c-0.1-0.2-0.2-0.5-0.2-0.8c0-1.1,0.8-1.9,1.9-1.9s1.6,0.8,1.8,1.2
			l11.3,30.1L183.8,177.7z"/>
		<path fill="#153F6C" d="M196.8,196.9V213c0,1-0.8,1.9-1.9,1.9S193,214,193,213v-34.7c0-1,0.8-1.9,1.9-1.9s1.9,0.9,1.9,1.9v15.1
			h19.4v-15.1c0-1,0.8-1.9,1.9-1.9s1.9,0.9,1.9,1.9V213c0,1-0.8,1.9-1.9,1.9s-1.9-0.9-1.9-1.9v-16.1H196.8z"/>
		<path fill="#878787" d="M226.4,212.3c0-1.8,1-2.7,2.6-2.7c1.6,0,2.6,0.8,2.6,2.7c0,1.8-1,2.6-2.6,2.6
			C227.4,214.9,226.4,214.2,226.4,212.3z"/>
		<path fill="#878787" d="M247,188.3c5,0,7.7,2.6,8.6,3.9c0.3,0.4,0.4,0.7,0.4,1.1c0,1-0.7,1.6-1.6,1.6c-0.6,0-1-0.2-1.3-0.7
			c-0.8-1-2.3-2.6-6-2.6c-5.1,0-7.9,3.3-7.9,10.2c0,7,2.7,10.2,7.9,10.2c3.2,0,5.2-1.5,6.5-2.4c0.4-0.3,0.7-0.4,1.1-0.4
			c0.9,0,1.6,0.7,1.6,1.6c0,0.5-0.2,0.9-0.7,1.4c-1.2,1-3.9,3-8.4,3c-7.2,0-11.5-4.3-11.5-13.5S239.8,188.3,247,188.3z"/>
		<path fill="#878787" d="M283.6,201.7c0,9.2-4.5,13.5-11.7,13.5c-7.2,0-11.7-4.3-11.7-13.5s4.5-13.4,11.7-13.4
			C279.1,188.3,283.6,192.6,283.6,201.7z M279.9,201.7c0-7-3-10.2-8.1-10.2c-5.1,0-8.1,3.1-8.1,10.2c0,7.2,3,10.2,8.1,10.2
			C277,212,279.9,208.9,279.9,201.7z"/>
		<path fill="#878787" d="M327.6,198.2v14.9c0,1-0.8,1.8-1.8,1.8s-1.8-0.8-1.8-1.8V199c0-4.4-1.6-7.4-7-7.4c-4.8,0-7,2.6-7,6.7v14.9
			c0,1-0.8,1.8-1.8,1.8s-1.8-0.8-1.8-1.8V199c0-4.4-1.4-7.4-6.9-7.4c-5.2,0-6.9,3.1-6.9,7.8v13.8c0,1-0.8,1.8-1.8,1.8
			s-1.8-0.8-1.8-1.8v-22.7c0-1,0.8-1.8,1.8-1.8s1.8,0.8,1.8,1.8v1.8c1-2.1,3.6-3.9,7.3-3.9c4.6,0,7.5,1.7,8.9,3.9
			c1.4-2.2,3.9-3.9,8.2-3.9C325.6,188.3,327.6,193.5,327.6,198.2z"/>
	</g>
</g>
</svg>
