<svg xmlns="http://www.w3.org/2000/svg" xmlns:xlink="http://www.w3.org/1999/xlink" viewBox="0 0 48 48"><defs><style>.cls-1,.cls-5,.cls-6{fill:none;}.cls-2{clip-path:url(#clip-path);}.cls-3{opacity:0.15;}.cls-4{fill:#59d2ef;}.cls-5,.cls-6{stroke:#fff;stroke-linecap:round;}.cls-5{stroke-miterlimit:10;}.cls-6{stroke-linejoin:round;}</style><clipPath id="clip-path"><rect class="cls-1" width="48" height="48"/></clipPath></defs><title>person_48px-bkg-dark</title><g id="Calque_2" data-name="Calque 2"><g id="Phone_320px"><g id="person_48px-bkg-dark"><g class="cls-2"><g class="cls-2"><g class="cls-2"><g class="cls-3"><g class="cls-2"><path class="cls-4" d="M48,24A24,24,0,1,1,24,0,24,24,0,0,1,48,24"/></g></g><path class="cls-5" d="M26.5,18h-6a1,1,0,0,0-1,1v3.5a4.5,4.5,0,0,0,9,0V18"/><path class="cls-6" d="M28.5,19.5a1,1,0,0,0,1-1v-4a2,2,0,0,0-2-2h-5a1,1,0,0,0-1,1h-1a2,2,0,0,0-2,2v3a1,1,0,0,0,1,1"/><path class="cls-5" d="M28.5,29.5a2,2,0,0,1-2-2v-1"/><path class="cls-5" d="M19.5,29.5a2,2,0,0,0,2-2v-1"/><path class="cls-5" d="M19.5,29.5h-1a5,5,0,0,0-5,5v1"/><path class="cls-5" d="M28.5,29.5h1a5,5,0,0,1,5,5v1"/><path class="cls-5" d="M28.5,29.5a4.27,4.27,0,0,1-4.5,4,4.27,4.27,0,0,1-4.5-4"/></g></g></g></g></g></g></svg>