<svg xmlns="http://www.w3.org/2000/svg" xmlns:xlink="http://www.w3.org/1999/xlink" viewBox="0 0 120 120"><defs><style>.cls-1,.cls-4{fill:none;}.cls-2{clip-path:url(#clip-path);}.cls-3{fill:#122844;}.cls-4{stroke:#122844;stroke-linecap:round;stroke-linejoin:round;}</style><clipPath id="clip-path" transform="translate(0 0)"><rect class="cls-1" width="120" height="120"/></clipPath></defs><title>script_120px-bkg-light</title><g id="Calque_2" data-name="Calque 2"><g id="Calque_1-2" data-name="Calque 1"><g id="script_120px-bkg-light"><g class="cls-2"><g class="cls-2"><path class="cls-3" d="M60,3A57,57,0,1,1,3,60,57.06,57.06,0,0,1,60,3m0-3a60,60,0,1,0,60,60A60,60,0,0,0,60,0" transform="translate(0 0)"/><path class="cls-4" d="M83.5,91.5h-47a3,3,0,0,1-3-3v-57a3,3,0,0,1,3-3h38l12,12v48A3,3,0,0,1,83.5,91.5Z" transform="translate(0 0)"/><path class="cls-4" d="M74.5,28.5v9a3,3,0,0,0,3,3h9" transform="translate(0 0)"/><polyline class="cls-4" points="54.51 53.5 47.49 60.5 54.51 67.5"/><polyline class="cls-4" points="65.49 53.5 72.51 60.5 65.49 67.5"/></g></g></g></g></g></svg>