<svg xmlns="http://www.w3.org/2000/svg" xmlns:xlink="http://www.w3.org/1999/xlink" viewBox="0 0 288.96 276.85"><defs><style>.cls-1{fill:none;}.cls-2{clip-path:url(#clip-path);}.cls-3{fill:#217398;stroke:#217398;}.cls-10,.cls-11,.cls-12,.cls-13,.cls-14,.cls-15,.cls-16,.cls-17,.cls-18,.cls-19,.cls-20,.cls-21,.cls-22,.cls-23,.cls-24,.cls-25,.cls-26,.cls-27,.cls-28,.cls-29,.cls-3,.cls-30,.cls-31,.cls-32,.cls-33,.cls-34,.cls-35,.cls-36,.cls-37,.cls-38,.cls-39,.cls-4,.cls-5,.cls-6,.cls-7,.cls-8,.cls-9{stroke-width:0.1px;}.cls-4,.cls-49{fill:#1ca0bf;}.cls-4{stroke:#1ca0bf;}.cls-5{fill:#218db0;stroke:#218db0;}.cls-42,.cls-6{fill:#17a8c5;}.cls-6{stroke:#17a8c5;}.cls-7{fill:#247aa1;stroke:#247aa1;}.cls-48,.cls-8{fill:#1b93b2;}.cls-8{stroke:#1b93b2;}.cls-9{fill:#1d7ea2;stroke:#1d7ea2;}.cls-10{fill:#196a92;stroke:#196a92;}.cls-11{fill:#18769c;stroke:#18769c;}.cls-12{fill:#019fbc;stroke:#019fbc;}.cls-13{fill:#196c90;stroke:#196c90;}.cls-14{fill:#158cad;stroke:#158cad;}.cls-15{fill:#1691b1;stroke:#1691b1;}.cls-16{fill:#16a0be;stroke:#16a0be;}.cls-17{fill:#157fa2;stroke:#157fa2;}.cls-18{fill:#18668d;stroke:#18668d;}.cls-19{fill:#17769b;stroke:#17769b;}.cls-20{fill:#195d84;stroke:#195d84;}.cls-21{fill:#175d85;stroke:#175d85;}.cls-22{fill:#158bad;stroke:#158bad;}.cls-23{fill:#1780a5;stroke:#1780a5;}.cls-24{fill:#2298b8;stroke:#2298b8;}.cls-25{fill:#167a9f;stroke:#167a9f;}.cls-26{fill:#16547c;stroke:#16547c;}.cls-27{fill:#1b90b2;stroke:#1b90b2;}.cls-28{fill:#18658d;stroke:#18658d;}.cls-29{fill:#186890;stroke:#186890;}.cls-30,.cls-46{fill:#208aad;}.cls-30{stroke:#208aad;}.cls-31{fill:#195f89;stroke:#195f89;}.cls-32{fill:#1d80a4;stroke:#1d80a4;}.cls-33{fill:#14527d;stroke:#14527d;}.cls-34{fill:#176890;stroke:#176890;}.cls-35{fill:#17799d;stroke:#17799d;}.cls-36{fill:#14799e;stroke:#14799e;}.cls-37{fill:#124774;stroke:#124774;}.cls-38{fill:#175f88;stroke:#175f88;}.cls-39{fill:#15537e;stroke:#15537e;}.cls-40{fill:#fff;}.cls-41{fill:#1880a5;}.cls-43{fill:#143f6a;}.cls-44{fill:#16557f;}.cls-45{fill:#165b83;}.cls-47{fill:#18668e;}</style><clipPath id="clip-path"><polygon class="cls-1" points="119.16 246.52 68.72 217.4 39.6 166.96 39.6 108.71 68.72 58.27 119.16 29.15 177.41 29.15 227.85 58.27 256.97 108.71 256.97 166.96 227.85 217.4 177.41 246.52 119.16 246.52"/></clipPath></defs><title>uxTeamLogo</title><g id="Calque_2" data-name="Calque 2"><g id="Calque_1-2" data-name="Calque 1"><g class="cls-2"><path class="cls-3" d="M20.47,220l56-40.88L3.31,153.89Z"/><path class="cls-4" d="M110.29,91.79,100.92,9.95,68.72,58.27Z"/><path class="cls-5" d="M96.83,123.94,68.72,58.27,34.34,117.18Z"/><path class="cls-6" d="M110.29,91.79l28.85-62.64L100.92,9.95Z"/><path class="cls-7" d="M76.43,179.09l-42.09-61.9-31,36.7Z"/><path class="cls-8" d="M96.83,123.94l13.46-32.15L68.72,58.27Z"/><path class="cls-9" d="M76.43,179.09l20.4-55.15-62.49-6.76Z"/><path class="cls-10" d="M109.45,200.23l20.79-19.46-53.81-1.68Z"/><path class="cls-11" d="M76.43,179.09l53.81,1.68L96.83,123.94Z"/><path class="cls-12" d="M186.28,76.2,139.14,29.15,110.29,91.79Z"/><path class="cls-13" d="M60.42,254l16-74.86L20.47,220Z"/><path class="cls-14" d="M96.83,123.94l49.05-1-35.6-31.18Z"/><path class="cls-15" d="M145.89,123l40.4-46.76-76,15.58Z"/><path class="cls-16" d="M186.28,76.2,178,29.15h-38.9Z"/><path class="cls-17" d="M130.24,180.77,145.89,123l-49.05,1Z"/><path class="cls-18" d="M60.42,254l49-53.73-33-21.14Z"/><path class="cls-19" d="M130.24,180.77l28.08-14.56L145.89,123Z"/><path class="cls-20" d="M104.71,276.77l4.74-76.54L60.42,254Z"/><path class="cls-21" d="M104.71,276.77l30.71-62.7-26-13.85Z"/><path class="cls-22" d="M208.38,108.53,186.28,76.2,145.89,123Z"/><path class="cls-23" d="M198.75,137l9.63-28.47L145.89,123Z"/><path class="cls-24" d="M186.28,76.2l41.57-17.93L178,29.15Z"/><path class="cls-25" d="M158.32,166.21,198.75,137l-52.86-14Z"/><path class="cls-26" d="M169.8,265l-34.38-50.95-30.71,62.7Z"/><path class="cls-27" d="M208.38,108.53l19.47-50.26L186.28,76.2Z"/><path class="cls-28" d="M135.42,214.07l-5.18-33.31-20.79,19.46Z"/><path class="cls-29" d="M135.42,214.07l22.9-47.86-28.08,14.56Z"/><path class="cls-30" d="M208.38,108.53l78.73-33.91L227.85,58.27Z"/><path class="cls-31" d="M135.42,214.07l64-19.66-41.14-28.2Z"/><path class="cls-10" d="M199.46,194.41,198.75,137l-40.43,29.21Z"/><path class="cls-32" d="M284.62,115.3l2.48-40.68-78.73,33.91Z"/><path class="cls-33" d="M169.8,265l29.66-70.61-64,19.66Z"/><path class="cls-34" d="M199.46,194.41,257,167l-58.22-30Z"/><path class="cls-35" d="M198.75,137,257,167l-48.6-58.42Z"/><path class="cls-36" d="M257,167l27.65-51.66-76.25-6.77Z"/><path class="cls-37" d="M219,271.12l36.59-32.21-56.09-44.5Z"/><path class="cls-37" d="M219,271.12l-19.5-76.71L169.8,265Z"/><path class="cls-38" d="M288.77,178.41,257,167l-57.52,27.46Z"/><path class="cls-39" d="M255.55,238.91l33.22-60.5-89.31,16Z"/></g><path class="cls-40" d="M92.05,135.36V94.13h11.84v42.14c0,10.92,4.39,15.51,11.53,15.51s11.84-4.59,11.84-15.51V94.13h11.33v41.22c0,18.26-8.47,26.73-23.16,26.73S92.05,153.62,92.05,135.36Z"/><path class="cls-40" d="M167.15,126.48,148.78,94.13h13.16l7.86,14.8c1.63,3.06,3.16,6.22,5.2,10.2h.41c1.73-4,3.16-7.14,4.69-10.2l7.55-14.8h12.55L181.84,127l19.59,33.88H188.37l-8.67-15.71c-1.84-3.47-3.57-6.84-5.61-10.92h-.41c-1.84,4.08-3.47,7.45-5.2,10.92l-8.37,15.71H147.56Z"/><path class="cls-41" d="M230.48,41.46,263.68,73,283.46,44.7Z"/><path class="cls-42" d="M251.58,77.49l11.29,18.86,6.05-12.8Z"/><path class="cls-42" d="M195.62,31.21,223,16.2,186.77,0Z"/><path class="cls-43" d="M276.79,179.09,241,202.21l23.49,21.61Z"/><path class="cls-44" d="M255.55,222.55l-12.81-4.92.68,18.06Z"/><path class="cls-45" d="M199.46,242.72,216.27,257l-.62-15.63Z"/><path class="cls-46" d="M196.26,244.35l-1.49,9.6,9.39-1.28Z"/><path class="cls-47" d="M0,176.29l38.88,29.19L35.11,177.1Z"/><path class="cls-48" d="M13.64,167l11.59,3-3.67-12.42Z"/><path class="cls-44" d="M48.41,206.61l-9.54,12.23,11.09,1Z"/><path class="cls-49" d="M54.21,31.34,61.89,46l4.74-16.56Z"/><path class="cls-40" d="M142.91,180.87h-5.68V178.8H151v2.08h-5.58v17.37h-2.46Z"/><path class="cls-40" d="M158.12,183.48c3.68,0,5.75,2.64,5.75,6.76a8.54,8.54,0,0,1-.09,1.33h-9.72c.18,3.11,2,5.07,4.8,5.07a6.51,6.51,0,0,0,3.59-1.13l.86,1.6a8.58,8.58,0,0,1-4.74,1.48c-3.85,0-6.91-2.82-6.91-7.53S154.83,183.48,158.12,183.48Zm3.62,6.49c0-2.93-1.3-4.56-3.56-4.56-2,0-3.85,1.66-4.15,4.56Z"/><path class="cls-40" d="M175.11,189.11c0-1.84-.62-3.62-3-3.62a7.75,7.75,0,0,0-4.3,1.54l-1-1.69a10.69,10.69,0,0,1,5.66-1.87c3.53,0,5,2.34,5,5.93v8.83h-2l-.21-1.72h-.06a7.83,7.83,0,0,1-4.77,2.08,3.93,3.93,0,0,1-4.24-4.09C166.24,191.36,169,189.79,175.11,189.11Zm-3.94,7.53c1.39,0,2.55-.68,3.94-1.93v-4c-4.83.59-6.46,1.78-6.46,3.62A2.21,2.21,0,0,0,171.16,196.64Z"/><path class="cls-40" d="M181.54,183.84h2l.21,2.07h.09a6.33,6.33,0,0,1,4.48-2.43,3.78,3.78,0,0,1,4,2.76c1.51-1.63,3-2.76,4.74-2.76,3,0,4.39,2,4.39,5.63v9.13H199v-8.8c0-2.7-.86-3.85-2.67-3.85-1.13,0-2.28.74-3.62,2.22v10.43h-2.43v-8.8c0-2.7-.86-3.85-2.7-3.85-1.07,0-2.28.74-3.62,2.22v10.43h-2.43Z"/></g></g></svg>