<svg xmlns="http://www.w3.org/2000/svg" xmlns:xlink="http://www.w3.org/1999/xlink" viewBox="0 0 32 28.07"><defs><style>.cls-1,.cls-3{fill:none;}.cls-2{clip-path:url(#clip-path);}.cls-3{stroke:#fff;stroke-linecap:round;stroke-linejoin:round;}</style><clipPath id="clip-path" transform="translate(0 0)"><rect class="cls-1" width="32" height="28.07"/></clipPath></defs><title>hands_32px-bkg-dark</title><g id="Calque_2" data-name="Calque 2"><g id="desktop"><g id="hands_32px-bkg-dark"><g class="cls-2"><g class="cls-2"><path class="cls-3" d="M16.05,4.87c-.38.15-1.64.75-2,1a20.65,20.65,0,0,1-2.43,1.25,1.73,1.73,0,0,1-2-.26c-1.05-.95-1.31-2.72.05-3.52a45.07,45.07,0,0,1,4.13-2.17c2.81-1,3.72-.56,5.86-.35a2.08,2.08,0,0,1,1.05.35" transform="translate(0 0)"/><path class="cls-3" d="M16,4.87a22.69,22.69,0,0,1,2.86,2.2" transform="translate(0 0)"/><path class="cls-3" d="M2.5,14.26C2.06,13.67,1.27,12.57.83,12c-.26-.33-.24-.48,0-.83,1.38-2,2.77-4,4.14-6L7.41,1.64c.38-.55.36-.44.86-.3,1.1.33,2.2.62,3.32.87" transform="translate(0 0)"/><path class="cls-3" d="M17.73,22.39s1.66,1.06,2.13,1.44.32,1.09.16,1.62a2.3,2.3,0,0,1-1.71,1.73,1.89,1.89,0,0,1-1.54-.31l-1.27-.75" transform="translate(0 0)"/><path class="cls-3" d="M27,18.22c.46.32.5.3,1.36.83a2.07,2.07,0,0,0,2.54-.58,2.41,2.41,0,0,0,.55-1.72,2.26,2.26,0,0,0-1.16-1.62l-2.2-1.55c-3-2.13-8-5.7-9.22-6.51" transform="translate(0 0)"/><path class="cls-3" d="M20.24,24.3a2.91,2.91,0,0,0,2.09.31A2.47,2.47,0,0,0,23.94,23a8.45,8.45,0,0,0,.2-1.28" transform="translate(0 0)"/><path class="cls-3" d="M18.93,17.87a58.57,58.57,0,0,0,5.52,3.87,4.18,4.18,0,0,0,1.36.15,2.43,2.43,0,0,0,1.76-1.73,1.63,1.63,0,0,0,0-.58A2.51,2.51,0,0,0,26.7,18c-.6-.45-3.31-2.26-3.91-2.73-.21-.17-.45-.3-.67-.45" transform="translate(0 0)"/><path class="cls-3" d="M28,13.51l1.12-3.21a1.6,1.6,0,0,0-.41-1.72c-1.22-1.15-3.6-3.39-4.9-4.58L20.67,1.12" transform="translate(0 0)"/><path class="cls-3" d="M1.5,19.52h0a2.05,2.05,0,0,1-.69-2.8l2.36-3.45A2,2,0,0,1,6,13a2.05,2.05,0,0,1,.69,2.8L4.36,19.22A2,2,0,0,1,1.5,19.52Z" transform="translate(0 0)"/><path class="cls-3" d="M4.89,22.25h0a2.05,2.05,0,0,1-.68-2.81L6.58,16a2.06,2.06,0,0,1,2.87-.29,2,2,0,0,1,.68,2.8L7.76,22A2,2,0,0,1,4.89,22.25Z" transform="translate(0 0)"/><path class="cls-3" d="M8.35,24.85h0A2,2,0,0,1,7.7,22l2.47-3.56A2,2,0,0,1,13,18.22,2,2,0,0,1,13.69,21l-2.47,3.56A2,2,0,0,1,8.35,24.85Z" transform="translate(0 0)"/><path class="cls-3" d="M12.09,27.14h0a2.06,2.06,0,0,1-.7-2.8l2.17-3.09a2.05,2.05,0,0,1,2.86-.31,2,2,0,0,1,.7,2.8L15,26.82A2.06,2.06,0,0,1,12.09,27.14Z" transform="translate(0 0)"/></g></g></g></g></g></svg>