<svg xmlns="http://www.w3.org/2000/svg" viewBox="0 0 22 24"><title>person_20px</title><g id="ec774927-178c-407e-ac8c-993aec468fd7" data-name="Calque 2"><g id="7d5fb56f-bc1f-4112-9068-783f815fafbc" data-name="phone"><path d="M13.5,6h-6a1,1,0,0,0-1,1v3.5h0a4.5,4.5,0,0,0,9,0h0V6" fill="none" stroke="#fff" stroke-linecap="round" stroke-linejoin="round"/><path d="M15.5,7.5a1,1,0,0,0,1-1v-1h0v-3a2,2,0,0,0-2-2h-5a1,1,0,0,0-1,1h-1a2,2,0,0,0-2,2v2h0v1a1,1,0,0,0,1,1" fill="none" stroke="#fff" stroke-linecap="round" stroke-linejoin="round"/><path d="M15.5,17.5a2,2,0,0,1-2-2v-1" fill="none" stroke="#fff" stroke-linecap="round" stroke-linejoin="round"/><path d="M6.5,17.5a2,2,0,0,0,2-2v-1" fill="none" stroke="#fff" stroke-linecap="round" stroke-linejoin="round"/><path d="M6.5,17.5h-1a5,5,0,0,0-5,5v1" fill="none" stroke="#fff" stroke-linecap="round" stroke-linejoin="round"/><path d="M15.5,17.5h1a5,5,0,0,1,5,5v1" fill="none" stroke="#fff" stroke-linecap="round" stroke-linejoin="round"/><path d="M15.5,17.5a4.27,4.27,0,0,1-4.5,4,4.27,4.27,0,0,1-4.5-4" fill="none" stroke="#fff" stroke-linecap="round" stroke-linejoin="round"/></g></g></svg>