<svg xmlns="http://www.w3.org/2000/svg" xmlns:xlink="http://www.w3.org/1999/xlink" viewBox="0 0 18 20"><defs><style>.cls-1,.cls-3,.cls-4{fill:none;}.cls-2{clip-path:url(#clip-path);}.cls-3,.cls-4{stroke:#fff;stroke-linecap:round;}.cls-3{stroke-linejoin:round;}.cls-4{stroke-miterlimit:10;}</style><clipPath id="clip-path" transform="translate(0 0)"><rect class="cls-1" width="18" height="20"/></clipPath></defs><title>person_20px-bkg-dark</title><g id="Calque_2" data-name="Calque 2"><g id="desktop"><g id="person_20px-bkg-dark"><g class="cls-2"><g class="cls-2"><path class="cls-3" d="M11.5,5.5h-6a1,1,0,0,0-1,1V10a4.5,4.5,0,0,0,9,0V5.5" transform="translate(0 0)"/><path class="cls-3" d="M13.5,6.5a1,1,0,0,0,1-1v-3a2,2,0,0,0-2-2h-5a1,1,0,0,0-1,1h-1a2,2,0,0,0-2,2v2a1,1,0,0,0,1,1" transform="translate(0 0)"/><path class="cls-3" d="M5.5,16.5h0a1,1,0,0,0,1-1V13.78" transform="translate(0 0)"/><path class="cls-3" d="M12.5,16.5h0a1,1,0,0,1-1-1V13.78" transform="translate(0 0)"/><path class="cls-4" d="M12.5,16.5a3.28,3.28,0,0,1-3.5,3,3.28,3.28,0,0,1-3.5-3" transform="translate(0 0)"/><path class="cls-4" d="M5.5,16.5h-2a3,3,0,0,0-3,3" transform="translate(0 0)"/><path class="cls-4" d="M12.5,16.5h2a3,3,0,0,1,3,3" transform="translate(0 0)"/></g></g></g></g></g></svg>