<svg xmlns="http://www.w3.org/2000/svg" xmlns:xlink="http://www.w3.org/1999/xlink" viewBox="0 0 30 30"><defs><style>.cls-1,.cls-3,.cls-4{fill:none;}.cls-2{clip-path:url(#clip-path);}.cls-3,.cls-4{stroke:#fff;stroke-linecap:round;stroke-linejoin:round;}.cls-4{stroke-dasharray:1.9 2.85;}</style><clipPath id="clip-path"><rect class="cls-1" width="30" height="30"/></clipPath></defs><title>puzzle_32px-bkg-dark</title><g id="Calque_2" data-name="Calque 2"><g id="desktop"><g id="puzzle_32px-bkg-dark"><g class="cls-2"><g class="cls-2"><path class="cls-3" d="M15.5,29.5H1.34a.85.85,0,0,1-.84-.84V15.5"/><line class="cls-3" x1="15.5" y1="0.5" x2="16.5" y2="0.5"/><path class="cls-4" d="M19.35.5h9.31a.85.85,0,0,1,.84.84V13.07"/><line class="cls-3" x1="29.5" y1="14.5" x2="29.5" y2="15.5"/><path class="cls-3" d="M15.5,15.5v6H17a2.5,2.5,0,1,1,0,3H15.5v5H28.66a.85.85,0,0,0,.84-.84V15.5h-5V14a2.5,2.5,0,1,0-3,0V15.5Z"/><path class="cls-3" d="M15.5,15.5v6H17a2.5,2.5,0,1,1,0,3H15.5v5H28.66a.85.85,0,0,0,.84-.84V15.5h-5V14a2.5,2.5,0,1,0-3,0V15.5Z"/><path class="cls-3" d="M15.5,15.5v-6H14a2.5,2.5,0,1,1,0-3H15.5V.5H1.34a.85.85,0,0,0-.84.84V15.5h6V17a2.5,2.5,0,1,0,3,0V15.5Z"/></g></g></g></g></g></svg>