<svg xmlns="http://www.w3.org/2000/svg" viewBox="0 0 30 30"><title>puzzle_32px</title><g id="7b29f75e-ad4a-4998-8221-e95fbc335068" data-name="Calque 2"><g id="672ac6a3-8ea1-457b-8ed6-934b14f1e1c0" data-name="phone"><path d="M15.5,29.5H1.34a.85.85,0,0,1-.84-.84V15.5" fill="none" stroke="#fff" stroke-linecap="round" stroke-linejoin="round"/><line x1="15.5" y1="0.5" x2="16.5" y2="0.5" fill="none" stroke="#fff" stroke-linecap="round" stroke-linejoin="round"/><path d="M19.35.5h9.31a.85.85,0,0,1,.84.84V13.07" fill="none" stroke="#fff" stroke-linecap="round" stroke-linejoin="round" stroke-dasharray="1.9 2.85"/><line x1="29.5" y1="14.5" x2="29.5" y2="15.5" fill="none" stroke="#fff" stroke-linecap="round" stroke-linejoin="round"/><path d="M15.5,15.5v6H17a2.5,2.5,0,1,1,0,3H15.5v5H28.66a.85.85,0,0,0,.84-.84V15.5h-5V14a2.5,2.5,0,1,0-3,0V15.5Z" fill="none" stroke="#fff" stroke-linecap="round" stroke-linejoin="round"/><path d="M15.5,15.5v-6H14a2.5,2.5,0,1,1,0-3H15.5V.5H1.34a.85.85,0,0,0-.84.84V15.5h6V17a2.5,2.5,0,1,0,3,0V15.5Z" fill="none" stroke="#fff" stroke-linecap="round" stroke-linejoin="round"/></g></g></svg>