<svg xmlns="http://www.w3.org/2000/svg" xmlns:xlink="http://www.w3.org/1999/xlink" viewBox="0 0 32 21"><defs><style>.cls-1,.cls-3{fill:none;}.cls-2{clip-path:url(#clip-path);}.cls-3{stroke:#fff;stroke-linecap:round;stroke-linejoin:round;}</style><clipPath id="clip-path" transform="translate(0 0)"><rect class="cls-1" width="32" height="21"/></clipPath></defs><title>speechBubble_32px-bkg-dark</title><g id="Calque_2" data-name="Calque 2"><g id="desktop"><g id="speechBubble_32px-bkg-dark"><g class="cls-2"><g class="cls-2"><path class="cls-3" d="M18.5,6.5H6.5a3,3,0,0,0-3,3v6a6.28,6.28,0,0,1-3,5h3a2.92,2.92,0,0,0,1.87-.66,1.8,1.8,0,0,1,2.26,0,2.92,2.92,0,0,0,1.87.66h9a3,3,0,0,0,3-3v-8A3,3,0,0,0,18.5,6.5Z" transform="translate(0 0)"/><path class="cls-3" d="M10.5,6.46v-3a3,3,0,0,1,3-3h12a3,3,0,0,1,3,3v6a6.28,6.28,0,0,0,3,5h-3a3,3,0,0,1-1.87-.66,1.8,1.8,0,0,0-2.26,0,3,3,0,0,1-1.87.66h-1" transform="translate(0 0)"/></g></g></g></g></g></svg>