<svg xmlns="http://www.w3.org/2000/svg" viewBox="0 0 32 21"><title>speechBubble_32px</title><g id="78124c99-99c7-402e-a4d8-a78cae395de9" data-name="Calque 2"><g id="752773b3-5bba-48dc-9da6-84e474a35244" data-name="phone"><path d="M18.5,6.5H6.5a3,3,0,0,0-3,3v6a6.28,6.28,0,0,1-3,5h3a3,3,0,0,0,1.87-.66,1.8,1.8,0,0,1,2.26,0,3,3,0,0,0,1.87.66h9a3,3,0,0,0,3-3v-8A3,3,0,0,0,18.5,6.5Z" fill="none" stroke="#fff" stroke-linecap="round" stroke-linejoin="round"/><path d="M10.5,6.46v-3a3,3,0,0,1,3-3h12a3,3,0,0,1,3,3v6a6.28,6.28,0,0,0,3,5h-3a3,3,0,0,1-1.87-.66,1.8,1.8,0,0,0-2.26,0,3,3,0,0,1-1.87.66h-1" fill="none" stroke="#fff" stroke-linecap="round" stroke-linejoin="round"/></g></g></svg>