<svg xmlns="http://www.w3.org/2000/svg" xmlns:xlink="http://www.w3.org/1999/xlink" viewBox="0 0 183.56 175.83"><defs><style>.cls-1{fill:none;}.cls-2{clip-path:url(#clip-path);}.cls-3{fill:#1f7297;stroke:#1f7297;}.cls-10,.cls-11,.cls-12,.cls-13,.cls-14,.cls-15,.cls-16,.cls-17,.cls-18,.cls-19,.cls-20,.cls-21,.cls-22,.cls-23,.cls-24,.cls-25,.cls-26,.cls-27,.cls-28,.cls-29,.cls-3,.cls-30,.cls-31,.cls-32,.cls-33,.cls-34,.cls-35,.cls-36,.cls-37,.cls-38,.cls-39,.cls-4,.cls-5,.cls-6,.cls-7,.cls-8,.cls-9{stroke-width:0.1px;}.cls-4,.cls-49{fill:#189ebe;}.cls-4{stroke:#189ebe;}.cls-5{fill:#1f8cae;stroke:#1f8cae;}.cls-42,.cls-6{fill:#13a7c4;}.cls-6{stroke:#13a7c4;}.cls-7{fill:#237a9f;stroke:#237a9f;}.cls-48,.cls-8{fill:#1891b1;}.cls-8{stroke:#1891b1;}.cls-9{fill:#1b7da1;stroke:#1b7da1;}.cls-10{fill:#176a90;stroke:#176a90;}.cls-11{fill:#16759a;stroke:#16759a;}.cls-12{fill:#009dbb;stroke:#009dbb;}.cls-13{fill:#176c8e;stroke:#176c8e;}.cls-14{fill:#128bac;stroke:#128bac;}.cls-15{fill:#128faf;stroke:#128faf;}.cls-16{fill:#129ebd;stroke:#129ebd;}.cls-17{fill:#127ea1;stroke:#127ea1;}.cls-18{fill:#16668c;stroke:#16668c;}.cls-19{fill:#15759a;stroke:#15759a;}.cls-20{fill:#175d82;stroke:#175d82;}.cls-21{fill:#155c83;stroke:#155c83;}.cls-22{fill:#1189ac;stroke:#1189ac;}.cls-23{fill:#1480a4;stroke:#1480a4;}.cls-24{fill:#1f97b7;stroke:#1f97b7;}.cls-25{fill:#137a9e;stroke:#137a9e;}.cls-26{fill:#15537c;stroke:#15537c;}.cls-27{fill:#188fb0;stroke:#188fb0;}.cls-28{fill:#16648b;stroke:#16648b;}.cls-29{fill:#16688f;stroke:#16688f;}.cls-30,.cls-46{fill:#1e88ac;}.cls-30{stroke:#1e88ac;}.cls-31{fill:#175f88;stroke:#175f88;}.cls-32{fill:#1a7fa3;stroke:#1a7fa3;}.cls-33{fill:#12517d;stroke:#12517d;}.cls-34{fill:#15688e;stroke:#15688e;}.cls-35{fill:#14799c;stroke:#14799c;}.cls-36{fill:#11799d;stroke:#11799d;}.cls-37{fill:#104673;stroke:#104673;}.cls-38{fill:#155e86;stroke:#155e86;}.cls-39{fill:#14527d;stroke:#14527d;}.cls-40{fill:#fff;}.cls-41{fill:#1580a3;}.cls-43{fill:#123f6a;}.cls-44{fill:#14547f;}.cls-45{fill:#145a82;}.cls-47{fill:#16668d;}</style><clipPath id="clip-path"><polygon class="cls-1" points="75.67 156.54 43.64 138.05 25.15 106.02 25.15 69.03 43.64 37 75.67 18.51 112.66 18.51 144.69 37 163.18 69.03 163.18 106.02 144.69 138.05 112.66 156.54 75.67 156.54"/></clipPath></defs><title>uxTeam_logo</title><g id="Calque_2" data-name="Calque 2"><g id="desktop"><g class="cls-2"><path class="cls-3" d="M13,139.68l35.53-26L2.1,97.72Z"/><path class="cls-4" d="M70,58.29l-6-52L43.64,37Z"/><path class="cls-5" d="M61.49,78.7,43.64,37,21.81,74.41Z"/><path class="cls-6" d="M70,58.29,88.35,18.51,64.08,6.32Z"/><path class="cls-7" d="M48.53,113.72,21.81,74.41,2.1,97.72Z"/><path class="cls-8" d="M61.49,78.7,70,58.29,43.64,37Z"/><path class="cls-9" d="M48.53,113.72l13-35L21.81,74.41Z"/><path class="cls-10" d="M69.5,127.14l13.2-12.35-34.17-1.07Z"/><path class="cls-11" d="M48.53,113.72l34.17,1.07L61.49,78.7Z"/><path class="cls-12" d="M118.29,48.39,88.35,18.51,70,58.29Z"/><path class="cls-13" d="M38.37,161.26l10.16-47.54L13,139.68Z"/><path class="cls-14" d="M61.49,78.7l31.15-.62L70,58.29Z"/><path class="cls-15" d="M92.64,78.08l25.65-29.69L70,58.29Z"/><path class="cls-16" d="M118.29,48.39l-5.24-29.88H88.35Z"/><path class="cls-17" d="M82.7,114.79l9.94-36.71-31.15.62Z"/><path class="cls-18" d="M38.37,161.26,69.5,127.14l-21-13.42Z"/><path class="cls-19" d="M82.7,114.79l17.83-9.25L92.64,78.08Z"/><path class="cls-20" d="M66.49,175.75l3-48.61L38.37,161.26Z"/><path class="cls-21" d="M66.49,175.75,86,135.94l-16.49-8.8Z"/><path class="cls-22" d="M132.32,68.92l-14-20.53L92.64,78.08Z"/><path class="cls-23" d="M126.21,87l6.11-18.07L92.64,78.08Z"/><path class="cls-24" d="M118.29,48.39,144.69,37,113.05,18.51Z"/><path class="cls-25" d="M100.53,105.54,126.21,87,92.64,78.08Z"/><path class="cls-26" d="M107.82,168.29,86,135.94l-19.5,39.81Z"/><path class="cls-27" d="M132.32,68.92,144.69,37l-26.4,11.39Z"/><path class="cls-28" d="M86,135.94,82.7,114.79,69.5,127.14Z"/><path class="cls-29" d="M86,135.94l14.54-30.4L82.7,114.79Z"/><path class="cls-30" d="M132.32,68.92l50-21.54L144.69,37Z"/><path class="cls-31" d="M86,135.94l40.67-12.49-26.13-17.91Z"/><path class="cls-10" d="M126.66,123.45,126.21,87l-25.68,18.55Z"/><path class="cls-32" d="M180.74,73.21l1.57-25.83-50,21.54Z"/><path class="cls-33" d="M107.82,168.29l18.84-44.84L86,135.94Z"/><path class="cls-34" d="M126.66,123.45,163.18,106l-37-19Z"/><path class="cls-35" d="M126.21,87l37,19-30.86-37.1Z"/><path class="cls-36" d="M163.18,106l17.56-32.81-48.42-4.29Z"/><path class="cls-37" d="M139,172.16l23.23-20.45-35.61-28.26Z"/><path class="cls-37" d="M139,172.16l-12.38-48.71-18.84,44.84Z"/><path class="cls-38" d="M183.37,113.29,163.18,106l-36.52,17.43Z"/><path class="cls-39" d="M162.27,151.71l21.1-38.42-56.71,10.16Z"/></g><path class="cls-40" d="M58.45,86V59.78H66V86.54c0,6.93,2.79,9.84,7.32,9.84s7.52-2.91,7.52-9.84V59.78H88V86c0,11.6-5.38,17-14.71,17S58.45,97.55,58.45,86Z"/><path class="cls-40" d="M106.14,80.32,94.48,59.78h8.35l5,9.39c1,1.94,2,4,3.31,6.48h.26c1.1-2.53,2-4.54,3-6.48l4.79-9.39h8L115.47,80.64l12.44,21.51h-8.29l-5.51-10c-1.17-2.2-2.27-4.34-3.57-6.93h-.25c-1.17,2.59-2.21,4.73-3.31,6.93l-5.31,10h-8Z"/><path class="cls-41" d="M146.36,26.33l21.07,20,12.57-18Z"/><path class="cls-42" d="M159.75,49.21l7.17,12,3.85-8.13Z"/><path class="cls-42" d="M124.22,19.82l17.36-9.53L118.6,0Z"/><path class="cls-43" d="M175.76,113.72,153,128.4l14.92,13.72Z"/><path class="cls-44" d="M162.27,141.32l-8.13-3.12.43,11.46Z"/><path class="cls-45" d="M126.66,154.13l10.67,9-.4-9.92Z"/><path class="cls-46" d="M124.62,155.16l-1,6.1,6-.81Z"/><path class="cls-47" d="M0,111.94l24.69,18.54-2.4-18Z"/><path class="cls-48" d="M8.66,106,16,108l-2.33-7.89Z"/><path class="cls-44" d="M30.74,131.2l-6,7.76,7,.62Z"/><path class="cls-49" d="M34.42,19.9l4.88,9.3,3-10.51Z"/><path class="cls-40" d="M90.75,114.85H87.14v-1.31h8.71v1.31H92.31v11H90.75Z"/><path class="cls-40" d="M100.41,116.51c2.33,0,3.65,1.67,3.65,4.29a5.21,5.21,0,0,1-.06.85H97.83c.11,2,1.3,3.22,3,3.22a4.13,4.13,0,0,0,2.27-.72l.55,1a5.43,5.43,0,0,1-3,.94c-2.45,0-4.39-1.79-4.39-4.78S98.32,116.51,100.41,116.51Zm2.29,4.12c0-1.86-.83-2.9-2.26-2.9-1.28,0-2.44,1.06-2.63,2.9Z"/><path class="cls-40" d="M111.19,120.09c0-1.17-.39-2.3-1.88-2.3a4.94,4.94,0,0,0-2.73,1L106,117.7a6.78,6.78,0,0,1,3.6-1.19c2.24,0,3.18,1.49,3.18,3.76v5.61h-1.28l-.14-1.09h0a5,5,0,0,1-3,1.32,2.5,2.5,0,0,1-2.7-2.6C105.56,121.52,107.3,120.52,111.19,120.09Zm-2.5,4.78a3.75,3.75,0,0,0,2.5-1.23V121.1c-3.07.38-4.1,1.13-4.1,2.3A1.41,1.41,0,0,0,108.69,124.87Z"/><path class="cls-40" d="M115.28,116.74h1.28l.13,1.31h.06a4,4,0,0,1,2.84-1.54,2.4,2.4,0,0,1,2.52,1.75,4.3,4.3,0,0,1,3-1.75c1.89,0,2.79,1.24,2.79,3.58v5.79h-1.54v-5.59c0-1.71-.55-2.44-1.7-2.44a3.38,3.38,0,0,0-2.3,1.41v6.62h-1.54v-5.59c0-1.71-.54-2.44-1.71-2.44a3.44,3.44,0,0,0-2.3,1.41v6.62h-1.54Z"/></g></g></svg>