<svg xmlns="http://www.w3.org/2000/svg" viewBox="0 0 359.61 424"><title>logo_grunt</title><g id="3c923b1b-a713-4a85-bc31-343acf01bca7" data-name="Calque 2"><g id="4a8ce2b5-c874-4b13-b678-ce5590f33899" data-name="phone"><g id="c4b414ba-6ce5-429f-a624-d97ab9a23c0a" data-name="Layer 1"><path d="M67.7,81.42s5.74,22.13,6.55,29.5-14.75,23.77-14.75,32,3.28,23,21.31,30.33,20.49,26.22,20.49,37.7-6.56,33.6-6.56,33.6-4.09,54.9,18,64.74,17.21,9.83,22.13,9.83,41,14.76,62.28,9,27-12.29,27-12.29,21.31,1.63,27.86-17.22,10.66-58.18,8.2-76.21-5.74-41.79,9-50,30.33-18,27.87-26.23-15.57-19.67-15.57-19.67-3.28-20.48-.82-25.4,17.21-17.21,9-26.23-22.94-9-22.94-9L248,67.49s-32-28.68-73.76-27-68,27.05-68,27.05-13.93-4.92-26.22,0S65.24,67.49,67.7,81.42Z" fill="#fba919"/><path d="M142.58,203.44s-16.23,24.81-28.13,42.42c-1.84,2.73,11.9,2.91,11.9,2.91Z" fill="#e78724"/><path d="M150.31,152s-4.89,12.2-7.57,18.67c-2.91,7-14,10.54-14,10.54s5.75-6,5.75-21.31c0-6.41,8.27-9,8.27-9Z" fill="#e78724"/><path d="M145.37,158.89s-10,11.93-28.64,5.25-20.52-30.55-20.52-37.23,35.32,6.68,40.09,9.55S150.14,150.77,145.37,158.89Z" fill="#e78724"/><path d="M75.07,31.4s17.18-3.34,28.63,5.72,14.79,16.23,14.79,16.23L99.19,68.66S89.86,64.33,87,51.92,86,33.79,75.07,31.4Z" fill="#e78724"/><path d="M140.36,124.43c-7.4-10.5-19.59-15.08-29.32-15.84-16.6-1.3-24.48,4.57-24.48,4.57s27.18,1.15,35,11.44c14.59,19.15,35.86,20.7,39.27,16.5-3.94.19-8.26-1.76-12.9-6.14C145.05,132.22,142.7,127.76,140.36,124.43Z" fill="#e78724"/><path d="M94.47,161.55s-30.15-10.36-24.42-20.86,1.17-16.22,1.17-16.22S54.38,137,58.67,150.4c2.63,8.2,7.06,14.14,31.35,25.52,11.65,21.65,2.41,60.6,3,60.79.92.3,16.36-7.63,15.31-44.08C108,181.44,107.07,166.16,94.47,161.55Z" fill="#e78724"/><path d="M134,50.07c-12.64,6.43-30,15.37-30,15.37l6.82,3.42c-.65,1-1,1.68-1,1.68l7,3.18S134,86.1,144.42,94.05c-3.49-10.74-13.73-27.63-13.73-27.63S127.79,58.67,134,50.07Z" fill="#e78724"/><path d="M176,311.93c-38.87,0-52-19.73-52-19.73L130,307c2.3,6.4,26.79,26.32,45.9,26.32" fill="#e78724"/><path d="M128.23,278.87s3.57,21.86,17.89,21.86c12.17,0,15.75-18.46,15.75-22.28Z" fill="#e78724"/><path d="M104.4,245.91a158.45,158.45,0,0,0,7.16-30.54c1.71-15.44,1.09-38,1.09-38s-3.82,14.8-7.17,17.19-9.54,18.61-9.54,18.61S92.62,237.32,91,245.44C95.41,246.31,99.1,243.73,104.4,245.91Z" fill="#e78724"/><path d="M69.82,150.16s8.11-2.86,10.5-20.52a79.66,79.66,0,0,0-2.86-32.93s.47,24.34-2.39,29.11-5.25,6.2-8.59,12.41S67.91,148.25,69.82,150.16Z" fill="#e78724"/><path d="M79.51,35.58l-1.66-1C73,34.69,79.51,35.58,79.51,35.58Z" fill="#fdc168"/><path d="M140.59,44.85s-7.63-1.28-11.45-7S114.5,20.66,97.26,20.54,63,25.12,63,25.12l14.89,9.41c1.58-.05,4.33,0,8.88.12,18.69.62,21.57,19.11,21.57,19.11l65.86-9.07" fill="#fba919"/><path d="M147,146.94a25.92,25.92,0,0,1-22.6,6.05c-13.68-2.87-22-8.91-22.59-19.41s2.87-14.64,2.87-14.64,15.27,4.78,22.59,11.14S140,146.62,147,146.94Z" fill="#fff"/><path d="M136.17,143.76a24.33,24.33,0,0,1-16.36.65c-11.31-3.77-12.06-15.53-12.06-15.53s-6.93,20.36,12.51,24.28c15.6,3.14,24.82-5.9,24.82-5.9Z" fill="#c9c9c9"/><path d="M141.67,40.53c-.84-17.46,13.47-31.36,18.43-31.95.28,2.95-.27,14.49,4.68,18,1.45-9.42,6.33-19.81,25.6-26.62-4.13,11-.55,20.11,1.15,24.36,13.16-11.94,22-10,22-10S204.41,30.17,208,40.52C181.57,38.45,141.8,43.33,141.67,40.53Z" fill="#463014"/><path d="M85.66,67.12c-6.3-5.23-1.6-10.09-2.1-16C83.29,47.93,83,45,82,43.3c-5.8-9.15-19.49-11.93-19.62-12L56,30.08l4.25-5c.55-.65,18-17.3,45-8.58,18.9,6.09,32.89,26.76,33.41,27.6l-9.48,4.45c-.11-.17-11.17-19.6-27.38-24.83-13.11-4.23-25.18-.21-30.36,2.43,5.5,2.2,12.69,6.2,17,13,2,3.23,2.38,7.3,2.72,11.24.44,5.21.85,10.13,4.69,13.32Z" fill="#463014"/><path d="M68.83,143.45s7.94-9.85,10.29-29c.93-7.54-.71-22.43-3.34-28.16a115,115,0,0,1-3.1,28.16S70.26,140.59,68.83,143.45Z" fill="#463014"/><path d="M110.7,57.17S108.16,46,101.1,40.42c-9.95-7.91-22.09-3.7-22.21-3.66l-1.77-5.45c.59-.19,14.48-4.57,27.27,4.43S118.81,53,119,53.89Z" fill="#463014"/><path d="M93.77,136.39s-4.17-6-3.42-12.53c.38-3.23,1.88-6.56,4.56-7.74,5-2.19,7.18,3.46,7.18,3.46S95.09,121.31,93.77,136.39Z" fill="#463014"/><path d="M139.51,145.48c.18.32.27.51.27.51s-13,9.75-26.31-.15c-7.13-5.3-6.46-18.42-4.28-24a43,43,0,0,1,14.53,6.32c-5.09-4.54-9.54-7.89-9.53-8l-5.79-1.64-11.24-3.85c-.14.85-4.24,20.07,7.59,33.16,5.25,5.81,29.84,18.81,41.51-3.42Z" fill="#463014"/><path d="M138.3,146.91c7.31,11.13,25.77,4.77,25.45-7,0,0-12.33,6.8-23.23-5.73-6.36-7.32-26.74-27.49-54.39-20.79C105.22,117.59,130.5,135,138.3,146.91Z" fill="#463014"/><path d="M83.55,178.33c1.76,1,8,7.45,8,17.06,0,4.82-.48,29-2.87,43.84,3.59,2.33,6.09,2.83,9.66,5.2,1.79-17.13,3.08-42,2.48-52C100.1,181,94,173.34,88.31,170.07c-1.78-1-3.63-2-5.5-3-9.72-5.25-19.77-10.69-19.77-20,0-7.26,2.82-9.53,5.8-11.94l.33-.26c2-1.6,4.22-3.42,5.55-6.4,3.63-8.15,4.22-28.92,0-34.19-2.1-2.63-7.74-11.46-6.12-17.4A8,8,0,0,1,73,71.75a21.84,21.84,0,0,1,9.86-1.9c8,0,16.94,2.44,21.54,3.9C120.78,79,140.6,94,146.28,98.43l.27.21,3.64,2.53-2.28-3.8c-.14-.24-14.53-23.91-40.27-32.59-5-1.69-14.84-4.52-24.51-4.52-5.75,0-10.64,1-14.51,3a17.47,17.47,0,0,0-9.23,11.12c-3.25,11.92,7.34,25.19,7.7,25.62,1.23,2.2,1.76,18.2-1.09,24.61a10.08,10.08,0,0,1-2.83,2.85c-.43.34-.91.7-1.41,1.08-4,3-10.1,7.63-10.1,18.2,0,14.47,14.66,22.31,26.44,28.62C80,176.39,81.88,177.37,83.55,178.33Z" fill="#463014"/><path d="M85.66,67.12c-6.3-5.23-1.6-10.09-2.1-16C83.29,47.93,83,45,82,43.3c-5.8-9.15-19.49-11.93-19.62-12L56,30.08l4.25-5c.55-.65,18-17.3,45-8.58,18.9,6.09,32.89,26.76,33.41,27.6l-9.48,4.45c-.11-.17-11.17-19.6-27.38-24.83-13.11-4.23-25.18-.21-30.36,2.43,5.5,2.2,12.69,6.2,17,13,2,3.23,2.38,7.3,2.72,11.24.44,5.21.85,10.13,4.69,13.32Z" fill="#463014"/><path d="M85.46,68.19l-.41-.34c-4.67-3.88-3.84-7.7-3-11.4a17.85,17.85,0,0,0,.59-5.27c-.25-3-.5-5.92-1.41-7.37-5.53-8.72-18.87-11.51-19-11.54l-8-1.57,5.32-6.22A44.77,44.77,0,0,1,89.77,13.05a51,51,0,0,1,15.75,2.57c19.73,6.36,33.8,27.79,33.93,28l.57.91L128.81,49.8l-.45-.71c-1.2-2.06-11.83-19.59-26.87-24.44a37.6,37.6,0,0,0-11.56-1.79,42.12,42.12,0,0,0-16.15,3.28C79,28.48,85.27,32.42,89.26,38.7c2.17,3.43,2.52,7.61,2.86,11.66.42,5,.82,9.75,4.35,12.68l1.33,1.1Z" fill="#463014"/><path d="M110.7,57.17S108.16,46,101.1,40.42c-9.95-7.91-22.09-3.7-22.21-3.66l-1.77-5.45c.59-.19,14.48-4.57,27.27,4.43S118.81,53,119,53.89Z" fill="#463014"/><path d="M110,58.47l-.25-1.09c0-.11-2.52-10.85-9.27-16.21a21.51,21.51,0,0,0-13.77-4.61,25.2,25.2,0,0,0-7.53,1.1l-.91.3-2.37-7.27.91-.29A33.62,33.62,0,0,1,104.94,35c13.2,9.28,14.81,17.85,15,18.8l.11.75ZM86.73,34.65a23.79,23.79,0,0,1,15,5c6,4.77,8.8,13.2,9.65,16.21l6.5-2.58c-.59-2.29-3.18-9.17-14-16.78A30.21,30.21,0,0,0,86.13,31a32.28,32.28,0,0,0-7.79.93l1.17,3.62A28.13,28.13,0,0,1,86.73,34.65Z" fill="#463014"/><path d="M145.52,295.48h0a12,12,0,0,1-7.69-2.75c-1.53-1.31-6.69-6.06-9-11.87-.85-2.17-.66-3.91.58-5.16.85-.86,2.61-1.88,6.19-1.88h19.25c2.73,0,4.68.59,5.8,1.74a3.93,3.93,0,0,1,.58,4.36,47.74,47.74,0,0,1-8.52,12.65A9.74,9.74,0,0,1,145.52,295.48Z" fill="#463014"/><path d="M148.48,147.56l-10.18-.65a52.85,52.85,0,0,1,4.28,10.52c1.91,6.71-1.74,16.52-1.74,16.52S154.42,158.58,148.48,147.56Z" fill="#463014"/><path d="M135.77,322.37c-36.24-2.79-49-37-49-44.16h9.46c.05,3.08,9.68,32.37,40.25,34.72Z" fill="#463014"/><path d="M125.58,261a23.91,23.91,0,0,1,.07-9.43c-2.75-2.07-7.7-2.84-11.4-4-3-1.92-18.55,2-29.81-11.66-14.1-17.06-11.14-27.24-11.14-27.24-3.61,4-7.12,2.48-12.63,21.22s2.59,31.8,17.71,44.91c7.14,6.2,17.24,8.75,25.92,9.73-2.91-2.92,5-3.22,10.4-5.25-.43-4.38.29-8.64,3.56-12.06a18.51,18.51,0,0,1,7.14-4.29c.15-.34.27-.65.41-1A9.32,9.32,0,0,1,125.58,261Z" fill="#fff"/><path d="M114.63,279.15c-.32-.92-.55-1.86-.79-2.8s-1.5-4,0-.62a12.49,12.49,0,0,1-.84-2.62c-24.48,0-45.78-16.84-41.67-52.18-3.2-4.26-7.69,8.58-7.69,8.58s-12.26,35.59,19.4,49.38c10.54,4.6,19.86,7.9,22.06,6.57,4.59.93,8.72-2.27,10.27-4.37C115.12,280.45,114.85,279.8,114.63,279.15Z" fill="#c9c9c9"/><path d="M125.14,255.89a19.73,19.73,0,0,1,2.09-8.75c.1-.2.22-.39.33-.58-9.42-.08-20.27-1-29.51-4.68-10.16-4.06-22.86-18-25-34.29,0,0-19.13,14.76-13.51,46.35,5.28,29.66,30.1,39.33,58.41,41,0-.2-3.19-6.8-2.18-10.85-16.07,1.17-34-5-42.72-19.32-8-13.07-5.72-35.38-2.45-38.65C78.52,251.22,107.18,256.33,125.14,255.89Z" fill="#463014"/><path d="M128.11,237.9c-5.1,14.95-15.5,27-15.5,27s14.31-.65,15.1-3.18c.59-1.87,12.93-30.76,17.66-64.59C140.92,204.49,128.55,236.62,128.11,237.9Z" fill="#463014"/><path d="M209.2,203.44s16.23,24.81,28.13,42.42c1.84,2.73-11.91,2.91-11.91,2.91Z" fill="#e78724"/><path d="M201.47,152s4.89,12.2,7.57,18.67c2.91,7,14,10.54,14,10.54s-5.75-6-5.75-21.31c0-6.41-8.27-9-8.27-9Z" fill="#e78724"/><path d="M206.41,158.89s10,11.93,28.64,5.25,20.52-30.55,20.52-37.23-35.32,6.68-40.09,9.55S201.64,150.77,206.41,158.89Z" fill="#e78724"/><path d="M276.71,31.4s-17.18-3.34-28.63,5.72-14.8,16.23-14.8,16.23l19.31,15.3s9.33-4.32,12.19-16.73S265.74,33.79,276.71,31.4Z" fill="#e78724"/><path d="M211.42,124.43c7.4-10.5,19.59-15.08,29.32-15.84,16.6-1.3,24.48,4.57,24.48,4.57s-27.18,1.15-35,11.44c-14.58,19.15-35.85,20.7-39.25,16.5,3.93.19,8.26-1.76,12.89-6.14C206.73,132.22,209.08,127.76,211.42,124.43Z" fill="#e78724"/><path d="M257.31,161.55s30.15-10.36,24.42-20.86-1.17-16.22-1.17-16.22S297.4,137,293.11,150.4c-2.64,8.2-7.06,14.14-31.35,25.52-11.66,21.65-2.41,60.6-3,60.79-.93.3-16.36-7.63-15.31-44.08C243.81,181.44,244.71,166.16,257.31,161.55Z" fill="#e78724"/><path d="M217.79,50.07c12.64,6.43,30,15.37,30,15.37l-6.82,3.42c.65,1,1,1.68,1,1.68l-7,3.18S217.82,86.1,207.36,94.05c3.48-10.74,13.73-27.63,13.73-27.63S224,58.67,217.79,50.07Z" fill="#e78724"/><path d="M175.78,311.93c38.86,0,52-19.73,52-19.73L221.74,307c-2.3,6.4-26.79,26.32-45.9,26.32" fill="#e78724"/><path d="M223.55,278.87s-3.58,21.86-17.89,21.86c-12.16,0-15.75-18.46-15.75-22.28Z" fill="#e78724"/><path d="M247.38,245.91a158.45,158.45,0,0,1-7.16-30.54c-1.71-15.44-1.08-38-1.08-38s3.81,14.8,7.15,17.19,9.55,18.61,9.55,18.61,3.32,24.16,4.9,32.28C256.37,246.31,252.68,243.73,247.38,245.91Z" fill="#e78724"/><path d="M282,150.16s-8.11-2.86-10.5-20.52a79.76,79.76,0,0,1,2.87-32.93s-.48,24.34,2.38,29.11,5.25,6.2,8.59,12.41S283.87,148.25,282,150.16Z" fill="#e78724"/><path d="M272.27,35.58l1.66-1C278.81,34.69,272.27,35.58,272.27,35.58Z" fill="#fdc168"/><path d="M211.19,44.85s7.63-1.28,11.45-7,14.64-17.19,31.88-17.31,34.3,4.58,34.3,4.58l-14.89,9.41c-1.57-.05-4.33,0-8.89.12-18.68.62-21.56,19.11-21.56,19.11l-65.86-9.07" fill="#fba919"/><path d="M204.82,146.94A25.91,25.91,0,0,0,227.41,153c13.69-2.87,22-8.91,22.6-19.41s-2.87-14.64-2.87-14.64-15.27,4.78-22.59,11.14S211.83,146.62,204.82,146.94Z" fill="#fff"/><path d="M215.6,143.76a24.37,24.37,0,0,0,16.37.65c11.31-3.77,12.06-15.53,12.06-15.53s6.93,20.36-12.51,24.28c-15.6,3.14-24.83-5.9-24.83-5.9Z" fill="#c9c9c9"/><path d="M266.12,67.12c6.3-5.23,1.6-10.09,2.1-16,.27-3.16.52-6.14,1.56-7.79,5.8-9.15,19.48-11.93,19.63-12l6.42-1.26-4.25-5c-.55-.65-18-17.3-45-8.58-18.9,6.09-32.89,26.76-33.41,27.6l9.47,4.45c.12-.17,11.18-19.6,27.39-24.83,13.11-4.23,25.19-.21,30.36,2.43-5.5,2.2-12.69,6.2-17,13-2,3.23-2.38,7.3-2.71,11.24-.44,5.21-.86,10.13-4.7,13.32Z" fill="#463014"/><path d="M283,143.45s-7.94-9.85-10.29-29c-.93-7.54.71-22.43,3.34-28.16a115,115,0,0,0,3.1,28.16S281.52,140.59,283,143.45Z" fill="#463014"/><path d="M241.08,57.17s2.55-11.14,9.6-16.75c9.95-7.91,22.1-3.7,22.21-3.66l1.77-5.45c-.59-.19-14.47-4.57-27.27,4.43S233,53,232.83,53.89Z" fill="#463014"/><path d="M258,136.39s4.17-6,3.41-12.53c-.37-3.23-1.87-6.56-4.55-7.74-5-2.19-7.18,3.46-7.18,3.46S256.69,121.31,258,136.39Z" fill="#463014"/><path d="M212.27,145.48c-.18.32-.27.51-.27.51s13,9.75,26.31-.15c7.13-5.3,6.46-18.42,4.27-24a43,43,0,0,0-14.52,6.32c5.09-4.54,9.54-7.89,9.53-8l5.79-1.64,11.23-3.85c.15.85,4.25,20.07-7.59,33.17-5.24,5.8-29.83,18.8-41.51-3.43Z" fill="#463014"/><path d="M213.48,146.91c-7.32,11.13-25.77,4.77-25.45-7,0,0,12.33,6.8,23.23-5.73,6.36-7.32,26.75-27.49,54.39-20.79C246.56,117.59,221.29,135,213.48,146.91Z" fill="#463014"/><path d="M268.24,178.33c-1.76,1-8,7.45-8,17.06,0,4.82.47,29,2.86,43.84-3.59,2.33-6.09,2.83-9.66,5.2-1.79-17.13-3.08-42-2.48-52,.69-11.42,6.8-19.09,12.48-22.36,1.78-1,3.63-2,5.51-3,9.72-5.25,19.77-10.69,19.77-20,0-7.26-2.83-9.53-5.81-11.94l-.32-.26c-2-1.6-4.23-3.42-5.55-6.4-3.63-8.15-4.23-28.92,0-34.19,2.1-2.63,7.74-11.46,6.12-17.4a8,8,0,0,0-4.37-5.13,21.82,21.82,0,0,0-9.86-1.9c-8,0-16.94,2.44-21.53,3.9C231,79,211.19,94,205.5,98.43l-.27.21-3.64,2.53,2.28-3.8c.14-.24,14.53-23.91,40.27-32.59,5-1.69,14.84-4.52,24.51-4.52,5.76,0,10.64,1,14.51,3a17.47,17.47,0,0,1,9.23,11.12c3.25,11.92-7.34,25.19-7.7,25.62-1.23,2.2-1.75,18.2,1.09,24.61a10.08,10.08,0,0,0,2.83,2.85q.64.51,1.41,1.08c4,3,10.1,7.63,10.1,18.2,0,14.47-14.66,22.31-26.44,28.62C271.75,176.39,269.9,177.37,268.24,178.33Z" fill="#463014"/><path d="M250.75,65.42c-2.34-4-8.3-11.58-22-18.28-15.34-7.48-33.1-11.28-52.78-11.28h-.08c-19.68,0-37.44,3.81-52.78,11.28-13.74,6.71-19.7,14.33-22,18.28l-1,1.33,11.77,2.62.37-.47.2-.43c.18-.78,1.76-5,14.89-11.38,14-6.85,30.39-10.31,48.63-10.32s34.6,3.47,48.63,10.32c13.12,6.4,14.7,10.6,14.88,11.38l.2.43.37.47,11.77-2.62Z" fill="#463014"/><path d="M266.12,67.12c6.3-5.23,1.6-10.09,2.1-16,.27-3.16.52-6.14,1.56-7.79,5.8-9.15,19.48-11.93,19.63-12l6.42-1.26-4.25-5c-.55-.65-18-17.3-45-8.58-18.9,6.09-32.89,26.76-33.41,27.6l9.47,4.45c.12-.17,11.18-19.6,27.39-24.83,13.11-4.23,25.19-.21,30.36,2.43-5.5,2.2-12.69,6.2-17,13-2,3.23-2.38,7.3-2.71,11.24-.44,5.21-.86,10.13-4.7,13.32Z" fill="#463014"/><path d="M254,64.15,255.31,63c3.53-2.92,3.93-7.65,4.35-12.68.34-4,.7-8.23,2.86-11.65,4-6.29,10.29-10.22,15.48-12.57a42.31,42.31,0,0,0-16.15-3.28,37.66,37.66,0,0,0-11.56,1.8c-15,4.85-25.66,22.38-26.87,24.43l-.45.71-11.21-5.27.57-.91c.14-.21,14.2-21.64,33.93-28A51.32,51.32,0,0,1,262,13.06,44.71,44.71,0,0,1,292.3,24.49l5.32,6.22-8,1.57c-.14,0-13.48,2.82-19,11.54-.91,1.45-1.15,4.32-1.41,7.36a17.59,17.59,0,0,0,.59,5.28c.81,3.7,1.63,7.52-3,11.4l-.41.33Z" fill="#463014"/><path d="M241.08,57.17s2.55-11.14,9.6-16.75c9.95-7.91,22.1-3.7,22.21-3.66l1.77-5.45c-.59-.19-14.47-4.57-27.27,4.43S233,53,232.83,53.89Z" fill="#463014"/><path d="M231.78,54.49l.11-.74c.14-1,1.75-9.52,15-18.8A33.64,33.64,0,0,1,275,30.4l.9.29L273.5,38l-.92-.3a25.2,25.2,0,0,0-7.53-1.1,21.53,21.53,0,0,0-13.77,4.61c-6.75,5.37-9.24,16.1-9.27,16.21l-.24,1.09Zm40.49-18.91L273.45,32a32.46,32.46,0,0,0-7.8-.93,30.15,30.15,0,0,0-17.71,5.49c-10.83,7.61-13.42,14.49-14,16.78l6.5,2.58c.85-3,3.67-11.44,9.66-16.21a23.75,23.75,0,0,1,15-5A28.13,28.13,0,0,1,272.27,35.58Z" fill="#463014"/><path d="M199.05,292.56a47.76,47.76,0,0,1-8.53-12.65,4,4,0,0,1,.58-4.36c1.13-1.15,3.07-1.74,5.8-1.74h19.25c3.58,0,5.35,1,6.2,1.88,1.23,1.25,1.42,3,.57,5.16-2.27,5.81-7.44,10.56-9,11.87a12,12,0,0,1-7.69,2.75h0A9.71,9.71,0,0,1,199.05,292.56Z" fill="#463014"/><path d="M203.3,147.56l10.18-.65a52.85,52.85,0,0,0-4.28,10.52c-1.91,6.71,1.74,16.52,1.74,16.52S197.36,158.58,203.3,147.56Z" fill="#463014"/><path d="M175.89,111.21c-6.49,0-14.95-.18-21.3-4.74,0,0,8.32,14.57,21.29,14.57v0c13,0,21.29-14.57,21.29-14.57C190.84,111,182.37,111.21,175.89,111.21Z" fill="#e78724"/><path d="M193.76,111.14a32.12,32.12,0,0,1-35.74,0s9.48,11.57,17.82,11.66h.1C184.28,122.71,193.76,111.14,193.76,111.14Z" fill="#463014"/><path d="M216,322.37l-.72-9.44c30.56-2.35,40.19-31.64,40.24-34.72H265C265,285.34,252.25,319.58,216,322.37Z" fill="#463014"/><path d="M226.2,261a23.72,23.72,0,0,0-.07-9.43c2.76-2.07,7.7-2.84,11.4-4,3-1.92,18.56,2,29.81-11.66,14.11-17.06,11.13-27.24,11.13-27.24,3.62,4,7.13,2.48,12.64,21.22s-2.59,31.8-17.71,44.91c-7.14,6.2-17.24,8.75-25.92,9.73,2.91-2.92-5-3.22-10.4-5.25.44-4.38-.29-8.64-3.56-12.06a18.51,18.51,0,0,0-7.14-4.29c-.15-.34-.27-.65-.41-1A9.32,9.32,0,0,0,226.2,261Z" fill="#fff"/><path d="M237.15,279.15c.32-.92.55-1.86.78-2.8s1.51-4,0-.62a12,12,0,0,0,.85-2.62c24.48,0,45.78-16.84,41.66-52.18,3.21-4.26,7.7,8.58,7.7,8.58s12.26,35.59-19.4,49.38c-10.55,4.6-19.87,7.9-22.07,6.57-4.58.93-8.72-2.27-10.26-4.37C236.66,280.45,236.93,279.8,237.15,279.15Z" fill="#c9c9c9"/><path d="M226.63,255.89a19.58,19.58,0,0,0-2.08-8.75c-.1-.2-.22-.39-.33-.58,9.42-.08,20.27-1,29.51-4.68,10.16-4.06,22.86-18,25-34.29,0,0,19.13,14.76,13.51,46.35-5.28,29.66-30.1,39.33-58.41,41,0-.2,3.19-6.8,2.18-10.85,16.07,1.17,34-5,42.72-19.32,7.94-13.07,5.72-35.38,2.45-38.65C273.26,251.22,244.6,256.33,226.63,255.89Z" fill="#463014"/><path d="M238.06,263.33c-3.38-3.65-9.6-8-23.93-8l-38.19,0h-.09l-38.2,0c-14.33,0-20.55,4.36-23.93,8-4.93,5.32-5.71,12.72-2.29,22,9.06,24.62,21.79,49.64,64.41,49.68h.1c42.62,0,55.35-25.06,64.42-49.68C243.77,276.05,243,268.65,238.06,263.33Zm-6.63,20.25c-4.32,12.37-15.92,42.3-55.54,42.35s-51.22-30-55.54-42.35c-2.39-6.86-2.21-11.94.56-15.09,1.89-2.16,6.23-4.73,16.12-4.73h77.72c9.89,0,14.23,2.57,16.12,4.73C233.63,271.64,233.82,276.72,231.43,283.58Z" fill="#463014"/><path d="M223.67,237.9c5.09,14.95,15.5,27,15.5,27s-14.31-.65-15.1-3.18c-.59-1.87-12.93-30.76-17.66-64.59C210.86,204.49,223.23,236.62,223.67,237.9Z" fill="#463014"/><path d="M62,357.74a36.85,36.85,0,0,0-6.35-3,45.69,45.69,0,0,0-7.53-2,50.14,50.14,0,0,0-8.7-.72,47.59,47.59,0,0,0-16.23,2.64,36.67,36.67,0,0,0-12.48,7.45,32.59,32.59,0,0,0-8,11.41A36.94,36.94,0,0,0,0,388a35.33,35.33,0,0,0,2.91,14.33,34.74,34.74,0,0,0,8,11.41A37.24,37.24,0,0,0,23,421.28,41.53,41.53,0,0,0,38.17,424a78.93,78.93,0,0,0,8.4-.42A52.27,52.27,0,0,0,54,422.24a40.64,40.64,0,0,0,6.61-2.34,40,40,0,0,0,6-3.39,1.26,1.26,0,0,0,.55-1.05V386.79a1.27,1.27,0,0,0-1.27-1.27H40.15a1.27,1.27,0,0,0-1.27,1.27v11.47a1.27,1.27,0,0,0,1.27,1.28h9.24v8.14a32.39,32.39,0,0,1-4,1.13,29.21,29.21,0,0,1-5.88.53,21.48,21.48,0,0,1-7.94-1.43,17.5,17.5,0,0,1-6.2-4.1,19.24,19.24,0,0,1-4.11-6.65A25.85,25.85,0,0,1,19.7,388a25,25,0,0,1,1.36-8.45,18.54,18.54,0,0,1,3.83-6.4,16.9,16.9,0,0,1,6-4.09,20.63,20.63,0,0,1,8-1.47,38.84,38.84,0,0,1,4.41.23,24.11,24.11,0,0,1,3.67.7,23.7,23.7,0,0,1,3.41,1.26c1.15.54,6.55,3.61,7.8,4.31.86.48,1.38.51,2-.3l7.27-10.61a1.26,1.26,0,0,0-.19-1.67A34.57,34.57,0,0,0,62,357.74Z" fill="#463014"/><path d="M125.82,397.66a14,14,0,0,0-3.88-3.92,24.21,24.21,0,0,0,4.08-2.37,22.44,22.44,0,0,0,4.84-4.73,19.61,19.61,0,0,0,3-5.8,21.5,21.5,0,0,0,1-6.63,21.25,21.25,0,0,0-1.7-8.52,17.41,17.41,0,0,0-5.47-6.89,27,27,0,0,0-9.47-4.44,52.83,52.83,0,0,0-13.7-1.56H81a1.26,1.26,0,0,0-1.26,1.27V422A1.27,1.27,0,0,0,81,423.26H97.78A1.28,1.28,0,0,0,99.05,422V398.13h3a5.23,5.23,0,0,1,2.41.42,3.72,3.72,0,0,1,1.37,1.39l12,19.73c1.46,2.38,3.87,3.59,7.13,3.59h15.22a1.27,1.27,0,0,0,.88-2.2Zm-10.49-18.55a7.29,7.29,0,0,1-1.9,2.89,9.65,9.65,0,0,1-3.49,2,17,17,0,0,1-5.42.75H99.05v-17.6h5.47c4,0,7,.76,8.8,2.24a7.24,7.24,0,0,1,2.63,6A11,11,0,0,1,115.33,379.11Z" fill="#463014"/><path d="M210.06,352.8H193.3a1.27,1.27,0,0,0-1.27,1.27V394.3a18.73,18.73,0,0,1-.9,6,12.15,12.15,0,0,1-2.53,4.32,11,11,0,0,1-4,2.69,16.7,16.7,0,0,1-11.12,0,11,11,0,0,1-4-2.71,12.08,12.08,0,0,1-2.53-4.35,18.46,18.46,0,0,1-.9-6V354.07a1.27,1.27,0,0,0-1.27-1.27H148a1.27,1.27,0,0,0-1.27,1.27v40.22a31.54,31.54,0,0,0,2.22,11.95,26.76,26.76,0,0,0,6.46,9.45,29.52,29.52,0,0,0,10.2,6.14,42.49,42.49,0,0,0,26.81,0,29.81,29.81,0,0,0,10.21-6.14,27.08,27.08,0,0,0,6.48-9.44,31.24,31.24,0,0,0,2.25-11.95V354.07A1.27,1.27,0,0,0,210.06,352.8Z" fill="#463014"/><path d="M289,352.8H274.23a1.27,1.27,0,0,0-1.27,1.27V390c0,1.08,0,2.22.09,3.43l-31.79-37.78a14,14,0,0,0-1.37-1.39,6,6,0,0,0-1.46-.92,6.16,6.16,0,0,0-1.69-.44,15.82,15.82,0,0,0-2-.1h-8.83a1.27,1.27,0,0,0-1.27,1.27V422a1.27,1.27,0,0,0,1.27,1.27H240.7A1.28,1.28,0,0,0,242,422v-36.4c0-.9,0-1.85-.09-2.87l31.56,37.47a8.19,8.19,0,0,0,3.07,2.42,9.89,9.89,0,0,0,3.76.65H289a1.27,1.27,0,0,0,1.27-1.27V354.08A1.27,1.27,0,0,0,289,352.8Z" fill="#463014"/><path d="M358.34,352.8H300.91a1.27,1.27,0,0,0-1.27,1.27v12.49a1.27,1.27,0,0,0,1.27,1.28H320V422a1.28,1.28,0,0,0,1.27,1.27H338a1.28,1.28,0,0,0,1.28-1.27V367.84h19.06a1.27,1.27,0,0,0,1.27-1.28V354.07A1.27,1.27,0,0,0,358.34,352.8Z" fill="#463014"/></g></g></g></svg>