<svg id="ccafd6a9-c6b9-433a-bbe6-7be1697714dd" data-name="Calque 1" xmlns="http://www.w3.org/2000/svg" viewBox="0 0 100 56.2"><title>logo_ovh-com</title><g id="f1ae7c2b-7b02-4300-98f4-16e34edb2a02" data-name="Calque 2"><g id="e1c7ace3-9c72-47bd-8c30-b56bd521920d" data-name="desktop"><path d="M66.7,1.3,62.6,8.4H58.3l-5.1,8.8h4.3l-3.3,5.7H64.8A19.05,19.05,0,0,0,66.7,1.3Z" fill="#fff"/><path d="M45.7,22.9h0L58.9,0H47.8L40.2,13.2l-6.9-12a19.2,19.2,0,0,0,1.8,21.6H45.7Z" fill="#fff"/><g style="isolation:isolate"><path d="M13.6,38.4c0-4.6,2.3-6.8,6.1-6.8s6.1,2.2,6.1,6.8-2.3,6.8-6.1,6.8S13.6,42.9,13.6,38.4Zm1.4,0c0,3.8,1.7,5.6,4.7,5.6s4.7-1.8,4.7-5.6-1.7-5.6-4.7-5.6S15,34.5,15,38.4Z" fill="#fff"/><path d="M36.1,32.1a.68.68,0,0,1,.6-.4.68.68,0,0,1,.7.7.37.37,0,0,1-.1.3l-4.6,12a.62.62,0,0,1-.6.4.82.82,0,0,1-.6-.4l-4.6-12c0-.1-.1-.2-.1-.3a.68.68,0,0,1,.7-.7.59.59,0,0,1,.6.4L32,42.6Z" fill="#fff"/><path d="M40.7,38.8v5.6a.7.7,0,1,1-1.4,0V32.3a.7.7,0,1,1,1.4,0v5.3h6.8V32.3a.7.7,0,0,1,1.4,0V44.4a.7.7,0,0,1-1.4,0V38.8Z" fill="#fff"/><path d="M50.2,44.1a.84.84,0,0,1,.9-.9.9.9,0,0,1,0,1.8C50.5,45,50.2,44.8,50.2,44.1Z" fill="#fff"/><path d="M57.3,35.8a3.8,3.8,0,0,1,3,1.3c.1.1.1.2.1.4a.65.65,0,0,1-.6.6c-.2,0-.3-.1-.5-.2a2.56,2.56,0,0,0-2.1-.9c-1.8,0-2.7,1.1-2.7,3.5s1,3.6,2.7,3.6a4.12,4.12,0,0,0,2.3-.8c.1-.1.2-.1.4-.1a.65.65,0,0,1,.6.6c0,.2-.1.3-.3.5a4.16,4.16,0,0,1-2.9,1.1c-2.5,0-4-1.5-4-4.7S54.8,35.8,57.3,35.8Z" fill="#fff"/><path d="M70.1,40.5c0,3.2-1.6,4.7-4.1,4.7s-4.1-1.5-4.1-4.7,1.6-4.7,4.1-4.7S70.1,37.3,70.1,40.5Zm-1.3,0c0-2.5-1-3.5-2.8-3.5s-2.8,1.1-2.8,3.5,1,3.6,2.8,3.6S68.8,42.9,68.8,40.5Z" fill="#fff"/><path d="M85.4,39.2v5.2a.6.6,0,0,1-1.2,0V39.5c0-1.5-.5-2.6-2.4-2.6a2.09,2.09,0,0,0-2.4,2.3v5.2a.6.6,0,1,1-1.2,0V39.5c0-1.5-.5-2.6-2.4-2.6s-2.4,1.1-2.4,2.7v4.8a.6.6,0,1,1-1.2,0V36.5a.6.6,0,1,1,1.2,0v.6a2.77,2.77,0,0,1,2.5-1.4A3.42,3.42,0,0,1,79,37.1a3,3,0,0,1,2.8-1.4C84.7,35.8,85.4,37.6,85.4,39.2Z" fill="#fff"/></g></g></g></svg>