<svg xmlns="http://www.w3.org/2000/svg" xmlns:xlink="http://www.w3.org/1999/xlink" viewBox="0 0 961.07 429"><defs><linearGradient id="1c8c98b6-1c2d-4b98-af0e-43deb456d440" x1="464.32" y1="-20.27" x2="464.32" y2="403.54" gradientTransform="translate(19.71 22.89)" gradientUnits="userSpaceOnUse"><stop offset="0.15" stop-color="#2a4f84"/><stop offset="0.39" stop-color="#294e82"/><stop offset="1" stop-color="#172e4e"/></linearGradient></defs><title>logo_less</title><g id="d7a26193-0a9b-4419-8583-eeff71d3e222" data-name="Calque 2"><g id="8e2ae18c-794f-4986-a6e1-32e117f8f0dc" data-name="phone"><g id="2cd662ff-7b21-4b6e-b489-7fde1a56590d" data-name="layer1"><path id="03229e47-611f-4a84-930a-4d88081c94c4" data-name="path19" d="M909.3,344.69a82,82,0,0,1-81.74,81.74h-687a82,82,0,0,1-81.75-81.74V84.36A82,82,0,0,1,140.51,2.62H827.56A82,82,0,0,1,909.3,84.36Z" fill="url(#1c8c98b6-1c2d-4b98-af0e-43deb456d440)"/><path id="a0cc4cf7-9ece-4b88-b0f9-bb6de3a5c27c" data-name="path21" d="M765.57,209q53.86,18.85,53.86,64.55,0,30.06-22.3,47.72c-14.83,11.78-36,19.08-63.55,19.08s-53-8-76.51-21.08c.25-7,2.09-14.58,5.46-22.86s7.36-14.85,11.94-19.65q32.35,16.81,56.28,16.82c7.53,0,13.35-1.26,17.41-3.8s6.08-5.94,6.08-10.22q0-12.06-18.63-18.06L713.31,253q-50.59-18.43-50.6-60.15,0-30.46,21.26-48.33c14.17-11.89,33.27-22.13,57.28-22.13a173.88,173.88,0,0,1,39.27,5c14.3,3.34,26.05,11.59,35.22,16.12q.81,11.24-4.45,24.67c-3.52,9-7.82,15.3-13,19.05Q764.3,172,741.63,172c-5.41,0-9.49,1.2-12.35,3.61a11.56,11.56,0,0,0-4.23,9.23q0,9.62,15.39,15.23L765.57,209Z" fill="#f6f6f6"/><path id="6916fbe3-e5b3-4d62-bb0e-b02a8c3f65ff" data-name="path23" d="M586.22,209q53.87,18.85,53.85,64.55,0,30.06-22.28,47.72c-14.85,11.78-36,19.08-63.57,19.08s-53-8-76.51-21.08q.39-10.43,5.47-22.86c3.37-8.27,7.35-14.85,11.94-19.65q32.4,16.81,56.29,16.82c7.54,0,13.36-1.26,17.4-3.8s6.09-5.94,6.09-10.22q0-12.06-18.64-18.06L534,253q-50.61-18.43-50.61-60.15,0-30.46,21.27-48.33c14.16-11.89,33.25-22.13,57.26-22.13a173.67,173.67,0,0,1,39.27,5c14.31,3.34,26,11.59,35.22,16.12q.81,11.24-4.45,24.67t-13,19.05q-34-15.24-56.7-15.24c-5.41,0-9.5,1.2-12.35,3.61a11.59,11.59,0,0,0-4.23,9.23q0,9.62,15.39,15.23L586.22,209Z" fill="#f6f6f6"/><path id="ed889d75-9bb6-491e-93b9-ca35c6118ee2" data-name="path25" d="M455.42,211.79a96.43,96.43,0,0,0-5.86-34.09,76.42,76.42,0,0,0-16.8-26.86,77.81,77.81,0,0,0-26.51-17.65c-10.4-4.27-22.07-10.71-35-10.71-15.38,0-28.81,7-40.28,12.32a77,77,0,0,0-28.33,22A94.17,94.17,0,0,0,286,189.93a150.19,150.19,0,0,0-5.46,41.5A193.66,193.66,0,0,0,285,274.35a89.62,89.62,0,0,0,15.18,34.07,72,72,0,0,0,27.94,22.44,100.23,100.23,0,0,0,42.72,9.44c31.3,0,57.75-9.06,79.34-24.29q-3.21-23.24-16.52-36.89a212.72,212.72,0,0,1-29.25,8.93,110,110,0,0,1-22.38,2.7c-12.9,0-22.19-3.28-27.83-9.91s-8.72-14.43-9.27-26.3H450.19C453.67,243.3,455.42,228.1,455.42,211.79Zm-110.9,2.78c.81-13.65,3.3-28.25,7.44-34.26s10.5-9,19.08-9q13.26,0,19.88,9.61c4.42,6.42,6.63,19.35,6.63,29.24v4.43Z" fill="#f6f6f6"/><path id="feff7443-be90-42e7-a7c4-189d41113a1c" data-name="path27" d="M930.49,241.25c-11.44,10-18.08,24.37-18.08,43.18v70c0,23.28-7.16,41-23.32,53.16s-35,18.18-56.48,18.76l-12.73-.1v-34.9c11.22-3.27,15.83-7.08,20.3-11.41,8.1-7.31,14.3-19.22,14.3-35.75V287.69c.3-19.22,1.78-34.28,8.78-45.16s20.69-20.38,41-28.6q-33.64-15.41-45.18-40.23c-4.52-9.83-4.61-23.09-4.61-39.78V82.07c0-17.13-5.6-29.13-12.5-36-4.48-4.47-9.7-8-22.11-10.74V2.6c15.18.16,22.84,0,31.69,0,13.61-.11,25,7.33,34.93,15.09q16.21,12.75,23,34.45c2.56,8.36,2.93,16.34,2.93,23.94v60c0,21.19,6.26,36.93,17,47.21,6,6,14.54,11.42,29.14,16.34v27.09c-12.94,3.58-21.07,8.43-28,14.56Z" fill="#f6f6f6" stroke="#404040" stroke-miterlimit="10" stroke-width="5.15"/><path id="d0191133-7724-439f-b7cc-5fc5d56ca51e" data-name="path29" d="M125.29,2.62v0c-4.35,0-8.29,0-11.43,0-13.62-.12-25,7.32-34.94,15.08-10.82,8.5-20.09,19.59-23,34.45-1.65,8.72-1.3,16.34-1.3,24v60c0,21.17-7.88,36.91-18.57,47.21-6,6-18.87,11.4-33.48,16.33v27.09c13,3.57,25.42,8.4,32.33,14.54a55.93,55.93,0,0,1,19.71,43.2v70c0,23.26,5.55,41,21.7,53.15s35,18.19,56.46,18.78l14.39-.1V391.41c-11.22-3.29-17.46-7.1-21.95-11.41-8.09-7.32-12.67-19.21-12.67-35.74V287.71c-.31-19.23-3.41-34.28-10.41-45.16s-20.68-20.39-41-28.6q33.67-15.42,45.19-40.22c4.53-9.84,6.24-23.1,6.24-39.79V82.09c0-17.13,4-29.12,10.87-36,3.73-3.72,10.38-6.78,19.61-9.26l14.6.1V2.62Z" fill="#f6f6f6" stroke="#404040" stroke-miterlimit="10" stroke-width="5.15"/><path id="33ca7103-cc07-4d9b-ad08-51f714a2154b" data-name="path31" d="M259.89,286.76H249c-11.88,0-16.36-6.25-16.36-18.81V37.21c0-13.88-4-23.62-9.14-29.23s-14-5.54-26.71-5.54H172.05l-2.91-.06v.24l0,34.34V279.12c0,19.26,4.33,33.35,12,42.32s20.73,13.42,39.08,13.42a268.37,268.37,0,0,0,43.32-4q1.22-4.05,1.22-17.37a77.93,77.93,0,0,0-4.86-26.71Z" fill="#f6f6f6"/></g></g></g></svg>