<?xml version="1.0" encoding="utf-8"?>
<!-- Generator: Adobe Illustrator 22.0.1, SVG Export Plug-In . SVG Version: 6.00 Build 0)  -->
<svg version="1.1" id="Calque_1" xmlns="http://www.w3.org/2000/svg" xmlns:xlink="http://www.w3.org/1999/xlink" x="0px" y="0px"
	 viewBox="0 0 100 56.2" style="enable-background:new 0 0 100 56.2;" xml:space="preserve">
<style type="text/css">
	.st0{fill:#FFFFFF;}
	.st1{enable-background:new    ;}
</style>
<title>ovh-com_logo</title>
<g id="Calque_2_1_">
	<g id="desktop">
		<path class="st0" d="M66.7,1.3l-4.1,7.1h-4.3l-5.1,8.8h4.3l-3.3,5.7h10.6C69.9,16.7,70.6,8.2,66.7,1.3z"/>
		<path class="st0" d="M45.7,22.9L45.7,22.9L58.9,0H47.8l-7.6,13.2L33.3,1.2c-3.9,6.9-3.2,15.5,1.8,21.6H45.7z"/>
		<g class="st1">
			<path class="st0" d="M13.6,38.4c0-4.6,2.3-6.8,6.1-6.8s6.1,2.2,6.1,6.8c0,4.6-2.3,6.8-6.1,6.8S13.6,42.9,13.6,38.4z M15,38.4
				c0,3.8,1.7,5.6,4.7,5.6s4.7-1.8,4.7-5.6c0-3.8-1.7-5.6-4.7-5.6S15,34.5,15,38.4z"/>
			<path class="st0" d="M36.1,32.1c0.1-0.2,0.3-0.4,0.6-0.4c0.4,0,0.7,0.3,0.7,0.7c0,0.1,0,0.2-0.1,0.3l-4.6,12
				c-0.1,0.3-0.4,0.4-0.6,0.4s-0.5-0.2-0.6-0.4l-4.6-12c0-0.1-0.1-0.2-0.1-0.3c0-0.4,0.3-0.7,0.7-0.7c0.4,0,0.6,0.3,0.6,0.4
				l3.9,10.5L36.1,32.1z"/>
			<path class="st0" d="M40.7,38.8v5.6c0,0.4-0.3,0.7-0.7,0.7c-0.4,0-0.7-0.3-0.7-0.7V32.3c0-0.4,0.3-0.7,0.7-0.7
				c0.4,0,0.7,0.3,0.7,0.7v5.3h6.8v-5.3c0-0.4,0.3-0.7,0.7-0.7c0.4,0,0.7,0.3,0.7,0.7v12.1c0,0.4-0.3,0.7-0.7,0.7
				c-0.4,0-0.7-0.3-0.7-0.7v-5.6H40.7z"/>
			<path class="st0" d="M50.2,44.1c0-0.6,0.4-0.9,0.9-0.9c0.6,0,0.9,0.3,0.9,0.9S51.7,45,51.1,45C50.5,45,50.2,44.8,50.2,44.1z"/>
			<path class="st0" d="M57.3,35.8c1.7,0,2.7,0.9,3,1.3c0.1,0.1,0.1,0.2,0.1,0.4c0,0.3-0.3,0.6-0.6,0.6c-0.2,0-0.3-0.1-0.5-0.2
				c-0.3-0.3-0.8-0.9-2.1-0.9c-1.8,0-2.7,1.1-2.7,3.5c0,2.4,1,3.6,2.7,3.6c1.1,0,1.8-0.5,2.3-0.8c0.1-0.1,0.2-0.1,0.4-0.1
				c0.3,0,0.6,0.3,0.6,0.6c0,0.2-0.1,0.3-0.3,0.5c-0.4,0.4-1.4,1.1-2.9,1.1c-2.5,0-4-1.5-4-4.7S54.8,35.8,57.3,35.8z"/>
			<path class="st0" d="M70.1,40.5c0,3.2-1.6,4.7-4.1,4.7c-2.5,0-4.1-1.5-4.1-4.7s1.6-4.7,4.1-4.7C68.5,35.8,70.1,37.3,70.1,40.5z
				 M68.8,40.5c0-2.5-1-3.5-2.8-3.5c-1.8,0-2.8,1.1-2.8,3.5c0,2.5,1,3.6,2.8,3.6C67.8,44,68.8,42.9,68.8,40.5z"/>
			<path class="st0" d="M85.4,39.2v5.2c0,0.3-0.3,0.6-0.6,0.6c-0.3,0-0.6-0.3-0.6-0.6v-4.9c0-1.5-0.5-2.6-2.4-2.6
				c-1.7,0-2.4,0.9-2.4,2.3v5.2c0,0.3-0.3,0.6-0.6,0.6s-0.6-0.3-0.6-0.6v-4.9c0-1.5-0.5-2.6-2.4-2.6c-1.8,0-2.4,1.1-2.4,2.7v4.8
				c0,0.3-0.3,0.6-0.6,0.6c-0.3,0-0.6-0.3-0.6-0.6v-7.9c0-0.4,0.3-0.6,0.6-0.6c0.4,0,0.6,0.3,0.6,0.6v0.6c0.3-0.7,1.3-1.4,2.5-1.4
				c1.6,0,2.6,0.6,3.1,1.4c0.5-0.8,1.3-1.4,2.8-1.4C84.7,35.8,85.4,37.6,85.4,39.2z"/>
		</g>
	</g>
</g>
</svg>
