<svg xmlns="http://www.w3.org/2000/svg" viewBox="0 0 256 256"><title>logo_javascript</title><g id="d6152822-aaf4-4199-8d74-7a6af2ea93c9" data-name="Calque 2"><g id="d49f6c86-ba59-4df7-a654-2e8b1f5582e4" data-name="phone"><path d="M0,0H256V256H0Z" fill="#f7df1e"/><path d="M67.31,213.93,86.9,202.08c3.78,6.7,7.22,12.37,15.47,12.37,7.9,0,12.89-3.1,12.89-15.12v-81.8h24v82.14c0,24.91-14.6,36.26-35.91,36.26-19.25,0-30.42-10-36.09-22"/><path d="M152.38,211.35,172,200c5.16,8.42,11.86,14.61,23.71,14.61,10,0,16.33-5,16.33-11.86,0-8.25-6.53-11.17-17.53-16l-6-2.58c-17.36-7.39-28.87-16.66-28.87-36.26,0-18,13.74-31.79,35.23-31.79,15.29,0,26.29,5.33,34.19,19.25l-18.73,12c-4.12-7.39-8.59-10.31-15.46-10.31-7.05,0-11.52,4.47-11.52,10.31,0,7.22,4.47,10.14,14.78,14.61l6,2.57c20.45,8.77,32,17.7,32,37.81,0,21.65-17,33.51-39.87,33.51-22.34,0-36.77-10.66-43.82-24.58"/></g></g></svg>
