<svg xmlns="http://www.w3.org/2000/svg" viewBox="0 0 336.59 137.06"><title>logo_cds</title><g id="b216ce58-3812-4366-8a4e-e3cddeceb826" data-name="Calque 2"><g id="929fae70-a627-416a-9610-5cfa985cf51a" data-name="phone"><g id="e4412c31-9c67-468e-9a05-a0abd87edea9" data-name="Calque 2"><g id="ff0933ea-6508-456d-9b0e-6465ca7f359d" data-name="Calque 1-2"><path d="M90,116.91c-11.94,3.54-21.81,5.28-29.59,5.28q-20.88,0-31.75-13.68T17.83,68.58c0-16.42,3.79-29.47,11.58-39.13s18-14.5,31-14.5Q74,15,88.05,22.06l7-14.22C85.24,2.64,73.66,0,60.44,0,41.72,0,27,6.19,16.2,18.42S0,47.42,0,68.39c0,22,4.89,38.94,14.84,50.8S39,137.06,57.64,137.06c12.75,0,23.53-1.73,32.39-5.39Zm21.63,18.32H138.9q31.22,0,47.78-17.51T203.23,67.3q0-30.91-16-48.16T142.6,1.91H111.66Zm17-118.82h12.2q44.54,0,44.61,51.43,0,52.82-48.13,52.8h-8.68Z" fill="#e6e6e6"/><path d="M332.81,2H266.69C249.46,2,219.5,5.46,219.5,15.1V18a3.92,3.92,0,0,0,3.78,4H332.81a3.92,3.92,0,0,0,3.78-4V6.06a3.92,3.92,0,0,0-3.78-4Z" fill="#ff2a7f"/><path d="M222.82,39h34.63c21.2,0,27.74,4.39,27.74,12.27V55c0,2.25-1.51,4.06-3.37,4.06h-49c-5.7,0-13.39-5.24-13.39-12v-4c0-2.25,1.5-4.06,3.37-4.06Z" fill="#2ad4ff"/><path d="M223,134.32h66.1c17.23,0,47.19-3.44,47.19-13.08v-2.86a3.92,3.92,0,0,0-3.77-4.06H223a3.91,3.91,0,0,0-3.78,4v11.92a3.92,3.92,0,0,0,3.78,4Z" fill="#9f5"/><path d="M332.48,96.36H297.86c-21.21,0-27.75-4.4-27.75-12.27V80.42c0-2.25,1.51-4.06,3.38-4.06h49c5.71,0,13.4,5.23,13.4,12V92.3c0,2.25-1.51,4.06-3.38,4.06Z" fill="#2ad4ff"/></g></g></g></g></svg>