<svg id="d1768dbb-9df9-4c74-9f10-cb6b329b37d5" data-name="Calque 1" xmlns="http://www.w3.org/2000/svg" xmlns:xlink="http://www.w3.org/1999/xlink" viewBox="0 0 183.56 175.83"><defs><clipPath id="2ae811a8-3c2a-48dd-abe5-7b685f44c8c2"><polygon points="75.67 156.54 43.64 138.05 25.15 106.02 25.15 69.03 43.64 37 75.67 18.51 112.66 18.51 144.69 37 163.18 69.03 163.18 106.02 144.69 138.05 112.66 156.54 75.67 156.54" fill="none"/></clipPath></defs><title>logo_ux-team</title><g id="12971ab6-4b70-4fd8-8c85-382781423c89" data-name="Calque 2"><g id="4659fd55-884f-4776-b825-ec892b61a422" data-name="desktop"><g clip-path="url(#2ae811a8-3c2a-48dd-abe5-7b685f44c8c2)"><path d="M13,139.68l35.53-26L2.1,97.72Z" fill="#1f7297" stroke="#1f7297" stroke-width="0.1"/><path d="M70,58.29l-6-52L43.64,37Z" fill="#189ebe" stroke="#189ebe" stroke-width="0.1"/><path d="M61.49,78.7,43.64,37,21.81,74.41Z" fill="#1f8cae" stroke="#1f8cae" stroke-width="0.1"/><path d="M70,58.29,88.35,18.51,64.08,6.32Z" fill="#13a7c4" stroke="#13a7c4" stroke-width="0.1"/><path d="M48.53,113.72,21.81,74.41,2.1,97.72Z" fill="#237a9f" stroke="#237a9f" stroke-width="0.1"/><path d="M61.49,78.7,70,58.29,43.64,37Z" fill="#1891b1" stroke="#1891b1" stroke-width="0.1"/><path d="M48.53,113.72l13-35L21.81,74.41Z" fill="#1b7da1" stroke="#1b7da1" stroke-width="0.1"/><path d="M69.5,127.14l13.2-12.35-34.17-1.07Z" fill="#176a90" stroke="#176a90" stroke-width="0.1"/><path d="M48.53,113.72l34.17,1.07L61.49,78.7Z" fill="#16759a" stroke="#16759a" stroke-width="0.1"/><path d="M118.29,48.39,88.35,18.51,70,58.29Z" fill="#009dbb" stroke="#009dbb" stroke-width="0.1"/><path d="M38.37,161.26l10.16-47.54L13,139.68Z" fill="#176c8e" stroke="#176c8e" stroke-width="0.1"/><path d="M61.49,78.7l31.15-.62L70,58.29Z" fill="#128bac" stroke="#128bac" stroke-width="0.1"/><path d="M92.64,78.08l25.65-29.69L70,58.29Z" fill="#128faf" stroke="#128faf" stroke-width="0.1"/><path d="M118.29,48.39l-5.24-29.88H88.35Z" fill="#129ebd" stroke="#129ebd" stroke-width="0.1"/><path d="M82.7,114.79l9.94-36.71-31.15.62Z" fill="#127ea1" stroke="#127ea1" stroke-width="0.1"/><path d="M38.37,161.26,69.5,127.14l-21-13.42Z" fill="#16668c" stroke="#16668c" stroke-width="0.1"/><path d="M82.7,114.79l17.83-9.25L92.64,78.08Z" fill="#15759a" stroke="#15759a" stroke-width="0.1"/><path d="M66.49,175.75l3-48.61L38.37,161.26Z" fill="#175d82" stroke="#175d82" stroke-width="0.1"/><path d="M66.49,175.75,86,135.94l-16.49-8.8Z" fill="#155c83" stroke="#155c83" stroke-width="0.1"/><path d="M132.32,68.92l-14-20.53L92.64,78.08Z" fill="#1189ac" stroke="#1189ac" stroke-width="0.1"/><path d="M126.21,87l6.11-18.07L92.64,78.08Z" fill="#1480a4" stroke="#1480a4" stroke-width="0.1"/><path d="M118.29,48.39,144.69,37,113.05,18.51Z" fill="#1f97b7" stroke="#1f97b7" stroke-width="0.1"/><path d="M100.53,105.54,126.21,87,92.64,78.08Z" fill="#137a9e" stroke="#137a9e" stroke-width="0.1"/><path d="M107.82,168.29,86,135.94,66.5,175.75Z" fill="#15537c" stroke="#15537c" stroke-width="0.1"/><path d="M132.32,68.92,144.69,37l-26.4,11.39Z" fill="#188fb0" stroke="#188fb0" stroke-width="0.1"/><path d="M86,135.94l-3.3-21.15L69.5,127.14Z" fill="#16648b" stroke="#16648b" stroke-width="0.1"/><path d="M86,135.94l14.54-30.4L82.7,114.79Z" fill="#16688f" stroke="#16688f" stroke-width="0.1"/><path d="M132.32,68.92l50-21.54L144.69,37Z" fill="#1e88ac" stroke="#1e88ac" stroke-width="0.1"/><path d="M86,135.94l40.67-12.49-26.13-17.91Z" fill="#175f88" stroke="#175f88" stroke-width="0.1"/><path d="M126.66,123.45,126.21,87l-25.68,18.55Z" fill="#176a90" stroke="#176a90" stroke-width="0.1"/><path d="M180.74,73.21l1.57-25.83-50,21.54Z" fill="#1a7fa3" stroke="#1a7fa3" stroke-width="0.1"/><path d="M107.82,168.29l18.84-44.84L86,135.94Z" fill="#12517d" stroke="#12517d" stroke-width="0.1"/><path d="M126.66,123.45,163.18,106l-37-19Z" fill="#15688e" stroke="#15688e" stroke-width="0.1"/><path d="M126.21,87l37,19L132.35,68.9Z" fill="#14799c" stroke="#14799c" stroke-width="0.1"/><path d="M163.18,106l17.56-32.81L132.32,68.9Z" fill="#11799d" stroke="#11799d" stroke-width="0.1"/><path d="M139,172.16l23.23-20.45-35.61-28.26Z" fill="#104673" stroke="#104673" stroke-width="0.1"/><path d="M139,172.16l-12.38-48.71-18.84,44.84Z" fill="#104673" stroke="#104673" stroke-width="0.1"/><path d="M183.37,113.29,163.18,106l-36.52,17.43Z" fill="#155e86" stroke="#155e86" stroke-width="0.1"/><path d="M162.27,151.71l21.1-38.42-56.71,10.16Z" fill="#14527d" stroke="#14527d" stroke-width="0.1"/></g><path d="M58.45,86V59.78H66V86.54c0,6.93,2.79,9.84,7.32,9.84s7.52-2.91,7.52-9.84V59.78H88V86c0,11.6-5.38,17-14.71,17S58.45,97.55,58.45,86Z" fill="#fff"/><path d="M106.14,80.32,94.48,59.78h8.35l5,9.39c1,1.94,2,4,3.31,6.48h.26c1.1-2.53,2-4.54,3-6.48l4.79-9.39h8L115.47,80.64l12.44,21.51h-8.29l-5.51-10c-1.17-2.2-2.27-4.34-3.57-6.93h-.25c-1.17,2.59-2.21,4.73-3.31,6.93l-5.31,10h-8Z" fill="#fff"/><path d="M146.36,26.33l21.07,20,12.57-18Z" fill="#1580a3"/><path d="M159.75,49.21l7.17,12,3.85-8.13Z" fill="#13a7c4"/><path d="M124.22,19.82l17.36-9.53L118.6,0Z" fill="#13a7c4"/><path d="M175.76,113.72,153,128.4l14.92,13.72Z" fill="#123f6a"/><path d="M162.27,141.32l-8.13-3.12.43,11.46Z" fill="#14547f"/><path d="M126.66,154.13l10.67,9-.4-9.92Z" fill="#145a82"/><path d="M124.62,155.16l-1,6.1,6-.81Z" fill="#1e88ac"/><path d="M0,111.94l24.69,18.54-2.4-18Z" fill="#16668d"/><path d="M8.66,106,16,108l-2.33-7.89Z" fill="#1891b1"/><path d="M30.74,131.2l-6,7.76,7,.62Z" fill="#14547f"/><path d="M34.42,19.9l4.88,9.3,3-10.51Z" fill="#189ebe"/><path d="M90.75,114.85H87.14v-1.31h8.71v1.31H92.31v11H90.75Z" fill="#fff"/><path d="M100.41,116.51c2.33,0,3.65,1.67,3.65,4.29a6.07,6.07,0,0,1-.06.85H97.83c.11,2,1.3,3.22,3,3.22a4.1,4.1,0,0,0,2.27-.72l.55,1a5.46,5.46,0,0,1-3,.94c-2.45,0-4.39-1.79-4.39-4.78S98.32,116.51,100.41,116.51Zm2.29,4.12c0-1.86-.83-2.9-2.26-2.9-1.28,0-2.44,1.06-2.63,2.9Z" fill="#fff"/><path d="M111.19,120.09c0-1.17-.39-2.3-1.88-2.3a4.92,4.92,0,0,0-2.73,1L106,117.7a6.81,6.81,0,0,1,3.6-1.19c2.24,0,3.18,1.49,3.18,3.76v5.61H111.5l-.14-1.09h0a5,5,0,0,1-3,1.32,2.49,2.49,0,0,1-2.69-2.29c0-.1,0-.21,0-.31C105.56,121.52,107.3,120.52,111.19,120.09Zm-2.5,4.78a3.71,3.71,0,0,0,2.5-1.23V121.1c-3.07.38-4.1,1.13-4.1,2.3a1.41,1.41,0,0,0,1.33,1.48A1.22,1.22,0,0,0,108.69,124.87Z" fill="#fff"/><path d="M115.28,116.74h1.28l.13,1.31h.06a4,4,0,0,1,2.84-1.54,2.41,2.41,0,0,1,2.52,1.75,4.32,4.32,0,0,1,3-1.75c1.89,0,2.79,1.24,2.79,3.58v5.79h-1.54v-5.59c0-1.71-.55-2.44-1.7-2.44a3.38,3.38,0,0,0-2.3,1.41v6.62h-1.54v-5.59c0-1.71-.54-2.44-1.71-2.44a3.45,3.45,0,0,0-2.3,1.41v6.62h-1.54Z" fill="#fff"/></g></g></svg>