<svg xmlns="http://www.w3.org/2000/svg" viewBox="0 0 255.11 360.09"><title>logo_html</title><g id="5555efd7-9bb6-4349-89f7-f55fff55a796" data-name="Calque 2"><g id="a883d408-391b-490f-ab43-aefca3197a91" data-name="phone"><path d="M255.11,70.77,231.87,331.13l-104.47,29L23.22,331.17,0,70.77Z" fill="#e44d26"/><path d="M127.55,338,212,314.55,231.83,92.06H127.55V338Z" fill="#f16529"/><path d="M82.38,155.93h45.17V124H47.47l.77,8.57,7.85,88h71.46V188.64H85.29l-2.91-32.71Z" fill="#ebebeb"/><path d="M89.57,236.54H57.51L62,286.69l65.42,18.16.14,0V271.58l-.14,0L91.85,262l-2.28-25.47Z" fill="#ebebeb"/><path d="M23.74,0H40V16H54.81V0H71V48.56H54.81V32.3H40V48.56H23.74V0Z"/><path d="M92.39,16.1H78.1V0h44.81V16.1H108.62V48.56H92.39V16.1Z"/><path d="M130,0H147l10.41,17.06L167.76,0h16.93V48.56H168.52V24.49L157.36,41.76h-.28L145.9,24.49V48.56H130V0Z"/><path d="M192.76,0H209V32.51h22.82V48.56H192.76V0Z"/><path d="M127.44,220.57h39.33L163.06,262l-35.62,9.62v33.22l65.48-18.14.48-5.4,7.5-84.08.78-8.57H127.44v31.93Z" fill="#fff"/><path d="M127.44,155.85v.08h77.15l.64-7.18,1.45-16.19.77-8.57h-80v31.86Z" fill="#fff"/></g></g></svg>
