<svg xmlns="http://www.w3.org/2000/svg" xmlns:xlink="http://www.w3.org/1999/xlink" viewBox="0 0 921 921"><defs><linearGradient id="be92f274-8959-499a-b00d-6876d5b82fe1" x1="418.07" y1="418.07" x2="502.93" y2="502.93" gradientUnits="userSpaceOnUse"><stop offset="0" stop-color="#faefa0" stop-opacity="0.15"/><stop offset="1" stop-color="#fc0"/></linearGradient></defs><title>illustration_cloud</title><g id="3232aa9f-8372-4948-a22d-69524387a54b" data-name="Calque 2"><g id="a4a78f98-5bed-4cb0-92c5-dd1cfa7f45c4" data-name="Calque 2"><circle id="bdf7d687-6683-476d-ae7f-dda0dfdf548c" data-name="network" cx="460.5" cy="460.5" r="70" fill="none" stroke="#fc0" stroke-miterlimit="10" opacity="0.32"/><circle cx="224.36" cy="416.5" r="32" fill="none" stroke="#fc0" stroke-miterlimit="10" opacity="0.8"/><circle cx="634.65" cy="514.13" r="32" fill="none" stroke="#fc0" stroke-miterlimit="10" opacity="0.8"/><circle cx="344.5" cy="460.5" r="16" fill="none" stroke="#fc0" stroke-miterlimit="10" opacity="0.6"/><circle cx="598.38" cy="401.42" r="16" fill="none" stroke="#59d2ef" stroke-miterlimit="10"/><g opacity="0.25"><path id="ee99e821-77f3-447d-bd20-e001f9c71073" data-name="network" d="M347,436.5a116,116,0,1,1,0,47.88" fill="none" stroke="#122844" stroke-linecap="round" stroke-linejoin="round"/><circle cx="552.5" cy="389.42" r="4" fill="#122844"/></g><g opacity="0.4"><path id="04096483-63c9-4f60-87b9-ef0787226165" data-name="network" d="M620.44,551.53a184,184,0,1,1,24.06-91q0,7.42-.58,14.71" fill="none" stroke="#122844" stroke-linecap="round" stroke-linejoin="round"/><path d="M643.74,475.17a40,40,0,1,1-23.33,76.35" fill="none" stroke="#122844" stroke-miterlimit="10"/></g><path id="6d8605c0-edee-4a3c-8ece-c5cf0e090057" data-name="network" d="M770.1,476.45C761.79,640.25,626.36,770.5,460.5,770.5c-171.21,0-310-138.79-310-310s138.79-310,310-310c149.81,0,274.8,106.26,303.7,247.52" fill="none" stroke="#59d2ef" stroke-linecap="round" stroke-miterlimit="10" stroke-dasharray="8 8" opacity="0.25"/><g opacity="0.08"><circle cx="90.89" cy="444.11" r="16" fill="none" stroke="#122844" stroke-miterlimit="10"/><path id="ce65a98b-804b-4fb0-89c4-ff9c7c8d3805" data-name="network" d="M91.9,428.14C108.29,239,267.06,90.5,460.5,90.5c204.35,0,370,165.65,370,370s-165.65,370-370,370-370-165.65-370-370" fill="none" stroke="#122844" stroke-linecap="round" stroke-linejoin="round"/></g><g opacity="0.6"><g id="3765c8d5-0725-4515-ab15-c2ed398252bc" data-name="network"><circle cx="460.5" cy="460.5" r="90" fill="none" stroke="#59d2ef" stroke-linecap="round" stroke-miterlimit="10" stroke-dasharray="8.08 8.08"/></g><circle cx="403.62" cy="390.5" r="3" fill="#59d2ef"/><circle cx="430.13" cy="545.22" r="3" fill="#59d2ef"/></g><g opacity="0.4"><path id="537e6f61-1448-42f2-ab7c-ec18f464a5bf" data-name="network" d="M591.25,534.07a150.05,150.05,0,0,1-276.57-38.24" fill="none" stroke="#fc0" stroke-linecap="round" stroke-linejoin="round"/><path id="b1e33b38-3a95-440d-85c3-2e7cec78fe63" data-name="network" d="M606.07,424.16a150.57,150.57,0,0,1,4.43,36.34q0,6.28-.51,12.44" fill="none" stroke="#fc0" stroke-linecap="round" stroke-linejoin="round"/><path id="b30360ba-5a7d-4ecb-9cc9-0262fb94f0ed" data-name="network" d="M460.5,310.5a149.87,149.87,0,0,1,126.7,69.68" fill="none" stroke="#fc0" stroke-linecap="round" stroke-linejoin="round"/><circle cx="322.48" cy="493.88" r="8" fill="none" stroke="#fc0" stroke-miterlimit="10"/><circle cx="598.38" cy="401.42" r="24" fill="none" stroke="#fc0" stroke-miterlimit="10"/></g><g opacity="0.4"><circle cx="759.58" cy="438.08" r="32" fill="none" stroke="#122844" stroke-miterlimit="10"/><circle cx="182.88" cy="520.5" r="16" fill="none" stroke="#122844" stroke-miterlimit="10"/><path id="3a0407c9-4cb3-46b2-a3e6-4911a85cc71e" data-name="network" d="M760.35,470.07C755.29,631.33,623,760.5,460.5,760.5c-143.86,0-264.07-101.26-293.24-236.38" fill="none" stroke="#122844" stroke-linecap="round" stroke-linejoin="round"/><path id="54447a20-1b81-42fb-a8dc-f5f42bd4d177" data-name="network" d="M171.07,381.28C205.82,254,322.24,160.5,460.5,160.5c147.19,0,269.62,106,295.12,245.83" fill="none" stroke="#122844" stroke-linecap="round" stroke-linejoin="round"/><circle cx="171.03" cy="381.27" r="4" fill="#122844"/></g><circle id="9f0ed366-e25c-4592-92ec-fe0e00a8bc5c" data-name="network" cx="460.5" cy="460.5" r="460" fill="none" stroke="#122844" stroke-linecap="round" stroke-linejoin="round" opacity="0.04"/><g opacity="0.12"><path id="65fbc210-9943-4971-8f99-3442995ff7e6" data-name="network" d="M860.16,477.16C851.43,690.35,675.83,860.5,460.5,860.5c-220.91,0-400-179.09-400-400s179.09-400,400-400C654.18,60.5,815.71,198.16,852.59,381" fill="none" stroke="#fc0" stroke-linecap="round" stroke-linejoin="round"/><circle cx="61.36" cy="483" r="3" fill="#fc0"/><circle cx="876.16" cy="477.18" r="16" fill="none" stroke="#fc0" stroke-miterlimit="10"/><circle cx="854.07" cy="388.83" r="8" fill="none" stroke="#fc0" stroke-miterlimit="10"/></g><g opacity="0.6"><path id="3ccd7213-2daa-4b79-88dc-d2b319fd3661" data-name="network" d="M235.06,378C268.71,286.08,357,220.5,460.5,220.5c132.55,0,240,107.45,240,240s-107.45,240-240,240-240-107.45-240-240c0-1.34,0-2.67,0-4" fill="none" stroke="#59d2ef" stroke-linecap="round" stroke-linejoin="round"/><circle cx="224.36" cy="416.5" r="40" fill="none" stroke="#59d2ef" stroke-miterlimit="10"/><circle cx="699.09" cy="486.63" r="4" fill="#59d2ef"/></g><g opacity="0.8"><path id="b7d34d2b-04aa-48d7-8b89-0ae4af26d8b5" data-name="network" d="M622.1,560.47a189.87,189.87,0,0,1-161.6,90c-104.93,0-190-85.07-190-190s85.07-190,190-190,190,85.07,190,190c0,.84,0,1.69,0,2.53" fill="none" stroke="#122844" stroke-linecap="round" stroke-linejoin="round"/><circle cx="658.5" cy="463.03" r="8" fill="none" stroke="#122844" stroke-miterlimit="10"/><circle cx="283.05" cy="392.66" r="3" fill="#122844"/></g><g id="3bded136-8ce5-47a8-a69c-c248ec6e1c03" data-name="network"><circle cx="460.5" cy="460.5" r="60" fill="url(#be92f274-8959-499a-b00d-6876d5b82fe1)"/></g><path d="M481,455.73a18,18,0,0,0-33.86-7.67,8.83,8.83,0,0,0-3.1-.56,9,9,0,0,0-9,9,9.73,9.73,0,0,0,.09,1.22,13.5,13.5,0,0,0,7.41,24.78h36A13.5,13.5,0,0,0,481,455.73Z" fill="none" stroke="#122844" stroke-linecap="round" stroke-linejoin="round"/><path d="M645.12,512.3c0-.22,0-.44,0-.67a8.49,8.49,0,0,0-16.1-3.79,4.46,4.46,0,0,0-6.66,5.17,6.5,6.5,0,0,0,3.26,12.12h18a6.5,6.5,0,0,0,1.47-12.83Z" fill="none" stroke="#122844" stroke-linecap="round" stroke-linejoin="round"/><path d="M626.15,517.13a1,1,0,0,1-1-1v-4a1,1,0,0,1,1-1h15a1,1,0,0,1,1,1v4a1,1,0,0,1-1,1" fill="none" stroke="#122844" stroke-linecap="round" stroke-linejoin="round"/><path d="M640.65,513.13a.5.5,0,1,1-.5-.5.5.5,0,0,1,.5.5" fill="#122844"/><rect x="625.15" y="517.13" width="17" height="6" rx="1" ry="1" fill="none" stroke="#122844" stroke-linecap="round" stroke-linejoin="round"/><path d="M640.65,519.13a.5.5,0,1,1-.5-.5.5.5,0,0,1,.5.5" fill="#122844"/><path d="M234.83,414.67c0-.22,0-.44,0-.67a8.49,8.49,0,0,0-16.1-3.79,4.37,4.37,0,0,0-2.4-.71,4.44,4.44,0,0,0-4.26,5.88,6.5,6.5,0,0,0,3.26,12.12h18a6.5,6.5,0,0,0,1.47-12.83Z" fill="none" stroke="#122844" stroke-linecap="round" stroke-linejoin="round"/><rect x="218.86" y="415.5" width="11" height="9" rx="1" ry="1" fill="none" stroke="#122844" stroke-linecap="round" stroke-linejoin="round"/><path d="M220.86,415.67V413a3.5,3.5,0,0,1,7,0v2.67" fill="none" stroke="#122844" stroke-linejoin="round"/><line x1="224.36" y1="419" x2="224.36" y2="421" fill="none" stroke="#122844" stroke-linecap="round" stroke-miterlimit="10" stroke-width="2"/><g opacity="0.2"><rect x="83.39" y="434.61" width="15" height="19" rx="1" ry="1" fill="none" stroke="#122844" stroke-linecap="round" stroke-linejoin="round"/><circle cx="90.89" cy="442.11" r="1.5" fill="none" stroke="#122844" stroke-linecap="round" stroke-linejoin="round"/><path d="M96,449.05a1.49,1.49,0,0,1,0,2.12,1.51,1.51,0,0,1-2.12,0c-.59-.59-3.59-4.54-3-5.12S95.36,448.46,96,449.05Z" fill="none" stroke="#122844" stroke-linecap="round" stroke-linejoin="round"/><path d="M93.3,447.05a5.49,5.49,0,1,0-2.41.56l.38,0" fill="none" stroke="#122844" stroke-linecap="round" stroke-linejoin="round"/></g><line x1="596.4" y1="399.44" x2="597.72" y2="400.77" fill="none" stroke="#122844" stroke-linecap="round" stroke-linejoin="round"/><polyline points="594.53 391.92 597.65 395.04 596.38 399.43 592 400.7 588.88 397.58" fill="none" stroke="#122844" stroke-linecap="round" stroke-linejoin="round"/><polygon points="595.26 395.45 594.66 397.7 592.4 398.31 590.75 396.66 591.36 394.4 593.61 393.8 595.26 395.45" fill="none" stroke="#122844" stroke-linecap="round" stroke-linejoin="round"/><rect x="601" y="398.84" width="3" height="13.39" rx="1" ry="1" transform="translate(-110.29 544.81) rotate(-45)" fill="none" stroke="#122844" stroke-linecap="round" stroke-linejoin="round"/><g opacity="0.8"><circle cx="344.5" cy="454.5" r="3.5" fill="none" stroke="#122844" stroke-linecap="round" stroke-linejoin="round"/><path d="M350,466.7a5.5,5.5,0,1,0-11,0V470h11Z" fill="none" stroke="#122844" stroke-linecap="round" stroke-linejoin="round"/></g><g opacity="0.6"><circle cx="759.58" cy="438.08" r="4.5" fill="none" stroke="#122844" stroke-linecap="round" stroke-linejoin="round"/><path d="M774,440.58a1,1,0,0,0,1-.91c0-.52.09-1.05.09-1.59s0-1.07-.09-1.59a1,1,0,0,0-1-.91h-1.37a1,1,0,0,1-1-.77,12.42,12.42,0,0,0-1.23-2.95,1,1,0,0,1,.14-1.23l1-1a1,1,0,0,0,.06-1.35,13.81,13.81,0,0,0-2.25-2.25,1,1,0,0,0-1.35.06l-1,1a1,1,0,0,1-1.23.14,12.35,12.35,0,0,0-2.95-1.23,1,1,0,0,1-.77-1v-1.37a1,1,0,0,0-.91-1,14.09,14.09,0,0,0-3.18,0,1,1,0,0,0-.91,1V425a1,1,0,0,1-.77,1,12.35,12.35,0,0,0-2.95,1.23,1,1,0,0,1-1.23-.14l-1-1a1,1,0,0,0-1.35-.06,13.81,13.81,0,0,0-2.25,2.25,1,1,0,0,0,.06,1.35l1,1a1,1,0,0,1,.14,1.23,12.42,12.42,0,0,0-1.23,2.95,1,1,0,0,1-1,.77h-1.37a1,1,0,0,0-1,.91,14.09,14.09,0,0,0,0,3.18,1,1,0,0,0,1,.91h1.37a1,1,0,0,1,1,.77,12.77,12.77,0,0,0,1.23,2.95,1,1,0,0,1-.14,1.22l-1,1a1,1,0,0,0-.06,1.35,13.81,13.81,0,0,0,2.25,2.25,1,1,0,0,0,1.35-.07l1-1a1,1,0,0,1,1.23-.14,12.32,12.32,0,0,0,2.95,1.22,1,1,0,0,1,.77,1v1.37a1,1,0,0,0,.91,1,12.69,12.69,0,0,0,3.18,0,1,1,0,0,0,.91-1v-1.37a1,1,0,0,1,.77-1,12.32,12.32,0,0,0,2.95-1.22,1,1,0,0,1,1.23.14l1,1a1,1,0,0,0,1.35.07,13.81,13.81,0,0,0,2.25-2.25,1,1,0,0,0-.06-1.35l-1-1a1,1,0,0,1-.14-1.22,12.77,12.77,0,0,0,1.23-2.95,1,1,0,0,1,1-.77Z" fill="none" stroke="#122844" stroke-linecap="round" stroke-linejoin="round"/></g><g opacity="0.6"><polygon points="179.38 528 173.38 530 175.38 524 188.38 511 192.38 515 179.38 528" fill="none" stroke="#122844" stroke-linejoin="round"/><line x1="185.88" y1="513.5" x2="189.88" y2="517.5" fill="none" stroke="#122844" stroke-linejoin="round"/><line x1="175.38" y1="524" x2="179.38" y2="528" fill="none" stroke="#122844" stroke-linejoin="round"/><polygon points="173.38 530 176.38 529 174.38 527 173.38 530" fill="#122844"/></g><g opacity="0.4"><path d="M884.66,479.68h-14a1,1,0,0,1-1-1v-10h-2" fill="none" stroke="#122844" stroke-linecap="round" stroke-linejoin="round"/><circle cx="872.66" cy="483.68" r="2" fill="none" stroke="#122844" stroke-miterlimit="10"/><circle cx="882.66" cy="483.68" r="2" fill="none" stroke="#122844" stroke-miterlimit="10"/><path d="M869.66,469.68h15v4a3,3,0,0,1-3,3h-12" fill="none" stroke="#122844" stroke-linejoin="round"/></g></g></g></svg>