<svg xmlns="http://www.w3.org/2000/svg" xmlns:xlink="http://www.w3.org/1999/xlink" viewBox="0 0 921 921"><defs><linearGradient id="814e27a1-5613-48ee-ba6a-6bb1b6abf744" x1="418.07" y1="418.07" x2="502.93" y2="502.93" gradientUnits="userSpaceOnUse"><stop offset="0" stop-color="#38a7c3" stop-opacity="0.15"/><stop offset="1" stop-color="#38a7c3"/></linearGradient></defs><title>illustration_dedicated</title><g id="d13a3fc0-d3c9-47e5-9408-d74503e9a64f" data-name="Calque 2"><g id="d49cd830-940d-496a-a4a0-b8b81b65a776" data-name="Calque 2"><circle id="22e16e28-1ded-490a-a871-90ee29a7e3a9" data-name="network" cx="460.5" cy="460.5" r="70" fill="none" stroke="#38a7c3" stroke-miterlimit="10" opacity="0.32"/><circle cx="224.36" cy="416.5" r="32" fill="none" stroke="#38a7c3" stroke-miterlimit="10" opacity="0.8"/><circle cx="634.65" cy="514.13" r="32" fill="none" stroke="#38a7c3" stroke-miterlimit="10" opacity="0.8"/><circle cx="344.5" cy="460.5" r="16" fill="none" stroke="#38a7c3" stroke-miterlimit="10" opacity="0.6"/><circle cx="598.38" cy="401.42" r="16" fill="none" stroke="#59d2ef" stroke-miterlimit="10"/><g opacity="0.25"><path id="4debef65-eafb-450c-8d43-b7c4edd79425" data-name="network" d="M347,436.5a116,116,0,1,1,0,47.88" fill="none" stroke="#122844" stroke-linecap="round" stroke-linejoin="round"/><circle cx="552.5" cy="389.42" r="4" fill="#122844"/></g><g opacity="0.4"><path id="9b2c7458-0a32-44e4-8e52-a8f2a47965b4" data-name="network" d="M620.44,551.53a184,184,0,1,1,24.06-91q0,7.42-.58,14.71" fill="none" stroke="#122844" stroke-linecap="round" stroke-linejoin="round"/><path d="M643.74,475.17a40,40,0,1,1-23.33,76.35" fill="none" stroke="#122844" stroke-miterlimit="10"/></g><path id="882a2837-0c98-47b5-aa7f-c526ad2cb7a0" data-name="network" d="M770.1,476.45C761.79,640.25,626.36,770.5,460.5,770.5c-171.21,0-310-138.79-310-310s138.79-310,310-310c149.81,0,274.8,106.26,303.7,247.52" fill="none" stroke="#59d2ef" stroke-linecap="round" stroke-miterlimit="10" stroke-dasharray="8 8" opacity="0.25"/><g opacity="0.08"><circle cx="90.89" cy="444.11" r="16" fill="none" stroke="#122844" stroke-miterlimit="10"/><path id="6b419536-3f7a-4d75-b268-dfc821f9c07f" data-name="network" d="M91.9,428.14C108.29,239,267.06,90.5,460.5,90.5c204.35,0,370,165.65,370,370s-165.65,370-370,370-370-165.65-370-370" fill="none" stroke="#122844" stroke-linecap="round" stroke-linejoin="round"/></g><g opacity="0.6"><g id="ae33747e-bb8b-4e11-8713-ad935a367ca1" data-name="network"><circle cx="460.5" cy="460.5" r="90" fill="none" stroke="#59d2ef" stroke-linecap="round" stroke-miterlimit="10" stroke-dasharray="8.08 8.08"/></g><circle cx="403.62" cy="390.5" r="3" fill="#59d2ef"/><circle cx="430.13" cy="545.22" r="3" fill="#59d2ef"/></g><g opacity="0.4"><path id="fe2343d2-4aaa-42fe-84e8-900d9335dd73" data-name="network" d="M591.25,534.07a150.05,150.05,0,0,1-276.57-38.24" fill="none" stroke="#38a7c3" stroke-linecap="round" stroke-linejoin="round"/><path id="62aa473b-5caf-4ca6-acd7-a5ab5d3954dd" data-name="network" d="M606.07,424.16a150.57,150.57,0,0,1,4.43,36.34q0,6.28-.51,12.44" fill="none" stroke="#38a7c3" stroke-linecap="round" stroke-linejoin="round"/><path id="9fc7f688-9d85-4ac6-a2d6-14f997974a77" data-name="network" d="M460.5,310.5a149.87,149.87,0,0,1,126.7,69.68" fill="none" stroke="#38a7c3" stroke-linecap="round" stroke-linejoin="round"/><circle cx="322.48" cy="493.88" r="8" fill="none" stroke="#38a7c3" stroke-miterlimit="10"/><circle cx="598.38" cy="401.42" r="24" fill="none" stroke="#38a7c3" stroke-miterlimit="10"/></g><g opacity="0.4"><circle cx="759.58" cy="438.08" r="32" fill="none" stroke="#122844" stroke-miterlimit="10"/><circle cx="182.88" cy="520.5" r="16" fill="none" stroke="#122844" stroke-miterlimit="10"/><path id="2a55683a-ee43-4cb2-be03-0ab2d81afc7e" data-name="network" d="M760.35,470.07C755.29,631.33,623,760.5,460.5,760.5c-143.86,0-264.07-101.26-293.24-236.38" fill="none" stroke="#122844" stroke-linecap="round" stroke-linejoin="round"/><path id="57ca9305-e865-479b-bdb7-ccccf01405b9" data-name="network" d="M171.07,381.28C205.82,254,322.24,160.5,460.5,160.5c147.19,0,269.62,106,295.12,245.83" fill="none" stroke="#122844" stroke-linecap="round" stroke-linejoin="round"/><circle cx="171.03" cy="381.27" r="4" fill="#122844"/></g><circle id="5ff5a49e-fd42-4103-b9b2-4c78c6656665" data-name="network" cx="460.5" cy="460.5" r="460" fill="none" stroke="#122844" stroke-linecap="round" stroke-linejoin="round" opacity="0.04"/><g opacity="0.12"><path id="52e76e5b-a07b-4ab5-bcb7-2e533abb9c62" data-name="network" d="M860.16,477.16C851.43,690.35,675.83,860.5,460.5,860.5c-220.91,0-400-179.09-400-400s179.09-400,400-400C654.18,60.5,815.71,198.16,852.59,381" fill="none" stroke="#38a7c3" stroke-linecap="round" stroke-linejoin="round"/><circle cx="61.36" cy="483" r="3" fill="#38a7c3"/><circle cx="876.16" cy="477.18" r="16" fill="none" stroke="#38a7c3" stroke-miterlimit="10"/><circle cx="854.07" cy="388.83" r="8" fill="none" stroke="#38a7c3" stroke-miterlimit="10"/></g><g opacity="0.6"><path id="d95beda4-2c70-45d1-83a3-4dce59473fd7" data-name="network" d="M235.06,378C268.71,286.08,357,220.5,460.5,220.5c132.55,0,240,107.45,240,240s-107.45,240-240,240-240-107.45-240-240c0-1.34,0-2.67,0-4" fill="none" stroke="#59d2ef" stroke-linecap="round" stroke-linejoin="round"/><circle cx="224.36" cy="416.5" r="40" fill="none" stroke="#59d2ef" stroke-miterlimit="10"/><circle cx="699.09" cy="486.63" r="4" fill="#59d2ef"/></g><g opacity="0.8"><path id="a09b4c7a-d27b-42e1-a289-86787b789f52" data-name="network" d="M622.1,560.47a189.87,189.87,0,0,1-161.6,90c-104.93,0-190-85.07-190-190s85.07-190,190-190,190,85.07,190,190c0,.84,0,1.69,0,2.53" fill="none" stroke="#122844" stroke-linecap="round" stroke-linejoin="round"/><circle cx="658.5" cy="463.03" r="8" fill="none" stroke="#122844" stroke-miterlimit="10"/><circle cx="283.05" cy="392.66" r="3" fill="#122844"/></g><g id="f02924b3-14ec-4861-9cea-f366c67826e8" data-name="network"><circle cx="460.5" cy="460.5" r="60" fill="url(#814e27a1-5613-48ee-ba6a-6bb1b6abf744)"/></g><rect x="429" y="449" width="63" height="23" rx="3" ry="3" fill="none" stroke="#122844" stroke-linecap="round" stroke-linejoin="round"/><circle cx="483" cy="458" r="2" fill="none" stroke="#122844" stroke-miterlimit="10"/><g opacity="0.2"><line x1="85.89" y1="449.61" x2="95.89" y2="449.61" fill="none" stroke="#122844" stroke-linecap="round" stroke-linejoin="round"/><rect x="85.39" y="434.61" width="11" height="19" rx="1" ry="1" fill="none" stroke="#122844" stroke-linecap="round" stroke-linejoin="round"/><line x1="90.39" y1="451.61" x2="91.39" y2="451.61" fill="none" stroke="#122844" stroke-linecap="round" stroke-linejoin="round"/></g><g opacity="0.6"><circle cx="759.58" cy="438.08" r="4.5" fill="none" stroke="#122844" stroke-linecap="round" stroke-linejoin="round"/><path d="M774,440.58a1,1,0,0,0,1-.91c0-.52.09-1.05.09-1.59s0-1.07-.09-1.59a1,1,0,0,0-1-.91h-1.37a1,1,0,0,1-1-.77,12.42,12.42,0,0,0-1.23-2.95,1,1,0,0,1,.14-1.23l1-1a1,1,0,0,0,.06-1.35,13.81,13.81,0,0,0-2.25-2.25,1,1,0,0,0-1.35.06l-1,1a1,1,0,0,1-1.23.14,12.35,12.35,0,0,0-2.95-1.23,1,1,0,0,1-.77-1v-1.37a1,1,0,0,0-.91-1,14.09,14.09,0,0,0-3.18,0,1,1,0,0,0-.91,1V425a1,1,0,0,1-.77,1,12.35,12.35,0,0,0-2.95,1.23,1,1,0,0,1-1.23-.14l-1-1a1,1,0,0,0-1.35-.06,13.81,13.81,0,0,0-2.25,2.25,1,1,0,0,0,.06,1.35l1,1a1,1,0,0,1,.14,1.23,12.42,12.42,0,0,0-1.23,2.95,1,1,0,0,1-1,.77h-1.37a1,1,0,0,0-1,.91,14.09,14.09,0,0,0,0,3.18,1,1,0,0,0,1,.91h1.37a1,1,0,0,1,1,.77,12.77,12.77,0,0,0,1.23,2.95,1,1,0,0,1-.14,1.22l-1,1a1,1,0,0,0-.06,1.35,13.81,13.81,0,0,0,2.25,2.25,1,1,0,0,0,1.35-.07l1-1a1,1,0,0,1,1.23-.14,12.32,12.32,0,0,0,2.95,1.22,1,1,0,0,1,.77,1v1.37a1,1,0,0,0,.91,1,12.69,12.69,0,0,0,3.18,0,1,1,0,0,0,.91-1v-1.37a1,1,0,0,1,.77-1,12.32,12.32,0,0,0,2.95-1.22,1,1,0,0,1,1.23.14l1,1a1,1,0,0,0,1.35.07,13.81,13.81,0,0,0,2.25-2.25,1,1,0,0,0-.06-1.35l-1-1a1,1,0,0,1-.14-1.22,12.77,12.77,0,0,0,1.23-2.95,1,1,0,0,1,1-.77Z" fill="none" stroke="#122844" stroke-linecap="round" stroke-linejoin="round"/></g><g opacity="0.6"><polygon points="179.38 528 173.38 530 175.38 524 188.38 511 192.38 515 179.38 528" fill="none" stroke="#122844" stroke-linejoin="round"/><line x1="185.88" y1="513.5" x2="189.88" y2="517.5" fill="none" stroke="#122844" stroke-linejoin="round"/><line x1="175.38" y1="524" x2="179.38" y2="528" fill="none" stroke="#122844" stroke-linejoin="round"/><polygon points="173.38 530 176.38 529 174.38 527 173.38 530" fill="#122844"/></g><line x1="596.4" y1="399.44" x2="597.72" y2="400.77" fill="none" stroke="#122844" stroke-linecap="round" stroke-linejoin="round"/><polyline points="594.53 391.92 597.65 395.04 596.38 399.43 592 400.7 588.88 397.58" fill="none" stroke="#122844" stroke-linecap="round" stroke-linejoin="round"/><polygon points="595.26 395.45 594.66 397.7 592.4 398.31 590.75 396.66 591.36 394.4 593.61 393.8 595.26 395.45" fill="none" stroke="#122844" stroke-linecap="round" stroke-linejoin="round"/><path d="M598.11,400.45l-.7.71c-.39.39.78,2.2,1.17,2.59l6.88,6.88a1,1,0,0,0,1.42,0l.7-.71a1,1,0,0,0,0-1.41l-6.88-6.88C600.31,401.24,598.5,400.06,598.11,400.45Z" fill="none" stroke="#122844" stroke-linecap="round" stroke-linejoin="round"/><g opacity="0.8"><circle cx="344.5" cy="454.5" r="3.5" fill="none" stroke="#122844" stroke-linecap="round" stroke-linejoin="round"/><path d="M350,466.7a5.5,5.5,0,1,0-11,0V470h11Z" fill="none" stroke="#122844" stroke-linecap="round" stroke-linejoin="round"/></g><g opacity="0.4"><path d="M884.66,479.68h-14a1,1,0,0,1-1-1v-10h-2" fill="none" stroke="#122844" stroke-linecap="round" stroke-linejoin="round"/><circle cx="872.66" cy="483.68" r="2" fill="none" stroke="#122844" stroke-miterlimit="10"/><circle cx="882.66" cy="483.68" r="2" fill="none" stroke="#122844" stroke-miterlimit="10"/><path d="M869.66,469.68h15v4a3,3,0,0,1-3,3h-12" fill="none" stroke="#122844" stroke-linejoin="round"/></g><line x1="221.86" y1="401" x2="226.86" y2="401" fill="none" stroke="#122844" stroke-linecap="round" stroke-linejoin="round"/><circle cx="224.36" cy="414.5" r="5.5" fill="none" stroke="#122844" stroke-linecap="round" stroke-linejoin="round"/><path d="M233.86,414.5c0,5.25-5.54,17.5-9.5,17.5-3,0-9.5-12.25-9.5-17.5a9.5,9.5,0,0,1,19,0Z" fill="none" stroke="#122844" stroke-linecap="round" stroke-linejoin="round"/><path d="M225.07,415.21a1,1,0,0,1-1.42-1.42,8.06,8.06,0,0,1,2.71-1.29A8.67,8.67,0,0,1,225.07,415.21Z" fill="#122844"/><path d="M216.58,403.78a13.39,13.39,0,0,0-3.34,3.73" fill="none" stroke="#122844" stroke-linecap="round" stroke-linejoin="round"/><path d="M235.49,407.13a13.57,13.57,0,0,0-3.73-3.35" fill="none" stroke="#122844" stroke-linecap="round" stroke-linejoin="round"/><path d="M645.12,512.3c0-.22,0-.44,0-.67a8.49,8.49,0,0,0-16.1-3.79,4.48,4.48,0,0,0-6.9,3.79,4.44,4.44,0,0,0,.24,1.38,6.5,6.5,0,0,0,3.26,12.12h18a6.5,6.5,0,0,0,1.47-12.83Z" fill="none" stroke="#122844" stroke-linecap="round" stroke-linejoin="round"/><rect x="629.15" y="513.13" width="11" height="9" rx="1" ry="1" fill="none" stroke="#122844" stroke-linecap="round" stroke-linejoin="round"/><path d="M631.15,513.3v-2.67a3.5,3.5,0,0,1,3.5-3.5h0a3.5,3.5,0,0,1,3.5,3.5v2.67" fill="none" stroke="#122844" stroke-linejoin="round"/><line x1="634.65" y1="516.63" x2="634.65" y2="518.63" fill="none" stroke="#122844" stroke-linecap="round" stroke-miterlimit="10" stroke-width="2"/></g></g></svg>