<svg xmlns="http://www.w3.org/2000/svg" xmlns:xlink="http://www.w3.org/1999/xlink" viewBox="0 0 921 921"><defs><linearGradient id="ff1156eb-f7c9-4c83-bdcc-011442e44ea9" x1="418.07" y1="418.07" x2="502.93" y2="502.93" gradientUnits="userSpaceOnUse"><stop offset="0" stop-color="#59d2ef" stop-opacity="0.15"/><stop offset="1" stop-color="#33acff"/></linearGradient></defs><title>illustration_telecom</title><g id="7149cf44-6317-44ad-b018-5dfa4369d199" data-name="Calque 2"><g id="fe077cb4-c02b-4e72-9a56-e5978e640bb9" data-name="Calque 2"><rect x="620.15" y="499.63" width="29" height="29" rx="1" ry="1" fill="none" stroke="#122844" stroke-linejoin="round"/><polygon points="640.15 511.63 640.15 505.63 629.15 505.63 629.15 511.63 624.15 511.63 624.15 522.63 645.15 522.63 645.15 511.63 640.15 511.63" fill="none" stroke="#122844" stroke-linecap="round" stroke-linejoin="round"/><line x1="630.15" y1="522.63" x2="630.15" y2="518.63" fill="none" stroke="#122844" stroke-linecap="round" stroke-linejoin="round"/><line x1="627.15" y1="522.63" x2="627.15" y2="518.63" fill="none" stroke="#122844" stroke-linecap="round" stroke-linejoin="round"/><line x1="633.15" y1="522.63" x2="633.15" y2="518.63" fill="none" stroke="#122844" stroke-linecap="round" stroke-linejoin="round"/><line x1="636.15" y1="522.63" x2="636.15" y2="518.63" fill="none" stroke="#122844" stroke-linecap="round" stroke-linejoin="round"/><line x1="639.15" y1="522.63" x2="639.15" y2="518.63" fill="none" stroke="#122844" stroke-linecap="round" stroke-linejoin="round"/><line x1="642.15" y1="522.63" x2="642.15" y2="518.63" fill="none" stroke="#122844" stroke-linecap="round" stroke-linejoin="round"/><line x1="217.86" y1="412" x2="233.86" y2="412" fill="none" stroke="#122844" stroke-linecap="round" stroke-linejoin="round"/><line x1="217.86" y1="420" x2="233.86" y2="420" fill="none" stroke="#122844" stroke-linecap="round" stroke-linejoin="round"/><line x1="217.86" y1="416" x2="233.86" y2="416" fill="none" stroke="#122844" stroke-linecap="round" stroke-linejoin="round"/><path d="M234.86,406h-18a5,5,0,0,0-5,5v11a6.28,6.28,0,0,1-3,5h3a3,3,0,0,0,1.87-.66,1.8,1.8,0,0,1,2.26,0,3,3,0,0,0,1.87.66h17a5,5,0,0,0,5-5V411A5,5,0,0,0,234.86,406Z" fill="none" stroke="#122844" stroke-linecap="round" stroke-linejoin="round"/><circle id="d3d71f79-2c3c-4575-bc4f-d1e1a2c21d0e" data-name="network" cx="460.5" cy="460.5" r="60" fill="#fff"/><circle id="0c8cc3fa-08f0-4748-af91-e543feb56164" data-name="network" cx="460.5" cy="460.5" r="60" fill="url(#ff1156eb-f7c9-4c83-bdcc-011442e44ea9)"/><g id="f55e5917-85a8-480e-855c-578170ed1cb9" data-name="phone-bluetooth-speaker"><path d="M488.5,472.75a39.64,39.64,0,0,1-12.6-2.1,4.31,4.31,0,0,0-3.5.7l-7.7,7.7c-9.8-4.9-17.85-13.3-23.1-23.1l7.7-7.7a2.79,2.79,0,0,0,.7-3.5,47.07,47.07,0,0,1-1.75-12.25,3.31,3.31,0,0,0-3.5-3.5H432.5a3.31,3.31,0,0,0-3.5,3.5A59.45,59.45,0,0,0,488.5,492a3.31,3.31,0,0,0,3.5-3.5V476.25A3.31,3.31,0,0,0,488.5,472.75Z" fill="none" stroke="#122844" stroke-linecap="round" stroke-linejoin="round"/></g><circle id="528fde26-2d5a-4600-863d-72fc7137bbfa" data-name="network" cx="460.5" cy="460.5" r="70" fill="none" stroke="#33acff" stroke-miterlimit="10" opacity="0.32"/><g opacity="0.2"><line x1="85.89" y1="449.61" x2="95.89" y2="449.61" fill="none" stroke="#122844" stroke-linecap="round" stroke-linejoin="round"/><rect x="85.39" y="434.61" width="11" height="19" rx="1" ry="1" fill="none" stroke="#122844" stroke-linecap="round" stroke-linejoin="round"/><line x1="90.39" y1="451.61" x2="91.39" y2="451.61" fill="none" stroke="#122844" stroke-linecap="round" stroke-linejoin="round"/></g><circle cx="224.36" cy="416.5" r="32" fill="none" stroke="#33acff" stroke-miterlimit="10" opacity="0.8"/><circle cx="634.65" cy="514.13" r="32" fill="none" stroke="#33acff" stroke-miterlimit="10" opacity="0.8"/><g opacity="0.6"><circle cx="759.58" cy="438.08" r="4.5" fill="none" stroke="#122844" stroke-linecap="round" stroke-linejoin="round"/><path d="M774,440.58a1,1,0,0,0,1-.91c0-.52.09-1.05.09-1.59s0-1.07-.09-1.59a1,1,0,0,0-1-.91h-1.37a1,1,0,0,1-1-.77,12.42,12.42,0,0,0-1.23-2.95,1,1,0,0,1,.14-1.23l1-1a1,1,0,0,0,.06-1.35,13.81,13.81,0,0,0-2.25-2.25,1,1,0,0,0-1.35.06l-1,1a1,1,0,0,1-1.23.14,12.35,12.35,0,0,0-2.95-1.23,1,1,0,0,1-.77-1v-1.37a1,1,0,0,0-.91-1,14.09,14.09,0,0,0-3.18,0,1,1,0,0,0-.91,1V425a1,1,0,0,1-.77,1,12.35,12.35,0,0,0-2.95,1.23,1,1,0,0,1-1.23-.14l-1-1a1,1,0,0,0-1.35-.06,13.81,13.81,0,0,0-2.25,2.25,1,1,0,0,0,.06,1.35l1,1a1,1,0,0,1,.14,1.23,12.42,12.42,0,0,0-1.23,2.95,1,1,0,0,1-1,.77h-1.37a1,1,0,0,0-1,.91,14.09,14.09,0,0,0,0,3.18,1,1,0,0,0,1,.91h1.37a1,1,0,0,1,1,.77,12.77,12.77,0,0,0,1.23,2.95,1,1,0,0,1-.14,1.22l-1,1a1,1,0,0,0-.06,1.35,13.81,13.81,0,0,0,2.25,2.25,1,1,0,0,0,1.35-.07l1-1a1,1,0,0,1,1.23-.14,12.32,12.32,0,0,0,2.95,1.22,1,1,0,0,1,.77,1v1.37a1,1,0,0,0,.91,1,12.69,12.69,0,0,0,3.18,0,1,1,0,0,0,.91-1v-1.37a1,1,0,0,1,.77-1,12.32,12.32,0,0,0,2.95-1.22,1,1,0,0,1,1.23.14l1,1a1,1,0,0,0,1.35.07,13.81,13.81,0,0,0,2.25-2.25,1,1,0,0,0-.06-1.35l-1-1a1,1,0,0,1-.14-1.22,12.77,12.77,0,0,0,1.23-2.95,1,1,0,0,1,1-.77Z" fill="none" stroke="#122844" stroke-linecap="round" stroke-linejoin="round"/></g><g opacity="0.6"><polygon points="179.38 528 173.38 530 175.38 524 188.38 511 192.38 515 179.38 528" fill="none" stroke="#122844" stroke-linejoin="round"/><line x1="185.88" y1="513.5" x2="189.88" y2="517.5" fill="none" stroke="#122844" stroke-linejoin="round"/><line x1="175.38" y1="524" x2="179.38" y2="528" fill="none" stroke="#122844" stroke-linejoin="round"/><polygon points="173.38 530 176.38 529 174.38 527 173.38 530" fill="#122844"/></g><line x1="596.39" y1="399.44" x2="597.72" y2="400.77" fill="none" stroke="#122844" stroke-linecap="round" stroke-linejoin="round"/><polyline points="594.53 391.92 597.65 395.04 596.38 399.43 592 400.7 588.88 397.58" fill="none" stroke="#122844" stroke-linecap="round" stroke-linejoin="round"/><polygon points="595.26 395.45 594.66 397.7 592.4 398.31 590.75 396.66 591.36 394.4 593.61 393.8 595.26 395.45" fill="none" stroke="#122844" stroke-linecap="round" stroke-linejoin="round"/><rect x="601" y="398.84" width="3" height="13.39" rx="1" ry="1" transform="translate(-110.29 544.81) rotate(-45)" fill="none" stroke="#122844" stroke-linecap="round" stroke-linejoin="round"/><g opacity="0.8"><circle cx="344.5" cy="454.5" r="3.5" fill="none" stroke="#122844" stroke-linecap="round" stroke-linejoin="round"/><path d="M350,466.7a5.5,5.5,0,1,0-11,0V470h11Z" fill="none" stroke="#122844" stroke-linecap="round" stroke-linejoin="round"/></g><circle cx="344.5" cy="460.5" r="16" fill="none" stroke="#33acff" stroke-miterlimit="10" opacity="0.6"/><circle cx="598.38" cy="401.42" r="16" fill="none" stroke="#59d2ef" stroke-miterlimit="10"/><g opacity="0.25"><path id="1aa8bd47-aac1-4c3a-a3ea-56e740ebdcfa" data-name="network" d="M347,436.5a116,116,0,1,1,0,47.88" fill="none" stroke="#122844" stroke-linecap="round" stroke-linejoin="round"/><circle cx="552.5" cy="389.42" r="4" fill="#122844"/></g><g opacity="0.4"><path id="b3ff4690-d130-4b28-b3c3-45016865382a" data-name="network" d="M620.44,551.53a184,184,0,1,1,24.06-91q0,7.42-.58,14.71" fill="none" stroke="#122844" stroke-linecap="round" stroke-linejoin="round"/><path d="M643.74,475.17a40,40,0,1,1-23.33,76.35" fill="none" stroke="#122844" stroke-miterlimit="10"/></g><path id="b2e9a187-4cab-4fc7-94d0-63b598a00589" data-name="network" d="M770.1,476.45C761.79,640.25,626.36,770.5,460.5,770.5c-171.21,0-310-138.79-310-310s138.79-310,310-310c149.81,0,274.8,106.26,303.7,247.52" fill="none" stroke="#59d2ef" stroke-linecap="round" stroke-miterlimit="10" stroke-dasharray="8 8" opacity="0.25"/><g opacity="0.08"><circle cx="90.89" cy="444.11" r="16" fill="none" stroke="#122844" stroke-miterlimit="10"/><path id="79ee707f-8f1e-4234-8af1-7177c0b63b11" data-name="network" d="M91.9,428.14C108.29,239,267.06,90.5,460.5,90.5c204.35,0,370,165.65,370,370s-165.65,370-370,370-370-165.65-370-370" fill="none" stroke="#122844" stroke-linecap="round" stroke-linejoin="round"/></g><g opacity="0.6"><g id="e78e8f45-c750-4503-bf94-dd355998135b" data-name="network"><circle cx="460.5" cy="460.5" r="90" fill="none" stroke="#59d2ef" stroke-linecap="round" stroke-miterlimit="10" stroke-dasharray="8.08 8.08"/></g><circle cx="403.62" cy="390.5" r="3" fill="#59d2ef"/><circle cx="430.13" cy="545.22" r="3" fill="#59d2ef"/></g><g opacity="0.4"><path id="fa756ad1-8283-406d-942e-5cc3ad637c31" data-name="network" d="M591.25,534.07a150.05,150.05,0,0,1-276.57-38.24" fill="none" stroke="#59d2ef" stroke-linecap="round" stroke-linejoin="round"/><path id="2059765a-4c2a-4387-a43c-f440c9123189" data-name="network" d="M606.07,424.16a150.57,150.57,0,0,1,4.43,36.34q0,6.28-.51,12.44" fill="none" stroke="#59d2ef" stroke-linecap="round" stroke-linejoin="round"/><path id="e3d2db1a-96c6-465c-8746-ea1b3c413512" data-name="network" d="M460.5,310.5a149.87,149.87,0,0,1,126.7,69.68" fill="none" stroke="#59d2ef" stroke-linecap="round" stroke-linejoin="round"/><circle cx="322.48" cy="493.88" r="8" fill="none" stroke="#59d2ef" stroke-miterlimit="10"/><circle cx="598.38" cy="401.42" r="24" fill="none" stroke="#59d2ef" stroke-miterlimit="10"/></g><g opacity="0.4"><circle cx="759.58" cy="438.08" r="32" fill="none" stroke="#122844" stroke-miterlimit="10"/><circle cx="182.88" cy="520.5" r="16" fill="none" stroke="#122844" stroke-miterlimit="10"/><path id="6402904f-b26a-488c-a3fa-cad882bcd42b" data-name="network" d="M760.35,470.07C755.29,631.33,623,760.5,460.5,760.5c-143.86,0-264.07-101.26-293.24-236.38" fill="none" stroke="#122844" stroke-linecap="round" stroke-linejoin="round"/><path id="55d9a7be-bb0d-4ef9-b6df-2305300478d4" data-name="network" d="M171.07,381.28C205.82,254,322.24,160.5,460.5,160.5c147.19,0,269.62,106,295.12,245.83" fill="none" stroke="#122844" stroke-linecap="round" stroke-linejoin="round"/><circle cx="171.03" cy="381.27" r="4" fill="#122844"/></g><circle id="67c64ca0-52dd-4ecd-b7e3-696a1a9daa96" data-name="network" cx="460.5" cy="460.5" r="460" fill="none" stroke="#122844" stroke-linecap="round" stroke-linejoin="round" opacity="0.04"/><g opacity="0.4"><path d="M884.66,479.68h-14a1,1,0,0,1-1-1v-10h-2" fill="none" stroke="#122844" stroke-linecap="round" stroke-linejoin="round"/><circle cx="872.66" cy="483.68" r="2" fill="none" stroke="#122844" stroke-miterlimit="10"/><circle cx="882.66" cy="483.68" r="2" fill="none" stroke="#122844" stroke-miterlimit="10"/><path d="M869.66,469.68h15v4a3,3,0,0,1-3,3h-12" fill="none" stroke="#122844" stroke-linejoin="round"/></g><g opacity="0.12"><path id="3255067f-6d45-4369-a460-98a5d02844e9" data-name="network" d="M860.16,477.16C851.43,690.35,675.83,860.5,460.5,860.5c-220.91,0-400-179.09-400-400s179.09-400,400-400C654.18,60.5,815.71,198.16,852.59,381" fill="none" stroke="#33acff" stroke-linecap="round" stroke-linejoin="round"/><circle cx="61.36" cy="483" r="3" fill="#33acff"/><circle cx="876.16" cy="477.18" r="16" fill="none" stroke="#33acff" stroke-miterlimit="10"/><circle cx="854.07" cy="388.83" r="8" fill="none" stroke="#33acff" stroke-miterlimit="10"/></g><g opacity="0.6"><path id="cbfe64e6-4f1e-439f-94de-f6b1175c92c8" data-name="network" d="M235.06,378C268.71,286.08,357,220.5,460.5,220.5c132.55,0,240,107.45,240,240s-107.45,240-240,240-240-107.45-240-240c0-1.34,0-2.67,0-4" fill="none" stroke="#59d2ef" stroke-linecap="round" stroke-linejoin="round"/><circle cx="224.36" cy="416.5" r="40" fill="none" stroke="#59d2ef" stroke-miterlimit="10"/><circle cx="699.09" cy="486.63" r="4" fill="#59d2ef"/></g><g opacity="0.8"><path id="e2280f8a-b592-40dc-96e4-32f1295eaa5f" data-name="network" d="M622.1,560.47a189.87,189.87,0,0,1-161.6,90c-104.93,0-190-85.07-190-190s85.07-190,190-190,190,85.07,190,190c0,.84,0,1.69,0,2.53" fill="none" stroke="#122844" stroke-linecap="round" stroke-linejoin="round"/><circle cx="658.5" cy="463.03" r="8" fill="none" stroke="#122844" stroke-miterlimit="10"/><circle cx="283.05" cy="392.66" r="3" fill="#122844"/></g></g></g></svg>