<svg xmlns="http://www.w3.org/2000/svg" xmlns:xlink="http://www.w3.org/1999/xlink" viewBox="0 0 921 921"><defs><style>.cls-1,.cls-11,.cls-20,.cls-21,.cls-24,.cls-25,.cls-27,.cls-29,.cls-3,.cls-30,.cls-33,.cls-35,.cls-4,.cls-8{fill:none;}.cls-2{clip-path:url(#clip-path);}.cls-24,.cls-3,.cls-30,.cls-4{stroke:#122844;}.cls-29,.cls-3,.cls-30,.cls-33,.cls-4{stroke-linejoin:round;}.cls-25,.cls-27,.cls-29,.cls-30,.cls-33,.cls-4{stroke-linecap:round;}.cls-5{clip-path:url(#clip-path-3);}.cls-6{fill:#fff;}.cls-7{fill:url(#Dégradé_sans_nom_30);}.cls-11,.cls-20,.cls-33,.cls-35,.cls-8{stroke:#33acff;}.cls-11,.cls-20,.cls-21,.cls-24,.cls-25,.cls-27,.cls-35,.cls-8{stroke-miterlimit:10;}.cls-8{opacity:0.32;}.cls-9{opacity:0.2;}.cls-10{clip-path:url(#clip-path-5);}.cls-11,.cls-18{opacity:0.8;}.cls-12,.cls-20{opacity:0.6;}.cls-13{clip-path:url(#clip-path-7);}.cls-14{clip-path:url(#clip-path-9);}.cls-15{fill:#122844;}.cls-16{clip-path:url(#clip-path-11);}.cls-17{clip-path:url(#clip-path-12);}.cls-19{clip-path:url(#clip-path-14);}.cls-21,.cls-25,.cls-27,.cls-29{stroke:#59d2ef;}.cls-22,.cls-25{opacity:0.25;}.cls-23{opacity:0.4;}.cls-25{stroke-dasharray:8 8;}.cls-26{opacity:0.08;}.cls-27{stroke-dasharray:8.08 8.08;}.cls-28{fill:#59d2ef;}.cls-30{opacity:0.04;}.cls-31{clip-path:url(#clip-path-16);}.cls-32{opacity:0.12;}.cls-34{fill:#33acff;}</style><clipPath id="clip-path"><rect class="cls-1" x="619.65" y="499.13" width="30" height="30"/></clipPath><clipPath id="clip-path-3"><rect class="cls-1" x="208.36" y="405.5" width="32" height="22"/></clipPath><linearGradient id="Dégradé_sans_nom_30" x1="418.07" y1="418.07" x2="502.93" y2="502.93" gradientUnits="userSpaceOnUse"><stop offset="0" stop-color="#59d2ef" stop-opacity="0.15"/><stop offset="1" stop-color="#33acff"/></linearGradient><clipPath id="clip-path-5"><rect class="cls-1" x="84.89" y="434.11" width="12" height="20"/></clipPath><clipPath id="clip-path-7"><rect class="cls-1" x="743.58" y="422.08" width="32" height="32"/></clipPath><clipPath id="clip-path-9"><rect class="cls-1" x="172.88" y="510.5" width="20" height="20"/></clipPath><clipPath id="clip-path-11"><rect class="cls-1" x="588.38" y="391.42" width="20" height="20"/></clipPath><clipPath id="clip-path-12"><rect class="cls-1" x="588.38" y="391.42" width="20" height="20"/></clipPath><clipPath id="clip-path-14"><rect class="cls-1" x="338.5" y="450.5" width="12" height="20"/></clipPath><clipPath id="clip-path-16"><rect class="cls-1" x="867.16" y="468.18" width="18" height="18"/></clipPath></defs><title>telecomIllustration</title><g id="Calque_2" data-name="Calque 2"><g id="desktop"><g id="ethernet_32px-bkg-light"><g class="cls-2"><g class="cls-2"><rect class="cls-3" x="620.15" y="499.63" width="29" height="29" rx="1" ry="1"/><polygon class="cls-4" points="640.15 511.63 640.15 505.63 629.15 505.63 629.15 511.63 624.15 511.63 624.15 522.63 645.15 522.63 645.15 511.63 640.15 511.63"/><line class="cls-4" x1="630.15" y1="522.63" x2="630.15" y2="518.63"/><line class="cls-4" x1="627.15" y1="522.63" x2="627.15" y2="518.63"/><line class="cls-4" x1="633.15" y1="522.63" x2="633.15" y2="518.63"/><line class="cls-4" x1="636.15" y1="522.63" x2="636.15" y2="518.63"/><line class="cls-4" x1="639.15" y1="522.63" x2="639.15" y2="518.63"/><line class="cls-4" x1="642.15" y1="522.63" x2="642.15" y2="518.63"/></g></g></g><g id="sms_32px-bkg-light"><g class="cls-5"><line class="cls-4" x1="217.86" y1="412" x2="233.86" y2="412"/><line class="cls-4" x1="217.86" y1="420" x2="233.86" y2="420"/><line class="cls-4" x1="217.86" y1="416" x2="233.86" y2="416"/><g class="cls-5"><path class="cls-4" d="M234.86,406h-18a5,5,0,0,0-5,5v11a6.28,6.28,0,0,1-3,5h3a3,3,0,0,0,1.87-.66,1.8,1.8,0,0,1,2.26,0,3,3,0,0,0,1.87.66h17a5,5,0,0,0,5-5V411A5,5,0,0,0,234.86,406Z"/></g></g></g><circle id="network" class="cls-6" cx="460.5" cy="460.5" r="60"/><circle id="network-2" data-name="network" class="cls-7" cx="460.5" cy="460.5" r="60"/><g id="phone-bluetooth-speaker"><path class="cls-4" d="M488.5,472.75a39.64,39.64,0,0,1-12.6-2.1,4.31,4.31,0,0,0-3.5.7l-7.7,7.7c-9.8-4.9-17.85-13.3-23.1-23.1l7.7-7.7a2.79,2.79,0,0,0,.7-3.5,47.07,47.07,0,0,1-1.75-12.25,3.31,3.31,0,0,0-3.5-3.5H432.5a3.31,3.31,0,0,0-3.5,3.5A59.45,59.45,0,0,0,488.5,492a3.31,3.31,0,0,0,3.5-3.5V476.25A3.31,3.31,0,0,0,488.5,472.75Z"/></g><circle id="network-3" data-name="network" class="cls-8" cx="460.5" cy="460.5" r="70"/><g id="mobilePhone_20px-bkg-light" class="cls-9"><g class="cls-10"><g class="cls-10"><line class="cls-4" x1="85.89" y1="449.61" x2="95.89" y2="449.61"/><rect class="cls-4" x="85.39" y="434.61" width="11" height="19" rx="1" ry="1"/><line class="cls-4" x1="90.39" y1="451.61" x2="91.39" y2="451.61"/></g></g></g><circle class="cls-11" cx="224.36" cy="416.5" r="32"/><circle class="cls-11" cx="634.65" cy="514.13" r="32"/><g id="gear_32px-bkg-light" class="cls-12"><g class="cls-13"><g class="cls-13"><circle class="cls-4" cx="759.58" cy="438.08" r="4.5"/><path class="cls-4" d="M774,440.58a1,1,0,0,0,1-.91c0-.52.09-1.05.09-1.59s0-1.07-.09-1.59a1,1,0,0,0-1-.91h-1.37a1,1,0,0,1-1-.77,12.42,12.42,0,0,0-1.23-2.95,1,1,0,0,1,.14-1.23l1-1a1,1,0,0,0,.06-1.35,13.81,13.81,0,0,0-2.25-2.25,1,1,0,0,0-1.35.06l-1,1a1,1,0,0,1-1.23.14,12.35,12.35,0,0,0-2.95-1.23,1,1,0,0,1-.77-1v-1.37a1,1,0,0,0-.91-1,14.09,14.09,0,0,0-3.18,0,1,1,0,0,0-.91,1V425a1,1,0,0,1-.77,1,12.35,12.35,0,0,0-2.95,1.23,1,1,0,0,1-1.23-.14l-1-1a1,1,0,0,0-1.35-.06,13.81,13.81,0,0,0-2.25,2.25,1,1,0,0,0,.06,1.35l1,1a1,1,0,0,1,.14,1.23,12.42,12.42,0,0,0-1.23,2.95,1,1,0,0,1-1,.77h-1.37a1,1,0,0,0-1,.91,14.09,14.09,0,0,0,0,3.18,1,1,0,0,0,1,.91h1.37a1,1,0,0,1,1,.77,12.77,12.77,0,0,0,1.23,2.95,1,1,0,0,1-.14,1.22l-1,1a1,1,0,0,0-.06,1.35,13.81,13.81,0,0,0,2.25,2.25,1,1,0,0,0,1.35-.07l1-1a1,1,0,0,1,1.23-.14,12.32,12.32,0,0,0,2.95,1.22,1,1,0,0,1,.77,1v1.37a1,1,0,0,0,.91,1,12.69,12.69,0,0,0,3.18,0,1,1,0,0,0,.91-1v-1.37a1,1,0,0,1,.77-1,12.32,12.32,0,0,0,2.95-1.22,1,1,0,0,1,1.23.14l1,1a1,1,0,0,0,1.35.07,13.81,13.81,0,0,0,2.25-2.25,1,1,0,0,0-.06-1.35l-1-1a1,1,0,0,1-.14-1.22,12.77,12.77,0,0,0,1.23-2.95,1,1,0,0,1,1-.77Z"/></g></g></g><g id="pen_20px-bkg-light" class="cls-12"><g class="cls-14"><g class="cls-14"><polygon class="cls-3" points="179.38 528 173.38 530 175.38 524 188.38 511 192.38 515 179.38 528"/></g><line class="cls-3" x1="185.88" y1="513.5" x2="189.88" y2="517.5"/><line class="cls-3" x1="175.38" y1="524" x2="179.38" y2="528"/><polygon class="cls-15" points="173.38 530 176.38 529 174.38 527 173.38 530"/></g></g><g id="spanner_20px-bkg-light"><g class="cls-16"><line class="cls-4" x1="596.39" y1="399.44" x2="597.72" y2="400.77"/><g class="cls-17"><polyline class="cls-4" points="594.53 391.92 597.65 395.04 596.38 399.43 592 400.7 588.88 397.58"/></g><polygon class="cls-4" points="595.26 395.45 594.66 397.7 592.4 398.31 590.75 396.66 591.36 394.4 593.61 393.8 595.26 395.45"/><g class="cls-17"><rect class="cls-4" x="601" y="398.84" width="3" height="13.39" rx="1" ry="1" transform="translate(-110.29 544.81) rotate(-45)"/></g></g></g><g id="user_20px-bkg-light" class="cls-18"><g class="cls-19"><g class="cls-19"><circle class="cls-4" cx="344.5" cy="454.5" r="3.5"/><path class="cls-4" d="M350,466.7a5.5,5.5,0,1,0-11,0V470h11Z"/></g></g></g><circle class="cls-20" cx="344.5" cy="460.5" r="16"/><circle class="cls-21" cx="598.38" cy="401.42" r="16"/><g class="cls-22"><path id="network-4" data-name="network" class="cls-4" d="M347,436.5a116,116,0,1,1,0,47.88"/><circle class="cls-15" cx="552.5" cy="389.42" r="4"/></g><g class="cls-23"><path id="network-5" data-name="network" class="cls-4" d="M620.44,551.53a184,184,0,1,1,24.06-91q0,7.42-.58,14.71"/><path class="cls-24" d="M643.74,475.17a40,40,0,1,1-23.33,76.35"/></g><path id="network-6" data-name="network" class="cls-25" d="M770.1,476.45C761.79,640.25,626.36,770.5,460.5,770.5c-171.21,0-310-138.79-310-310s138.79-310,310-310c149.81,0,274.8,106.26,303.7,247.52"/><g class="cls-26"><circle class="cls-24" cx="90.89" cy="444.11" r="16"/><path id="network-7" data-name="network" class="cls-4" d="M91.9,428.14C108.29,239,267.06,90.5,460.5,90.5c204.35,0,370,165.65,370,370s-165.65,370-370,370-370-165.65-370-370"/></g><g class="cls-12"><g id="network-8" data-name="network"><circle class="cls-27" cx="460.5" cy="460.5" r="90"/></g><circle class="cls-28" cx="403.62" cy="390.5" r="3"/><circle class="cls-28" cx="430.13" cy="545.22" r="3"/></g><g class="cls-23"><path id="network-9" data-name="network" class="cls-29" d="M591.25,534.07a150.05,150.05,0,0,1-276.57-38.24"/><path id="network-10" data-name="network" class="cls-29" d="M606.07,424.16a150.57,150.57,0,0,1,4.43,36.34q0,6.28-.51,12.44"/><path id="network-11" data-name="network" class="cls-29" d="M460.5,310.5a149.87,149.87,0,0,1,126.7,69.68"/><circle class="cls-21" cx="322.48" cy="493.88" r="8"/><circle class="cls-21" cx="598.38" cy="401.42" r="24"/></g><g class="cls-23"><circle class="cls-24" cx="759.58" cy="438.08" r="32"/><circle class="cls-24" cx="182.88" cy="520.5" r="16"/><path id="network-12" data-name="network" class="cls-4" d="M760.35,470.07C755.29,631.33,623,760.5,460.5,760.5c-143.86,0-264.07-101.26-293.24-236.38"/><path id="network-13" data-name="network" class="cls-4" d="M171.07,381.28C205.82,254,322.24,160.5,460.5,160.5c147.19,0,269.62,106,295.12,245.83"/><circle class="cls-15" cx="171.03" cy="381.27" r="4"/></g><circle id="network-14" data-name="network" class="cls-30" cx="460.5" cy="460.5" r="460"/><g id="cart_20px-bkg-light" class="cls-23"><g class="cls-31"><g class="cls-31"><path class="cls-4" d="M884.66,479.68h-14a1,1,0,0,1-1-1v-10h-2"/><circle class="cls-24" cx="872.66" cy="483.68" r="2"/><circle class="cls-24" cx="882.66" cy="483.68" r="2"/><path class="cls-3" d="M869.66,469.68h15v4a3,3,0,0,1-3,3h-12"/></g></g></g><g class="cls-32"><path id="network-15" data-name="network" class="cls-33" d="M860.16,477.16C851.43,690.35,675.83,860.5,460.5,860.5c-220.91,0-400-179.09-400-400s179.09-400,400-400C654.18,60.5,815.71,198.16,852.59,381"/><circle class="cls-34" cx="61.36" cy="483" r="3"/><circle class="cls-35" cx="876.16" cy="477.18" r="16"/><circle class="cls-35" cx="854.07" cy="388.83" r="8"/></g><g class="cls-12"><path id="network-16" data-name="network" class="cls-29" d="M235.06,378C268.71,286.08,357,220.5,460.5,220.5c132.55,0,240,107.45,240,240s-107.45,240-240,240-240-107.45-240-240c0-1.34,0-2.67,0-4"/><circle class="cls-21" cx="224.36" cy="416.5" r="40"/><circle class="cls-28" cx="699.09" cy="486.63" r="4"/></g><g class="cls-18"><path id="network-17" data-name="network" class="cls-4" d="M622.1,560.47a189.87,189.87,0,0,1-161.6,90c-104.93,0-190-85.07-190-190s85.07-190,190-190,190,85.07,190,190c0,.84,0,1.69,0,2.53"/><circle class="cls-24" cx="658.5" cy="463.03" r="8"/><circle class="cls-15" cx="283.05" cy="392.66" r="3"/></g></g></g></svg>