<svg xmlns="http://www.w3.org/2000/svg" xmlns:xlink="http://www.w3.org/1999/xlink" viewBox="0 0 921 921"><defs><style>.cls-1,.cls-14,.cls-15,.cls-18,.cls-19,.cls-2,.cls-21,.cls-23,.cls-24,.cls-25,.cls-29,.cls-3,.cls-33,.cls-6,.cls-8{fill:none;}.cls-14,.cls-2,.cls-23,.cls-24,.cls-3{stroke:#fc0;}.cls-14,.cls-15,.cls-18,.cls-19,.cls-2,.cls-21,.cls-24,.cls-3,.cls-33{stroke-miterlimit:10;}.cls-2{opacity:0.32;}.cls-12,.cls-3{opacity:0.8;}.cls-14,.cls-4{opacity:0.6;}.cls-5{clip-path:url(#clip-path);}.cls-18,.cls-25,.cls-33,.cls-6,.cls-8{stroke:#122844;}.cls-19,.cls-21,.cls-23,.cls-25,.cls-29,.cls-33,.cls-6{stroke-linecap:round;}.cls-23,.cls-25,.cls-29,.cls-6,.cls-8{stroke-linejoin:round;}.cls-7{clip-path:url(#clip-path-3);}.cls-9{fill:#122844;}.cls-10{clip-path:url(#clip-path-5);}.cls-11{clip-path:url(#clip-path-6);}.cls-13{clip-path:url(#clip-path-8);}.cls-15,.cls-19,.cls-21,.cls-29{stroke:#59d2ef;}.cls-16,.cls-19{opacity:0.25;}.cls-17{opacity:0.4;}.cls-19{stroke-dasharray:8 8;}.cls-20{opacity:0.08;}.cls-21{stroke-dasharray:8.08 8.08;}.cls-22{fill:#59d2ef;}.cls-25{opacity:0.04;}.cls-26{clip-path:url(#clip-path-10);}.cls-27{opacity:0.12;}.cls-28{fill:#fc0;}.cls-30{fill:url(#Dégradé_sans_nom_37);}.cls-31{clip-path:url(#clip-path-12);}.cls-32{clip-path:url(#clip-path-14);}.cls-33{stroke-width:2px;}.cls-34{opacity:0.2;}.cls-35{clip-path:url(#clip-path-16);}</style><clipPath id="clip-path"><rect class="cls-1" x="743.58" y="422.08" width="32" height="32"/></clipPath><clipPath id="clip-path-3"><rect class="cls-1" x="172.88" y="510.5" width="20" height="20"/></clipPath><clipPath id="clip-path-5"><rect class="cls-1" x="588.38" y="391.42" width="20" height="20"/></clipPath><clipPath id="clip-path-6"><rect class="cls-1" x="588.38" y="391.42" width="20" height="20"/></clipPath><clipPath id="clip-path-8"><rect class="cls-1" x="338.5" y="450.5" width="12" height="20"/></clipPath><clipPath id="clip-path-10"><rect class="cls-1" x="867.16" y="468.18" width="18" height="18"/></clipPath><linearGradient id="Dégradé_sans_nom_37" x1="418.07" y1="418.07" x2="502.93" y2="502.93" gradientUnits="userSpaceOnUse"><stop offset="0" stop-color="#faefa0" stop-opacity="0.15"/><stop offset="1" stop-color="#fc0"/></linearGradient><clipPath id="clip-path-12"><rect class="cls-1" x="618.65" y="502.63" width="32" height="23"/></clipPath><clipPath id="clip-path-14"><rect class="cls-1" x="208.36" y="405" width="32" height="23"/></clipPath><clipPath id="clip-path-16"><rect class="cls-1" x="82.89" y="434.11" width="16" height="20"/></clipPath></defs><title>illustration_cloud</title><g id="Calque_2" data-name="Calque 2"><g id="Calque_2-2" data-name="Calque 2"><circle id="network" class="cls-2" cx="460.5" cy="460.5" r="70"/><circle class="cls-3" cx="224.36" cy="416.5" r="32"/><circle class="cls-3" cx="634.65" cy="514.13" r="32"/><g id="gear_32px-bkg-light" class="cls-4"><g class="cls-5"><g class="cls-5"><circle class="cls-6" cx="759.58" cy="438.08" r="4.5"/><path class="cls-6" d="M774,440.58a1,1,0,0,0,1-.91c0-.52.09-1.05.09-1.59s0-1.07-.09-1.59a1,1,0,0,0-1-.91h-1.37a1,1,0,0,1-1-.77,12.42,12.42,0,0,0-1.23-2.95,1,1,0,0,1,.14-1.23l1-1a1,1,0,0,0,.06-1.35,13.81,13.81,0,0,0-2.25-2.25,1,1,0,0,0-1.35.06l-1,1a1,1,0,0,1-1.23.14,12.35,12.35,0,0,0-2.95-1.23,1,1,0,0,1-.77-1v-1.37a1,1,0,0,0-.91-1,14.09,14.09,0,0,0-3.18,0,1,1,0,0,0-.91,1V425a1,1,0,0,1-.77,1,12.35,12.35,0,0,0-2.95,1.23,1,1,0,0,1-1.23-.14l-1-1a1,1,0,0,0-1.35-.06,13.81,13.81,0,0,0-2.25,2.25,1,1,0,0,0,.06,1.35l1,1a1,1,0,0,1,.14,1.23,12.42,12.42,0,0,0-1.23,2.95,1,1,0,0,1-1,.77h-1.37a1,1,0,0,0-1,.91,14.09,14.09,0,0,0,0,3.18,1,1,0,0,0,1,.91h1.37a1,1,0,0,1,1,.77,12.77,12.77,0,0,0,1.23,2.95,1,1,0,0,1-.14,1.22l-1,1a1,1,0,0,0-.06,1.35,13.81,13.81,0,0,0,2.25,2.25,1,1,0,0,0,1.35-.07l1-1a1,1,0,0,1,1.23-.14,12.32,12.32,0,0,0,2.95,1.22,1,1,0,0,1,.77,1v1.37a1,1,0,0,0,.91,1,12.69,12.69,0,0,0,3.18,0,1,1,0,0,0,.91-1v-1.37a1,1,0,0,1,.77-1,12.32,12.32,0,0,0,2.95-1.22,1,1,0,0,1,1.23.14l1,1a1,1,0,0,0,1.35.07,13.81,13.81,0,0,0,2.25-2.25,1,1,0,0,0-.06-1.35l-1-1a1,1,0,0,1-.14-1.22,12.77,12.77,0,0,0,1.23-2.95,1,1,0,0,1,1-.77Z"/></g></g></g><g id="pen_20px-bkg-light" class="cls-4"><g class="cls-7"><g class="cls-7"><polygon class="cls-8" points="179.38 528 173.38 530 175.38 524 188.38 511 192.38 515 179.38 528"/></g><line class="cls-8" x1="185.88" y1="513.5" x2="189.88" y2="517.5"/><line class="cls-8" x1="175.38" y1="524" x2="179.38" y2="528"/><polygon class="cls-9" points="173.38 530 176.38 529 174.38 527 173.38 530"/></g></g><g id="spanner_20px-bkg-light"><g class="cls-10"><line class="cls-6" x1="596.39" y1="399.44" x2="597.72" y2="400.77"/><g class="cls-11"><polyline class="cls-6" points="594.53 391.92 597.65 395.04 596.38 399.43 592 400.7 588.88 397.58"/></g><polygon class="cls-6" points="595.26 395.45 594.66 397.7 592.4 398.31 590.75 396.66 591.36 394.4 593.61 393.8 595.26 395.45"/><g class="cls-11"><rect class="cls-6" x="601" y="398.84" width="3" height="13.39" rx="1" ry="1" transform="translate(-110.29 544.81) rotate(-45)"/></g></g></g><g id="user_20px-bkg-light" class="cls-12"><g class="cls-13"><g class="cls-13"><circle class="cls-6" cx="344.5" cy="454.5" r="3.5"/><path class="cls-6" d="M350,466.7a5.5,5.5,0,1,0-11,0V470h11Z"/></g></g></g><circle class="cls-14" cx="344.5" cy="460.5" r="16"/><circle class="cls-15" cx="598.38" cy="401.42" r="16"/><g class="cls-16"><path id="network-2" data-name="network" class="cls-6" d="M347,436.5a116,116,0,1,1,0,47.88"/><circle class="cls-9" cx="552.5" cy="389.42" r="4"/></g><g class="cls-17"><path id="network-3" data-name="network" class="cls-6" d="M620.44,551.53a184,184,0,1,1,24.06-91q0,7.42-.58,14.71"/><path class="cls-18" d="M643.74,475.17a40,40,0,1,1-23.33,76.35"/></g><path id="network-4" data-name="network" class="cls-19" d="M770.1,476.45C761.79,640.25,626.36,770.5,460.5,770.5c-171.21,0-310-138.79-310-310s138.79-310,310-310c149.81,0,274.8,106.26,303.7,247.52"/><g class="cls-20"><circle class="cls-18" cx="90.89" cy="444.11" r="16"/><path id="network-5" data-name="network" class="cls-6" d="M91.9,428.14C108.29,239,267.06,90.5,460.5,90.5c204.35,0,370,165.65,370,370s-165.65,370-370,370-370-165.65-370-370"/></g><g class="cls-4"><g id="network-6" data-name="network"><circle class="cls-21" cx="460.5" cy="460.5" r="90"/></g><circle class="cls-22" cx="403.62" cy="390.5" r="3"/><circle class="cls-22" cx="430.13" cy="545.22" r="3"/></g><g class="cls-17"><path id="network-7" data-name="network" class="cls-23" d="M591.25,534.07a150.05,150.05,0,0,1-276.57-38.24"/><path id="network-8" data-name="network" class="cls-23" d="M606.07,424.16a150.57,150.57,0,0,1,4.43,36.34q0,6.28-.51,12.44"/><path id="network-9" data-name="network" class="cls-23" d="M460.5,310.5a149.87,149.87,0,0,1,126.7,69.68"/><circle class="cls-24" cx="322.48" cy="493.88" r="8"/><circle class="cls-24" cx="598.38" cy="401.42" r="24"/></g><g class="cls-17"><circle class="cls-18" cx="759.58" cy="438.08" r="32"/><circle class="cls-18" cx="182.88" cy="520.5" r="16"/><path id="network-10" data-name="network" class="cls-6" d="M760.35,470.07C755.29,631.33,623,760.5,460.5,760.5c-143.86,0-264.07-101.26-293.24-236.38"/><path id="network-11" data-name="network" class="cls-6" d="M171.07,381.28C205.82,254,322.24,160.5,460.5,160.5c147.19,0,269.62,106,295.12,245.83"/><circle class="cls-9" cx="171.03" cy="381.27" r="4"/></g><circle id="network-12" data-name="network" class="cls-25" cx="460.5" cy="460.5" r="460"/><g id="cart_20px-bkg-light" class="cls-17"><g class="cls-26"><g class="cls-26"><path class="cls-6" d="M884.66,479.68h-14a1,1,0,0,1-1-1v-10h-2"/><circle class="cls-18" cx="872.66" cy="483.68" r="2"/><circle class="cls-18" cx="882.66" cy="483.68" r="2"/><path class="cls-8" d="M869.66,469.68h15v4a3,3,0,0,1-3,3h-12"/></g></g></g><g class="cls-27"><path id="network-13" data-name="network" class="cls-23" d="M860.16,477.16C851.43,690.35,675.83,860.5,460.5,860.5c-220.91,0-400-179.09-400-400s179.09-400,400-400C654.18,60.5,815.71,198.16,852.59,381"/><circle class="cls-28" cx="61.36" cy="483" r="3"/><circle class="cls-24" cx="876.16" cy="477.18" r="16"/><circle class="cls-24" cx="854.07" cy="388.83" r="8"/></g><g class="cls-4"><path id="network-14" data-name="network" class="cls-29" d="M235.06,378C268.71,286.08,357,220.5,460.5,220.5c132.55,0,240,107.45,240,240s-107.45,240-240,240-240-107.45-240-240c0-1.34,0-2.67,0-4"/><circle class="cls-15" cx="224.36" cy="416.5" r="40"/><circle class="cls-22" cx="699.09" cy="486.63" r="4"/></g><g class="cls-12"><path id="network-15" data-name="network" class="cls-6" d="M622.1,560.47a189.87,189.87,0,0,1-161.6,90c-104.93,0-190-85.07-190-190s85.07-190,190-190,190,85.07,190,190c0,.84,0,1.69,0,2.53"/><circle class="cls-18" cx="658.5" cy="463.03" r="8"/><circle class="cls-9" cx="283.05" cy="392.66" r="3"/></g><g id="network-16" data-name="network"><circle class="cls-30" cx="460.5" cy="460.5" r="60"/></g><path class="cls-6" d="M481,455.73a18,18,0,0,0-33.86-7.67,8.83,8.83,0,0,0-3.1-.56,9,9,0,0,0-9,9,9.73,9.73,0,0,0,.09,1.22,13.5,13.5,0,0,0,7.41,24.78h36A13.5,13.5,0,0,0,481,455.73Z"/><g id="cloudServer_32px-bkg-light"><g class="cls-31"><g class="cls-31"><path class="cls-6" d="M645.12,512.3c0-.22,0-.44,0-.67a8.49,8.49,0,0,0-16.1-3.79,4.46,4.46,0,0,0-6.66,5.17,6.5,6.5,0,0,0,3.26,12.12h18a6.5,6.5,0,0,0,1.47-12.83Z"/><path class="cls-6" d="M626.15,517.13a1,1,0,0,1-1-1v-4a1,1,0,0,1,1-1h15a1,1,0,0,1,1,1v4a1,1,0,0,1-1,1"/><path class="cls-9" d="M640.65,513.13a.5.5,0,1,1-.5-.5.5.5,0,0,1,.5.5"/><rect class="cls-6" x="625.15" y="517.13" width="17" height="6" rx="1" ry="1"/><path class="cls-9" d="M640.65,519.13a.5.5,0,1,1-.5-.5.5.5,0,0,1,.5.5"/></g></g></g><g id="cloudPadlock_32px-bkg-light"><g class="cls-32"><g class="cls-32"><path class="cls-6" d="M234.83,414.67c0-.22,0-.44,0-.67a8.49,8.49,0,0,0-16.1-3.79,4.37,4.37,0,0,0-2.4-.71,4.44,4.44,0,0,0-4.26,5.88,6.5,6.5,0,0,0,3.26,12.12h18a6.5,6.5,0,0,0,1.47-12.83Z"/><rect class="cls-6" x="218.86" y="415.5" width="11" height="9" rx="1" ry="1"/><path class="cls-8" d="M220.86,415.67V413a3.5,3.5,0,0,1,7,0v2.67"/><line class="cls-33" x1="224.36" y1="419" x2="224.36" y2="421"/></g></g></g><g id="hardDrive_20px-bkg-light" class="cls-34"><g class="cls-35"><g class="cls-35"><rect class="cls-6" x="83.39" y="434.61" width="15" height="19" rx="1" ry="1"/><circle class="cls-6" cx="90.89" cy="442.11" r="1.5"/><path class="cls-6" d="M96,449.05a1.49,1.49,0,0,1,0,2.12,1.51,1.51,0,0,1-2.12,0c-.59-.59-3.59-4.54-3-5.12S95.36,448.46,96,449.05Z"/><path class="cls-6" d="M93.3,447.05a5.49,5.49,0,1,0-2.41.56l.38,0"/></g></g></g></g></g></svg>