<svg xmlns="http://www.w3.org/2000/svg" xmlns:xlink="http://www.w3.org/1999/xlink" viewBox="0 0 921 921"><defs><linearGradient id="71ee90ae-fa87-418a-90fc-c52577d19ac0" x1="418.07" y1="418.07" x2="502.93" y2="502.93" gradientUnits="userSpaceOnUse"><stop offset="0" stop-color="#ddf4f2"/><stop offset="1" stop-color="#27b9a2"/></linearGradient></defs><title>illustration_web</title><g id="fa32cdf3-059d-4e31-882c-5f228509923c" data-name="Calque 2"><g id="100b9e8b-f2f1-4732-9684-732ead6b5484" data-name="Calque 2"><circle id="8effabd2-f9f6-4ff5-aa0b-2543e9c32527" data-name="network" cx="460.5" cy="460.5" r="70" fill="none" stroke="#27b9a2" stroke-miterlimit="10" opacity="0.32"/><circle cx="224.36" cy="416.5" r="32" fill="none" stroke="#27b9a2" stroke-miterlimit="10" opacity="0.8"/><circle cx="634.65" cy="514.13" r="32" fill="none" stroke="#27b9a2" stroke-miterlimit="10" opacity="0.8"/><circle cx="344.5" cy="460.5" r="16" fill="none" stroke="#27b9a2" stroke-miterlimit="10" opacity="0.6"/><circle cx="598.38" cy="401.42" r="16" fill="none" stroke="#59d2ef" stroke-miterlimit="10"/><g opacity="0.25"><path id="a5fdabfd-5019-4166-b84b-e1534b6b9215" data-name="network" d="M347,436.5a116,116,0,1,1,0,47.88" fill="none" stroke="#122844" stroke-linecap="round" stroke-linejoin="round"/><circle cx="552.5" cy="389.42" r="4" fill="#122844"/></g><g opacity="0.4"><path id="d8932258-51d5-43b1-ae9e-053bb8b4281e" data-name="network" d="M620.44,551.53a184,184,0,1,1,24.06-91q0,7.42-.58,14.71" fill="none" stroke="#122844" stroke-linecap="round" stroke-linejoin="round"/><path d="M643.74,475.17a40,40,0,1,1-23.33,76.35" fill="none" stroke="#122844" stroke-miterlimit="10"/></g><path id="4adcdd6c-504a-438b-9737-7a8c2bf399b2" data-name="network" d="M770.1,476.45C761.79,640.25,626.36,770.5,460.5,770.5c-171.21,0-310-138.79-310-310s138.79-310,310-310c149.81,0,274.8,106.26,303.7,247.52" fill="none" stroke="#59d2ef" stroke-linecap="round" stroke-miterlimit="10" stroke-dasharray="8 8" opacity="0.25"/><g opacity="0.08"><circle cx="90.89" cy="444.11" r="16" fill="none" stroke="#122844" stroke-miterlimit="10"/><path id="ede84259-775f-4b8b-a2f5-1ed4732b8f57" data-name="network" d="M91.9,428.14C108.29,239,267.06,90.5,460.5,90.5c204.35,0,370,165.65,370,370s-165.65,370-370,370-370-165.65-370-370" fill="none" stroke="#122844" stroke-linecap="round" stroke-linejoin="round"/></g><g opacity="0.6"><g id="23b2c5af-b57a-4901-920e-255f3bc932bc" data-name="network"><circle cx="460.5" cy="460.5" r="90" fill="none" stroke="#59d2ef" stroke-linecap="round" stroke-miterlimit="10" stroke-dasharray="8.08 8.08"/></g><circle cx="403.62" cy="390.5" r="3" fill="#59d2ef"/><circle cx="430.13" cy="545.22" r="3" fill="#59d2ef"/></g><g opacity="0.4"><path id="5c0e22e9-99a6-4ecc-b3c0-7453d27d333b" data-name="network" d="M591.25,534.07a150.05,150.05,0,0,1-276.57-38.24" fill="none" stroke="#27b9a2" stroke-linecap="round" stroke-linejoin="round"/><path id="559e9ee6-739c-439e-b02b-6a193043846c" data-name="network" d="M606.07,424.16a150.57,150.57,0,0,1,4.43,36.34q0,6.28-.51,12.44" fill="none" stroke="#27b9a2" stroke-linecap="round" stroke-linejoin="round"/><path id="f789611b-ab98-4534-90c8-75812bde2c23" data-name="network" d="M460.5,310.5a149.87,149.87,0,0,1,126.7,69.68" fill="none" stroke="#27b9a2" stroke-linecap="round" stroke-linejoin="round"/><circle cx="322.48" cy="493.88" r="8" fill="none" stroke="#27b9a2" stroke-miterlimit="10"/><circle cx="598.38" cy="401.42" r="24" fill="none" stroke="#27b9a2" stroke-miterlimit="10"/></g><g opacity="0.4"><circle cx="759.58" cy="438.08" r="32" fill="none" stroke="#122844" stroke-miterlimit="10"/><circle cx="182.88" cy="520.5" r="16" fill="none" stroke="#122844" stroke-miterlimit="10"/><path id="09ade7b0-f5f2-42de-bd6e-40c37350a076" data-name="network" d="M760.35,470.07C755.29,631.33,623,760.5,460.5,760.5c-143.86,0-264.07-101.26-293.24-236.38" fill="none" stroke="#122844" stroke-linecap="round" stroke-linejoin="round"/><path id="04cc6b7a-9c27-43de-8f29-d8f25e5d287d" data-name="network" d="M171.07,381.28C205.82,254,322.24,160.5,460.5,160.5c147.19,0,269.62,106,295.12,245.83" fill="none" stroke="#122844" stroke-linecap="round" stroke-linejoin="round"/><circle cx="171.03" cy="381.27" r="4" fill="#122844"/></g><circle id="0953c133-a42c-469b-88d4-c666fb28718f" data-name="network" cx="460.5" cy="460.5" r="460" fill="none" stroke="#122844" stroke-linecap="round" stroke-linejoin="round" opacity="0.04"/><g opacity="0.12"><path id="3aff6fab-fa3f-4ce7-9f20-4378876bfb3a" data-name="network" d="M860.16,477.16C851.43,690.35,675.83,860.5,460.5,860.5c-220.91,0-400-179.09-400-400s179.09-400,400-400C654.18,60.5,815.71,198.16,852.59,381" fill="none" stroke="#27b9a2" stroke-linecap="round" stroke-linejoin="round"/><circle cx="61.36" cy="483" r="3" fill="#27b9a2"/><circle cx="876.16" cy="477.18" r="16" fill="none" stroke="#27b9a2" stroke-miterlimit="10"/><circle cx="854.07" cy="388.83" r="8" fill="none" stroke="#27b9a2" stroke-miterlimit="10"/></g><g opacity="0.6"><path id="274f3c05-2d5d-45fd-a6cf-097ad3c2d173" data-name="network" d="M235.06,378C268.71,286.08,357,220.5,460.5,220.5c132.55,0,240,107.45,240,240s-107.45,240-240,240-240-107.45-240-240c0-1.34,0-2.67,0-4" fill="none" stroke="#59d2ef" stroke-linecap="round" stroke-linejoin="round"/><circle cx="224.36" cy="416.5" r="40" fill="none" stroke="#59d2ef" stroke-miterlimit="10"/><circle cx="699.09" cy="486.63" r="4" fill="#59d2ef"/></g><g opacity="0.8"><path id="dadb8797-1e20-4cba-ba0b-73625a73226f" data-name="network" d="M622.1,560.47a189.87,189.87,0,0,1-161.6,90c-104.93,0-190-85.07-190-190s85.07-190,190-190,190,85.07,190,190c0,.84,0,1.69,0,2.53" fill="none" stroke="#122844" stroke-linecap="round" stroke-linejoin="round"/><circle cx="658.5" cy="463.03" r="8" fill="none" stroke="#122844" stroke-miterlimit="10"/><circle cx="283.05" cy="392.66" r="3" fill="#122844"/></g><g id="c3592ad3-d9dd-4ac6-963c-0032c6c45292" data-name="network"><circle cx="460.5" cy="460.5" r="60" fill="url(#71ee90ae-fa87-418a-90fc-c52577d19ac0)"/></g><path d="M446,476H433a3,3,0,0,1-3-3V435a3,3,0,0,1,3-3h55a3,3,0,0,1,3,3v38a3,3,0,0,1-3,3H462" fill="none" stroke="#122844" stroke-linecap="round" stroke-linejoin="round"/><line x1="430" y1="444" x2="491" y2="444" fill="none" stroke="#122844" stroke-linecap="round" stroke-linejoin="round"/><circle cx="436" cy="438" r="1.5" fill="#122844"/><polygon points="462 460 443.25 478.75 450.89 479.76 446.29 490.97 451.19 493 455.79 481.79 462 486.53 462 460" fill="none" stroke="#122844" stroke-linecap="round" stroke-linejoin="round"/><circle cx="441" cy="438" r="1.5" fill="#122844"/><circle cx="446" cy="438" r="1.5" fill="#122844"/><g opacity="0.2"><line x1="85.89" y1="449.61" x2="95.89" y2="449.61" fill="none" stroke="#122844" stroke-linecap="round" stroke-linejoin="round"/><rect x="85.39" y="434.61" width="11" height="19" rx="1" ry="1" fill="none" stroke="#122844" stroke-linecap="round" stroke-linejoin="round"/><line x1="90.39" y1="451.61" x2="91.39" y2="451.61" fill="none" stroke="#122844" stroke-linecap="round" stroke-linejoin="round"/></g><g opacity="0.6"><circle cx="759.58" cy="438.08" r="4.5" fill="none" stroke="#122844" stroke-linecap="round" stroke-linejoin="round"/><path d="M774,440.58a1,1,0,0,0,1-.91c0-.52.09-1.05.09-1.59s0-1.07-.09-1.59a1,1,0,0,0-1-.91h-1.37a1,1,0,0,1-1-.77,12.42,12.42,0,0,0-1.23-2.95,1,1,0,0,1,.14-1.23l1-1a1,1,0,0,0,.06-1.35,13.81,13.81,0,0,0-2.25-2.25,1,1,0,0,0-1.35.06l-1,1a1,1,0,0,1-1.23.14,12.35,12.35,0,0,0-2.95-1.23,1,1,0,0,1-.77-1v-1.37a1,1,0,0,0-.91-1,14.09,14.09,0,0,0-3.18,0,1,1,0,0,0-.91,1V425a1,1,0,0,1-.77,1,12.35,12.35,0,0,0-2.95,1.23,1,1,0,0,1-1.23-.14l-1-1a1,1,0,0,0-1.35-.06,13.81,13.81,0,0,0-2.25,2.25,1,1,0,0,0,.06,1.35l1,1a1,1,0,0,1,.14,1.23,12.42,12.42,0,0,0-1.23,2.95,1,1,0,0,1-1,.77h-1.37a1,1,0,0,0-1,.91,14.09,14.09,0,0,0,0,3.18,1,1,0,0,0,1,.91h1.37a1,1,0,0,1,1,.77,12.77,12.77,0,0,0,1.23,2.95,1,1,0,0,1-.14,1.22l-1,1a1,1,0,0,0-.06,1.35,13.81,13.81,0,0,0,2.25,2.25,1,1,0,0,0,1.35-.07l1-1a1,1,0,0,1,1.23-.14,12.32,12.32,0,0,0,2.95,1.22,1,1,0,0,1,.77,1v1.37a1,1,0,0,0,.91,1,12.69,12.69,0,0,0,3.18,0,1,1,0,0,0,.91-1v-1.37a1,1,0,0,1,.77-1,12.32,12.32,0,0,0,2.95-1.22,1,1,0,0,1,1.23.14l1,1a1,1,0,0,0,1.35.07,13.81,13.81,0,0,0,2.25-2.25,1,1,0,0,0-.06-1.35l-1-1a1,1,0,0,1-.14-1.22,12.77,12.77,0,0,0,1.23-2.95,1,1,0,0,1,1-.77Z" fill="none" stroke="#122844" stroke-linecap="round" stroke-linejoin="round"/></g><g opacity="0.6"><polygon points="179.88 528 173.88 530 175.88 524 188.88 511 192.88 515 179.88 528" fill="none" stroke="#122844" stroke-linejoin="round"/><line x1="186.38" y1="513.5" x2="190.38" y2="517.5" fill="none" stroke="#122844" stroke-linejoin="round"/><line x1="175.88" y1="524" x2="179.88" y2="528" fill="none" stroke="#122844" stroke-linejoin="round"/><polygon points="173.88 530 176.88 529 174.88 527 173.88 530" fill="#122844"/></g><line x1="596.4" y1="399.44" x2="597.72" y2="400.77" fill="none" stroke="#122844" stroke-linecap="round" stroke-linejoin="round"/><polyline points="594.53 391.92 597.65 395.04 596.38 399.43 592 400.7 588.88 397.58" fill="none" stroke="#122844" stroke-linecap="round" stroke-linejoin="round"/><polygon points="595.26 395.45 594.66 397.7 592.4 398.31 590.75 396.66 591.36 394.4 593.61 393.8 595.26 395.45" fill="none" stroke="#122844" stroke-linecap="round" stroke-linejoin="round"/><path d="M598.11,400.45l-.7.71c-.39.39.78,2.2,1.17,2.59l6.88,6.88a1,1,0,0,0,1.42,0l.7-.71a1,1,0,0,0,0-1.41l-6.88-6.88C600.31,401.24,598.5,400.06,598.11,400.45Z" fill="none" stroke="#122844" stroke-linecap="round" stroke-linejoin="round"/><g opacity="0.8"><circle cx="344.5" cy="454.5" r="3.5" fill="none" stroke="#122844" stroke-linecap="round" stroke-linejoin="round"/><path d="M350,466.7a5.5,5.5,0,1,0-11,0V470h11Z" fill="none" stroke="#122844" stroke-linecap="round" stroke-linejoin="round"/></g><g opacity="0.4"><path d="M884.66,479.68h-14a1,1,0,0,1-1-1v-10h-2" fill="none" stroke="#122844" stroke-linecap="round" stroke-linejoin="round"/><circle cx="872.66" cy="483.68" r="2" fill="none" stroke="#122844" stroke-miterlimit="10"/><circle cx="882.66" cy="483.68" r="2" fill="none" stroke="#122844" stroke-miterlimit="10"/><path d="M869.66,469.68h15v4a3,3,0,0,1-3,3h-12" fill="none" stroke="#122844" stroke-linejoin="round"/></g><path d="M619.65,504.13l13.93,12.09a1.62,1.62,0,0,0,2.14,0l13.93-12.09" fill="none" stroke="#122844" stroke-linecap="round" stroke-linejoin="round"/><line x1="639.15" y1="513.63" x2="649.65" y2="524.13" fill="none" stroke="#122844" stroke-linecap="round" stroke-linejoin="round"/><line x1="619.65" y1="524.13" x2="630.15" y2="513.63" fill="none" stroke="#122844" stroke-linecap="round" stroke-linejoin="round"/><rect x="619.15" y="503.63" width="31" height="21" rx="1" ry="1" fill="none" stroke="#122844" stroke-linecap="round" stroke-linejoin="round"/><circle cx="224.36" cy="416.5" r="15.5" fill="none" stroke="#122844" stroke-linecap="round" stroke-linejoin="round"/><ellipse cx="224.36" cy="416.5" rx="8.5" ry="15.5" fill="none" stroke="#122844" stroke-linecap="round" stroke-linejoin="round"/><line x1="224.86" y1="432" x2="224.86" y2="401" fill="none" stroke="#122844" stroke-linecap="round" stroke-linejoin="round"/><line x1="208.86" y1="417" x2="239.86" y2="417" fill="none" stroke="#122844" stroke-linecap="round" stroke-linejoin="round"/><line x1="210.77" y1="409" x2="237.96" y2="409" fill="none" stroke="#122844" stroke-linecap="round" stroke-linejoin="round"/><line x1="210.7" y1="424" x2="238.03" y2="424" fill="none" stroke="#122844" stroke-linecap="round" stroke-linejoin="round"/></g></g></svg>