<svg xmlns="http://www.w3.org/2000/svg" viewBox="0 0 621 621"><title>illustration_UXgalaxy</title><g id="32051ef6-8535-418e-8692-32ca5d0d7bae" data-name="Calque 2"><g id="c963ba24-5b2b-4ca0-b0b1-4451af45fb4b" data-name="Calque 1"><g id="a28a6d08-5469-4b6f-9c2d-bb9898cdf90e" data-name="Calque 2"><g id="9d20fb9e-4926-4c61-ba32-609c366a321d" data-name="desktop"><g opacity="0.15"><g opacity="0.25"><path id="2ad4c8a1-7dde-45f6-8a16-61fa387f2e11" data-name="network" d="M197,286.5a116,116,0,1,1,0,47.88" fill="none" stroke="#fff" stroke-linecap="round" stroke-linejoin="round"/><circle cx="402.5" cy="239.42" r="4" fill="#fff"/></g><g opacity="0.4"><path id="b3ea3fde-3a17-434a-a36a-5c640f4eeb36" data-name="network-2" d="M470.44,401.53c-50.24,88.33-162.58,119.21-250.91,69s-119.21-162.57-69-250.91,162.58-119.21,250.91-69a184,184,0,0,1,93,159.91q0,7.43-.58,14.71" fill="none" stroke="#fff" stroke-linecap="round" stroke-linejoin="round"/><path d="M493.74,325.17A40,40,0,1,1,475.32,403a38.1,38.1,0,0,1-4.91-1.5" fill="none" stroke="#fff" stroke-miterlimit="10"/><circle cx="484.65" cy="364.13" r="32" transform="translate(47.59 784.19) rotate(-80.78)" fill="none" stroke="#fff" stroke-miterlimit="10"/></g><g opacity="0.6"><g id="e1f9d88b-123c-41af-bff8-3246fea26cbf" data-name="network-3"><circle cx="310.5" cy="310.5" r="90" fill="none" stroke="#fff" stroke-linecap="round" stroke-miterlimit="10" stroke-dasharray="8.08 8.08"/></g><circle cx="253.62" cy="240.5" r="3" fill="#fff"/><circle cx="280.13" cy="395.22" r="3" fill="#fff"/></g><g opacity="0.4"><path id="04428cc0-12f3-40f2-8065-3014f089a235" data-name="network-4" d="M441.25,384.07a150.05,150.05,0,0,1-276.57-38.24" fill="none" stroke="#fff" stroke-linecap="round" stroke-linejoin="round"/><path id="1da7102a-3c21-4c34-80a6-5c5212d87919" data-name="network-5" d="M456.07,274.16a150.38,150.38,0,0,1,4.43,36.34q0,6.28-.51,12.44" fill="none" stroke="#fff" stroke-linecap="round" stroke-linejoin="round"/><path id="48ea70dc-0066-4cd9-bd95-c9e07362d533" data-name="network-6" d="M310.5,160.5a149.86,149.86,0,0,1,126.7,69.68" fill="none" stroke="#fff" stroke-linecap="round" stroke-linejoin="round"/><circle cx="172.48" cy="343.88" r="8" fill="none" stroke="#fff" stroke-miterlimit="10"/><circle cx="448.38" cy="251.42" r="24" fill="none" stroke="#fff" stroke-miterlimit="10"/></g><g opacity="0.6"><path id="25f36e8e-a308-46b7-a5db-c01069f61b95" data-name="network-7" d="M85.06,228C118.71,136.08,207,70.5,310.5,70.5c132.55,0,240,107.45,240,240s-107.45,240-240,240-240-107.45-240-240v-4" fill="none" stroke="#fff" stroke-linecap="round" stroke-linejoin="round"/><circle cx="74.36" cy="266.5" r="40" fill="none" stroke="#fff" stroke-miterlimit="10"/><circle cx="549.09" cy="336.63" r="4" fill="#fff"/></g><g opacity="0.8"><path id="fc0b560c-3d16-42fe-b141-953ad1657d7f" data-name="network-8" d="M472.1,410.47a189.87,189.87,0,0,1-161.6,90c-104.93,0-190-85.07-190-190s85.07-190,190-190,190,85.07,190,190V313" fill="none" stroke="#fff" stroke-linecap="round" stroke-linejoin="round"/><circle cx="508.5" cy="313.03" r="8" fill="none" stroke="#fff" stroke-miterlimit="10"/><circle cx="133.05" cy="242.66" r="3" fill="#fff"/></g><circle cx="310.5" cy="310.5" r="310" fill="none" stroke="#fff" stroke-linecap="round" stroke-miterlimit="10" stroke-dasharray="8 8" opacity="0.25" style="isolation:isolate"/></g></g></g></g></g></svg>