<svg xmlns="http://www.w3.org/2000/svg" viewBox="0 0 920.5 920.5"><title>illustration_publications</title><g id="ab916944-c1e3-4164-830f-82f6d0c9e7f0" data-name="Calque 2"><g id="caddd625-ec44-41c8-9d6a-d13c05af6295" data-name="Calque 2"><g opacity="0.32"><line x1="460.5" y1="460" x2="699.93" y2="220.57" fill="none" stroke="#59d2ef" stroke-linecap="round" stroke-linejoin="round" stroke-dasharray="8 8" opacity="0.4"/><line x1="559.7" y1="325.72" x2="733.86" y2="90" fill="none" stroke="#59d2ef" stroke-linecap="round" stroke-linejoin="round"/><line x1="531.81" y1="363.48" x2="550.77" y2="337.82" fill="none" stroke="#59d2ef" stroke-linecap="round" stroke-linejoin="round"/><line x1="460.5" y1="460" x2="499.7" y2="920" fill="none" stroke="#59d2ef" stroke-linecap="round" stroke-linejoin="round" opacity="0.4"/><line x1="460.5" y1="460" x2="12.87" y2="566.38" fill="none" stroke="#59d2ef" stroke-linecap="round" stroke-linejoin="round" opacity="0.2"/><line x1="352.47" y1="511.28" x2="136.87" y2="613.62" fill="none" stroke="#59d2ef" stroke-linecap="round" stroke-linejoin="round" stroke-dasharray="8 8"/><line x1="579.12" y1="478.26" x2="915.21" y2="530" fill="none" stroke="#59d2ef" stroke-linecap="round" stroke-linejoin="round" stroke-dasharray="8 8" opacity="0.2"/><line x1="395.35" y1="76.26" x2="386.47" y2="24" fill="none" stroke="#59d2ef" stroke-linecap="round" stroke-linejoin="round" stroke-dasharray="8 8" opacity="0.4"/><line x1="440.41" y1="341.68" x2="405.18" y2="134.19" fill="none" stroke="#59d2ef" stroke-linecap="round" stroke-linejoin="round" stroke-dasharray="8 8" opacity="0.4"/><circle id="c36f677d-1fa8-46c2-a3f3-de9a71bf2d9b" data-name="network" cx="460.5" cy="460" r="120" fill="none" stroke="#59d2ef" stroke-linecap="round" stroke-linejoin="round"/></g><circle id="6fe3ac23-5bfb-41e1-891c-fb30a1d7ce6a" data-name="network" cx="460.5" cy="460" r="90" fill="#59d2ef" opacity="0.08"/><circle id="244bb48e-a8c4-4163-b335-9f785ac08e3e" data-name="network" cx="460.5" cy="460" r="460" fill="none" opacity="0.04"/><circle cx="460.5" cy="460" r="60" fill="#113f6d"/><rect x="400.5" y="400" width="120" height="120" fill="none"/><rect x="400.5" y="400" width="120" height="120" fill="none"/><path d="M484,491.5H437a3,3,0,0,1-3-3v-57a3,3,0,0,1,3-3h38l12,12v48A3,3,0,0,1,484,491.5Z" fill="none" stroke="#fff" stroke-linecap="round" stroke-linejoin="round"/><path d="M475,428.5v9a3,3,0,0,0,3,3h9" fill="none" stroke="#fff" stroke-linecap="round" stroke-linejoin="round"/><line x1="441" y1="451.5" x2="480" y2="451.5" fill="none" stroke="#fff" stroke-linecap="round" stroke-linejoin="round"/><line x1="441" y1="461.5" x2="480" y2="461.5" fill="none" stroke="#fff" stroke-linecap="round" stroke-linejoin="round"/><line x1="441" y1="471.5" x2="480" y2="471.5" fill="none" stroke="#fff" stroke-linecap="round" stroke-linejoin="round"/><line x1="441" y1="481.5" x2="480" y2="481.5" fill="none" stroke="#fff" stroke-linecap="round" stroke-linejoin="round"/><circle id="e01db4c2-bf7d-43b2-b260-8830b4b0faec" data-name="network" cx="460.5" cy="460" r="60" opacity="0.2" stroke="#113f6d" stroke-linecap="round" stroke-linejoin="round" stroke-width="12" fill="none"/><g opacity="0.4"><polygon points="424.43 654.72 418.43 656.72 420.43 650.72 433.43 637.72 437.43 641.72 424.43 654.72" fill="none" stroke="#122844" stroke-linejoin="round"/><line x1="430.93" y1="640.22" x2="434.93" y2="644.22" fill="none" stroke="#122844" stroke-linejoin="round"/><line x1="420.43" y1="650.72" x2="424.43" y2="654.72" fill="none" stroke="#122844" stroke-linejoin="round"/><polygon points="421.43 655.72 419.43 653.72 418.43 656.72 421.43 655.72" fill="#122844"/></g><g opacity="0.2"><line x1="795.5" y1="205.93" x2="797.66" y2="216.97" fill="none" stroke="#122844" stroke-linecap="round" stroke-linejoin="round"/><path d="M798.33,222.93,808.58,221,805.33,204l-10.25,1.88a3,3,0,0,0-2.45,3.52l2.12,11.14A3.06,3.06,0,0,0,798.33,222.93Z" fill="none" stroke="#122844" stroke-linecap="round" stroke-linejoin="round"/><path d="M807.47,215.21l-10.28,1.85a3,3,0,0,0-2.45,3.51" fill="none" stroke="#122844" stroke-linecap="round" stroke-linejoin="round"/><line x1="798.13" y1="219.91" x2="807.95" y2="218.14" fill="none" stroke="#122844" stroke-linecap="round" stroke-linejoin="round"/></g><g opacity="0.2"><path d="M390.26,103.35h-12a3,3,0,0,0-3,3v6a6.28,6.28,0,0,1-3,5h3a3,3,0,0,0,1.87-.65,1.78,1.78,0,0,1,2.26,0,3,3,0,0,0,1.87.65h9a3,3,0,0,0,3-3v-8A3,3,0,0,0,390.26,103.35Z" fill="none" stroke="#122844" stroke-linecap="round" stroke-linejoin="round"/><path d="M382.26,103.31v-3a3,3,0,0,1,3-3h12a3,3,0,0,1,3,3v6a6.28,6.28,0,0,0,3,5h-3a3,3,0,0,1-1.87-.65,1.78,1.78,0,0,0-2.26,0,3,3,0,0,1-1.87.65h-1" fill="none" stroke="#122844" stroke-linecap="round" stroke-linejoin="round"/></g><g opacity="0.32"><path d="M43,464H34.15A1.16,1.16,0,0,0,33,465.15v5.35a7.5,7.5,0,0,0,15,0V464" fill="none" stroke="#122844" stroke-linecap="round" stroke-linejoin="round"/><path d="M48,466a1,1,0,0,0,1-1v-7a2,2,0,0,0-2-2H38a1,1,0,0,0-1,1v1H34a2,2,0,0,0-2,2v5a1,1,0,0,0,1,1" fill="none" stroke="#122844" stroke-linecap="round" stroke-linejoin="round"/><path d="M47,481a2,2,0,0,1-2-2v-2" fill="none" stroke="#122844" stroke-linecap="round" stroke-miterlimit="10"/><path d="M34,481a2,2,0,0,0,2-2v-2" fill="none" stroke="#122844" stroke-linecap="round" stroke-miterlimit="10"/><path d="M34,481H31a5,5,0,0,0-5,5v1" fill="none" stroke="#122844" stroke-linecap="round" stroke-miterlimit="10"/><path d="M47,481h3a5,5,0,0,1,5,5v1" fill="none" stroke="#122844" stroke-linecap="round" stroke-miterlimit="10"/><path d="M47,481.22c0,3.19-2.91,5.78-6.5,5.78s-6.5-2.59-6.5-5.78" fill="none" stroke="#122844" stroke-linecap="round" stroke-miterlimit="10"/></g><g opacity="0.32"><circle cx="741.82" cy="683.09" r="2" fill="none" stroke="#122844" stroke-miterlimit="10"/><path d="M739.82,666.09v4a15,15,0,0,1,15,15h4A19,19,0,0,0,739.82,666.09Z" fill="none" stroke="#122844" stroke-linecap="round" stroke-linejoin="round"/><path d="M739.82,673.09v4a8,8,0,0,1,8,8h4A12,12,0,0,0,739.82,673.09Z" fill="none" stroke="#122844" stroke-linecap="round" stroke-linejoin="round"/></g><g opacity="0.08"><path id="76095a54-0d56-4b89-a8d3-def2f59f26f9" data-name="network" d="M832,608.58C773,755.93,628.91,860,460.5,860a399.3,399.3,0,0,1-139.25-24.9" fill="none" stroke="#113f6d" stroke-linecap="round" stroke-linejoin="round" stroke-dasharray="8 8"/><circle cx="400.5" cy="855.52" r="4" fill="#113f6d"/></g><g opacity="0.4"><path id="bb2b4a83-b209-4789-ac04-a4c0cdab1e93" data-name="network" d="M584.45,561.18A159.69,159.69,0,0,1,460.5,620q-6.06,0-12-.44" fill="none" stroke="#122844" stroke-linecap="round" stroke-linejoin="round" stroke-dasharray="8 8"/><circle cx="584.45" cy="561.18" r="4" fill="#122844"/></g><g opacity="0.4"><path id="a45d1086-2585-45b3-9c1e-519191b45972" data-name="network" d="M376.63,335.62A150.42,150.42,0,0,1,499.7,315.17" fill="none" stroke="#113f6d" stroke-linecap="round" stroke-linejoin="round"/><path id="7535b1de-8a17-4d7c-80d1-b7c28bda5de8" data-name="network" d="M394.56,314.18a160.2,160.2,0,0,1,158.63,15.39" fill="none" stroke="#113f6d" stroke-linecap="round" stroke-linejoin="round" stroke-dasharray="8 8"/><circle cx="561.14" cy="335.61" r="10" fill="none" stroke="#113f6d" stroke-linecap="round" stroke-linejoin="round"/></g><g opacity="0.6"><path id="5d2010e7-b070-482d-80a4-7eb812303379" data-name="network" d="M460.5,280a179.8,179.8,0,0,1,157.89,93.49" fill="none" stroke="#113f6d" stroke-linecap="round" stroke-linejoin="round"/><circle cx="553.77" cy="306.02" r="3" fill="#113f6d"/></g><g opacity="0.6"><path id="2ce3f6e8-5028-4998-977c-5e2e4928c700" data-name="network" d="M581.36,606.61A189.21,189.21,0,0,1,460.5,650q-6,0-11.93-.37" fill="none" stroke="#59d2ef" stroke-linecap="round" stroke-linejoin="round"/><circle cx="427.93" cy="647.22" r="20" fill="none" stroke="#59d2ef" stroke-linecap="round" stroke-linejoin="round"/></g><g opacity="0.32"><path id="ff93a24b-421a-4de9-bbff-ed2aedbe2c74" data-name="network" d="M530.51,710.47A260.72,260.72,0,0,1,315.13,675.6" fill="none" stroke="#59d2ef" stroke-linecap="round" stroke-linejoin="round"/><circle cx="400.5" cy="713.04" r="4" fill="#59d2ef"/></g><g opacity="0.4"><path id="27443fd3-b729-43d6-b9ba-897a8b751ebc" data-name="network" d="M328.2,550a159.29,159.29,0,0,1-27.7-90q0-8,.78-15.86" fill="none" stroke="#122844" stroke-linecap="round" stroke-linejoin="round"/><circle cx="302.27" cy="436.14" r="8" fill="none" stroke="#122844" stroke-linecap="round" stroke-linejoin="round"/></g><g opacity="0.6"><path id="8df73704-3006-49e5-bacf-c20f973c7132" data-name="network" d="M270.5,460a189.11,189.11,0,0,1,22.63-90" fill="none" stroke="#007e9b" stroke-linecap="round" stroke-linejoin="round"/><path id="db5d3f52-aa40-46f0-baab-e29533fe52d7" data-name="network" d="M290.74,520a180.7,180.7,0,0,1,4.6-131.68" fill="none" stroke="#007e9b" stroke-linecap="round" stroke-linejoin="round" stroke-dasharray="8 8"/><circle cx="289.73" cy="402.98" r="4" fill="#007e9b"/></g><circle cx="290.67" cy="743" r="10" fill="none" stroke="#122844" stroke-linecap="round" stroke-linejoin="round" opacity="0.2"/><g opacity="0.4"><path id="d7dc6117-83fe-4389-bb56-0ca928d73a24" data-name="network" d="M588.17,233.45A260.41,260.41,0,0,1,718.61,491.5" fill="none" stroke="#007e9b" stroke-linecap="round" stroke-linejoin="round"/><path id="176b6dae-095e-451c-b807-50e26f0a02e8" data-name="network" d="M460.5,200q10.35,0,20.5.8a258.37,258.37,0,0,1,89.4,23.5" fill="none" stroke="#007e9b" stroke-linecap="round" stroke-linejoin="round"/><circle cx="579.37" cy="228.71" r="10" fill="none" stroke="#007e9b" stroke-linecap="round" stroke-linejoin="round"/></g><circle cx="40.5" cy="471.5" r="32" fill="none" stroke="#007e9b" stroke-linecap="round" stroke-linejoin="round" opacity="0.4"/><g opacity="0.32"><path id="32cc05e4-5b80-48e7-8cfc-2cf3f859cc46" data-name="network" d="M186.94,400A279.93,279.93,0,0,1,281.8,244.43" fill="none" stroke="#122844" stroke-linecap="round" stroke-linejoin="round"/><path id="c46693bd-eee0-4814-9774-a1cc26e1fa0e" data-name="network" d="M185,317.8A311.4,311.4,0,0,1,314.35,186.55" fill="none" stroke="#122844" stroke-linecap="round" stroke-linejoin="round" stroke-dasharray="8 8"/><circle cx="285.73" cy="203.93" r="4" fill="#122844"/></g><circle cx="747.32" cy="677.59" r="20" fill="none" stroke="#007e9b" stroke-linecap="round" stroke-linejoin="round" opacity="0.32"/><g opacity="0.12"><path id="0916b994-8f16-4ff3-8f57-d1b20e2ab822" data-name="network" d="M427.93,41.24Q444.06,40,460.5,40c132.67,0,251,61.52,328,157.58" fill="none" stroke="#007e9b" stroke-linecap="round" stroke-linejoin="round"/><circle cx="800.58" cy="213.48" r="20" fill="none" stroke="#007e9b" stroke-linecap="round" stroke-linejoin="round"/><circle cx="560.57" cy="52" r="3" fill="#007e9b"/></g><g opacity="0.08"><path id="94e16800-6b94-4db0-afcd-f2a1d0d086dc" data-name="network" d="M243,124.25A400.15,400.15,0,0,1,727.35,162" fill="none" stroke="#113f6d" stroke-linecap="round" stroke-linejoin="round"/><circle cx="641.09" cy="103" r="4" fill="#113f6d"/></g><g opacity="0.2"><path id="52eb38a3-4a2c-43e3-bfd9-82dc08cf4035" data-name="network" d="M205.42,206a359.92,359.92,0,0,1,151.31-90.78" fill="none" stroke="#007e9b" stroke-linecap="round" stroke-linejoin="round"/><circle cx="387.76" cy="107.35" r="32" fill="none" stroke="#007e9b" stroke-linecap="round" stroke-linejoin="round"/></g><g opacity="0.32"><path id="8da50fb2-0835-4444-87f3-6ce4415e33d3" data-name="network" d="M41.45,431.52a419.46,419.46,0,0,1,8-58" fill="none" stroke="#59d2ef" stroke-linecap="round" stroke-linejoin="round"/><path id="da944fd0-60a5-4ee0-9c56-96bf0202d844" data-name="network" d="M96.2,669.16A417.33,417.33,0,0,1,43.63,511.5" fill="none" stroke="#59d2ef" stroke-linecap="round" stroke-linejoin="round"/><circle cx="40.5" cy="471.5" r="40" fill="none" stroke="#59d2ef" stroke-linecap="round" stroke-linejoin="round"/></g><g opacity="0.12"><path id="ab64165e-3961-48cf-bfa8-82d94e764e46" data-name="network" d="M277.16,734.43A331.26,331.26,0,0,1,157.35,590.59" fill="none" stroke="#122844" stroke-linecap="round" stroke-linejoin="round"/><path id="7285490c-3a76-4ae4-8639-21152df901a5" data-name="network" d="M427.93,788.41a327.73,327.73,0,0,1-123.35-37.5" fill="none" stroke="#122844" stroke-linecap="round" stroke-linejoin="round"/><circle cx="157.35" cy="590.59" r="4" fill="#122844"/><circle cx="290.67" cy="743" r="16" fill="none" stroke="#122844" stroke-linecap="round" stroke-linejoin="round"/></g><g opacity="0.2"><path id="e47fb910-536f-4ff5-a327-583e1b87c5db" data-name="network" d="M732.18,696.21A362.4,362.4,0,0,1,689.23,738" fill="none" stroke="#113f6d" stroke-linecap="round" stroke-linejoin="round"/><path id="753742a8-6dcf-4480-b79b-52dd8f6a2fad" data-name="network" d="M820,479.15A357.94,357.94,0,0,1,761.19,658" fill="none" stroke="#113f6d" stroke-linecap="round" stroke-linejoin="round"/><circle cx="747.32" cy="677.59" r="24" fill="none" stroke="#113f6d" stroke-linecap="round" stroke-linejoin="round"/><circle cx="815.04" cy="522.81" r="4" fill="#113f6d"/></g><g opacity="0.4"><path id="3328225a-f3b8-4ad1-b706-86b275746de7" data-name="network" d="M638,243.4A280.16,280.16,0,0,1,704.18,598" fill="none" stroke="#59d2ef" stroke-linecap="round" stroke-linejoin="round" stroke-dasharray="8 8"/><circle cx="699.09" cy="606.62" r="10" fill="none" stroke="#59d2ef" stroke-miterlimit="10"/></g><circle id="07d55202-d1f1-4318-8de2-9f27256297b9" data-name="network" cx="460.5" cy="460" r="140" opacity="0.08" stroke="#59d2ef" stroke-linecap="round" stroke-linejoin="round" stroke-width="8" fill="none"/><circle id="86bbd2d6-f399-4762-9d15-b905dc98066b" data-name="network" cx="460.5" cy="460" r="300" opacity="0.04" stroke="#59d2ef" stroke-linecap="round" stroke-linejoin="round" stroke-width="8" fill="none"/></g></g></svg>