<svg xmlns="http://www.w3.org/2000/svg" xmlns:xlink="http://www.w3.org/1999/xlink" viewBox="0 0 921 921"><defs><linearGradient id="5f2e0fca-5cf0-4f25-9580-7ea8ae2c536d" x1="427.7" y1="414.75" x2="478.36" y2="485.41" gradientUnits="userSpaceOnUse"><stop offset="0" stop-color="#59d2ef" stop-opacity="0.15"/><stop offset="1" stop-color="#59d2ef"/></linearGradient></defs><title>illustration_components</title><g id="f0df3501-8c50-484a-bfca-b7ae8ec47dd5" data-name="Calque 2"><g id="722372be-e1b8-4291-9028-72be1c9efd4c" data-name="Calque 2"><circle id="c4ef2738-8be8-49a2-be8f-03587db3180d" data-name="network" cx="460.5" cy="460.5" r="70" fill="none" stroke="#38a7c3" stroke-miterlimit="10" opacity="0.32"/><circle cx="224.36" cy="416.5" r="32" fill="none" stroke="#38a7c3" stroke-miterlimit="10" opacity="0.8"/><circle cx="634.65" cy="514.13" r="32" fill="none" stroke="#38a7c3" stroke-miterlimit="10" opacity="0.8"/><circle cx="344.5" cy="460.5" r="16" fill="none" stroke="#38a7c3" stroke-miterlimit="10" opacity="0.6"/><circle cx="598.38" cy="401.42" r="16" fill="none" stroke="#59d2ef" stroke-miterlimit="10"/><g opacity="0.25"><path id="7e9dcee8-cf1a-47c8-89e6-a6e800ae6b2f" data-name="network" d="M347,436.5a116,116,0,1,1,0,47.88" fill="none" stroke="#122844" stroke-linecap="round" stroke-linejoin="round"/><circle cx="552.5" cy="389.42" r="4" fill="#122844"/></g><g opacity="0.4"><path id="57fc4277-a83e-4eb7-b9bc-1084bdf5f4d4" data-name="network" d="M620.44,551.53a184,184,0,1,1,24.06-91q0,7.42-.58,14.71" fill="none" stroke="#122844" stroke-linecap="round" stroke-linejoin="round"/><path d="M643.74,475.17a40,40,0,1,1-23.33,76.35" fill="none" stroke="#122844" stroke-miterlimit="10"/></g><path id="a8926bb3-de6d-469b-b28b-17b08f65b70d" data-name="network" d="M770.1,476.45C761.79,640.25,626.36,770.5,460.5,770.5c-171.21,0-310-138.79-310-310s138.79-310,310-310c149.81,0,274.8,106.26,303.7,247.52" fill="none" stroke="#59d2ef" stroke-linecap="round" stroke-miterlimit="10" stroke-dasharray="8 8" opacity="0.25"/><g opacity="0.08"><circle cx="90.89" cy="444.11" r="16" fill="none" stroke="#122844" stroke-miterlimit="10"/><path id="e3753cc9-6360-43cb-be8c-1e8771564f70" data-name="network" d="M91.9,428.14C108.29,239,267.06,90.5,460.5,90.5c204.35,0,370,165.65,370,370s-165.65,370-370,370-370-165.65-370-370" fill="none" stroke="#122844" stroke-linecap="round" stroke-linejoin="round"/></g><g opacity="0.6"><g id="1a6aa752-1d3b-4be5-8c6b-d5ea2d648b0d" data-name="network"><circle cx="460.5" cy="460.5" r="90" fill="none" stroke="#59d2ef" stroke-linecap="round" stroke-miterlimit="10" stroke-dasharray="8.08 8.08"/></g><circle cx="403.62" cy="390.5" r="3" fill="#59d2ef"/><circle cx="430.13" cy="545.22" r="3" fill="#59d2ef"/></g><g opacity="0.4"><path id="b9dceb63-acaa-4db8-b52b-aaf9ef9a69e9" data-name="network" d="M591.25,534.07a150.05,150.05,0,0,1-276.57-38.24" fill="none" stroke="#38a7c3" stroke-linecap="round" stroke-linejoin="round"/><path id="caeeeffa-11d6-460a-8c13-3e9acdc5ebcf" data-name="network" d="M606.07,424.16a150.57,150.57,0,0,1,4.43,36.34q0,6.28-.51,12.44" fill="none" stroke="#38a7c3" stroke-linecap="round" stroke-linejoin="round"/><path id="a057b254-d044-4b31-b5dc-964b9fb29b9f" data-name="network" d="M460.5,310.5a149.87,149.87,0,0,1,126.7,69.68" fill="none" stroke="#38a7c3" stroke-linecap="round" stroke-linejoin="round"/><circle cx="322.48" cy="493.88" r="8" fill="none" stroke="#38a7c3" stroke-miterlimit="10"/><circle cx="598.38" cy="401.42" r="24" fill="none" stroke="#38a7c3" stroke-miterlimit="10"/></g><g opacity="0.4"><circle cx="759.58" cy="438.08" r="32" fill="none" stroke="#122844" stroke-miterlimit="10"/><circle cx="182.88" cy="520.5" r="16" fill="none" stroke="#122844" stroke-miterlimit="10"/><path id="18e0b856-2e62-4ac8-ae02-d0dde86a6970" data-name="network" d="M760.35,470.07C755.29,631.33,623,760.5,460.5,760.5c-143.86,0-264.07-101.26-293.24-236.38" fill="none" stroke="#122844" stroke-linecap="round" stroke-linejoin="round"/><path id="a80ec5dd-5caf-4a69-ad22-d3024d50ce9a" data-name="network" d="M171.07,381.28C205.82,254,322.24,160.5,460.5,160.5c147.19,0,269.62,106,295.12,245.83" fill="none" stroke="#122844" stroke-linecap="round" stroke-linejoin="round"/><circle cx="171.03" cy="381.27" r="4" fill="#122844"/></g><circle id="8231341d-aef3-4c4b-8958-a75a116c5e0e" data-name="network" cx="460.5" cy="460.5" r="460" fill="none" stroke="#122844" stroke-linecap="round" stroke-linejoin="round" opacity="0.04"/><g opacity="0.12"><path id="e5dd5139-1889-46c5-b7b1-4512a55ab95d" data-name="network" d="M860.16,477.16C851.43,690.35,675.83,860.5,460.5,860.5c-220.91,0-400-179.09-400-400s179.09-400,400-400C654.18,60.5,815.71,198.16,852.59,381" fill="none" stroke="#38a7c3" stroke-linecap="round" stroke-linejoin="round"/><circle cx="61.36" cy="483" r="3" fill="#38a7c3"/><circle cx="876.16" cy="477.18" r="16" fill="none" stroke="#38a7c3" stroke-miterlimit="10"/><circle cx="854.07" cy="388.83" r="8" fill="none" stroke="#38a7c3" stroke-miterlimit="10"/></g><g opacity="0.6"><path id="6650c7af-d2e3-4758-a635-bdc0f3c1c319" data-name="network" d="M235.06,378C268.71,286.08,357,220.5,460.5,220.5c132.55,0,240,107.45,240,240s-107.45,240-240,240-240-107.45-240-240c0-1.34,0-2.67,0-4" fill="none" stroke="#59d2ef" stroke-linecap="round" stroke-linejoin="round"/><circle cx="224.36" cy="416.5" r="40" fill="none" stroke="#59d2ef" stroke-miterlimit="10"/><circle cx="699.09" cy="486.63" r="4" fill="#59d2ef"/></g><g opacity="0.8"><path id="e085280a-a114-4769-a908-90e0525ff30e" data-name="network" d="M622.1,560.47a189.87,189.87,0,0,1-161.6,90c-104.93,0-190-85.07-190-190s85.07-190,190-190,190,85.07,190,190c0,.84,0,1.69,0,2.53" fill="none" stroke="#122844" stroke-linecap="round" stroke-linejoin="round"/><circle cx="658.5" cy="463.03" r="8" fill="none" stroke="#122844" stroke-miterlimit="10"/><circle cx="283.05" cy="392.66" r="3" fill="#122844"/></g><g opacity="0.2"><line x1="85.89" y1="449.61" x2="95.89" y2="449.61" fill="none" stroke="#122844" stroke-linecap="round" stroke-linejoin="round"/><rect x="85.39" y="434.61" width="11" height="19" rx="1" ry="1" fill="none" stroke="#122844" stroke-linecap="round" stroke-linejoin="round"/><line x1="90.39" y1="451.61" x2="91.39" y2="451.61" fill="none" stroke="#122844" stroke-linecap="round" stroke-linejoin="round"/></g><g opacity="0.6"><circle cx="759.58" cy="438.08" r="4.5" fill="none" stroke="#122844" stroke-linecap="round" stroke-linejoin="round"/><path d="M774,440.58a1,1,0,0,0,1-.91c0-.52.09-1.05.09-1.59s0-1.07-.09-1.59a1,1,0,0,0-1-.91h-1.37a1,1,0,0,1-1-.77,12.42,12.42,0,0,0-1.23-2.95,1,1,0,0,1,.14-1.23l1-1a1,1,0,0,0,.06-1.35,13.81,13.81,0,0,0-2.25-2.25,1,1,0,0,0-1.35.06l-1,1a1,1,0,0,1-1.23.14,12.35,12.35,0,0,0-2.95-1.23,1,1,0,0,1-.77-1v-1.37a1,1,0,0,0-.91-1,14.09,14.09,0,0,0-3.18,0,1,1,0,0,0-.91,1V425a1,1,0,0,1-.77,1,12.35,12.35,0,0,0-2.95,1.23,1,1,0,0,1-1.23-.14l-1-1a1,1,0,0,0-1.35-.06,13.81,13.81,0,0,0-2.25,2.25,1,1,0,0,0,.06,1.35l1,1a1,1,0,0,1,.14,1.23,12.42,12.42,0,0,0-1.23,2.95,1,1,0,0,1-1,.77h-1.37a1,1,0,0,0-1,.91,14.09,14.09,0,0,0,0,3.18,1,1,0,0,0,1,.91h1.37a1,1,0,0,1,1,.77,12.77,12.77,0,0,0,1.23,2.95,1,1,0,0,1-.14,1.22l-1,1a1,1,0,0,0-.06,1.35,13.81,13.81,0,0,0,2.25,2.25,1,1,0,0,0,1.35-.07l1-1a1,1,0,0,1,1.23-.14,12.32,12.32,0,0,0,2.95,1.22,1,1,0,0,1,.77,1v1.37a1,1,0,0,0,.91,1,12.69,12.69,0,0,0,3.18,0,1,1,0,0,0,.91-1v-1.37a1,1,0,0,1,.77-1,12.32,12.32,0,0,0,2.95-1.22,1,1,0,0,1,1.23.14l1,1a1,1,0,0,0,1.35.07,13.81,13.81,0,0,0,2.25-2.25,1,1,0,0,0-.06-1.35l-1-1a1,1,0,0,1-.14-1.22,12.77,12.77,0,0,0,1.23-2.95,1,1,0,0,1,1-.77Z" fill="none" stroke="#122844" stroke-linecap="round" stroke-linejoin="round"/></g><g opacity="0.6"><polygon points="179.38 528 173.38 530 175.38 524 188.38 511 192.38 515 179.38 528" fill="none" stroke="#122844" stroke-linejoin="round"/><line x1="185.88" y1="513.5" x2="189.88" y2="517.5" fill="none" stroke="#122844" stroke-linejoin="round"/><line x1="175.38" y1="524" x2="179.38" y2="528" fill="none" stroke="#122844" stroke-linejoin="round"/><polygon points="173.38 530 176.38 529 174.38 527 173.38 530" fill="#122844"/></g><g opacity="0.8"><circle cx="344.5" cy="454.5" r="3.5" fill="none" stroke="#122844" stroke-linecap="round" stroke-linejoin="round"/><path d="M350,466.7a5.5,5.5,0,1,0-11,0V470h11Z" fill="none" stroke="#122844" stroke-linecap="round" stroke-linejoin="round"/></g><g opacity="0.4"><path d="M884.66,479.68h-14a1,1,0,0,1-1-1v-10h-2" fill="none" stroke="#122844" stroke-linecap="round" stroke-linejoin="round"/><circle cx="872.66" cy="483.68" r="2" fill="none" stroke="#122844" stroke-miterlimit="10"/><circle cx="882.66" cy="483.68" r="2" fill="none" stroke="#122844" stroke-miterlimit="10"/><path d="M869.66,469.68h15v4a3,3,0,0,1-3,3h-12" fill="none" stroke="#122844" stroke-linejoin="round"/></g><circle cx="460.5" cy="460.5" r="60" fill="url(#5f2e0fca-5cf0-4f25-9580-7ea8ae2c536d)"/><rect x="400.5" y="400.5" width="120" height="120" fill="none"/><rect x="400.5" y="400.5" width="120" height="120" fill="none"/><path d="M235.86,432h-23a1,1,0,0,1-1-1V402a1,1,0,0,1,1-1h18l6,6v24A1,1,0,0,1,235.86,432Z" fill="none" stroke="#122844" stroke-linecap="round" stroke-linejoin="round"/><path d="M230.86,401v5a1,1,0,0,0,1,1h5" fill="none" stroke="#122844" stroke-linecap="round" stroke-linejoin="round"/><polyline points="221.87 413 217.86 417 221.87 421" fill="none" stroke="#122844" stroke-linecap="round" stroke-linejoin="round"/><polyline points="226.86 413 230.87 417 226.86 421" fill="none" stroke="#122844" stroke-linecap="round" stroke-linejoin="round"/><line x1="619.65" y1="509.63" x2="649.65" y2="509.63" fill="none" stroke="#122444" stroke-linecap="round" stroke-linejoin="round"/><circle cx="622.65" cy="506.13" r="1" fill="#122444"/><path d="M620.15,525.63a1,1,0,0,1-1-1v-21a1,1,0,0,1,1-1l29,0a1,1,0,0,1,1,1v21a1,1,0,0,1-1,1Z" fill="none" stroke="#122444" stroke-miterlimit="10"/><circle cx="626.65" cy="506.13" r="1" fill="#122444"/><circle cx="630.65" cy="506.13" r="1" fill="#122444"/><circle cx="634.65" cy="521.13" r="2.5" fill="none" stroke="#122444" stroke-linecap="round" stroke-linejoin="round"/><path d="M640.9,525.26a7.31,7.31,0,0,0,1.1-2.63h2a8.72,8.72,0,0,0,0-3h-2a7.31,7.31,0,0,0-1.1-2.63l1.44-1.43a8.51,8.51,0,0,0-2.13-2.13l-1.43,1.44a7.31,7.31,0,0,0-2.63-1.1v-2a8.72,8.72,0,0,0-3,0v2a7.31,7.31,0,0,0-2.63,1.1l-1.44-1.44a10.54,10.54,0,0,0-1.15,1,9.62,9.62,0,0,0-1,1.16l1.43,1.43a7.3,7.3,0,0,0-1.09,2.63h-2a8.72,8.72,0,0,0,0,3h2a7.3,7.3,0,0,0,1.09,2.63" fill="none" stroke="#122444" stroke-linecap="round" stroke-linejoin="round"/><line x1="589.44" y1="397.91" x2="607.32" y2="397.91" fill="none" stroke="#122844" stroke-linecap="round" stroke-linejoin="round"/><circle cx="590.88" cy="395.92" r="0.5" fill="#122844"/><circle cx="592.88" cy="395.91" r="0.5" fill="#122844"/><circle cx="594.88" cy="395.92" r="0.5" fill="#122844"/><rect x="588.88" y="393.92" width="19" height="15" rx="1" ry="1" fill="none" stroke="#122844" stroke-linecap="round" stroke-linejoin="round"/><circle cx="598.38" cy="403.42" r="4.5" fill="none" stroke="#122844" stroke-linecap="round" stroke-linejoin="round"/><ellipse cx="598.38" cy="403.42" rx="1.5" ry="4.5" fill="none" stroke="#122844" stroke-linecap="round" stroke-linejoin="round"/><line x1="594.13" y1="401.92" x2="602.63" y2="401.92" fill="none" stroke="#122844" stroke-linecap="round" stroke-linejoin="round"/><line x1="594.13" y1="404.92" x2="602.63" y2="404.92" fill="none" stroke="#122844" stroke-linecap="round" stroke-linejoin="round"/><path d="M461,491H433a3,3,0,0,1-3-3V461" fill="none" stroke="#122844" stroke-linecap="round" stroke-linejoin="round"/><path d="M491,461v27a3,3,0,0,1-3,3H461V480h3.26a5.5,5.5,0,1,0,0-7H461V461h12v-3.26a5.5,5.5,0,1,1,7,0V461Z" fill="none" stroke="#122844" stroke-linecap="round" stroke-linejoin="round"/><line x1="461" y1="430" x2="462" y2="430" fill="none" stroke="#122844" stroke-linecap="round" stroke-linejoin="round"/><path d="M465,430h23a3,3,0,0,1,3,3v25.51" fill="none" stroke="#122844" stroke-linecap="round" stroke-linejoin="round" stroke-dasharray="1.99 2.98"/><line x1="491" y1="460" x2="491" y2="461" fill="none" stroke="#122844" stroke-linecap="round" stroke-linejoin="round"/><path d="M430,461V433a3,3,0,0,1,3-3h28v12h-3.26a5.5,5.5,0,1,0,0,7H461v12H449v3.26a5.5,5.5,0,1,1-7,0V461Z" fill="none" stroke="#122844" stroke-linecap="round" stroke-linejoin="round"/></g></g></svg>