<svg xmlns="http://www.w3.org/2000/svg" viewBox="0 0 621 621"><defs><style>.cls-1{opacity:0.15;}.cls-10,.cls-2{opacity:0.25;}.cls-10,.cls-3,.cls-6,.cls-8{fill:none;stroke:#fff;}.cls-10,.cls-3,.cls-8{stroke-linecap:round;}.cls-3{stroke-linejoin:round;}.cls-4{fill:#fff;}.cls-5{opacity:0.4;}.cls-10,.cls-6,.cls-8{stroke-miterlimit:10;}.cls-7{opacity:0.6;}.cls-8{stroke-dasharray:8.08 8.08;}.cls-9{opacity:0.8;}.cls-10{stroke-dasharray:8 8;}</style></defs><title>UXgalaxy_illust</title><g id="Calque_2" data-name="Calque 2"><g id="desktop"><g class="cls-1"><g class="cls-2"><path id="network" class="cls-3" d="M197,286.5a116,116,0,1,1,0,47.88"/><circle class="cls-4" cx="402.5" cy="239.42" r="4"/></g><g class="cls-5"><path id="network-2" data-name="network" class="cls-3" d="M470.44,401.53a184,184,0,1,1,24.06-91q0,7.42-.58,14.71"/><path class="cls-6" d="M493.74,325.17a40,40,0,1,1-23.33,76.35"/><circle class="cls-6" cx="484.65" cy="364.13" r="32"/></g><g class="cls-7"><g id="network-3" data-name="network"><circle class="cls-8" cx="310.5" cy="310.5" r="90"/></g><circle class="cls-4" cx="253.62" cy="240.5" r="3"/><circle class="cls-4" cx="280.13" cy="395.22" r="3"/></g><g class="cls-5"><path id="network-4" data-name="network" class="cls-3" d="M441.25,384.07a150.05,150.05,0,0,1-276.57-38.24"/><path id="network-5" data-name="network" class="cls-3" d="M456.07,274.16a150.57,150.57,0,0,1,4.43,36.34q0,6.28-.51,12.44"/><path id="network-6" data-name="network" class="cls-3" d="M310.5,160.5a149.87,149.87,0,0,1,126.7,69.68"/><circle class="cls-6" cx="172.48" cy="343.88" r="8"/><circle class="cls-6" cx="448.38" cy="251.42" r="24"/></g><g class="cls-7"><path id="network-7" data-name="network" class="cls-3" d="M85.06,228C118.71,136.08,207,70.5,310.5,70.5c132.55,0,240,107.45,240,240s-107.45,240-240,240-240-107.45-240-240c0-1.34,0-2.67,0-4"/><circle class="cls-6" cx="74.36" cy="266.5" r="40"/><circle class="cls-4" cx="549.09" cy="336.63" r="4"/></g><g class="cls-9"><path id="network-8" data-name="network" class="cls-3" d="M472.1,410.47a189.87,189.87,0,0,1-161.6,90c-104.93,0-190-85.07-190-190s85.07-190,190-190,190,85.07,190,190c0,.84,0,1.69,0,2.53"/><circle class="cls-6" cx="508.5" cy="313.03" r="8"/><circle class="cls-4" cx="133.05" cy="242.66" r="3"/></g><circle class="cls-10" cx="310.5" cy="310.5" r="310"/></g></g></g></svg>